<?xml version="1.0" encoding="UTF-8"?>
<svg width="473px" height="235px" viewBox="0 0 473 235" version="1.1" xmlns="http://www.w3.org/2000/svg" xmlns:xlink="http://www.w3.org/1999/xlink">
    <!-- Generator: Sketch 49.1 (51147) - http://www.bohemiancoding.com/sketch -->
    <title>anti-crypto</title>
    <desc>Created with Sketch.</desc>
    <defs></defs>
    <g id="anti-crypto" stroke="none" stroke-width="1" fill="none" fill-rule="evenodd">
        <path d="M144.791016,49.2792969 L144.791016,48.3828125 C144.791016,48.1953116 144.864257,48.028321 145.010742,47.8818359 C145.157227,47.7353508 145.324218,47.6621094 145.511719,47.6621094 L147.427734,47.6621094 C147.615235,47.6621094 147.708984,47.5800789 147.708984,47.4160156 L147.708984,44.7792969 C147.708984,44.7324216 147.703125,44.6855471 147.691406,44.6386719 C147.679687,44.5917966 147.626954,44.5683594 147.533203,44.5683594 L145.511719,44.5683594 C145.324218,44.5683594 145.157227,44.4951179 145.010742,44.3486328 C144.864257,44.2021477 144.791016,44.0351572 144.791016,43.8476562 L144.791016,42.9511719 C144.791016,42.7636709 144.864257,42.5966804 145.010742,42.4501953 C145.157227,42.3037102 145.324218,42.2304688 145.511719,42.2304688 L147.603516,42.2304688 C147.767579,42.2304688 147.849609,42.1542976 147.849609,42.0019531 C147.849609,40.9472604 148.048826,39.9101613 148.447266,38.890625 C148.845705,37.8710887 149.40527,36.9658243 150.125977,36.1748047 C150.846683,35.3837851 151.705073,34.74219 152.701172,34.25 C153.697271,33.75781 154.792963,33.5117188 155.988281,33.5117188 C157.160162,33.5117188 158.244136,33.7167948 159.240234,34.1269531 C160.236333,34.5371114 161.083004,35.0820279 161.780273,35.7617188 C162.477543,36.4414096 163.025389,37.2382767 163.423828,38.1523438 C163.822268,39.0664108 164.021484,40.0156201 164.021484,41 L164.021484,41.140625 C164.021484,41.3281259 163.948243,41.4951165 163.801758,41.6416016 C163.655273,41.7880867 163.488282,41.8613281 163.300781,41.8613281 L162.316406,41.8613281 C162.128905,41.8613281 161.961915,41.7910163 161.81543,41.6503906 C161.668945,41.5097649 161.595703,41.3398447 161.595703,41.140625 L161.595703,41 C161.595703,40.3320279 161.463869,39.6845734 161.200195,39.0576172 C160.936522,38.4306609 160.558596,37.8769555 160.066406,37.3964844 C159.574216,36.9160132 158.988285,36.532228 158.308594,36.2451172 C157.628903,35.9580064 156.855473,35.8144531 155.988281,35.8144531 C155.121089,35.8144531 154.338871,35.9814436 153.641602,36.3154297 C152.944332,36.6494157 152.343753,37.1005831 151.839844,37.6689453 C151.335935,38.2373075 150.94629,38.893551 150.670898,39.6376953 C150.395506,40.3818397 150.257812,41.1581991 150.257812,41.9667969 C150.257812,42.1308602 150.322265,42.2187499 150.451172,42.2304688 L157.025391,42.2304688 C157.212892,42.2304688 157.379882,42.3007805 157.526367,42.4414062 C157.672852,42.582032 157.746094,42.7519521 157.746094,42.9511719 L157.746094,43.8476562 C157.746094,44.0351572 157.675782,44.2021477 157.535156,44.3486328 C157.394531,44.4951179 157.22461,44.5683594 157.025391,44.5683594 L150.257812,44.5683594 C150.140624,44.5683594 150.076172,44.597656 150.064453,44.65625 C150.052734,44.714844 150.046875,44.7675779 150.046875,44.8144531 L150.046875,47.4160156 C150.046875,47.5800789 150.117187,47.6621094 150.257812,47.6621094 L157.025391,47.6621094 C157.212892,47.6621094 157.379882,47.7324212 157.526367,47.8730469 C157.672852,48.0136726 157.746094,48.1835928 157.746094,48.3828125 L157.746094,49.2792969 C157.746094,49.4667978 157.675782,49.6337883 157.535156,49.7802734 C157.394531,49.9267585 157.22461,50 157.025391,50 L150.416016,50 C150.298828,50 150.231445,50.0292966 150.213867,50.0878906 C150.196289,50.1464847 150.1875,50.1992185 150.1875,50.2460938 C150.1875,51.1367232 150.295897,51.9833944 150.512695,52.7861328 C150.729493,53.5888712 151.072263,54.3037078 151.541016,54.9306641 C152.009768,55.5576203 152.610348,56.0556622 153.342773,56.4248047 C154.075199,56.7939472 154.957026,56.9785156 155.988281,56.9785156 C156.949224,56.9785156 157.784176,56.8115251 158.493164,56.4775391 C159.202152,56.143553 159.791013,55.7187526 160.259766,55.203125 C160.728518,54.6874974 161.068358,54.1220734 161.279297,53.5068359 C161.490235,52.8915985 161.595703,52.3203151 161.595703,51.7929688 L161.595703,51.6523438 C161.595703,51.4648428 161.668945,51.2978523 161.81543,51.1513672 C161.961915,51.0048821 162.128905,50.9316406 162.316406,50.9316406 L163.300781,50.9316406 C163.488282,50.9316406 163.655273,51.0048821 163.801758,51.1513672 C163.948243,51.2978523 164.021484,51.4648428 164.021484,51.6523438 L164.021484,51.7929688 C164.021484,52.9648496 163.80469,54.0136672 163.371094,54.9394531 C162.937498,55.865239 162.354496,56.6533171 161.62207,57.3037109 C160.889645,57.9541048 160.037114,58.4462874 159.064453,58.7802734 C158.091792,59.1142595 157.066412,59.28125 155.988281,59.28125 C154.933588,59.28125 153.908208,59.0908222 152.912109,58.7099609 C151.916011,58.3290997 151.040043,57.760746 150.28418,57.0048828 C149.528317,56.2490197 148.921877,55.3056697 148.464844,54.1748047 C148.00781,53.0439397 147.779297,51.7343824 147.779297,50.2460938 C147.779297,50.1992185 147.773438,50.1464847 147.761719,50.0878906 C147.75,50.0292966 147.685547,50 147.568359,50 L145.511719,50 C145.324218,50 145.157227,49.9267585 145.010742,49.7802734 C144.864257,49.6337883 144.791016,49.4667978 144.791016,49.2792969 Z" id="€" fill="#292A2B"></path>
        <path d="M134.072266,196.792969 L134.072266,196.230469 C134.072266,196.042968 134.145507,195.875977 134.291992,195.729492 C134.438477,195.583007 134.605468,195.509766 134.792969,195.509766 L135.707031,195.509766 C135.894532,195.509766 136.061523,195.580077 136.208008,195.720703 C136.354493,195.861329 136.427734,196.031249 136.427734,196.230469 L136.427734,196.792969 C136.427734,197.414066 136.539061,198.038083 136.761719,198.665039 C136.984376,199.291995 137.324216,199.85156 137.78125,200.34375 C138.238284,200.83594 138.803708,201.231444 139.477539,201.530273 C140.151371,201.829103 140.933589,201.978516 141.824219,201.978516 C143.476571,201.978516 144.783198,201.498052 145.744141,200.537109 C146.705083,199.576167 147.197266,198.328133 147.220703,196.792969 C147.244141,195.398431 146.781255,194.270512 145.832031,193.40918 C144.882808,192.547847 143.546884,192.023438 141.824219,191.835938 C140.792964,191.742187 139.843754,191.525392 138.976562,191.185547 C138.109371,190.845701 137.365237,190.400393 136.744141,189.849609 C136.123044,189.298825 135.636721,188.645512 135.285156,187.889648 C134.933592,187.133785 134.757812,186.263677 134.757812,185.279297 C134.757812,184.341792 134.910155,183.495121 135.214844,182.739258 C135.519533,181.983395 135.923826,181.330081 136.427734,180.779297 C136.931643,180.228513 137.517575,179.771486 138.185547,179.408203 C138.853519,179.04492 139.574215,178.792969 140.347656,178.652344 C140.582032,178.628906 140.699219,178.51172 140.699219,178.300781 L140.699219,177 C140.699219,176.812499 140.77246,176.645509 140.918945,176.499023 C141.06543,176.352538 141.232421,176.279297 141.419922,176.279297 L142.210938,176.279297 C142.398438,176.279297 142.565429,176.352538 142.711914,176.499023 C142.858399,176.645509 142.931641,176.812499 142.931641,177 L142.931641,178.300781 C142.943359,178.51172 143.066405,178.628906 143.300781,178.652344 C145.023446,178.968752 146.376948,179.739252 147.361328,180.963867 C148.345708,182.188483 148.837891,183.626945 148.837891,185.279297 L148.837891,185.753906 C148.837891,185.941407 148.767579,186.108398 148.626953,186.254883 C148.486327,186.401368 148.316407,186.474609 148.117188,186.474609 L147.255859,186.474609 C147.068358,186.474609 146.901368,186.401368 146.754883,186.254883 C146.608398,186.108398 146.535156,185.941407 146.535156,185.753906 L146.535156,185.279297 C146.535156,184.634762 146.41504,184.042971 146.174805,183.503906 C145.934569,182.964841 145.603518,182.496096 145.181641,182.097656 C144.759764,181.699217 144.261722,181.385743 143.6875,181.157227 C143.113278,180.92871 142.492191,180.814453 141.824219,180.814453 C141.02734,180.814453 140.330081,180.940428 139.732422,181.192383 C139.134763,181.444337 138.64258,181.781248 138.255859,182.203125 C137.869139,182.625002 137.579103,183.105466 137.385742,183.644531 C137.192382,184.183596 137.095703,184.728513 137.095703,185.279297 C137.095703,185.923831 137.236327,186.492185 137.517578,186.984375 C137.79883,187.476565 138.159177,187.898436 138.598633,188.25 C139.038088,188.601564 139.541989,188.879882 140.110352,189.084961 C140.678714,189.29004 141.249997,189.427734 141.824219,189.498047 C144.27345,189.791017 146.174798,190.552728 147.52832,191.783203 C148.881843,193.013678 149.558594,194.683583 149.558594,196.792969 C149.558594,197.824224 149.391603,198.761715 149.057617,199.605469 C148.723631,200.449223 148.272464,201.187497 147.704102,201.820312 C147.135739,202.453128 146.473637,202.968748 145.717773,203.367188 C144.96191,203.765627 144.156254,204.035156 143.300781,204.175781 C143.066405,204.199219 142.943359,204.322265 142.931641,204.544922 L142.931641,205.792969 C142.931641,205.98047 142.861329,206.14746 142.720703,206.293945 C142.580077,206.44043 142.410157,206.513672 142.210938,206.513672 L141.419922,206.513672 C141.232421,206.513672 141.06543,206.44336 140.918945,206.302734 C140.77246,206.162109 140.699219,205.992188 140.699219,205.792969 L140.699219,204.544922 C140.699219,204.333983 140.582032,204.210938 140.347656,204.175781 C139.386714,204.011718 138.522465,203.707033 137.754883,203.261719 C136.987301,202.816404 136.333987,202.262699 135.794922,201.600586 C135.255857,200.938473 134.833986,200.200199 134.529297,199.385742 C134.224608,198.571285 134.072266,197.707036 134.072266,196.792969 Z" id="$" fill="#292A2B"></path>
        <path d="M217.441406,112.279297 L217.441406,111.3125 C217.441406,111.124999 217.511718,110.958009 217.652344,110.811523 C217.792969,110.665038 217.96289,110.591797 218.162109,110.591797 L218.337891,110.591797 C218.701174,110.591797 219.043944,110.459962 219.366211,110.196289 C219.688478,109.932616 219.969725,109.566409 220.209961,109.097656 C220.450197,108.628904 220.643554,108.081058 220.790039,107.454102 C220.936524,106.827145 221.009766,106.156254 221.009766,105.441406 L221.009766,101.626953 C221.009766,101.509765 220.977539,101.407227 220.913086,101.319336 C220.848632,101.231445 220.757813,101.1875 220.640625,101.1875 L218.478516,101.1875 C218.291015,101.1875 218.124024,101.117188 217.977539,100.976562 C217.831054,100.835937 217.757812,100.666017 217.757812,100.466797 L217.757812,99.7460938 C217.757812,99.5585928 217.831054,99.3916023 217.977539,99.2451172 C218.124024,99.0986321 218.291015,99.0253906 218.478516,99.0253906 L220.640625,99.0253906 C220.875001,99.0253906 220.998047,98.9082043 221.009766,98.6738281 L221.009766,93.5585938 C221.009766,92.7148395 221.1416,91.9209022 221.405273,91.1767578 C221.668947,90.4326135 222.046873,89.785159 222.539062,89.234375 C223.031252,88.683591 223.623043,88.2470719 224.314453,87.9248047 C225.005863,87.6025375 225.773433,87.4414062 226.617188,87.4414062 C227.460942,87.4414062 228.237301,87.6025375 228.946289,87.9248047 C229.655277,88.2470719 230.261716,88.683591 230.765625,89.234375 C231.269534,89.785159 231.665038,90.4326135 231.952148,91.1767578 C232.239259,91.9209022 232.382812,92.7148395 232.382812,93.5585938 L232.382812,93.9277344 C232.382812,94.1152353 232.309571,94.2822258 232.163086,94.4287109 C232.016601,94.575196 231.84961,94.6484375 231.662109,94.6484375 L230.835938,94.6484375 C230.648437,94.6484375 230.481446,94.575196 230.334961,94.4287109 C230.188476,94.2822258 230.115234,94.1152353 230.115234,93.9277344 L230.115234,93.5585938 C230.115234,93.1718731 230.059571,92.7587913 229.948242,92.3193359 C229.836914,91.8798806 229.643556,91.4667988 229.368164,91.0800781 C229.092772,90.6933574 228.735354,90.3740247 228.295898,90.1220703 C227.856443,89.8701159 227.296878,89.7441406 226.617188,89.7441406 C225.949215,89.7441406 225.39844,89.8701159 224.964844,90.1220703 C224.531248,90.3740247 224.194337,90.6933574 223.954102,91.0800781 C223.713866,91.4667988 223.546875,91.8798806 223.453125,92.3193359 C223.359375,92.7587913 223.3125,93.1718731 223.3125,93.5585938 L223.3125,98.6738281 C223.3125,98.9082043 223.429686,99.0253906 223.664062,99.0253906 L229.21875,99.0253906 C229.406251,99.0253906 229.573241,99.0986321 229.719727,99.2451172 C229.866212,99.3916023 229.939453,99.5585928 229.939453,99.7460938 L229.939453,100.466797 C229.939453,100.654298 229.866212,100.821288 229.719727,100.967773 C229.573241,101.114259 229.406251,101.1875 229.21875,101.1875 L223.664062,101.1875 C223.546874,101.1875 223.458985,101.231445 223.400391,101.319336 C223.341797,101.407227 223.3125,101.509765 223.3125,101.626953 L223.3125,105.441406 C223.3125,106.519537 223.186525,107.52148 222.93457,108.447266 C222.682616,109.373052 222.38672,110.029295 222.046875,110.416016 C221.976562,110.486328 221.953125,110.550781 221.976562,110.609375 C222,110.667969 222.070312,110.697266 222.1875,110.697266 L232.382812,110.697266 C232.570313,110.697266 232.737304,110.770507 232.883789,110.916992 C233.030274,111.063477 233.103516,111.230468 233.103516,111.417969 L233.103516,112.279297 C233.103516,112.466798 233.030274,112.633788 232.883789,112.780273 C232.737304,112.926759 232.570313,113 232.382812,113 L218.197266,113 C217.986327,113 217.807618,112.926759 217.661133,112.780273 C217.514648,112.633788 217.441406,112.466798 217.441406,112.279297 Z" id="£" fill="#292A2B"></path>
        <path d="M322.366211,88.84375 C322.268554,88.6191395 322.273437,88.4213876 322.380859,88.2504883 C322.488282,88.079589 322.639647,87.9941406 322.834961,87.9941406 L323.801758,87.9941406 C324.084962,87.9941406 324.27539,88.1455063 324.373047,88.4482422 L328.533203,99.15625 C328.611329,99.3515635 328.694335,99.3515635 328.782227,99.15625 C329.202151,98.0331975 329.592772,97.0029344 329.954102,96.0654297 C330.315431,95.127925 330.659666,94.239262 330.986816,93.3994141 C331.313966,92.5595661 331.628905,91.7392618 331.931641,90.9384766 C332.234377,90.1376913 332.551756,89.3076215 332.883789,88.4482422 C332.981446,88.1455063 333.171874,87.9941406 333.455078,87.9941406 L334.421875,87.9941406 C334.617188,87.9941406 334.770996,88.079589 334.883301,88.2504883 C334.995606,88.4213876 335.00293,88.6191395 334.905273,88.84375 L331.755859,96.6074219 C331.716797,96.7050786 331.716797,96.790527 331.755859,96.8637695 C331.794922,96.9370121 331.863281,96.9736328 331.960938,96.9736328 L333.586914,96.9736328 C333.743165,96.9736328 333.879882,97.032226 333.99707,97.1494141 C334.114258,97.2666021 334.172852,97.4082023 334.172852,97.5742188 L334.172852,98.0429688 C334.172852,98.1992195 334.114258,98.3383783 333.99707,98.4604492 C333.879882,98.5825201 333.743165,98.6435547 333.586914,98.6435547 L331.125977,98.6435547 C330.989257,98.6435547 330.896485,98.6972651 330.847656,98.8046875 L330.496094,99.6982422 C330.457031,99.7958989 330.457031,99.8813473 330.496094,99.9545898 C330.535156,100.027832 330.603515,100.064453 330.701172,100.064453 L333.586914,100.064453 C333.743165,100.064453 333.879882,100.123046 333.99707,100.240234 C334.114258,100.357422 334.172852,100.499023 334.172852,100.665039 L334.172852,101.133789 C334.172852,101.29004 334.114258,101.429199 333.99707,101.55127 C333.879882,101.67334 333.743165,101.734375 333.586914,101.734375 L329.954102,101.734375 C329.758788,101.734375 329.65625,101.836913 329.646484,102.041992 L329.646484,108.399414 C329.646484,108.555665 329.587891,108.694824 329.470703,108.816895 C329.353515,108.938965 329.211915,109 329.045898,109 L328.269531,109 C328.11328,109 327.974122,108.938965 327.852051,108.816895 C327.72998,108.694824 327.668945,108.555665 327.668945,108.399414 L327.668945,102.041992 C327.668945,101.846679 327.57129,101.744141 327.375977,101.734375 L323.68457,101.734375 C323.52832,101.734375 323.389161,101.675782 323.26709,101.558594 C323.145019,101.441406 323.083984,101.299806 323.083984,101.133789 L323.083984,100.665039 C323.083984,100.508788 323.142578,100.36963 323.259766,100.247559 C323.376954,100.125488 323.518554,100.064453 323.68457,100.064453 L326.584961,100.064453 C326.682618,100.064453 326.753418,100.027832 326.797363,99.9545898 C326.841309,99.8813473 326.84375,99.7958989 326.804688,99.6982422 L326.438477,98.8046875 C326.399414,98.7070308 326.311524,98.6533204 326.174805,98.6435547 L323.68457,98.6435547 C323.52832,98.6435547 323.389161,98.5849615 323.26709,98.4677734 C323.145019,98.3505854 323.083984,98.2089852 323.083984,98.0429688 L323.083984,97.5742188 C323.083984,97.417968 323.142578,97.2788092 323.259766,97.1567383 C323.376954,97.0346674 323.518554,96.9736328 323.68457,96.9736328 L325.325195,96.9736328 C325.422852,96.9736328 325.493652,96.9370121 325.537598,96.8637695 C325.581543,96.790527 325.583985,96.7050786 325.544922,96.6074219 L322.366211,88.84375 Z" id="¥" fill="#292A2B"></path>
        <path d="M388.76311,188.803797 L388.25859,190.154611 L388.25859,198.340868 C388.25859,199.100365 387.832735,199.851714 386.981013,200.594937 C386.21609,201.267634 385.399643,201.603978 384.531646,201.603978 C384.119347,201.603978 383.742316,201.515824 383.400542,201.339512 C383.058769,201.1632 382.764468,200.919079 382.517631,200.607143 C382.270794,200.295206 382.080923,199.922244 381.948011,199.488246 C381.815099,199.054247 381.748644,198.579569 381.748644,198.064195 C381.748644,197.304698 381.862567,196.556062 382.090416,195.818264 C382.198916,195.47649 382.293851,195.23237 382.375226,195.085895 C382.456601,194.939421 382.5217,194.866184 382.570524,194.866184 C382.570524,194.969259 382.561031,195.122513 382.542043,195.325949 C382.523056,195.529386 382.498644,195.74367 382.468807,195.968807 C382.438969,196.193943 382.413201,196.409583 382.391501,196.615732 C382.369801,196.821882 382.358951,196.979204 382.358951,197.087703 C382.358951,198.156425 382.622059,198.937611 383.148282,199.431284 C383.717905,199.968357 384.279382,200.23689 384.832731,200.23689 C385.055155,200.23689 385.287069,200.178572 385.528481,200.061935 C385.769893,199.945298 385.999095,199.794757 386.216094,199.610307 C386.433093,199.425858 386.629746,199.212931 386.806058,198.971519 C386.98237,198.730107 387.119349,198.481918 387.216998,198.226944 L387.216998,189.438517 L386.9566,187.713382 L388.047016,186.321881 L388.152803,187.998192 L388.76311,188.803797 Z M395.10217,196.786618 C395.10217,197.72514 394.996384,198.194394 394.78481,198.194394 L391.562387,198.194394 L391.562387,198.186257 C391.112113,198.186257 390.751358,198.125227 390.480108,198.003165 C390.208859,197.881102 390.009494,197.688518 389.882007,197.425407 C389.75452,197.162295 389.690778,196.69711 389.690778,196.029837 L389.690778,187.672694 L390.667269,186.142857 L390.667269,196.029837 C390.667269,196.425861 390.813742,196.62387 391.106691,196.62387 L394.109403,196.62387 C394.169078,196.629295 394.198915,196.558771 394.198915,196.412297 C394.198915,196.303797 394.171791,196.147831 394.117541,195.944394 C394.063291,195.740957 393.998192,195.53888 393.922242,195.338156 C393.846293,195.137431 393.764919,194.962478 393.678119,194.813291 C393.59132,194.664104 393.520796,194.589512 393.466546,194.589512 L394.036166,192.888788 C394.30199,193.035263 394.551536,193.626577 394.78481,194.662749 C394.996384,195.579571 395.10217,196.28752 395.10217,196.786618 Z M398.340868,197.380651 C398.340868,198.764021 397.901451,199.943937 397.022604,200.920434 C396.263107,201.766731 395.533457,202.189873 394.833635,202.189873 C393.949363,202.189873 393.075954,201.452087 392.213382,199.976492 C392.283906,200.063292 392.384267,200.147378 392.514467,200.228752 C392.688066,200.320977 392.90235,200.4132 393.157324,200.505425 C393.374323,200.581375 393.577757,200.63698 393.767631,200.672242 C393.957505,200.707505 394.131102,200.725136 394.288427,200.725136 C395.693497,200.725136 396.797464,199.775778 397.600362,197.877034 C397.649187,197.735985 397.673599,197.600362 397.673599,197.470163 C397.673599,196.72694 397.226044,195.970167 396.330922,195.199819 L396.933092,193.669982 C397.144667,193.832731 397.335894,194.047015 397.506781,194.312839 C397.677668,194.578663 397.825497,194.877033 397.950271,195.207957 C398.075046,195.53888 398.171338,195.890143 398.23915,196.261754 C398.306962,196.633365 398.340868,197.006327 398.340868,197.380651 Z M391.131103,204.622966 L391.594937,203.426763 L392.913201,204.443942 L392.392405,205.615732 L391.131103,204.622966 Z M394.198915,205.469259 L392.913201,204.443942 L393.401447,203.353526 L394.711573,204.330018 L394.198915,205.469259 Z M392.178797,200.312161 C392.174729,200.30538 392.169982,200.299277 392.164557,200.293852 C392.167269,200.299277 392.17066,200.30538 392.174729,200.312161 L392.178797,200.312161 Z M392.178797,200.312161 C392.182866,200.318942 392.186257,200.326401 392.188969,200.334539 C392.183544,200.326401 392.178797,200.318942 392.174729,200.312161 L392.178797,200.312161 Z" id="﷼" fill="#292A2B"></path>
        <path d="M245.325195,193 L243.69043,193 L242.345703,186.276367 L241.088867,186.276367 L239.533203,193 L237.863281,193 L237.010742,186.276367 L236,186.276367 L236,185.300781 L236.896484,185.300781 L236.65918,183.455078 L236,183.455078 L236,182.479492 L236.536133,182.479492 L236.210938,179.992188 L237.889648,179.992188 L238.206055,182.479492 L240.649414,182.479492 L241.220703,179.992188 L242.706055,179.992188 L243.224609,182.479492 L245.667969,182.479492 L246.037109,179.992188 L247.329102,179.992188 L246.951172,182.479492 L247.390625,182.479492 L247.390625,183.455078 L246.801758,183.455078 L246.520508,185.300781 L247.390625,185.300781 L247.390625,186.276367 L246.362305,186.276367 L245.325195,193 Z M243.980469,186.276367 L244.604492,189.414062 L245.079102,186.276367 L243.980469,186.276367 Z M242.161133,185.300781 L241.774414,183.384766 L241.326172,185.300781 L242.161133,185.300781 Z M239.981445,185.300781 L240.420898,183.455078 L238.329102,183.455078 L238.548828,185.300781 L239.981445,185.300781 Z M243.40918,183.455078 L243.77832,185.300781 L245.228516,185.300781 L245.509766,183.455078 L243.40918,183.455078 Z M238.671875,186.276367 L239.049805,189.34375 L239.761719,186.276367 L238.671875,186.276367 Z" id="₩" fill="#292A2B"></path>
        <path d="M69.5546875,66 L69.5546875,68.2148438 L68.3945312,68.2148438 L68.3945312,66 L65.2304688,66 L65.2304688,52.359375 L68.3945312,52.359375 L68.3945312,49.74375 L69.5546875,49.74375 L69.5546875,52.3945312 C70.5062548,52.3945312 71.2914032,52.5374986 71.9101562,52.8234375 C72.3179708,53.0062509 72.6484362,53.3460913 72.9015625,53.8429687 C73.1406262,54.3117211 73.2601562,54.7992162 73.2601562,55.3054688 C73.2601562,56.4210993 72.8570353,57.3351527 72.0507812,58.0476563 C71.7507798,58.3148451 71.3757835,58.5749987 70.9257812,58.828125 C71.9148487,59.0906263 72.6882785,59.6109336 73.2460938,60.3890625 C73.5835954,60.8671899 73.7523437,61.4906212 73.7523437,62.259375 C73.7523437,62.9390659 73.5953141,63.563669 73.28125,64.1332031 C72.9671859,64.7027372 72.5359402,65.1445297 71.9875,65.4585938 C71.3828095,65.8195331 70.5718801,66 69.5546875,66 Z M69.5546875,58.1882813 C69.8125013,58.1554686 70.1312481,58.0335948 70.5109375,57.8226563 C70.8156265,57.6492179 71.0804676,57.3257836 71.3054688,56.8523438 C71.5210948,56.4023415 71.6289062,55.9804707 71.6289062,55.5867188 C71.6289062,55.0664036 71.4320332,54.6304705 71.0382812,54.2789062 C70.7898425,54.0070299 70.2953162,53.8335941 69.5546875,53.7585938 L69.5546875,58.1882813 Z M68.3945312,53.7445313 L66.8757813,53.7445313 L66.8757813,58.2796875 L68.3945312,58.2796875 L68.3945312,53.7445313 Z M69.5546875,59.7070312 L69.5546875,64.6289062 C69.9484395,64.6289062 70.3140608,64.5726568 70.6515625,64.4601562 C70.960939,64.3476557 71.2234364,64.1859386 71.4390625,63.975 C71.846877,63.5484354 72.0507812,63.0234406 72.0507812,62.4 C72.0507812,61.9171851 71.9289075,61.471877 71.6851563,61.0640625 C71.4554676,60.6843731 71.09219,60.36797 70.5953125,60.1148437 C70.2249981,59.9226553 69.8781266,59.7867191 69.5546875,59.7070312 Z M66.8757813,59.64375 L66.8757813,64.6289062 L68.3945312,64.6289062 L68.3945312,59.64375 L66.8757813,59.64375 Z" id="฿" fill="#292A2B"></path>
        <path d="M69.216,155.098 L75.48,155.098 C75.624,155.008 75.732,154.936 75.822,154.864 C76.362,154.414 76.65,153.892 76.65,153.298 C76.65,152.578 76.434,152.056 76.038,151.696 C75.624,151.336 75.012,151.156 74.22,151.156 C72.672,151.156 71.772,151.984 71.556,153.64 L70.152,153.64 C70.296,152.398 70.728,151.462 71.448,150.832 C72.132,150.22 73.05,149.914 74.22,149.914 C75.408,149.914 76.362,150.202 77.046,150.778 C77.766,151.372 78.126,152.218 78.126,153.316 C78.126,153.964 77.928,154.558 77.532,155.098 L79.152,155.098 L79.152,155.998 L76.578,155.998 C76.128,156.286 75.354,156.7 74.256,157.24 L73.788,157.474 L79.152,157.474 L79.152,158.374 L72.402,158.374 C71.862,158.806 71.61,159.292 71.61,159.814 C71.61,160.48 71.808,161.002 72.222,161.38 C72.636,161.776 73.248,161.974 74.04,161.974 C75.57,161.974 76.452,161.146 76.704,159.508 L78.126,159.508 C77.964,160.732 77.532,161.668 76.83,162.316 C76.146,162.91 75.21,163.216 74.04,163.216 C72.78,163.216 71.826,162.928 71.178,162.352 C70.494,161.758 70.152,160.912 70.152,159.832 C70.152,159.292 70.26,158.806 70.512,158.374 L69.216,158.374 L69.216,157.474 L71.268,157.474 L71.304,157.438 C71.646,157.15 72.456,156.682 73.734,156.052 C73.77,156.016 73.806,155.998 73.842,155.998 L69.216,155.998 L69.216,155.098 Z" id="₴" fill="#292A2B"></path>
        <path d="M351.676829,44.0853659 L352.97561,44.0853659 L352.97561,38.25 L356.323171,38.25 C356.945125,38.25 357.512193,38.3201212 358.02439,38.4603659 C358.536588,38.6006105 358.975608,38.814023 359.341463,39.1006098 C359.707319,39.3871966 359.993901,39.7499978 360.20122,40.1890244 C360.408538,40.628051 360.512195,41.152436 360.512195,41.7621951 C360.512195,42.3719543 360.40244,42.9024368 360.182927,43.3536585 C359.963414,43.8048803 359.664636,44.1798766 359.286585,44.4786585 C358.908535,44.7774405 358.463417,44.9999993 357.95122,45.1463415 C357.439022,45.2926837 356.884149,45.3658537 356.286585,45.3658537 L354.439024,45.3658537 L354.439024,47.2134146 L357.384146,47.2134146 L357.384146,48.4207317 L354.439024,48.4207317 L354.439024,51 L352.97561,51 L352.97561,48.4207317 L351.676829,48.4207317 L351.676829,47.2134146 L352.97561,47.2134146 L352.97561,45.3658537 L351.676829,45.3658537 L351.676829,44.0853659 Z M356.323171,44.0853659 C357.164638,44.0853659 357.826217,43.8932946 358.307927,43.5091463 C358.789637,43.1249981 359.030488,42.5426868 359.030488,41.7621951 C359.030488,40.9817034 358.789637,40.4146359 358.307927,40.0609756 C357.826217,39.7073153 357.164638,39.5304878 356.323171,39.5304878 L354.439024,39.5304878 L354.439024,44.0853659 L356.323171,44.0853659 Z" id="₽" fill="#292A2B"></path>
        <path d="M138.360352,128.494141 L138.360352,127.246094 L140.53125,127.246094 L140.53125,126.472656 L138.360352,126.472656 L138.360352,125.224609 L140.53125,125.224609 L140.53125,123.088867 L144.583008,123.088867 C145.731451,123.088867 146.657223,123.414059 147.360352,124.064453 C147.711916,124.38672 147.975585,124.773435 148.151367,125.224609 L149.847656,125.224609 L149.847656,126.472656 L148.40625,126.472656 C148.412109,126.578126 148.415039,126.683593 148.415039,126.789062 C148.415039,126.947266 148.40625,127.099609 148.388672,127.246094 L149.847656,127.246094 L149.847656,128.494141 L148.063477,128.494141 C147.911132,128.822267 147.714845,129.132811 147.474609,129.425781 C146.847653,130.169926 145.883796,130.541992 144.583008,130.541992 L142.280273,130.541992 L142.280273,136 L140.53125,136 L140.53125,128.494141 L138.360352,128.494141 Z M146.648438,126.797852 C146.648438,126.686523 146.642578,126.578126 146.630859,126.472656 L142.280273,126.472656 L142.280273,127.246094 L146.62207,127.246094 C146.639649,127.105468 146.648438,126.956055 146.648438,126.797852 Z M145.59375,124.864258 C145.207029,124.682616 144.676761,124.591797 144.00293,124.591797 L142.280273,124.591797 L142.280273,125.224609 L146.103516,125.224609 C145.957031,125.083984 145.78711,124.963868 145.59375,124.864258 Z M144.00293,129.06543 C144.78809,129.06543 145.423826,128.898439 145.910156,128.564453 C145.945313,128.541016 145.977539,128.517578 146.006836,128.494141 L142.280273,128.494141 L142.280273,129.06543 L144.00293,129.06543 Z" id="₱" fill="#292A2B"></path>
        <path d="M400.483398,117.605469 L400.483398,116.181641 L402.047852,116.181641 L402.047852,114.96875 L400.483398,114.96875 L400.483398,113.544922 L402.047852,113.544922 L402.047852,109.088867 L404.113281,109.088867 L406.890625,113.544922 L410.634766,113.544922 L410.634766,109.088867 L412.295898,109.088867 L412.295898,113.544922 L413.904297,113.544922 L413.904297,114.96875 L412.295898,114.96875 L412.295898,116.181641 L413.904297,116.181641 L413.904297,117.605469 L412.295898,117.605469 L412.295898,122 L410.335938,122 L407.549805,117.605469 L403.717773,117.605469 L403.717773,122 L402.047852,122 L402.047852,117.605469 L400.483398,117.605469 Z M403.717773,116.181641 L406.65332,116.181641 L405.879883,114.96875 L403.717773,114.96875 L403.717773,116.181641 Z M408.53418,116.181641 L410.634766,116.181641 L410.634766,114.96875 L407.77832,114.96875 L408.53418,116.181641 Z M403.717773,113.544922 L404.983398,113.544922 L403.717773,111.549805 L403.717773,113.544922 Z M410.634766,119.547852 L410.634766,117.605469 L409.421875,117.605469 L410.634766,119.547852 Z" id="₦" fill="#292A2B"></path>
        <polygon id="₮" fill="#292A2B" points="331.65918 166.138672 331.65918 167.615234 328.416016 169.030273 328.416016 170.445312 331.65918 169.030273 331.65918 170.533203 328.416016 171.948242 328.416016 176 326.640625 176 326.640625 172.625 323.371094 174.048828 323.371094 172.545898 326.640625 171.12207 326.640625 169.707031 323.371094 171.130859 323.371094 169.654297 326.640625 168.230469 326.640625 164.626953 322.290039 164.626953 322.290039 163.088867 332.766602 163.088867 332.766602 164.626953 328.416016 164.626953 328.416016 167.553711"></polygon>
        <polygon id="₭" fill="#292A2B" points="36.4306641 200.023438 36.4306641 198.599609 37.9951172 198.599609 37.9951172 193.088867 39.7001953 193.088867 39.7001953 198.599609 40.4824219 198.599609 45.9931641 193.088867 48.4101562 193.088867 43.0400391 198.291992 43.2597656 198.599609 47.2148438 198.599609 47.2148438 200.023438 44.2792969 200.023438 48.5595703 206 46.2832031 206 42.1171875 200.023438 41.2382812 200.023438 39.7001953 201.5 39.7001953 206 37.9951172 206 37.9951172 200.023438"></polygon>
    </g>
</svg>