<?xml version="1.0" encoding="UTF-8"?>
<svg width="473px" height="235px" viewBox="0 0 473 235" version="1.1" xmlns="http://www.w3.org/2000/svg" xmlns:xlink="http://www.w3.org/1999/xlink">
    <!-- Generator: Sketch 49.1 (51147) - http://www.bohemiancoding.com/sketch -->
    <title>real-time</title>
    <desc>Created with Sketch.</desc>
    <defs></defs>
    <g id="real-time" stroke="none" stroke-width="1" fill="none" fill-rule="evenodd" stroke-linecap="square">
        <path d="M51.5,201.5 L170.5,50.5" id="Line" stroke="#292A2B"></path>
        <path id="Line-decoration-1" d="M166.171375,60.8393909 L170.5,50.5 L161.458885,57.1255741" stroke="#292A2B"></path>
        <path d="M83.5,179.5 L202.5,28.5" id="Line" stroke="#292A2B"></path>
        <path id="Line-decoration-1" d="M198.171375,38.8393909 L202.5,28.5 L193.458885,35.1255741" stroke="#292A2B"></path>
        <path d="M8.5,118.5 L100.5,4.5" id="Line" stroke="#292A2B"></path>
        <path id="Line-decoration-1" d="M96.0519853,14.7885939 L100.5,4.5 L91.3827985,11.0204783" stroke="#292A2B"></path>
        <path d="M51.5,241.5 L170.5,90.5" id="Line" stroke="#292A2B"></path>
        <path id="Line-decoration-1" d="M166.171375,100.839391 L170.5,90.5 L161.458885,97.1255741" stroke="#292A2B"></path>
        <path d="M94.5,204.5 L195.5,78.5" id="Line" stroke="#292A2B"></path>
        <path id="Line-decoration-1" d="M191.085933,88.8032042 L195.5,78.5 L186.404348,85.0505045" stroke="#292A2B"></path>
        <path d="M135.5,172.5 L254.5,21.5" id="Line" stroke="#292A2B"></path>
        <path id="Line-decoration-1" d="M250.171375,31.8393909 L254.5,21.5 L245.458885,28.1255741" stroke="#292A2B"></path>
        <path d="M128.5,202.5 L187.5,126.5" id="Line" stroke="#292A2B"></path>
        <path id="Line-decoration-1" d="M183.24695,136.870707 L187.5,126.5 L178.507481,133.191382" stroke="#292A2B"></path>
        <path d="M128.5,217.5 L247.5,66.5" id="Line" stroke="#292A2B"></path>
        <path id="Line-decoration-1" d="M243.171375,76.8393909 L247.5,66.5 L238.458885,73.1255741" stroke="#292A2B"></path>
        <path d="M16.5,229.5 L135.5,78.5" id="Line" stroke="#292A2B"></path>
        <path id="Line-decoration-1" d="M131.171375,88.8393909 L135.5,78.5 L126.458885,85.1255741" stroke="#292A2B"></path>
        <path d="M163.5,194.5 L216.5,126.5" id="Line" stroke="#292A2B"></path>
        <path id="Line-decoration-1" d="M212.226954,136.862484 L216.5,126.5 L207.494591,133.174024" stroke="#292A2B"></path>
        <path d="M196.5,165.5 L315.5,14.5" id="Line" stroke="#292A2B"></path>
        <path id="Line-decoration-1" d="M311.171375,24.8393909 L315.5,14.5 L306.458885,21.1255741" stroke="#292A2B"></path>
        <path d="M13.5,151.5 L132.5,0.5" id="Line" stroke="#292A2B"></path>
        <path id="Line-decoration-1" d="M128.171375,10.8393909 L132.5,0.5 L123.458885,7.12557407" stroke="#292A2B"></path>
        <path d="M188.5,194.5 L307.5,43.5" id="Line" stroke="#292A2B"></path>
        <path id="Line-decoration-1" d="M303.171375,53.8393909 L307.5,43.5 L298.458885,50.1255741" stroke="#292A2B"></path>
        <path d="M33.5,185.5 L86.5,119.5" id="Line" stroke="#292A2B"></path>
        <path id="Line-decoration-1" d="M82.07689,129.799325 L86.5,119.5 L77.3986005,126.042517" stroke="#292A2B"></path>
        <path d="M22.5,118.5 L75.5,52.5" id="Line" stroke="#292A2B"></path>
        <path id="Line-decoration-1" d="M71.07689,62.7993251 L75.5,52.5 L66.3986005,59.0425169" stroke="#292A2B"></path>
        <path d="M263.5,229.5 L316.5,163.5" id="Line" stroke="#292A2B"></path>
        <path id="Line-decoration-1" d="M312.07689,173.799325 L316.5,163.5 L307.398601,170.042517" stroke="#292A2B"></path>
        <path d="M349.5,185.5 L402.5,119.5" id="Line" stroke="#292A2B"></path>
        <path id="Line-decoration-1" d="M398.07689,129.799325 L402.5,119.5 L393.398601,126.042517" stroke="#292A2B"></path>
        <path d="M392.5,150.5 L445.5,84.5" id="Line" stroke="#292A2B"></path>
        <path id="Line-decoration-1" d="M441.07689,94.7993251 L445.5,84.5 L436.398601,91.0425169" stroke="#292A2B"></path>
        <path d="M327.5,234.5 L380.5,168.5" id="Line" stroke="#292A2B"></path>
        <path id="Line-decoration-1" d="M376.07689,178.799325 L380.5,168.5 L371.398601,175.042517" stroke="#292A2B"></path>
        <path d="M0.5,208.5 L119.5,57.5" id="Line" stroke="#292A2B"></path>
        <path id="Line-decoration-1" d="M115.171375,67.8393909 L119.5,57.5 L110.458885,64.1255741" stroke="#292A2B"></path>
        <path d="M51.5,122.5 L127.5,25.5" id="Line" stroke="#292A2B"></path>
        <path id="Line-decoration-1" d="M123.200633,35.8515912 L127.5,25.5 L118.477658,32.1511164" stroke="#292A2B"></path>
        <path d="M191.5,222.5 L276.5,112.5" id="Line" stroke="#292A2B"></path>
        <path id="Line-decoration-1" d="M272.270222,122.880221 L276.5,112.5 L267.522512,119.211536" stroke="#292A2B"></path>
        <path d="M217.5,208.5 L336.5,57.5" id="Line" stroke="#292A2B"></path>
        <path id="Line-decoration-1" d="M332.171375,67.8393909 L336.5,57.5 L327.458885,64.1255741" stroke="#292A2B"></path>
        <path d="M290.5,213.5 L409.5,62.5" id="Line" stroke="#292A2B"></path>
        <path id="Line-decoration-1" d="M405.171375,72.8393909 L409.5,62.5 L400.458885,69.1255741" stroke="#292A2B"></path>
        <path d="M333.5,185.5 L452.5,34.5" id="Line" stroke="#292A2B"></path>
        <path id="Line-decoration-1" d="M448.171375,44.8393909 L452.5,34.5 L443.458885,41.1255741" stroke="#292A2B"></path>
        <path d="M299.5,296.5 L418.5,145.5" id="Line" stroke="#292A2B"></path>
        <path id="Line-decoration-1" d="M414.171375,155.839391 L418.5,145.5 L409.458885,152.125574" stroke="#292A2B"></path>
        <path d="M337.5,270.5 L456.5,119.5" id="Line" stroke="#292A2B"></path>
        <path id="Line-decoration-1" d="M452.171375,129.839391 L456.5,119.5 L447.458885,126.125574" stroke="#292A2B"></path>
        <path d="M236.5,223.5 L262.5,188.5" id="Line" stroke="#292A2B"></path>
        <path id="Line-decoration-1" d="M258.467932,198.958606 L262.5,188.5 L253.651469,195.380662" stroke="#292A2B"></path>
        <path d="M222.5,223.5 L277.5,154.5" id="Line" stroke="#292A2B"></path>
        <path id="Line-decoration-1" d="M273.11415,164.815247 L277.5,154.5 L268.422311,161.075375" stroke="#292A2B"></path>
        <path d="M260.5,214.5 L315.5,145.5" id="Line" stroke="#292A2B"></path>
        <path id="Line-decoration-1" d="M311.11415,155.815247 L315.5,145.5 L306.422311,152.075375" stroke="#292A2B"></path>
        <path d="M337.5,118.5 L392.5,49.5" id="Line" stroke="#292A2B"></path>
        <path id="Line-decoration-1" d="M388.11415,59.815247 L392.5,49.5 L383.422311,56.075375" stroke="#292A2B"></path>
        <path d="M288.5,94.5 L343.5,25.5" id="Line" stroke="#292A2B"></path>
        <path id="Line-decoration-1" d="M339.11415,35.815247 L343.5,25.5 L334.422311,32.075375" stroke="#292A2B"></path>
        <path d="M271.5,179.5 L326.5,110.5" id="Line" stroke="#292A2B"></path>
        <path id="Line-decoration-1" d="M322.11415,120.815247 L326.5,110.5 L317.422311,117.075375" stroke="#292A2B"></path>
        <path d="M98.5,324.5 L217.5,173.5" id="Line" stroke="#292A2B"></path>
        <path id="Line-decoration-1" d="M213.171375,183.839391 L217.5,173.5 L208.458885,180.125574" stroke="#292A2B"></path>
        <path d="M196.5,118.5 L270.5,25.5" id="Line" stroke="#292A2B"></path>
        <path id="Line-decoration-1" d="M266.123004,35.8190072 L270.5,25.5 L261.427957,32.0831631" stroke="#292A2B"></path>
        <path d="M178.5,81.5 L217.5,31.5" id="Line" stroke="#292A2B"></path>
        <path id="Line-decoration-1" d="M213.223163,41.8609203 L217.5,31.5 L208.49215,38.1707295" stroke="#292A2B"></path>
    </g>
</svg>