<?xml version="1.0" encoding="UTF-8"?>
<svg width="473px" height="235px" viewBox="0 0 473 235" version="1.1" xmlns="http://www.w3.org/2000/svg" xmlns:xlink="http://www.w3.org/1999/xlink">
    <!-- Generator: Sketch 49.1 (51147) - http://www.bohemiancoding.com/sketch -->
    <title>military</title>
    <desc>Created with Sketch.</desc>
    <defs></defs>
    <g id="military" stroke="none" stroke-width="1" fill="none" fill-rule="evenodd">
        <g id="Group" transform="translate(115.000000, 24.000000)">
            <polygon id="Star" stroke="#87BC55" points="122 49.5 102.603087 59.6975608 106.307567 38.0987804 90.615135 22.8024392 112.301543 19.6512196 122 0 131.698457 19.6512196 153.384865 22.8024392 137.692433 38.0987804 141.396913 59.6975608"></polygon>
            <polygon id="Star" stroke="#292A2B" points="167 110.5 147.603087 120.697561 151.307567 99.0987804 135.615135 83.8024392 157.301543 80.6512196 167 61 176.698457 80.6512196 198.384865 83.8024392 182.692433 99.0987804 186.396913 120.697561"></polygon>
            <polygon id="Star" stroke="#292A2B" points="77 110.5 57.6030867 120.697561 61.3075675 99.0987804 45.615135 83.8024392 67.3015433 80.6512196 77 61 86.6984567 80.6512196 108.384865 83.8024392 92.6924325 99.0987804 96.3969133 120.697561"></polygon>
            <polygon id="Star" stroke="#292A2B" points="122 171.5 102.603087 181.697561 106.307567 160.09878 90.615135 144.802439 112.301543 141.65122 122 122 131.698457 141.65122 153.384865 144.802439 137.692433 160.09878 141.396913 181.697561"></polygon>
            <polygon id="Star" stroke="#292A2B" points="212 171.5 192.603087 181.697561 196.307567 160.09878 180.615135 144.802439 202.301543 141.65122 212 122 221.698457 141.65122 243.384865 144.802439 227.692433 160.09878 231.396913 181.697561"></polygon>
            <polygon id="Star" stroke="#292A2B" points="33 171.5 13.6030867 181.697561 17.3075675 160.09878 1.61513496 144.802439 23.3015433 141.65122 33 122 42.6984567 141.65122 64.384865 144.802439 48.6924325 160.09878 52.3969133 181.697561"></polygon>
        </g>
    </g>
</svg>