<?xml version="1.0" encoding="UTF-8"?>
<svg width="360px" height="231px" viewBox="0 0 360 231" version="1.1" xmlns="http://www.w3.org/2000/svg" xmlns:xlink="http://www.w3.org/1999/xlink">
    <!-- Generator: Sketch 49.1 (51147) - http://www.bohemiancoding.com/sketch -->
    <title>trust</title>
    <desc>Created with Sketch.</desc>
    <defs></defs>
    <g id="trust" stroke="none" stroke-width="1" fill="none" fill-rule="evenodd" stroke-linecap="square">
        <g id="Group" transform="translate(1.000000, 1.000000)" stroke-width="1.08">
            <path d="M307.858434,8.09859155 L283.057229,26.4553991" id="Line" stroke="#87BC55"></path>
            <path d="M171.990964,16.7370892 L81.4126506,13.4976526" id="Line" stroke="#292A2B"></path>
            <path d="M195.713855,5.93896714 L283.057229,26.4553991" id="Line" stroke="#87BC55"></path>
            <path d="M195.713855,5.93896714 L128.858434,37.2535211" id="Line" stroke="#87BC55"></path>
            <path d="M42.5933735,0.539906103 L81.4126506,13.4976526" id="Line" stroke="#292A2B"></path>
            <path d="M120.231928,94.4835681 L128.858434,37.2535211" id="Line" stroke="#87BC55"></path>
            <path d="M120.231928,94.4835681 L132.093373,97.7230047" id="Line" stroke="#87BC55"></path>
            <path d="M326.189759,134.43662 L300.310241,153.873239" id="Line" stroke="#87BC55"></path>
            <path d="M150.424699,94.4835681 L132.093373,97.7230047" id="Line" stroke="#87BC55"></path>
            <path d="M150.424699,94.4835681 L175.225904,59.9295775" id="Line" stroke="#87BC55"></path>
            <path d="M196.792169,58.8497653 L305.701807,159.2723" id="Line" stroke="#292A2B"></path>
            <path d="M196.792169,58.8497653 L175.225904,59.9295775" id="Line" stroke="#87BC55"></path>
            <path d="M326.189759,134.43662 L357.460843,120.399061" id="Line" stroke="#87BC55"></path>
            <path d="M305.701807,166.830986 L305.701807,159.2723" id="Line" stroke="#292A2B"></path>
            <path d="M305.701807,166.830986 L299.231928,178.70892" id="Line" stroke="#292A2B"></path>
            <path d="M289.527108,184.107981 L299.231928,178.70892" id="Line" stroke="#292A2B"></path>
            <path d="M289.527108,184.107981 L284.135542,185.187793" id="Line" stroke="#292A2B"></path>
            <path d="M283.057229,191.666667 L284.135542,185.187793" id="Line" stroke="#292A2B"></path>
            <path d="M217.28012,132.276995 L284.135542,185.187793" id="Line" stroke="#292A2B"></path>
            <path d="M283.057229,191.666667 L273.35241,202.464789" id="Line" stroke="#292A2B"></path>
            <path d="M259.334337,205.704225 L273.35241,202.464789" id="Line" stroke="#292A2B"></path>
            <path d="M259.334337,205.704225 L249.629518,206.784038" id="Line" stroke="#292A2B"></path>
            <path d="M201.105422,167.910798 L249.629518,206.784038" id="Line" stroke="#292A2B"></path>
            <path d="M244.237952,213.262911 L249.629518,206.784038" id="Line" stroke="#292A2B"></path>
            <path d="M244.237952,213.262911 L233.454819,219.741784" id="Line" stroke="#292A2B"></path>
            <path d="M212.966867,219.741784 L233.454819,219.741784" id="Line" stroke="#292A2B"></path>
            <path d="M212.966867,219.741784 L175.225904,188.42723" id="Line" stroke="#292A2B"></path>
            <path d="M207.575301,221.901408 L201.105422,222.981221" id="Line" stroke="#292A2B"></path>
            <path d="M207.575301,221.901408 L210.810241,218.661972" id="Line" stroke="#292A2B"></path>
            <path d="M177.38253,224.061033 L201.105422,222.981221" id="Line" stroke="#292A2B"></path>
            <path d="M177.38253,224.061033 L175.225904,205.704225" id="Line" stroke="#87BC55"></path>
            <path d="M171.990964,200.305164 L175.225904,205.704225" id="Line" stroke="#87BC55"></path>
            <path d="M171.990964,200.305164 L162.286145,194.906103" id="Line" stroke="#87BC55"></path>
            <path d="M163.364458,187.347418 L162.286145,194.906103" id="Line" stroke="#87BC55"></path>
            <path d="M163.364458,187.347418 L161.207831,179.788732" id="Line" stroke="#87BC55"></path>
            <path d="M151.503012,172.230047 L161.207831,179.788732" id="Line" stroke="#87BC55"></path>
            <path d="M151.503012,172.230047 L139.641566,172.230047" id="Line" stroke="#87BC55"></path>
            <path d="M116.996988,197.065728 L139.641566,172.230047" id="Line" stroke="#87BC55"></path>
            <path d="M116.996988,197.065728 L107.292169,199.225352" id="Line" stroke="#87BC55"></path>
            <path d="M97.5873494,197.065728 L107.292169,199.225352" id="Line" stroke="#87BC55"></path>
            <path d="M97.5873494,197.065728 L92.1957831,191.666667" id="Line" stroke="#87BC55"></path>
            <path d="M88.9608434,183.028169 L92.1957831,191.666667" id="Line" stroke="#87BC55"></path>
            <path d="M88.9608434,183.028169 L88.9608434,175.469484" id="Line" stroke="#87BC55"></path>
            <path d="M113.762048,158.192488 L88.9608434,175.469484" id="Line" stroke="#87BC55"></path>
            <path d="M78.1777108,174.389671 L88.9608434,175.469484" id="Line" stroke="#87BC55"></path>
            <path d="M78.1777108,174.389671 L71.7078313,171.150235" id="Line" stroke="#87BC55"></path>
            <path d="M66.3162651,164.671362 L71.7078313,171.150235" id="Line" stroke="#87BC55"></path>
            <path d="M66.3162651,164.671362 L64.1596386,156.032864" id="Line" stroke="#87BC55"></path>
            <path d="M66.3162651,146.314554 L64.1596386,156.032864" id="Line" stroke="#87BC55"></path>
            <path d="M0.539156627,108.521127 L66.3162651,145.234742" id="Line" stroke="#292A2B"></path>
            <path d="M113.762048,158.192488 L122.388554,160.352113" id="Line" stroke="#87BC55"></path>
            <path d="M132.093373,167.910798 L122.388554,160.352113" id="Line" stroke="#87BC55"></path>
            <path d="M78.1777108,137.676056 L66.3162651,146.314554" id="Line" stroke="#87BC55"></path>
            <path d="M132.093373,167.910798 L136.406627,175.469484" id="Line" stroke="#87BC55"></path>
            <path d="M78.1777108,137.676056 L87.8825301,139.835681" id="Line" stroke="#87BC55"></path>
            <path d="M97.5873494,147.394366 L87.8825301,139.835681" id="Line" stroke="#87BC55"></path>
            <path d="M97.5873494,147.394366 L101.900602,154.953052" id="Line" stroke="#87BC55"></path>
            <path d="M104.057229,164.671362 L101.900602,154.953052" id="Line" stroke="#87BC55"></path>
            <path d="M116.996988,197.065728 L119.153614,203.544601" id="Line" stroke="#87BC55"></path>
            <path d="M125.623494,212.183099 L119.153614,203.544601" id="Line" stroke="#87BC55"></path>
            <path d="M125.623494,212.183099 L133.171687,214.342723" id="Line" stroke="#87BC55"></path>
            <path d="M143.954819,215.422535 L133.171687,214.342723" id="Line" stroke="#87BC55"></path>
            <path d="M143.954819,215.422535 L162.286145,194.906103" id="Line" stroke="#87BC55"></path>
            <path d="M143.954819,215.422535 L145.033133,219.741784" id="Line" stroke="#87BC55"></path>
            <path d="M151.503012,226.220657 L145.033133,219.741784" id="Line" stroke="#87BC55"></path>
            <path d="M151.503012,226.220657 L159.051205,228.380282" id="Line" stroke="#87BC55"></path>
            <path d="M165.521084,228.380282 L159.051205,228.380282" id="Line" stroke="#87BC55"></path>
            <path d="M165.521084,228.380282 L177.38253,224.061033" id="Line" stroke="#87BC55"></path>
        </g>
    </g>
</svg>