<?xml version="1.0" encoding="UTF-8"?>
<svg width="473px" height="291px" viewBox="0 0 473 291" version="1.1" xmlns="http://www.w3.org/2000/svg" xmlns:xlink="http://www.w3.org/1999/xlink">
    <!-- Generator: Sketch 49.1 (51147) - http://www.bohemiancoding.com/sketch -->
    <title>smooth</title>
    <desc>Created with Sketch.</desc>
    <defs></defs>
    <g id="smooth" stroke="none" stroke-width="1" fill="none" fill-rule="evenodd">
        <path d="M48.4520551,84.2516635 L35.1371837,70.936792 C34.0437156,69.843324 34.0437156,68.070462 35.1371837,66.976994 L55.976994,46.1371837 C57.070462,45.0437156 58.843324,45.0437156 59.936792,46.1371837 L73.2516635,59.4520551 C80.4511977,54.9462898 88.4402664,51.58501 96.9640288,49.6230567 L96.9640288,30.8 C96.9640288,29.2536027 98.2176315,28 99.7640288,28 L129.235971,28 C130.782369,28 132.035971,29.2536027 132.035971,30.8 L132.035971,49.6230567 C140.559734,51.58501 148.548802,54.9462898 155.748337,59.4520551 L169.063208,46.1371837 C170.156676,45.0437156 171.929538,45.0437156 173.023006,46.1371837 L193.862816,66.976994 C194.956284,68.070462 194.956284,69.843324 193.862816,70.936792 L180.547945,84.2516635 C185.05371,91.4511977 188.41499,99.4402664 190.376943,107.964029 L209.2,107.964029 C210.746397,107.964029 212,109.217631 212,110.764029 L212,140.235971 C212,141.782369 210.746397,143.035971 209.2,143.035971 L190.376943,143.035971 C188.41499,151.559734 185.05371,159.548802 180.547945,166.748337 L193.862816,180.063208 C194.956284,181.156676 194.956284,182.929538 193.862816,184.023006 L173.023006,204.862816 C171.929538,205.956284 170.156676,205.956284 169.063208,204.862816 L155.748337,191.547945 C148.548802,196.05371 140.559734,199.41499 132.035971,201.376943 L132.035971,220.2 C132.035971,221.746397 130.782369,223 129.235971,223 L99.7640288,223 C98.2176315,223 96.9640288,221.746397 96.9640288,220.2 L96.9640288,201.376943 C88.4402664,199.41499 80.4511977,196.05371 73.2516635,191.547945 L59.936792,204.862816 C58.843324,205.956284 57.070462,205.956284 55.976994,204.862816 L35.1371837,184.023006 C34.0437156,182.929538 34.0437156,181.156676 35.1371837,180.063208 L48.4520551,166.748337 C43.9462898,159.548802 40.58501,151.559734 38.6230567,143.035971 L19.8,143.035971 C18.2536027,143.035971 17,141.782369 17,140.235971 L17,110.764029 C17,109.217631 18.2536027,107.964029 19.8,107.964029 L38.6230567,107.964029 C40.58501,99.4402664 43.9462898,91.4511977 48.4520551,84.2516635 Z M114.5,183.719424 C146.6537,183.719424 172.719424,157.6537 172.719424,125.5 C172.719424,93.3462997 146.6537,67.2805755 114.5,67.2805755 C82.3462997,67.2805755 56.2805755,93.3462997 56.2805755,125.5 C56.2805755,157.6537 82.3462997,183.719424 114.5,183.719424 Z" id="Combined-Shape" stroke="#292A2B" stroke-width="1.4" fill="#FFFFFF"></path>
        <path d="M220.822214,155.240185 L210.248752,144.666722 C209.373977,143.791948 209.373977,142.373658 210.248752,141.498884 L226.793423,124.954213 C227.668197,124.079439 229.086487,124.079439 229.961261,124.954213 L240.534724,135.527676 C246.25743,131.94617 252.607716,129.274383 259.383014,127.714882 L259.383014,112.767324 C259.383014,111.530206 260.385896,110.527324 261.623014,110.527324 L285.020712,110.527324 C286.25783,110.527324 287.260712,111.530206 287.260712,112.767324 L287.260712,127.714882 C294.03601,129.274383 300.386295,131.94617 306.109002,135.527676 L316.682465,124.954213 C317.557239,124.079439 318.975529,124.079439 319.850303,124.954213 L336.394974,141.498884 C337.269748,142.373658 337.269748,143.791948 336.394974,144.666722 L325.821511,155.240185 C329.403017,160.962892 332.074804,167.313177 333.634305,174.088475 L348.581863,174.088475 C349.818981,174.088475 350.821863,175.091357 350.821863,176.328475 L350.821863,199.726173 C350.821863,200.963291 349.818981,201.966173 348.581863,201.966173 L333.634305,201.966173 C332.074804,208.741471 329.403017,215.091757 325.821511,220.814463 L336.394974,231.387926 C337.269748,232.2627 337.269748,233.68099 336.394974,234.555764 L319.850303,251.100435 C318.975529,251.97521 317.557239,251.97521 316.682465,251.100435 L306.109002,240.526973 C300.386295,244.108478 294.03601,246.780265 287.260712,248.339766 L287.260712,263.287324 C287.260712,264.524442 286.25783,265.527324 285.020712,265.527324 L261.623014,265.527324 C260.385896,265.527324 259.383014,264.524442 259.383014,263.287324 L259.383014,248.339766 C252.607716,246.780265 246.25743,244.108478 240.534724,240.526973 L229.961261,251.100435 C229.086487,251.97521 227.668197,251.97521 226.793423,251.100435 L210.248752,234.555764 C209.373977,233.68099 209.373977,232.2627 210.248752,231.387926 L220.822214,220.814463 C217.240709,215.091757 214.568922,208.741471 213.009421,201.966173 L198.061863,201.966173 C196.824745,201.966173 195.821863,200.963291 195.821863,199.726173 L195.821863,176.328475 C195.821863,175.091357 196.824745,174.088475 198.061863,174.088475 L213.009421,174.088475 C214.568922,167.313177 217.240709,160.962892 220.822214,155.240185 Z M273.321863,234.304303 C298.879932,234.304303 319.598841,213.585394 319.598841,188.027324 C319.598841,162.469255 298.879932,141.750346 273.321863,141.750346 C247.763793,141.750346 227.044884,162.469255 227.044884,188.027324 C227.044884,213.585394 247.763793,234.304303 273.321863,234.304303 Z" id="Combined-Shape" stroke="#292A2B" stroke-width="1.4" fill="#FFFFFF" transform="translate(273.321863, 188.027324) rotate(-24.000000) translate(-273.321863, -188.027324) "></path>
        <path d="M323.928788,61.5314345 L315.391584,52.9942298 C314.691764,52.2944103 314.691764,51.1597786 315.391584,50.4599591 L328.754498,37.097045 C329.454317,36.3972254 330.588949,36.3972254 331.288768,37.097045 L339.825973,45.6342496 C344.441059,42.7459385 349.562257,40.591272 355.026207,39.3336097 L355.026207,27.2646758 C355.026207,26.2749816 355.828513,25.4726758 356.818207,25.4726758 L375.716222,25.4726758 C376.705916,25.4726758 377.508222,26.2749816 377.508222,27.2646758 L377.508222,39.3336097 C382.972172,40.591272 388.09337,42.7459385 392.708456,45.6342496 L401.245661,37.097045 C401.94548,36.3972254 403.080112,36.3972254 403.779931,37.097045 L417.142845,50.4599591 C417.842665,51.1597786 417.842665,52.2944103 417.142845,52.9942298 L408.605641,61.5314345 C411.493952,66.1465205 413.648618,71.2677184 414.906281,76.7316686 L426.975214,76.7316686 C427.964909,76.7316686 428.767214,77.5339744 428.767214,78.5236686 L428.767214,97.421683 C428.767214,98.4113773 427.964909,99.213683 426.975214,99.213683 L414.906281,99.213683 C413.648618,104.677633 411.493952,109.798831 408.605641,114.413917 L417.142845,122.951122 C417.842665,123.650941 417.842665,124.785573 417.142845,125.485393 L403.779931,138.848307 C403.080112,139.548126 401.94548,139.548126 401.245661,138.848307 L392.708456,130.311102 C388.09337,133.199413 382.972172,135.35408 377.508222,136.611742 L377.508222,148.680676 C377.508222,149.67037 376.705916,150.472676 375.716222,150.472676 L356.818207,150.472676 C355.828513,150.472676 355.026207,149.67037 355.026207,148.680676 L355.026207,136.611742 C349.562257,135.35408 344.441059,133.199413 339.825973,130.311102 L331.288768,138.848307 C330.588949,139.548126 329.454317,139.548126 328.754498,138.848307 L315.391584,125.485393 C314.691764,124.785573 314.691764,123.650941 315.391584,122.951122 L323.928788,114.413917 C321.040477,109.798831 318.885811,104.677633 317.628148,99.213683 L305.559214,99.213683 C304.56952,99.213683 303.767214,98.4113773 303.767214,97.421683 L303.767214,78.5236686 C303.767214,77.5339744 304.56952,76.7316686 305.559214,76.7316686 L317.628148,76.7316686 C318.885811,71.2677184 321.040477,66.1465205 323.928788,61.5314345 Z M366.267214,125.29282 C386.878561,125.29282 403.587358,108.584022 403.587358,87.9726758 C403.587358,67.3613295 386.878561,50.652532 366.267214,50.652532 C345.655868,50.652532 328.947071,67.3613295 328.947071,87.9726758 C328.947071,108.584022 345.655868,125.29282 366.267214,125.29282 Z" id="Combined-Shape" stroke="#87BC55" stroke-width="1.4" fill="#FFFFFF" transform="translate(366.267214, 87.972676) rotate(-48.000000) translate(-366.267214, -87.972676) "></path>
    </g>
</svg>