<?xml version="1.0" encoding="UTF-8"?>
<svg width="332px" height="212px" viewBox="0 0 332 212" version="1.1" xmlns="http://www.w3.org/2000/svg" xmlns:xlink="http://www.w3.org/1999/xlink">
    <!-- Generator: Sketch 49.1 (51147) - http://www.bohemiancoding.com/sketch -->
    <title>trust</title>
    <desc>Created with Sketch.</desc>
    <defs></defs>
    <g id="trust" stroke="none" stroke-width="1" fill="none" fill-rule="evenodd" stroke-linecap="square">
        <path d="M285.5,7.5 L262.5,24.5" id="Line" stroke="#87BC55"></path>
        <path d="M159.5,15.5 L75.5,12.5" id="Line" stroke="#292A2B"></path>
        <path d="M181.5,5.5 L262.5,24.5" id="Line" stroke="#87BC55"></path>
        <path d="M181.5,5.5 L119.5,34.5" id="Line" stroke="#87BC55"></path>
        <path d="M39.5,0.5 L75.5,12.5" id="Line" stroke="#292A2B"></path>
        <path d="M111.5,87.5 L119.5,34.5" id="Line" stroke="#87BC55"></path>
        <path d="M111.5,87.5 L122.5,90.5" id="Line" stroke="#87BC55"></path>
        <path d="M302.5,124.5 L278.5,142.5" id="Line" stroke="#87BC55"></path>
        <path d="M139.5,87.5 L122.5,90.5" id="Line" stroke="#87BC55"></path>
        <path d="M139.5,87.5 L162.5,55.5" id="Line" stroke="#87BC55"></path>
        <path d="M182.5,54.5 L283.5,147.5" id="Line" stroke="#292A2B"></path>
        <path d="M182.5,54.5 L162.5,55.5" id="Line" stroke="#87BC55"></path>
        <path d="M302.5,124.5 L331.5,111.5" id="Line" stroke="#87BC55"></path>
        <path d="M283.5,154.5 L283.5,147.5" id="Line" stroke="#292A2B"></path>
        <path d="M283.5,154.5 L277.5,165.5" id="Line" stroke="#292A2B"></path>
        <path d="M268.5,170.5 L277.5,165.5" id="Line" stroke="#292A2B"></path>
        <path d="M268.5,170.5 L263.5,171.5" id="Line" stroke="#292A2B"></path>
        <path d="M262.5,177.5 L263.5,171.5" id="Line" stroke="#292A2B"></path>
        <path d="M201.5,122.5 L263.5,171.5" id="Line" stroke="#292A2B"></path>
        <path d="M262.5,177.5 L253.5,187.5" id="Line" stroke="#292A2B"></path>
        <path d="M240.5,190.5 L253.5,187.5" id="Line" stroke="#292A2B"></path>
        <path d="M240.5,190.5 L231.5,191.5" id="Line" stroke="#292A2B"></path>
        <path d="M186.5,155.5 L231.5,191.5" id="Line" stroke="#292A2B"></path>
        <path d="M226.5,197.5 L231.5,191.5" id="Line" stroke="#292A2B"></path>
        <path d="M226.5,197.5 L216.5,203.5" id="Line" stroke="#292A2B"></path>
        <path d="M197.5,203.5 L216.5,203.5" id="Line" stroke="#292A2B"></path>
        <path d="M197.5,203.5 L162.5,174.5" id="Line" stroke="#292A2B"></path>
        <path d="M192.5,205.5 L186.5,206.5" id="Line" stroke="#292A2B"></path>
        <path d="M192.5,205.5 L195.5,202.5" id="Line" stroke="#292A2B"></path>
        <path d="M164.5,207.5 L186.5,206.5" id="Line" stroke="#292A2B"></path>
        <path d="M164.5,207.5 L162.5,190.5" id="Line" stroke="#87BC55"></path>
        <path d="M159.5,185.5 L162.5,190.5" id="Line" stroke="#87BC55"></path>
        <path d="M159.5,185.5 L150.5,180.5" id="Line" stroke="#87BC55"></path>
        <path d="M151.5,173.5 L150.5,180.5" id="Line" stroke="#87BC55"></path>
        <path d="M151.5,173.5 L149.5,166.5" id="Line" stroke="#87BC55"></path>
        <path d="M140.5,159.5 L149.5,166.5" id="Line" stroke="#87BC55"></path>
        <path d="M140.5,159.5 L129.5,159.5" id="Line" stroke="#87BC55"></path>
        <path d="M108.5,182.5 L129.5,159.5" id="Line" stroke="#87BC55"></path>
        <path d="M108.5,182.5 L99.5,184.5" id="Line" stroke="#87BC55"></path>
        <path d="M90.5,182.5 L99.5,184.5" id="Line" stroke="#87BC55"></path>
        <path d="M90.5,182.5 L85.5,177.5" id="Line" stroke="#87BC55"></path>
        <path d="M82.5,169.5 L85.5,177.5" id="Line" stroke="#87BC55"></path>
        <path d="M82.5,169.5 L82.5,162.5" id="Line" stroke="#87BC55"></path>
        <path d="M105.5,146.5 L82.5,162.5" id="Line" stroke="#87BC55"></path>
        <path d="M72.5,161.5 L82.5,162.5" id="Line" stroke="#87BC55"></path>
        <path d="M72.5,161.5 L66.5,158.5" id="Line" stroke="#87BC55"></path>
        <path d="M61.5,152.5 L66.5,158.5" id="Line" stroke="#87BC55"></path>
        <path d="M61.5,152.5 L59.5,144.5" id="Line" stroke="#87BC55"></path>
        <path d="M61.5,135.5 L59.5,144.5" id="Line" stroke="#87BC55"></path>
        <path d="M0.5,100.5 L61.5,134.5" id="Line" stroke="#292A2B"></path>
        <path d="M105.5,146.5 L113.5,148.5" id="Line" stroke="#87BC55"></path>
        <path d="M122.5,155.5 L113.5,148.5" id="Line" stroke="#87BC55"></path>
        <path d="M72.5,127.5 L61.5,135.5" id="Line" stroke="#87BC55"></path>
        <path d="M122.5,155.5 L126.5,162.5" id="Line" stroke="#87BC55"></path>
        <path d="M72.5,127.5 L81.5,129.5" id="Line" stroke="#87BC55"></path>
        <path d="M90.5,136.5 L81.5,129.5" id="Line" stroke="#87BC55"></path>
        <path d="M90.5,136.5 L94.5,143.5" id="Line" stroke="#87BC55"></path>
        <path d="M96.5,152.5 L94.5,143.5" id="Line" stroke="#87BC55"></path>
        <path d="M108.5,182.5 L110.5,188.5" id="Line" stroke="#87BC55"></path>
        <path d="M116.5,196.5 L110.5,188.5" id="Line" stroke="#87BC55"></path>
        <path d="M116.5,196.5 L123.5,198.5" id="Line" stroke="#87BC55"></path>
        <path d="M133.5,199.5 L123.5,198.5" id="Line" stroke="#87BC55"></path>
        <path d="M133.5,199.5 L150.5,180.5" id="Line" stroke="#87BC55"></path>
        <path d="M133.5,199.5 L134.5,203.5" id="Line" stroke="#87BC55"></path>
        <path d="M140.5,209.5 L134.5,203.5" id="Line" stroke="#87BC55"></path>
        <path d="M140.5,209.5 L147.5,211.5" id="Line" stroke="#87BC55"></path>
        <path d="M153.5,211.5 L147.5,211.5" id="Line" stroke="#87BC55"></path>
        <path d="M153.5,211.5 L164.5,207.5" id="Line" stroke="#87BC55"></path>
    </g>
</svg>