<?xml version="1.0" encoding="UTF-8"?>
<svg width="229px" height="238px" viewBox="0 0 229 238" version="1.1" xmlns="http://www.w3.org/2000/svg" xmlns:xlink="http://www.w3.org/1999/xlink">
    <!-- Generator: Sketch 49.1 (51147) - http://www.bohemiancoding.com/sketch -->
    <title>cluster</title>
    <desc>Created with Sketch.</desc>
    <defs></defs>
    <g id="cluster" stroke="none" stroke-width="1" fill="none" fill-rule="evenodd">
        <path d="M85.5,116.5 L154.5,96.5" id="Line" stroke="#292A2B" stroke-linecap="square"></path>
        <path id="Line-decoration-1" d="M96.7082249,116.374722 L85.5,116.5 L95.0378486,110.611924" stroke="#292A2B" stroke-linecap="square"></path>
        <path id="Line-decoration-2" d="M144.962151,102.388076 L154.5,96.5 L143.291775,96.6252782" stroke="#292A2B" stroke-linecap="square"></path>
        <path d="M86.5,144.5 L148.5,194.5" id="Line" stroke="#292A2B" stroke-linecap="square"></path>
        <path id="Line-decoration-1" d="M93.0236035,153.614966 L86.5,144.5 L96.7901182,148.944487" stroke="#292A2B" stroke-linecap="square"></path>
        <path id="Line-decoration-2" d="M138.209882,190.055513 L148.5,194.5 L141.976397,185.385034" stroke="#292A2B" stroke-linecap="square"></path>
        <path d="M194.5,103.5 L194.5,163.5" id="Line" stroke="#292A2B" stroke-linecap="square"></path>
        <path id="Line-decoration-1" d="M191.5,114.3 L194.5,103.5 L197.5,114.3" stroke="#292A2B" stroke-linecap="square"></path>
        <path id="Line-decoration-2" d="M191.5,152.7 L194.5,163.5 L197.5,152.7" stroke="#292A2B" stroke-linecap="square"></path>
        <path d="M25.5,71.5 L37.5,108.5" id="Line" stroke="#292A2B" stroke-linecap="square"></path>
        <path id="Line-decoration-1" d="M25.9781823,82.6987205 L25.5,71.5 L31.6855192,80.8476924" stroke="#292A2B" stroke-linecap="square"></path>
        <path id="Line-decoration-2" d="M31.3144808,99.1523076 L37.5,108.5 L37.0218177,97.3012795" stroke="#292A2B" stroke-linecap="square"></path>
        <path d="M154.5,61.5 L72.5,35.5" id="Line" stroke="#292A2B" stroke-linecap="square"></path>
        <path id="Line-decoration-1" d="M145.111841,55.3760744 L154.5,61.5 L143.298378,61.0954582" stroke="#292A2B" stroke-linecap="square"></path>
        <path id="Line-decoration-2" d="M83.7016225,35.9045418 L72.5,35.5 L81.8881593,41.6239256" stroke="#292A2B" stroke-linecap="square"></path>
        <path d="M157.5,166.5 L64.5,70.5" id="Line-2" stroke="#292A2B" stroke-linecap="square"></path>
        <path id="Line-2-decoration-1" d="M152.140132,156.65562 L157.5,166.5 L147.830691,160.830391" stroke="#292A2B" stroke-linecap="square"></path>
        <path id="Line-2-decoration-2" d="M74.169309,76.1696088 L64.5,70.5 L69.8598677,80.3443801" stroke="#292A2B" stroke-linecap="square"></path>
        <g id="Group" transform="translate(164.000000, 28.000000)">
            <g id="Server">
                <rect id="Rectangle" stroke="#292A2B" x="0.5" y="0.5" width="64" height="17" rx="3"></rect>
                <rect id="Rectangle" stroke="#292A2B" x="0.5" y="22.5" width="64" height="17" rx="3"></rect>
                <rect id="Rectangle" stroke="#292A2B" x="0.5" y="44.5" width="64" height="17" rx="3"></rect>
                <circle id="Oval-8" fill="#292A2B" cx="57" cy="9" r="2"></circle>
                <circle id="Oval-8" fill="#292A2B" cx="57" cy="31" r="2"></circle>
                <circle id="Oval-8" fill="#292A2B" cx="57" cy="53" r="2"></circle>
            </g>
            <g id="Ledger" transform="translate(18.000000, 12.000000)">
                <path d="M23.4228355,-3.55271368e-15 L29,5.57716447 L29,39 L0,39 L0,0 L23.4228355,0 Z" id="Combined-Shape" fill="#FFFFFF"></path>
                <path d="M23.2157288,0.5 L0.5,0.5 L0.5,38.5 L28.5,38.5 L28.5,5.78427125 L23.2157288,0.5 Z" id="Combined-Shape" stroke="#87BC55"></path>
                <path d="M22.5,0.5 L22.5,6.5" id="Line" stroke="#87BC55" stroke-linecap="square"></path>
                <path d="M28.5,6.5 L22.5,6.5" id="Line" stroke="#87BC55" stroke-linecap="square"></path>
                <path d="M18.5,6.5 L4.5,6.5" id="Line" stroke="#87BC55" stroke-linecap="square"></path>
                <path d="M24.5,15.5 L4.5,15.5" id="Line" stroke="#87BC55" stroke-linecap="square"></path>
                <path d="M24.5,23.5 L4.5,23.5" id="Line" stroke="#87BC55" stroke-linecap="square"></path>
                <path d="M24.5,31.5 L4.5,31.5" id="Line" stroke="#87BC55" stroke-linecap="square"></path>
            </g>
        </g>
        <g id="Group">
            <g id="Server">
                <rect id="Rectangle" stroke="#292A2B" x="0.5" y="0.5" width="64" height="17" rx="3"></rect>
                <rect id="Rectangle" stroke="#292A2B" x="0.5" y="22.5" width="64" height="17" rx="3"></rect>
                <rect id="Rectangle" stroke="#292A2B" x="0.5" y="44.5" width="64" height="17" rx="3"></rect>
                <circle id="Oval-8" fill="#292A2B" cx="57" cy="9" r="2"></circle>
                <circle id="Oval-8" fill="#292A2B" cx="57" cy="31" r="2"></circle>
                <circle id="Oval-8" fill="#292A2B" cx="57" cy="53" r="2"></circle>
            </g>
            <g id="Ledger" transform="translate(18.000000, 12.000000)">
                <path d="M23.4228355,-3.55271368e-15 L29,5.57716447 L29,39 L0,39 L0,0 L23.4228355,0 Z" id="Combined-Shape" fill="#FFFFFF"></path>
                <path d="M23.2157288,0.5 L0.5,0.5 L0.5,38.5 L28.5,38.5 L28.5,5.78427125 L23.2157288,0.5 Z" id="Combined-Shape" stroke="#87BC55"></path>
                <path d="M22.5,0.5 L22.5,6.5" id="Line" stroke="#87BC55" stroke-linecap="square"></path>
                <path d="M28.5,6.5 L22.5,6.5" id="Line" stroke="#87BC55" stroke-linecap="square"></path>
                <path d="M18.5,6.5 L4.5,6.5" id="Line" stroke="#87BC55" stroke-linecap="square"></path>
                <path d="M24.5,15.5 L4.5,15.5" id="Line" stroke="#87BC55" stroke-linecap="square"></path>
                <path d="M24.5,23.5 L4.5,23.5" id="Line" stroke="#87BC55" stroke-linecap="square"></path>
                <path d="M24.5,31.5 L4.5,31.5" id="Line" stroke="#87BC55" stroke-linecap="square"></path>
            </g>
        </g>
        <g id="Group" transform="translate(7.000000, 121.000000)">
            <g id="Server">
                <rect id="Rectangle" stroke="#292A2B" x="0.5" y="0.5" width="64" height="17" rx="3"></rect>
                <rect id="Rectangle" stroke="#292A2B" x="0.5" y="22.5" width="64" height="17" rx="3"></rect>
                <rect id="Rectangle" stroke="#292A2B" x="0.5" y="44.5" width="64" height="17" rx="3"></rect>
                <circle id="Oval-8" fill="#292A2B" cx="57" cy="9" r="2"></circle>
                <circle id="Oval-8" fill="#292A2B" cx="57" cy="31" r="2"></circle>
                <circle id="Oval-8" fill="#292A2B" cx="57" cy="53" r="2"></circle>
            </g>
            <g id="Ledger" transform="translate(18.000000, 12.000000)">
                <path d="M23.4228355,-3.55271368e-15 L29,5.57716447 L29,39 L0,39 L0,0 L23.4228355,0 Z" id="Combined-Shape" fill="#FFFFFF"></path>
                <path d="M23.2157288,0.5 L0.5,0.5 L0.5,38.5 L28.5,38.5 L28.5,5.78427125 L23.2157288,0.5 Z" id="Combined-Shape" stroke="#87BC55"></path>
                <path d="M22.5,0.5 L22.5,6.5" id="Line" stroke="#87BC55" stroke-linecap="square"></path>
                <path d="M28.5,6.5 L22.5,6.5" id="Line" stroke="#87BC55" stroke-linecap="square"></path>
                <path d="M18.5,6.5 L4.5,6.5" id="Line" stroke="#87BC55" stroke-linecap="square"></path>
                <path d="M24.5,15.5 L4.5,15.5" id="Line" stroke="#87BC55" stroke-linecap="square"></path>
                <path d="M24.5,23.5 L4.5,23.5" id="Line" stroke="#87BC55" stroke-linecap="square"></path>
                <path d="M24.5,31.5 L4.5,31.5" id="Line" stroke="#87BC55" stroke-linecap="square"></path>
            </g>
        </g>
        <g id="Group" transform="translate(164.000000, 176.000000)">
            <g id="Server">
                <rect id="Rectangle" stroke="#292A2B" x="0.5" y="0.5" width="64" height="17" rx="3"></rect>
                <rect id="Rectangle" stroke="#292A2B" x="0.5" y="22.5" width="64" height="17" rx="3"></rect>
                <rect id="Rectangle" stroke="#292A2B" x="0.5" y="44.5" width="64" height="17" rx="3"></rect>
                <circle id="Oval-8" fill="#292A2B" cx="57" cy="9" r="2"></circle>
                <circle id="Oval-8" fill="#292A2B" cx="57" cy="31" r="2"></circle>
                <circle id="Oval-8" fill="#292A2B" cx="57" cy="53" r="2"></circle>
            </g>
            <g id="Ledger" transform="translate(18.000000, 12.000000)">
                <path d="M23.4228355,-3.55271368e-15 L29,5.57716447 L29,39 L0,39 L0,0 L23.4228355,0 Z" id="Combined-Shape" fill="#FFFFFF"></path>
                <path d="M23.2157288,0.5 L0.5,0.5 L0.5,38.5 L28.5,38.5 L28.5,5.78427125 L23.2157288,0.5 Z" id="Combined-Shape" stroke="#87BC55"></path>
                <path d="M22.5,0.5 L22.5,6.5" id="Line" stroke="#87BC55" stroke-linecap="square"></path>
                <path d="M28.5,6.5 L22.5,6.5" id="Line" stroke="#87BC55" stroke-linecap="square"></path>
                <path d="M18.5,6.5 L4.5,6.5" id="Line" stroke="#87BC55" stroke-linecap="square"></path>
                <path d="M24.5,15.5 L4.5,15.5" id="Line" stroke="#87BC55" stroke-linecap="square"></path>
                <path d="M24.5,23.5 L4.5,23.5" id="Line" stroke="#87BC55" stroke-linecap="square"></path>
                <path d="M24.5,31.5 L4.5,31.5" id="Line" stroke="#87BC55" stroke-linecap="square"></path>
            </g>
        </g>
        <text id="Accountant-example" font-family="GTPressura-Light, GT Pressura" font-size="12" font-weight="300" fill="#292A2B">
            <tspan x="9" y="217">Accountant example</tspan>
        </text>
    </g>
</svg>