<?xml version="1.0" encoding="UTF-8"?>
<svg width="338px" height="238px" viewBox="0 0 338 238" version="1.1" xmlns="http://www.w3.org/2000/svg" xmlns:xlink="http://www.w3.org/1999/xlink">
    <!-- Generator: Sketch 49.1 (51147) - http://www.bohemiancoding.com/sketch -->
    <title>cluster-chi</title>
    <desc>Created with Sketch.</desc>
    <defs></defs>
    <g id="cluster-chi" stroke="none" stroke-width="1" fill="none" fill-rule="evenodd">
        <path d="M140.5,116.5 L209.5,96.5" id="Line" stroke="#292A2B" stroke-linecap="square"></path>
        <path id="Line-decoration-1" d="M151.708225,116.374722 L140.5,116.5 L150.037849,110.611924" stroke="#292A2B" stroke-linecap="square"></path>
        <path id="Line-decoration-2" d="M199.962151,102.388076 L209.5,96.5 L198.291775,96.6252782" stroke="#292A2B" stroke-linecap="square"></path>
        <path d="M141.5,144.5 L203.5,194.5" id="Line" stroke="#292A2B" stroke-linecap="square"></path>
        <path id="Line-decoration-1" d="M148.023603,153.614966 L141.5,144.5 L151.790118,148.944487" stroke="#292A2B" stroke-linecap="square"></path>
        <path id="Line-decoration-2" d="M193.209882,190.055513 L203.5,194.5 L196.976397,185.385034" stroke="#292A2B" stroke-linecap="square"></path>
        <path d="M249.5,103.5 L249.5,163.5" id="Line" stroke="#292A2B" stroke-linecap="square"></path>
        <path id="Line-decoration-1" d="M246.5,114.3 L249.5,103.5 L252.5,114.3" stroke="#292A2B" stroke-linecap="square"></path>
        <path id="Line-decoration-2" d="M246.5,152.7 L249.5,163.5 L252.5,152.7" stroke="#292A2B" stroke-linecap="square"></path>
        <path d="M80.5,71.5 L92.5,108.5" id="Line" stroke="#292A2B" stroke-linecap="square"></path>
        <path id="Line-decoration-1" d="M80.9781823,82.6987205 L80.5,71.5 L86.6855192,80.8476924" stroke="#292A2B" stroke-linecap="square"></path>
        <path id="Line-decoration-2" d="M86.3144808,99.1523076 L92.5,108.5 L92.0218177,97.3012795" stroke="#292A2B" stroke-linecap="square"></path>
        <path d="M209.5,61.5 L127.5,35.5" id="Line" stroke="#292A2B" stroke-linecap="square"></path>
        <path id="Line-decoration-1" d="M200.111841,55.3760744 L209.5,61.5 L198.298378,61.0954582" stroke="#292A2B" stroke-linecap="square"></path>
        <path id="Line-decoration-2" d="M138.701622,35.9045418 L127.5,35.5 L136.888159,41.6239256" stroke="#292A2B" stroke-linecap="square"></path>
        <path d="M212.5,166.5 L119.5,70.5" id="Line-2" stroke="#292A2B" stroke-linecap="square"></path>
        <path id="Line-2-decoration-1" d="M207.140132,156.65562 L212.5,166.5 L202.830691,160.830391" stroke="#292A2B" stroke-linecap="square"></path>
        <path id="Line-2-decoration-2" d="M129.169309,76.1696088 L119.5,70.5 L124.859868,80.3443801" stroke="#292A2B" stroke-linecap="square"></path>
        <g id="Group" transform="translate(219.000000, 28.000000)">
            <g id="Server">
                <rect id="Rectangle" stroke="#292A2B" x="0.5" y="0.5" width="64" height="17" rx="3"></rect>
                <rect id="Rectangle" stroke="#292A2B" x="0.5" y="22.5" width="64" height="17" rx="3"></rect>
                <rect id="Rectangle" stroke="#292A2B" x="0.5" y="44.5" width="64" height="17" rx="3"></rect>
                <circle id="Oval-8" fill="#292A2B" cx="57" cy="9" r="2"></circle>
                <circle id="Oval-8" fill="#292A2B" cx="57" cy="31" r="2"></circle>
                <circle id="Oval-8" fill="#292A2B" cx="57" cy="53" r="2"></circle>
            </g>
            <g id="Ledger" transform="translate(18.000000, 12.000000)">
                <path d="M23.4228355,-3.55271368e-15 L29,5.57716447 L29,39 L0,39 L0,0 L23.4228355,0 Z" id="Combined-Shape" fill="#FFFFFF"></path>
                <path d="M23.2157288,0.5 L0.5,0.5 L0.5,38.5 L28.5,38.5 L28.5,5.78427125 L23.2157288,0.5 Z" id="Combined-Shape" stroke="#87BC55"></path>
                <path d="M22.5,0.5 L22.5,6.5" id="Line" stroke="#87BC55" stroke-linecap="square"></path>
                <path d="M28.5,6.5 L22.5,6.5" id="Line" stroke="#87BC55" stroke-linecap="square"></path>
                <path d="M18.5,6.5 L4.5,6.5" id="Line" stroke="#87BC55" stroke-linecap="square"></path>
                <path d="M24.5,15.5 L4.5,15.5" id="Line" stroke="#87BC55" stroke-linecap="square"></path>
                <path d="M24.5,23.5 L4.5,23.5" id="Line" stroke="#87BC55" stroke-linecap="square"></path>
                <path d="M24.5,31.5 L4.5,31.5" id="Line" stroke="#87BC55" stroke-linecap="square"></path>
            </g>
        </g>
        <g id="Group" transform="translate(55.000000, 0.000000)">
            <g id="Server">
                <rect id="Rectangle" stroke="#292A2B" x="0.5" y="0.5" width="64" height="17" rx="3"></rect>
                <rect id="Rectangle" stroke="#292A2B" x="0.5" y="22.5" width="64" height="17" rx="3"></rect>
                <rect id="Rectangle" stroke="#292A2B" x="0.5" y="44.5" width="64" height="17" rx="3"></rect>
                <circle id="Oval-8" fill="#292A2B" cx="57" cy="9" r="2"></circle>
                <circle id="Oval-8" fill="#292A2B" cx="57" cy="31" r="2"></circle>
                <circle id="Oval-8" fill="#292A2B" cx="57" cy="53" r="2"></circle>
            </g>
            <g id="Ledger" transform="translate(18.000000, 12.000000)">
                <path d="M23.4228355,-3.55271368e-15 L29,5.57716447 L29,39 L0,39 L0,0 L23.4228355,0 Z" id="Combined-Shape" fill="#FFFFFF"></path>
                <path d="M23.2157288,0.5 L0.5,0.5 L0.5,38.5 L28.5,38.5 L28.5,5.78427125 L23.2157288,0.5 Z" id="Combined-Shape" stroke="#87BC55"></path>
                <path d="M22.5,0.5 L22.5,6.5" id="Line" stroke="#87BC55" stroke-linecap="square"></path>
                <path d="M28.5,6.5 L22.5,6.5" id="Line" stroke="#87BC55" stroke-linecap="square"></path>
                <path d="M18.5,6.5 L4.5,6.5" id="Line" stroke="#87BC55" stroke-linecap="square"></path>
                <path d="M24.5,15.5 L4.5,15.5" id="Line" stroke="#87BC55" stroke-linecap="square"></path>
                <path d="M24.5,23.5 L4.5,23.5" id="Line" stroke="#87BC55" stroke-linecap="square"></path>
                <path d="M24.5,31.5 L4.5,31.5" id="Line" stroke="#87BC55" stroke-linecap="square"></path>
            </g>
        </g>
        <g id="Group" transform="translate(62.000000, 121.000000)">
            <g id="Server">
                <rect id="Rectangle" stroke="#292A2B" x="0.5" y="0.5" width="64" height="17" rx="3"></rect>
                <rect id="Rectangle" stroke="#292A2B" x="0.5" y="22.5" width="64" height="17" rx="3"></rect>
                <rect id="Rectangle" stroke="#292A2B" x="0.5" y="44.5" width="64" height="17" rx="3"></rect>
                <circle id="Oval-8" fill="#292A2B" cx="57" cy="9" r="2"></circle>
                <circle id="Oval-8" fill="#292A2B" cx="57" cy="31" r="2"></circle>
                <circle id="Oval-8" fill="#292A2B" cx="57" cy="53" r="2"></circle>
            </g>
            <g id="Ledger" transform="translate(18.000000, 12.000000)">
                <path d="M23.4228355,-3.55271368e-15 L29,5.57716447 L29,39 L0,39 L0,0 L23.4228355,0 Z" id="Combined-Shape" fill="#FFFFFF"></path>
                <path d="M23.2157288,0.5 L0.5,0.5 L0.5,38.5 L28.5,38.5 L28.5,5.78427125 L23.2157288,0.5 Z" id="Combined-Shape" stroke="#87BC55"></path>
                <path d="M22.5,0.5 L22.5,6.5" id="Line" stroke="#87BC55" stroke-linecap="square"></path>
                <path d="M28.5,6.5 L22.5,6.5" id="Line" stroke="#87BC55" stroke-linecap="square"></path>
                <path d="M18.5,6.5 L4.5,6.5" id="Line" stroke="#87BC55" stroke-linecap="square"></path>
                <path d="M24.5,15.5 L4.5,15.5" id="Line" stroke="#87BC55" stroke-linecap="square"></path>
                <path d="M24.5,23.5 L4.5,23.5" id="Line" stroke="#87BC55" stroke-linecap="square"></path>
                <path d="M24.5,31.5 L4.5,31.5" id="Line" stroke="#87BC55" stroke-linecap="square"></path>
            </g>
        </g>
        <g id="Group" transform="translate(219.000000, 176.000000)">
            <g id="Server">
                <rect id="Rectangle" stroke="#292A2B" x="0.5" y="0.5" width="64" height="17" rx="3"></rect>
                <rect id="Rectangle" stroke="#292A2B" x="0.5" y="22.5" width="64" height="17" rx="3"></rect>
                <rect id="Rectangle" stroke="#292A2B" x="0.5" y="44.5" width="64" height="17" rx="3"></rect>
                <circle id="Oval-8" fill="#292A2B" cx="57" cy="9" r="2"></circle>
                <circle id="Oval-8" fill="#292A2B" cx="57" cy="31" r="2"></circle>
                <circle id="Oval-8" fill="#292A2B" cx="57" cy="53" r="2"></circle>
            </g>
            <g id="Ledger" transform="translate(18.000000, 12.000000)">
                <path d="M23.4228355,-3.55271368e-15 L29,5.57716447 L29,39 L0,39 L0,0 L23.4228355,0 Z" id="Combined-Shape" fill="#FFFFFF"></path>
                <path d="M23.2157288,0.5 L0.5,0.5 L0.5,38.5 L28.5,38.5 L28.5,5.78427125 L23.2157288,0.5 Z" id="Combined-Shape" stroke="#87BC55"></path>
                <path d="M22.5,0.5 L22.5,6.5" id="Line" stroke="#87BC55" stroke-linecap="square"></path>
                <path d="M28.5,6.5 L22.5,6.5" id="Line" stroke="#87BC55" stroke-linecap="square"></path>
                <path d="M18.5,6.5 L4.5,6.5" id="Line" stroke="#87BC55" stroke-linecap="square"></path>
                <path d="M24.5,15.5 L4.5,15.5" id="Line" stroke="#87BC55" stroke-linecap="square"></path>
                <path d="M24.5,23.5 L4.5,23.5" id="Line" stroke="#87BC55" stroke-linecap="square"></path>
                <path d="M24.5,31.5 L4.5,31.5" id="Line" stroke="#87BC55" stroke-linecap="square"></path>
            </g>
        </g>
        <path d="M66.74,212.064 L66.74,212.748 L68.9,212.748 L68.9,212.064 L66.74,212.064 Z M69.524,212.064 L69.524,212.748 L71.708,212.748 L71.708,212.064 L69.524,212.064 Z M71.708,211.62 L71.708,210.84 L69.524,210.84 L69.524,211.62 L71.708,211.62 Z M68.9,211.62 L68.9,210.84 L66.74,210.84 L66.74,211.62 L68.9,211.62 Z M66.74,213.192 L66.74,213.996 L66.116,213.996 L66.116,210.372 L68.9,210.372 L68.9,209.592 L65.42,209.592 L65.42,209.112 L68.9,209.112 L68.9,208.5 L69.524,208.5 L69.524,209.112 L71.984,209.112 C71.876,208.812 71.756,208.548 71.624,208.32 L72.188,208.224 C72.308,208.488 72.416,208.776 72.524,209.112 L73.136,209.112 L73.136,209.592 L69.524,209.592 L69.524,210.372 L72.332,210.372 L72.332,213.9 L71.708,213.9 L71.708,213.192 L69.524,213.192 L69.524,213.96 L68.9,213.96 L68.9,213.192 L66.74,213.192 Z M65.372,214.572 L70.976,214.572 L70.976,213.96 L71.612,213.96 L71.612,214.572 L73.304,214.572 L73.304,215.112 L71.612,215.112 L71.612,216.396 C71.612,216.876 71.348,217.116 70.832,217.116 L69.548,217.116 L69.428,216.564 C69.86,216.588 70.256,216.612 70.64,216.612 C70.856,216.612 70.976,216.492 70.976,216.252 L70.976,215.112 L65.372,215.112 L65.372,214.572 Z M63.44,209.088 C64.076,209.52 64.616,209.964 65.048,210.396 L64.616,210.816 C64.232,210.396 63.692,209.952 63.008,209.496 L63.44,209.088 Z M63.2,211.188 C63.824,211.632 64.352,212.076 64.784,212.532 L64.376,212.952 C63.98,212.52 63.44,212.064 62.768,211.584 L63.2,211.188 Z M64.388,213.636 L64.916,213.852 C64.496,214.956 64.028,216.012 63.512,216.996 L62.924,216.744 C63.476,215.724 63.968,214.692 64.388,213.636 Z M67.1,215.304 C67.772,215.688 68.348,216.084 68.804,216.468 L68.396,216.888 C67.976,216.504 67.412,216.108 66.692,215.7 L67.1,215.304 Z M64.22,207.624 C63.944,207.972 63.644,208.296 63.308,208.596 L62.78,208.272 C63.536,207.648 64.088,206.94 64.436,206.148 L65.024,206.28 C64.892,206.556 64.748,206.82 64.604,207.072 L67.82,207.072 L67.82,207.624 L66.056,207.624 C66.284,207.936 66.476,208.224 66.632,208.488 L66.092,208.692 C65.9,208.32 65.66,207.96 65.384,207.624 L64.22,207.624 Z M69.2,207.624 C68.984,207.912 68.756,208.188 68.516,208.428 L68.012,208.092 C68.6,207.528 69.032,206.892 69.32,206.184 L69.908,206.304 C69.8,206.568 69.68,206.832 69.548,207.072 L73.28,207.072 L73.28,207.624 L70.712,207.624 C70.904,207.912 71.072,208.188 71.192,208.452 L70.664,208.656 C70.496,208.296 70.292,207.948 70.064,207.624 L69.2,207.624 Z M85.52,213.852 C85.436,215.088 85.28,215.88 85.052,216.24 C84.836,216.6 84.404,216.78 83.756,216.78 L80.66,216.78 C79.94,216.78 79.592,216.408 79.592,215.664 L79.592,210.552 L83.888,210.552 L83.888,207.516 L78.956,207.516 L78.956,206.892 L84.512,206.892 L84.512,211.176 L80.228,211.176 L80.228,215.46 C80.228,215.916 80.444,216.156 80.888,216.168 L83.648,216.168 C84.128,216.168 84.452,215.988 84.596,215.64 C84.74,215.328 84.836,214.656 84.884,213.648 L85.52,213.852 Z M75.848,206.352 C76.676,206.988 77.372,207.624 77.948,208.26 L77.504,208.716 C76.976,208.116 76.268,207.468 75.38,206.796 L75.848,206.352 Z M74.564,209.964 L77.036,209.964 L77.036,215.532 C77.54,215.16 78.08,214.704 78.668,214.164 L78.836,214.86 C78.092,215.544 77.288,216.144 76.448,216.672 L76.196,216.096 C76.328,215.952 76.4,215.808 76.4,215.664 L76.4,210.6 L74.564,210.6 L74.564,209.964 Z M86.552,208.296 L88.196,208.296 C88.028,207.636 87.836,207.036 87.62,206.484 L88.268,206.376 C88.46,206.94 88.652,207.576 88.82,208.296 L90.284,208.296 L90.284,208.92 L86.552,208.92 L86.552,208.296 Z M87.38,209.748 C87.668,211.14 87.92,212.724 88.136,214.512 L87.608,214.644 C87.392,213.012 87.14,211.44 86.828,209.928 L87.38,209.748 Z M90.296,214.68 L90.296,215.304 C89.18,215.736 87.98,216.108 86.684,216.396 L86.516,215.76 C87.236,215.616 87.944,215.448 88.628,215.256 C88.952,213.48 89.18,211.572 89.324,209.556 L89.912,209.64 C89.756,211.608 89.516,213.42 89.204,215.076 C89.564,214.956 89.936,214.824 90.296,214.68 Z M96.116,208.62 L96.116,206.724 L96.752,206.724 L96.752,209.208 L91.16,209.208 L91.16,206.724 L91.796,206.724 L91.796,208.62 L93.62,208.62 L93.62,206.244 L94.268,206.244 L94.268,208.62 L96.116,208.62 Z M90.596,210.372 L97.4,210.372 L97.4,210.996 L94.16,210.996 C94.064,211.452 93.92,211.896 93.752,212.304 L96.992,212.304 L96.992,216.288 C96.992,216.84 96.764,217.128 96.32,217.128 L95.78,217.128 L95.612,216.54 L96.128,216.564 C96.32,216.564 96.416,216.432 96.416,216.168 L96.416,212.904 L95.12,212.904 L95.12,216.96 L94.568,216.96 L94.568,212.904 L93.416,212.904 L93.416,216.96 L92.852,216.96 L92.852,212.904 L91.592,212.904 L91.592,217.128 L90.992,217.128 L90.992,212.304 L93.128,212.304 C93.308,211.884 93.44,211.452 93.524,210.996 L90.596,210.996 L90.596,210.372 Z M98.744,207.336 L101.684,207.336 L101.684,206.208 L102.344,206.208 L102.344,207.336 L105.656,207.336 L105.656,206.208 L106.316,206.208 L106.316,207.336 L109.256,207.336 L109.256,207.948 L106.316,207.948 L106.316,209.208 L105.656,209.208 L105.656,207.948 L102.344,207.948 L102.344,209.208 L101.684,209.208 L101.684,207.948 L98.744,207.948 L98.744,207.336 Z M100.208,209.16 C100.964,209.688 101.6,210.216 102.104,210.744 L101.66,211.188 C101.192,210.684 100.556,210.156 99.764,209.592 L100.208,209.16 Z M99.464,211.188 C100.208,211.716 100.844,212.244 101.348,212.76 L100.904,213.216 C100.436,212.712 99.8,212.184 99.008,211.62 L99.464,211.188 Z M101.012,213.756 L101.576,214.032 C101.108,215.136 100.496,216.216 99.74,217.272 L99.14,216.96 C99.932,215.88 100.556,214.812 101.012,213.756 Z M107.516,210.312 L103.82,210.312 L103.82,215.676 C103.82,216.108 104.024,216.324 104.432,216.324 L107.372,216.324 C107.828,216.324 108.116,216.192 108.236,215.952 C108.356,215.664 108.452,215.124 108.512,214.332 L109.136,214.536 C109.052,215.652 108.896,216.348 108.668,216.612 C108.464,216.828 108.08,216.948 107.504,216.948 L104.216,216.948 C103.508,216.948 103.16,216.588 103.16,215.868 L103.16,209.724 L108.164,209.724 L108.164,212.892 C108.164,213.492 107.84,213.804 107.216,213.828 C106.688,213.828 106.172,213.816 105.668,213.792 L105.5,213.18 C106.028,213.216 106.532,213.24 107.012,213.24 C107.348,213.24 107.516,213.06 107.516,212.724 L107.516,210.312 Z M113.78,206.964 L117.692,206.964 L117.692,207.588 L115.448,207.588 C115.376,208.26 115.28,208.896 115.16,209.484 L117.428,209.484 L117.428,210.06 C116.948,213.396 115.748,215.76 113.816,217.128 L113.48,216.552 C114.476,215.844 115.268,214.848 115.844,213.576 C115.292,213.048 114.728,212.616 114.176,212.28 C113.936,212.724 113.66,213.132 113.372,213.504 L113.048,212.88 C114.032,211.596 114.632,209.832 114.824,207.588 L113.78,207.588 L113.78,206.964 Z M114.428,211.752 C115.028,212.1 115.58,212.508 116.096,212.964 C116.408,212.1 116.66,211.152 116.828,210.096 L115.016,210.096 C114.848,210.708 114.656,211.26 114.428,211.752 Z M119.912,217.08 L118.592,217.08 L118.448,216.456 C118.88,216.48 119.288,216.504 119.684,216.504 C120.068,216.504 120.26,216.3 120.26,215.904 L120.26,206.268 L120.908,206.268 L120.908,216.06 C120.908,216.732 120.572,217.08 119.912,217.08 Z M111.752,210.36 C111.416,210.9 111.044,211.416 110.66,211.896 L110.456,211.2 C111.536,209.724 112.328,208.056 112.82,206.184 L113.432,206.472 C113.156,207.444 112.808,208.344 112.4,209.184 L112.4,217.2 L111.752,217.2 L111.752,210.36 Z M118.304,207.372 L118.916,207.372 L118.916,214.836 L118.304,214.836 L118.304,207.372 Z" id="簿记端范例" fill="#292A2B"></path>
    </g>
</svg>