<?xml version="1.0" encoding="UTF-8"?>
<svg width="338px" height="238px" viewBox="0 0 338 238" version="1.1" xmlns="http://www.w3.org/2000/svg" xmlns:xlink="http://www.w3.org/1999/xlink">
    <!-- Generator: Sketch 49.1 (51147) - http://www.bohemiancoding.com/sketch -->
    <title>cluster</title>
    <desc>Created with Sketch.</desc>
    <defs></defs>
    <g id="cluster" stroke="none" stroke-width="1" fill="none" fill-rule="evenodd">
        <path d="M140.5,116.5 L209.5,96.5" id="Line" stroke="#292A2B" stroke-linecap="square"></path>
        <path id="Line-decoration-1" d="M151.708225,116.374722 L140.5,116.5 L150.037849,110.611924" stroke="#292A2B" stroke-linecap="square"></path>
        <path id="Line-decoration-2" d="M199.962151,102.388076 L209.5,96.5 L198.291775,96.6252782" stroke="#292A2B" stroke-linecap="square"></path>
        <path d="M141.5,144.5 L203.5,194.5" id="Line" stroke="#292A2B" stroke-linecap="square"></path>
        <path id="Line-decoration-1" d="M148.023603,153.614966 L141.5,144.5 L151.790118,148.944487" stroke="#292A2B" stroke-linecap="square"></path>
        <path id="Line-decoration-2" d="M193.209882,190.055513 L203.5,194.5 L196.976397,185.385034" stroke="#292A2B" stroke-linecap="square"></path>
        <path d="M249.5,103.5 L249.5,163.5" id="Line" stroke="#292A2B" stroke-linecap="square"></path>
        <path id="Line-decoration-1" d="M246.5,114.3 L249.5,103.5 L252.5,114.3" stroke="#292A2B" stroke-linecap="square"></path>
        <path id="Line-decoration-2" d="M246.5,152.7 L249.5,163.5 L252.5,152.7" stroke="#292A2B" stroke-linecap="square"></path>
        <path d="M80.5,71.5 L92.5,108.5" id="Line" stroke="#292A2B" stroke-linecap="square"></path>
        <path id="Line-decoration-1" d="M80.9781823,82.6987205 L80.5,71.5 L86.6855192,80.8476924" stroke="#292A2B" stroke-linecap="square"></path>
        <path id="Line-decoration-2" d="M86.3144808,99.1523076 L92.5,108.5 L92.0218177,97.3012795" stroke="#292A2B" stroke-linecap="square"></path>
        <path d="M209.5,61.5 L127.5,35.5" id="Line" stroke="#292A2B" stroke-linecap="square"></path>
        <path id="Line-decoration-1" d="M200.111841,55.3760744 L209.5,61.5 L198.298378,61.0954582" stroke="#292A2B" stroke-linecap="square"></path>
        <path id="Line-decoration-2" d="M138.701622,35.9045418 L127.5,35.5 L136.888159,41.6239256" stroke="#292A2B" stroke-linecap="square"></path>
        <path d="M212.5,166.5 L119.5,70.5" id="Line-2" stroke="#292A2B" stroke-linecap="square"></path>
        <path id="Line-2-decoration-1" d="M207.140132,156.65562 L212.5,166.5 L202.830691,160.830391" stroke="#292A2B" stroke-linecap="square"></path>
        <path id="Line-2-decoration-2" d="M129.169309,76.1696088 L119.5,70.5 L124.859868,80.3443801" stroke="#292A2B" stroke-linecap="square"></path>
        <g id="Group" transform="translate(219.000000, 28.000000)">
            <g id="Server">
                <rect id="Rectangle" stroke="#292A2B" x="0.5" y="0.5" width="64" height="17" rx="3"></rect>
                <rect id="Rectangle" stroke="#292A2B" x="0.5" y="22.5" width="64" height="17" rx="3"></rect>
                <rect id="Rectangle" stroke="#292A2B" x="0.5" y="44.5" width="64" height="17" rx="3"></rect>
                <circle id="Oval-8" fill="#292A2B" cx="57" cy="9" r="2"></circle>
                <circle id="Oval-8" fill="#292A2B" cx="57" cy="31" r="2"></circle>
                <circle id="Oval-8" fill="#292A2B" cx="57" cy="53" r="2"></circle>
            </g>
            <g id="Ledger" transform="translate(18.000000, 12.000000)">
                <path d="M23.4228355,-3.55271368e-15 L29,5.57716447 L29,39 L0,39 L0,0 L23.4228355,0 Z" id="Combined-Shape" fill="#FFFFFF"></path>
                <path d="M23.2157288,0.5 L0.5,0.5 L0.5,38.5 L28.5,38.5 L28.5,5.78427125 L23.2157288,0.5 Z" id="Combined-Shape" stroke="#87BC55"></path>
                <path d="M22.5,0.5 L22.5,6.5" id="Line" stroke="#87BC55" stroke-linecap="square"></path>
                <path d="M28.5,6.5 L22.5,6.5" id="Line" stroke="#87BC55" stroke-linecap="square"></path>
                <path d="M18.5,6.5 L4.5,6.5" id="Line" stroke="#87BC55" stroke-linecap="square"></path>
                <path d="M24.5,15.5 L4.5,15.5" id="Line" stroke="#87BC55" stroke-linecap="square"></path>
                <path d="M24.5,23.5 L4.5,23.5" id="Line" stroke="#87BC55" stroke-linecap="square"></path>
                <path d="M24.5,31.5 L4.5,31.5" id="Line" stroke="#87BC55" stroke-linecap="square"></path>
            </g>
        </g>
        <g id="Group" transform="translate(55.000000, 0.000000)">
            <g id="Server">
                <rect id="Rectangle" stroke="#292A2B" x="0.5" y="0.5" width="64" height="17" rx="3"></rect>
                <rect id="Rectangle" stroke="#292A2B" x="0.5" y="22.5" width="64" height="17" rx="3"></rect>
                <rect id="Rectangle" stroke="#292A2B" x="0.5" y="44.5" width="64" height="17" rx="3"></rect>
                <circle id="Oval-8" fill="#292A2B" cx="57" cy="9" r="2"></circle>
                <circle id="Oval-8" fill="#292A2B" cx="57" cy="31" r="2"></circle>
                <circle id="Oval-8" fill="#292A2B" cx="57" cy="53" r="2"></circle>
            </g>
            <g id="Ledger" transform="translate(18.000000, 12.000000)">
                <path d="M23.4228355,-3.55271368e-15 L29,5.57716447 L29,39 L0,39 L0,0 L23.4228355,0 Z" id="Combined-Shape" fill="#FFFFFF"></path>
                <path d="M23.2157288,0.5 L0.5,0.5 L0.5,38.5 L28.5,38.5 L28.5,5.78427125 L23.2157288,0.5 Z" id="Combined-Shape" stroke="#87BC55"></path>
                <path d="M22.5,0.5 L22.5,6.5" id="Line" stroke="#87BC55" stroke-linecap="square"></path>
                <path d="M28.5,6.5 L22.5,6.5" id="Line" stroke="#87BC55" stroke-linecap="square"></path>
                <path d="M18.5,6.5 L4.5,6.5" id="Line" stroke="#87BC55" stroke-linecap="square"></path>
                <path d="M24.5,15.5 L4.5,15.5" id="Line" stroke="#87BC55" stroke-linecap="square"></path>
                <path d="M24.5,23.5 L4.5,23.5" id="Line" stroke="#87BC55" stroke-linecap="square"></path>
                <path d="M24.5,31.5 L4.5,31.5" id="Line" stroke="#87BC55" stroke-linecap="square"></path>
            </g>
        </g>
        <g id="Group" transform="translate(62.000000, 121.000000)">
            <g id="Server">
                <rect id="Rectangle" stroke="#292A2B" x="0.5" y="0.5" width="64" height="17" rx="3"></rect>
                <rect id="Rectangle" stroke="#292A2B" x="0.5" y="22.5" width="64" height="17" rx="3"></rect>
                <rect id="Rectangle" stroke="#292A2B" x="0.5" y="44.5" width="64" height="17" rx="3"></rect>
                <circle id="Oval-8" fill="#292A2B" cx="57" cy="9" r="2"></circle>
                <circle id="Oval-8" fill="#292A2B" cx="57" cy="31" r="2"></circle>
                <circle id="Oval-8" fill="#292A2B" cx="57" cy="53" r="2"></circle>
            </g>
            <g id="Ledger" transform="translate(18.000000, 12.000000)">
                <path d="M23.4228355,-3.55271368e-15 L29,5.57716447 L29,39 L0,39 L0,0 L23.4228355,0 Z" id="Combined-Shape" fill="#FFFFFF"></path>
                <path d="M23.2157288,0.5 L0.5,0.5 L0.5,38.5 L28.5,38.5 L28.5,5.78427125 L23.2157288,0.5 Z" id="Combined-Shape" stroke="#87BC55"></path>
                <path d="M22.5,0.5 L22.5,6.5" id="Line" stroke="#87BC55" stroke-linecap="square"></path>
                <path d="M28.5,6.5 L22.5,6.5" id="Line" stroke="#87BC55" stroke-linecap="square"></path>
                <path d="M18.5,6.5 L4.5,6.5" id="Line" stroke="#87BC55" stroke-linecap="square"></path>
                <path d="M24.5,15.5 L4.5,15.5" id="Line" stroke="#87BC55" stroke-linecap="square"></path>
                <path d="M24.5,23.5 L4.5,23.5" id="Line" stroke="#87BC55" stroke-linecap="square"></path>
                <path d="M24.5,31.5 L4.5,31.5" id="Line" stroke="#87BC55" stroke-linecap="square"></path>
            </g>
        </g>
        <g id="Group" transform="translate(219.000000, 176.000000)">
            <g id="Server">
                <rect id="Rectangle" stroke="#292A2B" x="0.5" y="0.5" width="64" height="17" rx="3"></rect>
                <rect id="Rectangle" stroke="#292A2B" x="0.5" y="22.5" width="64" height="17" rx="3"></rect>
                <rect id="Rectangle" stroke="#292A2B" x="0.5" y="44.5" width="64" height="17" rx="3"></rect>
                <circle id="Oval-8" fill="#292A2B" cx="57" cy="9" r="2"></circle>
                <circle id="Oval-8" fill="#292A2B" cx="57" cy="31" r="2"></circle>
                <circle id="Oval-8" fill="#292A2B" cx="57" cy="53" r="2"></circle>
            </g>
            <g id="Ledger" transform="translate(18.000000, 12.000000)">
                <path d="M23.4228355,-3.55271368e-15 L29,5.57716447 L29,39 L0,39 L0,0 L23.4228355,0 Z" id="Combined-Shape" fill="#FFFFFF"></path>
                <path d="M23.2157288,0.5 L0.5,0.5 L0.5,38.5 L28.5,38.5 L28.5,5.78427125 L23.2157288,0.5 Z" id="Combined-Shape" stroke="#87BC55"></path>
                <path d="M22.5,0.5 L22.5,6.5" id="Line" stroke="#87BC55" stroke-linecap="square"></path>
                <path d="M28.5,6.5 L22.5,6.5" id="Line" stroke="#87BC55" stroke-linecap="square"></path>
                <path d="M18.5,6.5 L4.5,6.5" id="Line" stroke="#87BC55" stroke-linecap="square"></path>
                <path d="M24.5,15.5 L4.5,15.5" id="Line" stroke="#87BC55" stroke-linecap="square"></path>
                <path d="M24.5,23.5 L4.5,23.5" id="Line" stroke="#87BC55" stroke-linecap="square"></path>
                <path d="M24.5,31.5 L4.5,31.5" id="Line" stroke="#87BC55" stroke-linecap="square"></path>
            </g>
        </g>
        <path d="M64.046875,216.759766 L66.3378906,208.779297 C66.3613282,208.658203 66.4374994,208.597656 66.5664062,208.597656 L67.1699219,208.597656 C67.2988288,208.597656 67.3749999,208.658203 67.3984375,208.779297 L69.6894531,216.759766 C69.6933594,216.775391 69.6953125,216.791016 69.6953125,216.806641 C69.6953125,216.841797 69.6796877,216.878906 69.6484375,216.917969 C69.6093748,216.972657 69.5429692,217 69.4492188,217 L69.1503906,217 C69.0214837,217 68.9453126,216.939454 68.921875,216.818359 L68.3300781,214.791016 C68.2910154,214.677734 68.2148443,214.621094 68.1015625,214.621094 L65.6347656,214.621094 C65.5214838,214.621094 65.4453127,214.677734 65.40625,214.791016 L64.8144531,216.818359 C64.7910155,216.939454 64.7148444,217 64.5859375,217 L64.2871094,217 C64.1894526,217 64.1210939,216.972657 64.0820312,216.917969 C64.0546874,216.878906 64.0410156,216.841797 64.0410156,216.806641 C64.0410156,216.791016 64.0429687,216.775391 64.046875,216.759766 Z M65.7167969,213.748047 C65.7128906,213.767578 65.7109375,213.785156 65.7109375,213.800781 C65.7109375,213.855469 65.7441403,213.882812 65.8105469,213.882812 L67.9257812,213.882812 C67.9960941,213.882812 68.03125,213.855469 68.03125,213.800781 C68.03125,213.785156 68.0273438,213.767578 68.0195312,213.748047 L66.9296875,209.669922 C66.9140624,209.623047 66.8984376,209.597656 66.8828125,209.59375 L66.8535156,209.59375 C66.830078,209.59375 66.8144532,209.61914 66.8066406,209.669922 L65.7167969,213.748047 Z M70.2695312,214.837891 C70.2539062,214.599608 70.2460938,214.320314 70.2460938,214 C70.2460938,213.679686 70.2539062,213.400392 70.2695312,213.162109 C70.2929689,212.849608 70.3652338,212.552736 70.4863281,212.271484 C70.6074225,211.990233 70.7714833,211.748048 70.9785156,211.544922 C71.1855479,211.341796 71.4335923,211.180665 71.7226562,211.061523 C72.0117202,210.942382 72.3359357,210.882812 72.6953125,210.882812 C73.0312517,210.882812 73.3369127,210.938476 73.6123047,211.049805 C73.8876967,211.161133 74.1259756,211.310546 74.3271484,211.498047 C74.5283213,211.685548 74.6826167,211.901366 74.7900391,212.145508 C74.8974615,212.38965 74.9511719,212.648436 74.9511719,212.921875 C74.9511719,212.984375 74.9326174,213.040039 74.8955078,213.088867 C74.8583983,213.137696 74.8085941,213.162109 74.7460938,213.162109 L74.4707031,213.162109 C74.4160154,213.162109 74.3642581,213.145508 74.3154297,213.112305 C74.2666013,213.079101 74.2421875,213.03125 74.2421875,212.96875 C74.2421875,212.792968 74.2080082,212.621095 74.1396484,212.453125 C74.0712887,212.285155 73.9716803,212.136719 73.8408203,212.007812 C73.7099603,211.878906 73.5478525,211.776368 73.3544922,211.700195 C73.1611318,211.624023 72.9414075,211.585938 72.6953125,211.585938 C72.3906235,211.585938 72.1347667,211.638671 71.9277344,211.744141 C71.7207021,211.84961 71.5507819,211.979491 71.4179688,212.133789 C71.2851556,212.288087 71.1865238,212.458007 71.1220703,212.643555 C71.0576169,212.829102 71.0175782,213.001952 71.0019531,213.162109 C70.9785155,213.408204 70.9667969,213.687498 70.9667969,214 C70.9667969,214.312502 70.9785155,214.591796 71.0019531,214.837891 C71.0175782,214.998048 71.0576169,215.170898 71.1220703,215.356445 C71.1865238,215.541993 71.2851556,215.711913 71.4179688,215.866211 C71.5507819,216.020509 71.7207021,216.15039 71.9277344,216.255859 C72.1347667,216.361329 72.3906235,216.414062 72.6953125,216.414062 C72.9609388,216.414062 73.1894522,216.372071 73.3808594,216.288086 C73.5722666,216.204101 73.7314447,216.095704 73.8583984,215.962891 C73.9853522,215.830077 74.0791013,215.683595 74.1396484,215.523438 C74.2001956,215.36328 74.2304688,215.203126 74.2304688,215.042969 C74.2304688,214.964843 74.2548826,214.911133 74.3037109,214.881836 C74.3525393,214.852539 74.4042966,214.837891 74.4589844,214.837891 L74.7109375,214.837891 C74.7734378,214.837891 74.8291013,214.862304 74.8779297,214.911133 C74.9267581,214.959961 74.9511719,215.015625 74.9511719,215.078125 C74.9511719,215.351564 74.8974615,215.61035 74.7900391,215.854492 C74.6826167,216.098634 74.5283213,216.314452 74.3271484,216.501953 C74.1259756,216.689454 73.8876967,216.838867 73.6123047,216.950195 C73.3369127,217.061524 73.0312517,217.117188 72.6953125,217.117188 C72.3359357,217.117188 72.0117202,217.057618 71.7226562,216.938477 C71.4335923,216.819335 71.1855479,216.658204 70.9785156,216.455078 C70.7714833,216.251952 70.6074225,216.009767 70.4863281,215.728516 C70.3652338,215.447264 70.2929689,215.150392 70.2695312,214.837891 Z M76,214.837891 C75.9843749,214.599608 75.9765625,214.320314 75.9765625,214 C75.9765625,213.679686 75.9843749,213.400392 76,213.162109 C76.0234376,212.849608 76.0957025,212.552736 76.2167969,212.271484 C76.3378912,211.990233 76.5019521,211.748048 76.7089844,211.544922 C76.9160167,211.341796 77.1640611,211.180665 77.453125,211.061523 C77.7421889,210.942382 78.0664045,210.882812 78.4257812,210.882812 C78.7617204,210.882812 79.0673814,210.938476 79.3427734,211.049805 C79.6181654,211.161133 79.8564443,211.310546 80.0576172,211.498047 C80.2587901,211.685548 80.4130854,211.901366 80.5205078,212.145508 C80.6279302,212.38965 80.6816406,212.648436 80.6816406,212.921875 C80.6816406,212.984375 80.6630861,213.040039 80.6259766,213.088867 C80.588867,213.137696 80.5390628,213.162109 80.4765625,213.162109 L80.2011719,213.162109 C80.1464841,213.162109 80.0947268,213.145508 80.0458984,213.112305 C79.9970701,213.079101 79.9726562,213.03125 79.9726562,212.96875 C79.9726562,212.792968 79.9384769,212.621095 79.8701172,212.453125 C79.8017575,212.285155 79.7021491,212.136719 79.5712891,212.007812 C79.440429,211.878906 79.2783213,211.776368 79.0849609,211.700195 C78.8916006,211.624023 78.6718762,211.585938 78.4257812,211.585938 C78.1210922,211.585938 77.8652354,211.638671 77.6582031,211.744141 C77.4511708,211.84961 77.2812507,211.979491 77.1484375,212.133789 C77.0156243,212.288087 76.9169925,212.458007 76.8525391,212.643555 C76.7880856,212.829102 76.748047,213.001952 76.7324219,213.162109 C76.7089843,213.408204 76.6972656,213.687498 76.6972656,214 C76.6972656,214.312502 76.7089843,214.591796 76.7324219,214.837891 C76.748047,214.998048 76.7880856,215.170898 76.8525391,215.356445 C76.9169925,215.541993 77.0156243,215.711913 77.1484375,215.866211 C77.2812507,216.020509 77.4511708,216.15039 77.6582031,216.255859 C77.8652354,216.361329 78.1210922,216.414062 78.4257812,216.414062 C78.6914076,216.414062 78.9199209,216.372071 79.1113281,216.288086 C79.3027353,216.204101 79.4619134,216.095704 79.5888672,215.962891 C79.7158209,215.830077 79.80957,215.683595 79.8701172,215.523438 C79.9306644,215.36328 79.9609375,215.203126 79.9609375,215.042969 C79.9609375,214.964843 79.9853513,214.911133 80.0341797,214.881836 C80.0830081,214.852539 80.1347654,214.837891 80.1894531,214.837891 L80.4414062,214.837891 C80.5039066,214.837891 80.5595701,214.862304 80.6083984,214.911133 C80.6572268,214.959961 80.6816406,215.015625 80.6816406,215.078125 C80.6816406,215.351564 80.6279302,215.61035 80.5205078,215.854492 C80.4130854,216.098634 80.2587901,216.314452 80.0576172,216.501953 C79.8564443,216.689454 79.6181654,216.838867 79.3427734,216.950195 C79.0673814,217.061524 78.7617204,217.117188 78.4257812,217.117188 C78.0664045,217.117188 77.7421889,217.057618 77.453125,216.938477 C77.1640611,216.819335 76.9160167,216.658204 76.7089844,216.455078 C76.5019521,216.251952 76.3378912,216.009767 76.2167969,215.728516 C76.0957025,215.447264 76.0234376,215.150392 76,214.837891 Z M81.7304688,214.837891 C81.7148437,214.599608 81.7070312,214.320314 81.7070312,214 C81.7070312,213.679686 81.7148437,213.400392 81.7304688,213.162109 C81.7539064,212.849608 81.8261713,212.552736 81.9472656,212.271484 C82.06836,211.990233 82.2324208,211.748048 82.4394531,211.544922 C82.6464854,211.341796 82.8945298,211.180665 83.1835938,211.061523 C83.4726577,210.942382 83.7968732,210.882812 84.15625,210.882812 C84.5156268,210.882812 84.8388658,210.942382 85.1259766,211.061523 C85.4130874,211.180665 85.6611318,211.341796 85.8701172,211.544922 C86.0791026,211.748048 86.2431635,211.990233 86.3623047,212.271484 C86.4814459,212.552736 86.5546874,212.849608 86.5820312,213.162109 C86.5976563,213.400392 86.6054688,213.679686 86.6054688,214 C86.6054688,214.320314 86.5976563,214.599608 86.5820312,214.837891 C86.5585936,215.150392 86.4863287,215.447264 86.3652344,215.728516 C86.24414,216.009767 86.0791026,216.251952 85.8701172,216.455078 C85.6611318,216.658204 85.4130874,216.819335 85.1259766,216.938477 C84.8388658,217.057618 84.5156268,217.117188 84.15625,217.117188 C83.7968732,217.117188 83.4726577,217.057618 83.1835938,216.938477 C82.8945298,216.819335 82.6464854,216.658204 82.4394531,216.455078 C82.2324208,216.251952 82.06836,216.009767 81.9472656,215.728516 C81.8261713,215.447264 81.7539064,215.150392 81.7304688,214.837891 Z M82.4628906,213.162109 C82.439453,213.408204 82.4277344,213.687498 82.4277344,214 C82.4277344,214.312502 82.439453,214.591796 82.4628906,214.837891 C82.4785157,214.998048 82.5185544,215.170898 82.5830078,215.356445 C82.6474613,215.541993 82.7460931,215.711913 82.8789062,215.866211 C83.0117194,216.020509 83.1816396,216.15039 83.3886719,216.255859 C83.5957042,216.361329 83.851561,216.414062 84.15625,216.414062 C84.4531265,216.414062 84.7070302,216.361329 84.9179688,216.255859 C85.1289073,216.15039 85.3007806,216.020509 85.4335938,215.866211 C85.5664069,215.711913 85.6650387,215.541993 85.7294922,215.356445 C85.7939456,215.170898 85.8339843,214.998048 85.8496094,214.837891 C85.873047,214.591796 85.8847656,214.312502 85.8847656,214 C85.8847656,213.687498 85.873047,213.408204 85.8496094,213.162109 C85.8339843,213.001952 85.7939456,212.829102 85.7294922,212.643555 C85.6650387,212.458007 85.5664069,212.288087 85.4335938,212.133789 C85.3007806,211.979491 85.1289073,211.84961 84.9179688,211.744141 C84.7070302,211.638671 84.4531265,211.585938 84.15625,211.585938 C83.851561,211.585938 83.5957042,211.638671 83.3886719,211.744141 C83.1816396,211.84961 83.0117194,211.979491 82.8789062,212.133789 C82.7460931,212.288087 82.6474613,212.458007 82.5830078,212.643555 C82.5185544,212.829102 82.4785157,213.001952 82.4628906,213.162109 Z M87.8535156,215.03125 L87.8535156,211.240234 C87.8535156,211.177734 87.8769529,211.122071 87.9238281,211.073242 C87.9707034,211.024414 88.0273434,211 88.09375,211 L88.3222656,211 C88.3847659,211 88.4394529,211.024414 88.4863281,211.073242 C88.5332034,211.122071 88.5566406,211.177734 88.5566406,211.240234 L88.5566406,215.03125 C88.5566406,215.535159 88.7031235,215.891601 88.9960938,216.100586 C89.289064,216.309571 89.6523416,216.414062 90.0859375,216.414062 C90.3007823,216.414062 90.4999991,216.379883 90.6835938,216.311523 C90.8671884,216.243164 91.0292962,216.148438 91.1699219,216.027344 C91.3105476,215.906249 91.4189449,215.765626 91.4951172,215.605469 C91.5712894,215.445312 91.609375,215.273438 91.609375,215.089844 L91.609375,211.240234 C91.609375,211.177734 91.6328123,211.122071 91.6796875,211.073242 C91.7265627,211.024414 91.7832028,211 91.8496094,211 L92.078125,211 C92.1406253,211 92.1953123,211.024414 92.2421875,211.073242 C92.2890627,211.122071 92.3125,211.177734 92.3125,211.240234 L92.3125,216.759766 C92.3125,216.822266 92.2890627,216.877929 92.2421875,216.926758 C92.1953123,216.975586 92.1406253,217 92.078125,217 L91.8847656,217 C91.8300779,217 91.7734378,216.972657 91.7148438,216.917969 C91.6757811,216.878906 91.6357424,216.836914 91.5947266,216.791992 C91.5537107,216.74707 91.4980472,216.724609 91.4277344,216.724609 C91.3378902,216.724609 91.2558597,216.74414 91.1816406,216.783203 C91.1074215,216.822266 91.0195318,216.868164 90.9179688,216.920898 C90.8164057,216.973633 90.6943367,217.019531 90.5517578,217.058594 C90.409179,217.097656 90.2246105,217.117188 89.9980469,217.117188 C89.6855453,217.117188 89.3974623,217.073243 89.1337891,216.985352 C88.8701159,216.89746 88.6425791,216.765626 88.4511719,216.589844 C88.2597647,216.414062 88.1123052,216.19629 88.0087891,215.936523 C87.9052729,215.676757 87.8535156,215.375002 87.8535156,215.03125 Z M93.6308594,216.759766 L93.6308594,211.240234 C93.6308594,211.177734 93.6542966,211.122071 93.7011719,211.073242 C93.7480471,211.024414 93.8046872,211 93.8710938,211 L94.0644531,211 C94.1191409,211 94.1738279,211.027343 94.2285156,211.082031 C94.2675783,211.121094 94.307617,211.163086 94.3486328,211.208008 C94.3896486,211.25293 94.4453121,211.275391 94.515625,211.275391 C94.6054692,211.275391 94.6884762,211.25586 94.7646484,211.216797 C94.8408207,211.177734 94.9287104,211.131836 95.0283203,211.079102 C95.1279302,211.026367 95.2499993,210.980469 95.3945312,210.941406 C95.5390632,210.902344 95.7226551,210.882812 95.9453125,210.882812 C96.2578141,210.882812 96.5458971,210.926757 96.8095703,211.014648 C97.0732435,211.10254 97.3007803,211.234374 97.4921875,211.410156 C97.6835947,211.585938 97.8320307,211.80371 97.9375,212.063477 C98.0429693,212.323243 98.0957031,212.624998 98.0957031,212.96875 L98.0957031,216.759766 C98.0957031,216.822266 98.0712893,216.877929 98.0224609,216.926758 C97.9736326,216.975586 97.9179691,217 97.8554688,217 L97.6269531,217 C97.5644528,217 97.5087893,216.975586 97.4599609,216.926758 C97.4111326,216.877929 97.3867188,216.822266 97.3867188,216.759766 L97.3867188,212.96875 C97.3867188,212.464841 97.2402358,212.108399 96.9472656,211.899414 C96.6542954,211.690429 96.2929709,211.585938 95.8632812,211.585938 C95.6484364,211.585938 95.4482431,211.620117 95.2626953,211.688477 C95.0771475,211.756836 94.9150398,211.851562 94.7763672,211.972656 C94.6376946,212.093751 94.5302738,212.234374 94.4541016,212.394531 C94.3779293,212.554688 94.3398438,212.726562 94.3398438,212.910156 L94.3398438,216.759766 C94.3398438,216.822266 94.3154299,216.877929 94.2666016,216.926758 C94.2177732,216.975586 94.1621097,217 94.0996094,217 L93.8710938,217 C93.8085934,217 93.7529299,216.975586 93.7041016,216.926758 C93.6552732,216.877929 93.6308594,216.822266 93.6308594,216.759766 Z M98.7519531,211.527344 L98.7519531,211.298828 C98.7519531,211.236328 98.7763669,211.180664 98.8251953,211.131836 C98.8740237,211.083008 98.9296872,211.058594 98.9921875,211.058594 L99.9648438,211.058594 C100.042969,211.058594 100.083984,211.019532 100.087891,210.941406 L100.087891,209.078125 C100.087891,209.015625 100.111328,208.959961 100.158203,208.911133 C100.205078,208.862304 100.261718,208.837891 100.328125,208.837891 L100.5625,208.837891 C100.625,208.837891 100.680664,208.862304 100.729492,208.911133 C100.778321,208.959961 100.802734,209.015625 100.802734,209.078125 L100.802734,210.941406 C100.802734,211.019532 100.84375,211.058594 100.925781,211.058594 L102.4375,211.058594 C102.5,211.058594 102.555664,211.083008 102.604492,211.131836 C102.653321,211.180664 102.677734,211.236328 102.677734,211.298828 L102.677734,211.527344 C102.677734,211.589844 102.653321,211.645508 102.604492,211.694336 C102.555664,211.743164 102.5,211.767578 102.4375,211.767578 L100.925781,211.767578 C100.847656,211.767578 100.806641,211.808593 100.802734,211.890625 L100.802734,215.078125 C100.802734,215.503908 100.884765,215.818358 101.048828,216.021484 C101.212891,216.22461 101.511717,216.326172 101.945312,216.326172 L102.554688,216.326172 C102.617188,216.326172 102.672851,216.350586 102.72168,216.399414 C102.770508,216.448242 102.794922,216.503906 102.794922,216.566406 L102.794922,216.759766 C102.794922,216.822266 102.771485,216.877929 102.724609,216.926758 C102.677734,216.975586 102.621094,217 102.554688,217 L101.945312,217 C101.320309,217 100.854494,216.853517 100.547852,216.560547 C100.241209,216.267577 100.087891,215.773441 100.087891,215.078125 L100.087891,211.890625 C100.087891,211.8125 100.046875,211.771484 99.9648438,211.767578 L98.9921875,211.767578 C98.9296872,211.767578 98.8740237,211.743164 98.8251953,211.694336 C98.7763669,211.645508 98.7519531,211.589844 98.7519531,211.527344 Z M103.527344,215.201172 C103.527344,214.955077 103.571289,214.723634 103.65918,214.506836 C103.747071,214.290038 103.874999,214.103516 104.042969,213.947266 C104.210938,213.791015 104.418944,213.668946 104.666992,213.581055 C104.91504,213.493164 105.195311,213.449219 105.507812,213.449219 L107.224609,213.449219 C107.302735,213.449219 107.341797,213.408204 107.341797,213.326172 L107.341797,212.857422 C107.341797,212.466795 107.207033,212.149415 106.9375,211.905273 C106.667967,211.661132 106.320315,211.539062 105.894531,211.539062 C105.710937,211.539062 105.534181,211.565429 105.364258,211.618164 C105.194335,211.670899 105.045899,211.743164 104.918945,211.834961 C104.791992,211.926758 104.688477,212.036132 104.608398,212.163086 C104.52832,212.29004 104.488281,212.433593 104.488281,212.59375 C104.488281,212.699219 104.456055,212.759766 104.391602,212.775391 C104.327148,212.791016 104.267578,212.798828 104.212891,212.798828 L104.042969,212.798828 C103.882812,212.798828 103.802734,212.718751 103.802734,212.558594 C103.802734,212.277342 103.863281,212.033204 103.984375,211.826172 C104.105469,211.61914 104.265624,211.445313 104.464844,211.304688 C104.664063,211.164062 104.887694,211.058594 105.135742,210.988281 C105.38379,210.917968 105.636717,210.882812 105.894531,210.882812 C106.191408,210.882812 106.468749,210.921875 106.726562,211 C106.984376,211.078125 107.211913,211.199218 107.40918,211.363281 C107.606446,211.527345 107.762695,211.733397 107.87793,211.981445 C107.993165,212.229493 108.050781,212.525389 108.050781,212.869141 L108.050781,216.759766 C108.050781,216.822266 108.027344,216.877929 107.980469,216.926758 C107.933594,216.975586 107.876953,217 107.810547,217 L107.705078,217 C107.626953,217 107.570313,216.972657 107.535156,216.917969 C107.503906,216.871094 107.476563,216.817383 107.453125,216.756836 C107.429687,216.696289 107.376954,216.666016 107.294922,216.666016 C107.240234,216.666016 107.168946,216.689453 107.081055,216.736328 C106.993164,216.783203 106.884766,216.834961 106.755859,216.891602 C106.626952,216.948242 106.476563,217 106.304688,217.046875 C106.132812,217.09375 105.935548,217.117188 105.712891,217.117188 C105.345701,217.117188 105.023439,217.06543 104.746094,216.961914 C104.468749,216.858398 104.240235,216.718751 104.060547,216.542969 C103.880858,216.367187 103.747071,216.163087 103.65918,215.930664 C103.571289,215.698241 103.527344,215.455079 103.527344,215.201172 Z M104.236328,215.189453 C104.236328,215.404298 104.274414,215.589843 104.350586,215.746094 C104.426758,215.902345 104.530273,216.032226 104.661133,216.135742 C104.791993,216.239258 104.941405,216.317383 105.109375,216.370117 C105.277345,216.422852 105.458983,216.449219 105.654297,216.449219 C106.205081,216.449219 106.629881,216.32129 106.928711,216.06543 C107.227541,215.809569 107.376953,215.437502 107.376953,214.949219 L107.376953,214.228516 C107.376953,214.15039 107.337891,214.109375 107.259766,214.105469 L105.507812,214.105469 C105.171873,214.105469 104.875978,214.198241 104.620117,214.383789 C104.364257,214.569337 104.236328,214.837889 104.236328,215.189453 Z M109.574219,216.759766 L109.574219,211.240234 C109.574219,211.177734 109.597656,211.122071 109.644531,211.073242 C109.691406,211.024414 109.748047,211 109.814453,211 L110.007812,211 C110.0625,211 110.117187,211.027343 110.171875,211.082031 C110.210938,211.121094 110.250976,211.163086 110.291992,211.208008 C110.333008,211.25293 110.388672,211.275391 110.458984,211.275391 C110.548829,211.275391 110.631836,211.25586 110.708008,211.216797 C110.78418,211.177734 110.87207,211.131836 110.97168,211.079102 C111.07129,211.026367 111.193359,210.980469 111.337891,210.941406 C111.482423,210.902344 111.666015,210.882812 111.888672,210.882812 C112.201173,210.882812 112.489256,210.926757 112.75293,211.014648 C113.016603,211.10254 113.24414,211.234374 113.435547,211.410156 C113.626954,211.585938 113.77539,211.80371 113.880859,212.063477 C113.986329,212.323243 114.039062,212.624998 114.039062,212.96875 L114.039062,216.759766 C114.039062,216.822266 114.014649,216.877929 113.96582,216.926758 C113.916992,216.975586 113.861328,217 113.798828,217 L113.570312,217 C113.507812,217 113.452149,216.975586 113.40332,216.926758 C113.354492,216.877929 113.330078,216.822266 113.330078,216.759766 L113.330078,212.96875 C113.330078,212.464841 113.183595,212.108399 112.890625,211.899414 C112.597655,211.690429 112.23633,211.585938 111.806641,211.585938 C111.591796,211.585938 111.391602,211.620117 111.206055,211.688477 C111.020507,211.756836 110.858399,211.851562 110.719727,211.972656 C110.581054,212.093751 110.473633,212.234374 110.397461,212.394531 C110.321289,212.554688 110.283203,212.726562 110.283203,212.910156 L110.283203,216.759766 C110.283203,216.822266 110.258789,216.877929 110.209961,216.926758 C110.161133,216.975586 110.105469,217 110.042969,217 L109.814453,217 C109.751953,217 109.696289,216.975586 109.647461,216.926758 C109.598633,216.877929 109.574219,216.822266 109.574219,216.759766 Z M114.695312,211.527344 L114.695312,211.298828 C114.695312,211.236328 114.719726,211.180664 114.768555,211.131836 C114.817383,211.083008 114.873047,211.058594 114.935547,211.058594 L115.908203,211.058594 C115.986329,211.058594 116.027344,211.019532 116.03125,210.941406 L116.03125,209.078125 C116.03125,209.015625 116.054687,208.959961 116.101562,208.911133 C116.148438,208.862304 116.205078,208.837891 116.271484,208.837891 L116.505859,208.837891 C116.56836,208.837891 116.624023,208.862304 116.672852,208.911133 C116.72168,208.959961 116.746094,209.015625 116.746094,209.078125 L116.746094,210.941406 C116.746094,211.019532 116.787109,211.058594 116.869141,211.058594 L118.380859,211.058594 C118.44336,211.058594 118.499023,211.083008 118.547852,211.131836 C118.59668,211.180664 118.621094,211.236328 118.621094,211.298828 L118.621094,211.527344 C118.621094,211.589844 118.59668,211.645508 118.547852,211.694336 C118.499023,211.743164 118.44336,211.767578 118.380859,211.767578 L116.869141,211.767578 C116.791015,211.767578 116.75,211.808593 116.746094,211.890625 L116.746094,215.078125 C116.746094,215.503908 116.828124,215.818358 116.992188,216.021484 C117.156251,216.22461 117.455076,216.326172 117.888672,216.326172 L118.498047,216.326172 C118.560547,216.326172 118.616211,216.350586 118.665039,216.399414 C118.713867,216.448242 118.738281,216.503906 118.738281,216.566406 L118.738281,216.759766 C118.738281,216.822266 118.714844,216.877929 118.667969,216.926758 C118.621094,216.975586 118.564453,217 118.498047,217 L117.888672,217 C117.263669,217 116.797853,216.853517 116.491211,216.560547 C116.184569,216.267577 116.03125,215.773441 116.03125,215.078125 L116.03125,211.890625 C116.03125,211.8125 115.990235,211.771484 115.908203,211.767578 L114.935547,211.767578 C114.873047,211.767578 114.817383,211.743164 114.768555,211.694336 C114.719726,211.645508 114.695312,211.589844 114.695312,211.527344 Z M122.253906,214.837891 C122.238281,214.599608 122.230469,214.320314 122.230469,214 C122.230469,213.679686 122.238281,213.400392 122.253906,213.162109 C122.277344,212.849608 122.351562,212.552736 122.476562,212.271484 C122.601563,211.990233 122.76953,211.748048 122.980469,211.544922 C123.191407,211.341796 123.443358,211.180665 123.736328,211.061523 C124.029298,210.942382 124.355467,210.882812 124.714844,210.882812 C125.050783,210.882812 125.365233,210.946288 125.658203,211.073242 C125.951173,211.200196 126.205077,211.372069 126.419922,211.588867 C126.634767,211.805665 126.804687,212.059569 126.929688,212.350586 C127.054688,212.641603 127.117188,212.95117 127.117188,213.279297 L127.117188,214.046875 C127.117188,214.109375 127.092774,214.165039 127.043945,214.213867 C126.995117,214.262696 126.939453,214.287109 126.876953,214.287109 L123.068359,214.287109 C122.990234,214.287109 122.951172,214.328125 122.951172,214.410156 C122.951172,214.69922 122.985351,214.964843 123.053711,215.207031 C123.122071,215.44922 123.227538,215.660155 123.370117,215.839844 C123.512696,216.019532 123.694335,216.160156 123.915039,216.261719 C124.135743,216.363282 124.402342,216.414062 124.714844,216.414062 C124.945314,216.414062 125.151366,216.381836 125.333008,216.317383 C125.514649,216.252929 125.670898,216.166993 125.801758,216.05957 C125.932618,215.952148 126.040039,215.832032 126.124023,215.699219 C126.208008,215.566406 126.273437,215.427735 126.320312,215.283203 C126.34375,215.205078 126.381836,215.151367 126.43457,215.12207 C126.487305,215.092773 126.542968,215.078125 126.601562,215.078125 L126.835938,215.078125 C126.898438,215.078125 126.952148,215.09668 126.99707,215.133789 C127.041992,215.170899 127.056641,215.232421 127.041016,215.318359 C127.001953,215.583986 126.918946,215.827147 126.791992,216.047852 C126.665038,216.268556 126.499024,216.458007 126.293945,216.616211 C126.088866,216.774415 125.85254,216.89746 125.584961,216.985352 C125.317381,217.073243 125.027345,217.117188 124.714844,217.117188 C124.355467,217.117188 124.029298,217.057618 123.736328,216.938477 C123.443358,216.819335 123.191407,216.658204 122.980469,216.455078 C122.76953,216.251952 122.601563,216.009767 122.476562,215.728516 C122.351562,215.447264 122.277344,215.150392 122.253906,214.837891 Z M122.974609,213.496094 C122.974609,213.574219 123.015625,213.613281 123.097656,213.613281 L126.332031,213.613281 C126.410157,213.613281 126.451172,213.574219 126.455078,213.496094 C126.455078,213.191405 126.411133,212.9209 126.323242,212.68457 C126.235351,212.448241 126.113282,212.248048 125.957031,212.083984 C125.80078,211.919921 125.618165,211.795899 125.40918,211.711914 C125.200194,211.627929 124.972657,211.585938 124.726562,211.585938 C124.191404,211.585938 123.765627,211.749998 123.449219,212.078125 C123.132811,212.406252 122.974609,212.878903 122.974609,213.496094 Z M127.457031,216.871094 C127.441406,216.839844 127.433594,216.806641 127.433594,216.771484 C127.433594,216.716797 127.453125,216.660157 127.492188,216.601562 L129.285156,213.882812 C129.316406,213.828125 129.320313,213.775391 129.296875,213.724609 L127.697266,211.398438 C127.634765,211.300781 127.623047,211.209961 127.662109,211.125977 C127.701172,211.041992 127.777343,211 127.890625,211 L128.154297,211 C128.244141,211 128.30664,211.011719 128.341797,211.035156 C128.376953,211.058594 128.402344,211.085937 128.417969,211.117188 L129.689453,213.097656 C129.720703,213.160157 129.753906,213.160157 129.789062,213.097656 L131.060547,211.117188 C131.076172,211.085937 131.101562,211.058594 131.136719,211.035156 C131.171875,211.011719 131.234375,211 131.324219,211 L131.587891,211 C131.701172,211 131.777344,211.041992 131.816406,211.125977 C131.855469,211.209961 131.84375,211.300781 131.78125,211.398438 L130.181641,213.724609 C130.158203,213.771485 130.162109,213.824218 130.193359,213.882812 L131.980469,216.601562 C132.019531,216.660157 132.039062,216.716797 132.039062,216.771484 C132.039062,216.806641 132.03125,216.839844 132.015625,216.871094 C131.976562,216.957032 131.902344,217 131.792969,217 L131.505859,217 C131.416015,217 131.353516,216.988281 131.318359,216.964844 C131.283203,216.941406 131.255859,216.914063 131.236328,216.882812 L129.789062,214.597656 C129.757812,214.535156 129.72461,214.535156 129.689453,214.597656 L128.236328,216.882812 C128.220703,216.914063 128.195313,216.941406 128.160156,216.964844 C128.125,216.988281 128.0625,217 127.972656,217 L127.685547,217 C127.572265,217 127.496094,216.957032 127.457031,216.871094 Z M132.865234,215.201172 C132.865234,214.955077 132.909179,214.723634 132.99707,214.506836 C133.084961,214.290038 133.21289,214.103516 133.380859,213.947266 C133.548829,213.791015 133.756835,213.668946 134.004883,213.581055 C134.252931,213.493164 134.533202,213.449219 134.845703,213.449219 L136.5625,213.449219 C136.640625,213.449219 136.679688,213.408204 136.679688,213.326172 L136.679688,212.857422 C136.679688,212.466795 136.544923,212.149415 136.275391,211.905273 C136.005858,211.661132 135.658205,211.539062 135.232422,211.539062 C135.048827,211.539062 134.872071,211.565429 134.702148,211.618164 C134.532226,211.670899 134.38379,211.743164 134.256836,211.834961 C134.129882,211.926758 134.026368,212.036132 133.946289,212.163086 C133.866211,212.29004 133.826172,212.433593 133.826172,212.59375 C133.826172,212.699219 133.793946,212.759766 133.729492,212.775391 C133.665039,212.791016 133.605469,212.798828 133.550781,212.798828 L133.380859,212.798828 C133.220702,212.798828 133.140625,212.718751 133.140625,212.558594 C133.140625,212.277342 133.201171,212.033204 133.322266,211.826172 C133.44336,211.61914 133.603515,211.445313 133.802734,211.304688 C134.001954,211.164062 134.225585,211.058594 134.473633,210.988281 C134.721681,210.917968 134.974608,210.882812 135.232422,210.882812 C135.529298,210.882812 135.806639,210.921875 136.064453,211 C136.322267,211.078125 136.549804,211.199218 136.74707,211.363281 C136.944337,211.527345 137.100585,211.733397 137.21582,211.981445 C137.331055,212.229493 137.388672,212.525389 137.388672,212.869141 L137.388672,216.759766 C137.388672,216.822266 137.365235,216.877929 137.318359,216.926758 C137.271484,216.975586 137.214844,217 137.148438,217 L137.042969,217 C136.964843,217 136.908203,216.972657 136.873047,216.917969 C136.841797,216.871094 136.814453,216.817383 136.791016,216.756836 C136.767578,216.696289 136.714844,216.666016 136.632812,216.666016 C136.578125,216.666016 136.506836,216.689453 136.418945,216.736328 C136.331054,216.783203 136.222657,216.834961 136.09375,216.891602 C135.964843,216.948242 135.814454,217 135.642578,217.046875 C135.470702,217.09375 135.273439,217.117188 135.050781,217.117188 C134.683592,217.117188 134.36133,217.06543 134.083984,216.961914 C133.806639,216.858398 133.578126,216.718751 133.398438,216.542969 C133.218749,216.367187 133.084961,216.163087 132.99707,215.930664 C132.909179,215.698241 132.865234,215.455079 132.865234,215.201172 Z M133.574219,215.189453 C133.574219,215.404298 133.612304,215.589843 133.688477,215.746094 C133.764649,215.902345 133.868163,216.032226 133.999023,216.135742 C134.129883,216.239258 134.279296,216.317383 134.447266,216.370117 C134.615235,216.422852 134.796874,216.449219 134.992188,216.449219 C135.542972,216.449219 135.967772,216.32129 136.266602,216.06543 C136.565431,215.809569 136.714844,215.437502 136.714844,214.949219 L136.714844,214.228516 C136.714844,214.15039 136.675782,214.109375 136.597656,214.105469 L134.845703,214.105469 C134.509764,214.105469 134.213868,214.198241 133.958008,214.383789 C133.702147,214.569337 133.574219,214.837889 133.574219,215.189453 Z M138.912109,216.759766 L138.912109,211.240234 C138.912109,211.177734 138.935547,211.122071 138.982422,211.073242 C139.029297,211.024414 139.085937,211 139.152344,211 L139.345703,211 C139.400391,211 139.455078,211.027343 139.509766,211.082031 L139.635742,211.208008 C139.680664,211.25293 139.738281,211.275391 139.808594,211.275391 C139.90625,211.275391 139.99707,211.25586 140.081055,211.216797 C140.165039,211.177734 140.256835,211.131836 140.356445,211.079102 C140.456055,211.026367 140.568359,210.980469 140.693359,210.941406 C140.81836,210.902344 140.972655,210.882812 141.15625,210.882812 C141.332032,210.882812 141.488281,210.902344 141.625,210.941406 C141.761719,210.980469 141.881835,211.030273 141.985352,211.09082 C142.088868,211.151367 142.182617,211.21289 142.266602,211.275391 C142.350586,211.337891 142.423828,211.398437 142.486328,211.457031 C142.576172,211.527344 142.655273,211.5625 142.723633,211.5625 C142.791993,211.5625 142.86914,211.527344 142.955078,211.457031 C143.017578,211.402343 143.095703,211.342774 143.189453,211.27832 C143.283204,211.213867 143.393554,211.151367 143.520508,211.09082 C143.647462,211.030273 143.794921,210.980469 143.962891,210.941406 C144.13086,210.902344 144.322265,210.882812 144.537109,210.882812 C144.849611,210.882812 145.125975,210.93457 145.366211,211.038086 C145.606447,211.141602 145.80664,211.287108 145.966797,211.474609 C146.126954,211.66211 146.24707,211.883788 146.327148,212.139648 C146.407227,212.395509 146.447266,212.671874 146.447266,212.96875 L146.447266,216.759766 C146.447266,216.822266 146.422852,216.877929 146.374023,216.926758 C146.325195,216.975586 146.269532,217 146.207031,217 L145.978516,217 C145.916015,217 145.860352,216.975586 145.811523,216.926758 C145.762695,216.877929 145.738281,216.822266 145.738281,216.759766 L145.738281,212.96875 C145.738281,212.519529 145.618165,212.176759 145.37793,211.94043 C145.137694,211.7041 144.818361,211.585938 144.419922,211.585938 C144.236327,211.585938 144.060548,211.62207 143.892578,211.694336 C143.724609,211.766602 143.576173,211.865234 143.447266,211.990234 C143.318359,212.115235 143.215821,212.261718 143.139648,212.429688 C143.063476,212.597657 143.025391,212.777343 143.025391,212.96875 L143.025391,216.759766 C143.025391,216.822266 143.001953,216.877929 142.955078,216.926758 C142.908203,216.975586 142.851563,217 142.785156,217 L142.574219,217 C142.511718,217 142.456055,216.975586 142.407227,216.926758 C142.358398,216.877929 142.333984,216.822266 142.333984,216.759766 L142.333984,212.96875 C142.333984,212.816405 142.301758,212.658204 142.237305,212.494141 C142.172851,212.330077 142.080079,212.179688 141.958984,212.042969 C141.83789,211.906249 141.691407,211.795899 141.519531,211.711914 C141.347655,211.627929 141.154298,211.585938 140.939453,211.585938 C140.755858,211.585938 140.583985,211.625976 140.423828,211.706055 C140.263671,211.786133 140.124024,211.890624 140.004883,212.019531 C139.885742,212.148438 139.791993,212.291015 139.723633,212.447266 C139.655273,212.603516 139.621094,212.757812 139.621094,212.910156 L139.621094,216.759766 C139.621094,216.822266 139.59668,216.877929 139.547852,216.926758 C139.499023,216.975586 139.44336,217 139.380859,217 L139.152344,217 C139.089843,217 139.03418,216.975586 138.985352,216.926758 C138.936523,216.877929 138.912109,216.822266 138.912109,216.759766 Z M147.789062,219.162109 L147.789062,211.240234 C147.789062,211.177734 147.813476,211.122071 147.862305,211.073242 C147.911133,211.024414 147.966797,211 148.029297,211 L148.222656,211 C148.277344,211 148.332031,211.027343 148.386719,211.082031 C148.425781,211.121094 148.469726,211.163086 148.518555,211.208008 C148.567383,211.25293 148.625,211.275391 148.691406,211.275391 C148.78125,211.275391 148.859375,211.25586 148.925781,211.216797 C148.992188,211.177734 149.073242,211.131836 149.168945,211.079102 C149.264649,211.026367 149.380859,210.980469 149.517578,210.941406 C149.654298,210.902344 149.833983,210.882812 150.056641,210.882812 C150.369142,210.882812 150.659178,210.942382 150.926758,211.061523 C151.194337,211.180665 151.42871,211.341796 151.629883,211.544922 C151.831056,211.748048 151.993163,211.990233 152.116211,212.271484 C152.239258,212.552736 152.3125,212.849608 152.335938,213.162109 C152.351563,213.400392 152.359375,213.679686 152.359375,214 C152.359375,214.320314 152.351563,214.599608 152.335938,214.837891 C152.3125,215.150392 152.239258,215.447264 152.116211,215.728516 C151.993163,216.009767 151.831056,216.251952 151.629883,216.455078 C151.42871,216.658204 151.194337,216.819335 150.926758,216.938477 C150.659178,217.057618 150.369142,217.117188 150.056641,217.117188 C149.865233,217.117188 149.701173,217.101563 149.564453,217.070312 C149.427734,217.039062 149.311524,217.00586 149.21582,216.970703 C149.120117,216.935547 149.036133,216.901367 148.963867,216.868164 C148.891601,216.834961 148.828125,216.818359 148.773438,216.818359 C148.695312,216.818359 148.629883,216.84082 148.577148,216.885742 C148.524414,216.930664 148.498047,217.007812 148.498047,217.117188 L148.498047,219.162109 C148.498047,219.22461 148.473633,219.280273 148.424805,219.329102 C148.375976,219.37793 148.320313,219.402344 148.257812,219.402344 L148.029297,219.402344 C147.966797,219.402344 147.911133,219.37793 147.862305,219.329102 C147.813476,219.280273 147.789062,219.22461 147.789062,219.162109 Z M148.521484,213.162109 C148.498047,213.408204 148.486328,213.687498 148.486328,214 C148.486328,214.312502 148.498047,214.591796 148.521484,214.837891 C148.537109,214.998048 148.573242,215.170898 148.629883,215.356445 C148.686524,215.541993 148.770507,215.711913 148.881836,215.866211 C148.993165,216.020509 149.140624,216.15039 149.324219,216.255859 C149.507813,216.361329 149.732421,216.414062 149.998047,216.414062 C150.287111,216.414062 150.531249,216.361329 150.730469,216.255859 C150.929688,216.15039 151.09082,216.020509 151.213867,215.866211 C151.336915,215.711913 151.428711,215.541993 151.489258,215.356445 C151.549805,215.170898 151.587891,214.998048 151.603516,214.837891 C151.634766,214.591796 151.650391,214.312502 151.650391,214 C151.650391,213.687498 151.634766,213.408204 151.603516,213.162109 C151.587891,213.001952 151.549805,212.829102 151.489258,212.643555 C151.428711,212.458007 151.336915,212.288087 151.213867,212.133789 C151.09082,211.979491 150.931642,211.84961 150.736328,211.744141 C150.541015,211.638671 150.294923,211.585938 149.998047,211.585938 C149.732421,211.585938 149.507813,211.638671 149.324219,211.744141 C149.140624,211.84961 148.993165,211.979491 148.881836,212.133789 C148.770507,212.288087 148.686524,212.458007 148.629883,212.643555 C148.573242,212.829102 148.537109,213.001952 148.521484,213.162109 Z M153.449219,216.759766 L153.449219,208.755859 C153.449219,208.693359 153.473633,208.637696 153.522461,208.588867 C153.571289,208.540039 153.626953,208.515625 153.689453,208.515625 L153.929688,208.515625 C153.992188,208.515625 154.047851,208.540039 154.09668,208.588867 C154.145508,208.637696 154.169922,208.693359 154.169922,208.755859 L154.169922,216.759766 C154.169922,216.822266 154.145508,216.877929 154.09668,216.926758 C154.047851,216.975586 153.992188,217 153.929688,217 L153.689453,217 C153.626953,217 153.571289,216.975586 153.522461,216.926758 C153.473633,216.877929 153.449219,216.822266 153.449219,216.759766 Z M155.488281,214.837891 C155.472656,214.599608 155.464844,214.320314 155.464844,214 C155.464844,213.679686 155.472656,213.400392 155.488281,213.162109 C155.511719,212.849608 155.585937,212.552736 155.710938,212.271484 C155.835938,211.990233 156.003905,211.748048 156.214844,211.544922 C156.425782,211.341796 156.677733,211.180665 156.970703,211.061523 C157.263673,210.942382 157.589842,210.882812 157.949219,210.882812 C158.285158,210.882812 158.599608,210.946288 158.892578,211.073242 C159.185548,211.200196 159.439452,211.372069 159.654297,211.588867 C159.869142,211.805665 160.039062,212.059569 160.164062,212.350586 C160.289063,212.641603 160.351562,212.95117 160.351562,213.279297 L160.351562,214.046875 C160.351562,214.109375 160.327149,214.165039 160.27832,214.213867 C160.229492,214.262696 160.173828,214.287109 160.111328,214.287109 L156.302734,214.287109 C156.224609,214.287109 156.185547,214.328125 156.185547,214.410156 C156.185547,214.69922 156.219726,214.964843 156.288086,215.207031 C156.356446,215.44922 156.461913,215.660155 156.604492,215.839844 C156.747071,216.019532 156.92871,216.160156 157.149414,216.261719 C157.370118,216.363282 157.636717,216.414062 157.949219,216.414062 C158.179689,216.414062 158.385741,216.381836 158.567383,216.317383 C158.749024,216.252929 158.905273,216.166993 159.036133,216.05957 C159.166993,215.952148 159.274414,215.832032 159.358398,215.699219 C159.442383,215.566406 159.507812,215.427735 159.554688,215.283203 C159.578125,215.205078 159.616211,215.151367 159.668945,215.12207 C159.72168,215.092773 159.777343,215.078125 159.835938,215.078125 L160.070312,215.078125 C160.132813,215.078125 160.186523,215.09668 160.231445,215.133789 C160.276367,215.170899 160.291016,215.232421 160.275391,215.318359 C160.236328,215.583986 160.153321,215.827147 160.026367,216.047852 C159.899413,216.268556 159.733399,216.458007 159.52832,216.616211 C159.323241,216.774415 159.086915,216.89746 158.819336,216.985352 C158.551756,217.073243 158.26172,217.117188 157.949219,217.117188 C157.589842,217.117188 157.263673,217.057618 156.970703,216.938477 C156.677733,216.819335 156.425782,216.658204 156.214844,216.455078 C156.003905,216.251952 155.835938,216.009767 155.710938,215.728516 C155.585937,215.447264 155.511719,215.150392 155.488281,214.837891 Z M156.208984,213.496094 C156.208984,213.574219 156.25,213.613281 156.332031,213.613281 L159.566406,213.613281 C159.644532,213.613281 159.685547,213.574219 159.689453,213.496094 C159.689453,213.191405 159.645508,212.9209 159.557617,212.68457 C159.469726,212.448241 159.347657,212.248048 159.191406,212.083984 C159.035155,211.919921 158.85254,211.795899 158.643555,211.711914 C158.434569,211.627929 158.207032,211.585938 157.960938,211.585938 C157.425779,211.585938 157.000002,211.749998 156.683594,212.078125 C156.367186,212.406252 156.208984,212.878903 156.208984,213.496094 Z" id="Accountant-example" fill="#292A2B"></path>
    </g>
</svg>