<?xml version="1.0" encoding="UTF-8"?>
<svg width="629px" height="420px" viewBox="0 0 629 420" version="1.1" xmlns="http://www.w3.org/2000/svg" xmlns:xlink="http://www.w3.org/1999/xlink">
    <!-- Generator: Sketch 49.1 (51147) - http://www.bohemiancoding.com/sketch -->
    <title>consalgoscalability</title>
    <desc>Created with Sketch.</desc>
    <defs></defs>
    <g id="consalgoscalability" stroke="none" stroke-width="1" fill="none" fill-rule="evenodd">
        <text id="Before-additional-no" font-family="GTPressura-Light, GT Pressura" font-size="12" font-weight="300" fill="#292A2B">
            <tspan x="0" y="12">Before additional </tspan>
            <tspan x="0" y="28">nodes join network</tspan>
        </text>
        <text id="After-additional-nod" font-family="GTPressura-Light, GT Pressura" font-size="12" font-weight="300" fill="#292A2B">
            <tspan x="0" y="197">After additional </tspan>
            <tspan x="0" y="213">nodes joined network</tspan>
        </text>
        <path d="M-0.500788589,167.5 L633.543056,167.5" id="Line" stroke="#292A2B" stroke-linecap="square" stroke-dasharray="1,5"></path>
        <path d="M125.5,349.5 L125.5,-4.95733171" id="Line" stroke="#292A2B" stroke-linecap="square" stroke-dasharray="1,5"></path>
        <g id="Group-3" transform="translate(385.000000, 13.000000)">
            <rect id="Rectangle" stroke="#292A2B" x="0.5" y="0.5" width="32" height="8" rx="1.5"></rect>
            <rect id="Rectangle" stroke="#292A2B" x="0.5" y="11.5" width="32" height="8" rx="1.5"></rect>
            <rect id="Rectangle" stroke="#292A2B" x="0.5" y="22.5" width="32" height="8" rx="1.5"></rect>
            <circle id="Oval-8" fill="#292A2B" cx="29" cy="5" r="1"></circle>
            <circle id="Oval-8" fill="#292A2B" cx="29" cy="16" r="1"></circle>
            <circle id="Oval-8" fill="#292A2B" cx="29" cy="27" r="1"></circle>
        </g>
        <g id="Group-3" transform="translate(318.000000, 113.000000)">
            <rect id="Rectangle" stroke="#292A2B" x="0.5" y="0.5" width="32" height="8" rx="1.5"></rect>
            <rect id="Rectangle" stroke="#292A2B" x="0.5" y="11.5" width="32" height="8" rx="1.5"></rect>
            <rect id="Rectangle" stroke="#292A2B" x="0.5" y="22.5" width="32" height="8" rx="1.5"></rect>
            <circle id="Oval-8" fill="#292A2B" cx="29" cy="5" r="1"></circle>
            <circle id="Oval-8" fill="#292A2B" cx="29" cy="16" r="1"></circle>
            <circle id="Oval-8" fill="#292A2B" cx="29" cy="27" r="1"></circle>
        </g>
        <g id="Group-3" transform="translate(201.000000, 24.000000)">
            <rect id="Rectangle" stroke="#292A2B" x="0.5" y="0.5" width="32" height="8" rx="1.5"></rect>
            <rect id="Rectangle" stroke="#292A2B" x="0.5" y="11.5" width="32" height="8" rx="1.5"></rect>
            <rect id="Rectangle" stroke="#292A2B" x="0.5" y="22.5" width="32" height="8" rx="1.5"></rect>
            <circle id="Oval-8" fill="#292A2B" cx="29" cy="5" r="1"></circle>
            <circle id="Oval-8" fill="#292A2B" cx="29" cy="16" r="1"></circle>
            <circle id="Oval-8" fill="#292A2B" cx="29" cy="27" r="1"></circle>
        </g>
        <path d="M382.5,52.5 L356.5,107.5" id="Path-2" stroke="#292A2B"></path>
        <path id="Path-2-decoration-1" d="M375.172083,60.9818416 L382.5,52.5 L380.596517,63.5461193" stroke="#292A2B"></path>
        <path id="Path-2-decoration-2" d="M358.403483,96.4538807 L356.5,107.5 L363.827917,99.0181584" stroke="#292A2B"></path>
        <path d="M377.5,29.5 L241.5,40.5" id="Path-2" stroke="#292A2B"></path>
        <path id="Path-2-decoration-1" d="M366.493297,27.3804511 L377.5,29.5 L366.977011,33.360921" stroke="#292A2B"></path>
        <path id="Path-2-decoration-2" d="M252.022989,36.639079 L241.5,40.5 L252.506703,42.6195489" stroke="#292A2B"></path>
        <g id="Group" transform="translate(341.000000, 69.000000)">
            <rect id="Rectangle-2" fill="#FFFFFF" x="5" y="2" width="68" height="14"></rect>
            <text id="12’000-tx/sec" font-family="GTPressura-Light, GT Pressura" font-size="12" font-weight="300" fill="#292A2B">
                <tspan x="0.555664062" y="13">12’000 tx/sec</tspan>
            </text>
        </g>
        <g id="Group" transform="translate(269.000000, 24.000000)">
            <rect id="Rectangle-2" fill="#FFFFFF" x="0" y="2" width="83" height="14"></rect>
            <text id="12’000-tx/sec" font-family="GTPressura-Light, GT Pressura" font-size="12" font-weight="300" fill="#292A2B">
                <tspan x="8.55566406" y="13">12’000 tx/sec</tspan>
            </text>
        </g>
        <g id="Group-3" transform="translate(383.000000, 193.581735)">
            <rect id="Rectangle" stroke="#292A2B" x="0.5" y="0.5" width="32" height="8" rx="1.5"></rect>
            <rect id="Rectangle" stroke="#292A2B" x="0.5" y="11.5" width="32" height="8" rx="1.5"></rect>
            <rect id="Rectangle" stroke="#292A2B" x="0.5" y="22.5" width="32" height="8" rx="1.5"></rect>
            <circle id="Oval-8" fill="#292A2B" cx="29" cy="5" r="1"></circle>
            <circle id="Oval-8" fill="#292A2B" cx="29" cy="16" r="1"></circle>
            <circle id="Oval-8" fill="#292A2B" cx="29" cy="27" r="1"></circle>
        </g>
        <g id="Group-3" transform="translate(316.000000, 293.581735)">
            <rect id="Rectangle" stroke="#292A2B" x="0.5" y="0.5" width="32" height="8" rx="1.5"></rect>
            <rect id="Rectangle" stroke="#292A2B" x="0.5" y="11.5" width="32" height="8" rx="1.5"></rect>
            <rect id="Rectangle" stroke="#292A2B" x="0.5" y="22.5" width="32" height="8" rx="1.5"></rect>
            <circle id="Oval-8" fill="#292A2B" cx="29" cy="5" r="1"></circle>
            <circle id="Oval-8" fill="#292A2B" cx="29" cy="16" r="1"></circle>
            <circle id="Oval-8" fill="#292A2B" cx="29" cy="27" r="1"></circle>
        </g>
        <g id="Group-3" transform="translate(492.000000, 216.000000)">
            <rect id="Rectangle" stroke="#F25B44" x="0.5" y="0.5" width="32" height="8" rx="1.5"></rect>
            <rect id="Rectangle" stroke="#F25B44" x="0.5" y="11.5" width="32" height="8" rx="1.5"></rect>
            <rect id="Rectangle" stroke="#F25B44" x="0.5" y="22.5" width="32" height="8" rx="1.5"></rect>
            <circle id="Oval-8" fill="#F25B44" cx="29" cy="5" r="1"></circle>
            <circle id="Oval-8" fill="#F25B44" cx="29" cy="16" r="1"></circle>
            <circle id="Oval-8" fill="#F25B44" cx="29" cy="27" r="1"></circle>
        </g>
        <g id="Group-3" transform="translate(423.000000, 334.000000)">
            <rect id="Rectangle" stroke="#F25B44" x="0.5" y="0.5" width="32" height="8" rx="1.5"></rect>
            <rect id="Rectangle" stroke="#F25B44" x="0.5" y="11.5" width="32" height="8" rx="1.5"></rect>
            <rect id="Rectangle" stroke="#F25B44" x="0.5" y="22.5" width="32" height="8" rx="1.5"></rect>
            <circle id="Oval-8" fill="#F25B44" cx="29" cy="5" r="1"></circle>
            <circle id="Oval-8" fill="#F25B44" cx="29" cy="16" r="1"></circle>
            <circle id="Oval-8" fill="#F25B44" cx="29" cy="27" r="1"></circle>
        </g>
        <g id="Group-3" transform="translate(189.000000, 257.000000)">
            <rect id="Rectangle" stroke="#F25B44" x="0.5" y="0.5" width="32" height="8" rx="1.5"></rect>
            <rect id="Rectangle" stroke="#F25B44" x="0.5" y="11.5" width="32" height="8" rx="1.5"></rect>
            <rect id="Rectangle" stroke="#F25B44" x="0.5" y="22.5" width="32" height="8" rx="1.5"></rect>
            <circle id="Oval-8" fill="#F25B44" cx="29" cy="5" r="1"></circle>
            <circle id="Oval-8" fill="#F25B44" cx="29" cy="16" r="1"></circle>
            <circle id="Oval-8" fill="#F25B44" cx="29" cy="27" r="1"></circle>
        </g>
        <g id="Group-3" transform="translate(199.000000, 204.581735)">
            <rect id="Rectangle" stroke="#292A2B" x="0.5" y="0.5" width="32" height="8" rx="1.5"></rect>
            <rect id="Rectangle" stroke="#292A2B" x="0.5" y="11.5" width="32" height="8" rx="1.5"></rect>
            <rect id="Rectangle" stroke="#292A2B" x="0.5" y="22.5" width="32" height="8" rx="1.5"></rect>
            <circle id="Oval-8" fill="#292A2B" cx="29" cy="5" r="1"></circle>
            <circle id="Oval-8" fill="#292A2B" cx="29" cy="16" r="1"></circle>
            <circle id="Oval-8" fill="#292A2B" cx="29" cy="27" r="1"></circle>
        </g>
        <path d="M379.5,233.081735 L353.5,288.081735" id="Path-2" stroke="#292A2B"></path>
        <path id="Path-2-decoration-1" d="M372.172083,241.563576 L379.5,233.081735 L377.596517,244.127854" stroke="#292A2B"></path>
        <path id="Path-2-decoration-2" d="M355.403483,277.035615 L353.5,288.081735 L360.827917,279.599893" stroke="#292A2B"></path>
        <path d="M232.5,282.5 L306.5,309.081735" id="Path-2" stroke="#292A2B"></path>
        <path id="Path-2-decoration-1" d="M241.649942,288.974455 L232.5,282.5 L243.678322,283.327715" stroke="#292A2B"></path>
        <path id="Path-2-decoration-2" d="M295.321678,308.25402 L306.5,309.081735 L297.350058,302.60728" stroke="#292A2B"></path>
        <path d="M374.5,210.081735 L238.5,221.081735" id="Path-2" stroke="#292A2B"></path>
        <path id="Path-2-decoration-1" d="M363.493297,207.962186 L374.5,210.081735 L363.977011,213.942656" stroke="#292A2B"></path>
        <path id="Path-2-decoration-2" d="M249.022989,217.220814 L238.5,221.081735 L249.506703,223.201284" stroke="#292A2B"></path>
        <g id="Group" transform="translate(338.000000, 249.581735)">
            <rect id="Rectangle-2" fill="#FFFFFF" x="5" y="2" width="68" height="14"></rect>
            <text id="12’000-tx/sec" font-family="GTPressura-Light, GT Pressura" font-size="12" font-weight="300" fill="#292A2B">
                <tspan x="0.555664062" y="13">12’000 tx/sec</tspan>
            </text>
        </g>
        <g id="Group" transform="translate(237.000000, 286.581735)">
            <rect id="Rectangle-2" fill="#FFFFFF" x="2" y="2" width="68" height="14"></rect>
            <text id="12’000-tx/sec" font-family="GTPressura-Light, GT Pressura" font-size="12" font-weight="300" fill="#292A2B">
                <tspan x="0.555664062" y="13">12’000 tx/sec</tspan>
            </text>
        </g>
        <path d="M352.5,325.918265 L417.5,354.5" id="Path-2" stroke="#292A2B"></path>
        <path id="Path-2-decoration-1" d="M361.178857,333.011744 L352.5,325.918265 L363.593995,327.519285" stroke="#292A2B"></path>
        <path id="Path-2-decoration-2" d="M406.406005,352.89898 L417.5,354.5 L408.821143,347.406521" stroke="#292A2B"></path>
        <path d="M493.5,253.5 L455.5,325.5" id="Path-2" stroke="#292A2B"></path>
        <path id="Path-2-decoration-1" d="M485.805853,261.651079 L493.5,253.5 L491.112161,264.451631" stroke="#292A2B"></path>
        <path id="Path-2-decoration-2" d="M457.887839,314.548369 L455.5,325.5 L463.194147,317.348921" stroke="#292A2B"></path>
        <g id="Group" transform="translate(349.000000, 329.000000)">
            <rect id="Rectangle-2" fill="#FFFFFF" x="2" y="2" width="68" height="14"></rect>
            <text id="12’000-tx/sec" font-family="GTPressura-Light, GT Pressura" font-size="12" font-weight="300" fill="#292A2B">
                <tspan x="0.555664062" y="13">12’000 tx/sec</tspan>
            </text>
        </g>
        <g id="Group" transform="translate(442.000000, 278.000000)">
            <rect id="Rectangle-2" fill="#FFFFFF" x="2" y="2" width="68" height="14"></rect>
            <text id="12’000-tx/sec" font-family="GTPressura-Light, GT Pressura" font-size="12" font-weight="300" fill="#292A2B">
                <tspan x="0.555664062" y="13">12’000 tx/sec</tspan>
            </text>
        </g>
        <g id="Group" transform="translate(266.000000, 206.581735)">
            <rect id="Rectangle-2" fill="#FFFFFF" x="0" y="0" width="83" height="14"></rect>
            <text id="12’000-tx/sec" font-family="GTPressura-Light, GT Pressura" font-size="12" font-weight="300" fill="#292A2B">
                <tspan x="8.55566406" y="11">12’000 tx/sec</tspan>
            </text>
        </g>
        <ellipse id="Oval-10" stroke="#87BC55" transform="translate(309.616428, 214.865910) rotate(-3.000000) translate(-309.616428, -214.865910) " cx="309.616428" cy="214.86591" rx="133.096851" ry="33"></ellipse>
        <ellipse id="Oval-10" stroke="#87BC55" transform="translate(365.604364, 258.357833) rotate(123.000000) translate(-365.604364, -258.357833) " cx="365.604364" cy="258.357833" rx="88" ry="33"></ellipse>
        <ellipse id="Oval-10" stroke="#87BC55" transform="translate(473.592845, 291.311251) rotate(119.000000) translate(-473.592845, -291.311251) " cx="473.592845" cy="291.311251" rx="96.3642975" ry="33"></ellipse>
        <ellipse id="Oval-10" stroke="#87BC55" transform="translate(387.147850, 331.014058) rotate(199.000000) translate(-387.147850, -331.014058) " cx="387.14785" cy="331.014058" rx="88" ry="33"></ellipse>
        <ellipse id="Oval-10" stroke="#87BC55" transform="translate(267.461534, 290.646904) rotate(194.000000) translate(-267.461534, -290.646904) " cx="267.461534" cy="290.646904" rx="97.4785412" ry="33"></ellipse>
        <ellipse id="Oval-10" stroke="#87BC55" transform="translate(311.468080, 34.344357) rotate(-3.000000) translate(-311.468080, -34.344357) " cx="311.46808" cy="34.3443574" rx="128.02785" ry="33"></ellipse>
        <ellipse id="Oval-10" stroke="#87BC55" transform="translate(369.604364, 78.776098) rotate(123.000000) translate(-369.604364, -78.776098) " cx="369.604364" cy="78.7760981" rx="88" ry="33"></ellipse>
        <text id="Scope-of-consensus-a" font-family="GTPressura-Light, GT Pressura" font-size="12" font-weight="300" fill="#292A2B">
            <tspan x="31" y="379">Scope of consensus algorithm</tspan>
        </text>
        <g id="Group-4" transform="translate(217.000000, 364.000000)">
            <g id="Group-2" stroke="#F25B44">
                <rect id="Rectangle" x="0.5" y="0.5" width="19" height="5" rx="1.5"></rect>
                <rect id="Rectangle" x="0.5" y="7.5" width="19" height="5" rx="1.5"></rect>
                <rect id="Rectangle" x="0.5" y="14.5" width="19" height="5" rx="1.5"></rect>
            </g>
            <circle id="Oval-8" fill="#F25B44" cx="17.5" cy="2.5" r="1"></circle>
            <circle id="Oval-8" fill="#F25B44" cx="17.5" cy="9.5" r="1"></circle>
            <circle id="Oval-8" fill="#F25B44" cx="17.5" cy="16.5" r="1"></circle>
        </g>
        <circle id="Oval" stroke="#87BC55" cx="11" cy="374" r="10"></circle>
        <text id="New-nodes" font-family="GTPressura-Light, GT Pressura" font-size="12" font-weight="300" fill="#292A2B">
            <tspan x="247" y="379">New nodes</tspan>
        </text>
    </g>
</svg>