<?xml version="1.0" encoding="UTF-8"?>
<svg width="338px" height="235px" viewBox="0 0 338 235" version="1.1" xmlns="http://www.w3.org/2000/svg" xmlns:xlink="http://www.w3.org/1999/xlink">
    <!-- Generator: Sketch 49.1 (51147) - http://www.bohemiancoding.com/sketch -->
    <title>encryption</title>
    <desc>Created with Sketch.</desc>
    <defs></defs>
    <g id="encryption" stroke="none" stroke-width="1" fill="none" fill-rule="evenodd">
        <rect id="Rectangle-15" stroke="#292A2B" x="61.5" y="0.5" width="215" height="215"></rect>
        <rect id="Rectangle-17" stroke="#292A2B" x="76.5" y="13.5" width="91" height="91"></rect>
        <rect id="Rectangle-17" stroke="#292A2B" x="146.5" y="131.5" width="58" height="58"></rect>
        <text id="Application" font-family="GTPressura-Light, GT Pressura" font-size="12" font-weight="300" fill="#292A2B">
            <tspan x="76" y="121">Application</tspan>
        </text>
        <text id="Transaction" font-family="GTPressura-Light, GT Pressura" font-size="12" font-weight="300" fill="#292A2B">
            <tspan x="281" y="72">Transaction</tspan>
        </text>
        <text id="Application" font-family="GTPressura-Light, GT Pressura" font-size="12" font-weight="300" fill="#292A2B">
            <tspan x="146" y="206">Application</tspan>
        </text>
        <text id="Operating-System" font-family="GTPressura-Light, GT Pressura" font-size="12" font-weight="300" fill="#292A2B">
            <tspan x="61" y="232">Operating System</tspan>
        </text>
        <path d="M117.5,56.5 L304.542776,56.5" id="Line" stroke="#292A2B" stroke-linecap="square"></path>
        <path id="Line-decoration-1" d="M293.742776,59.5 L304.542776,56.5 L293.742776,53.5" stroke="#292A2B" stroke-linecap="square"></path>
        <g id="noun_Lock_243769_000000" transform="translate(140.500000, 55.500000) rotate(15.000000) translate(-140.500000, -55.500000) translate(131.000000, 43.000000)" fill="#87BC55" fill-rule="nonzero">
            <path d="M2.14345404,7.50534188 L2.14345404,10.1228632 L1.95821727,10.1228632 C0.873259053,10.1228632 0,11.0042735 0,12.099359 L0,23.0235043 C0,24.1185897 0.873259053,25 1.95821727,25 L17.0417827,25 C18.1267409,25 19,24.1185897 19,23.0235043 L19,12.099359 C19,11.0042735 18.1267409,10.1228632 17.0417827,10.1228632 L16.9888579,10.1228632 L16.9888579,7.50534188 C16.9888579,3.36538462 13.6545961,0 9.55292479,0 C5.47771588,2.37227142e-16 2.14345404,3.36538462 2.14345404,7.50534188 Z M10.6908078,18.0288462 C10.5320334,18.1356838 10.505571,18.2425214 10.505571,18.4294872 C10.505571,19.2307692 10.505571,20.0320513 10.505571,20.8333333 C10.5320334,21.1538462 10.3467967,21.5010684 10.0557103,21.6346154 C9.36768802,21.9818376 8.67966574,21.5010684 8.67966574,20.8333333 C8.67966574,20.8333333 8.67966574,20.8333333 8.67966574,20.8333333 C8.67966574,20.0320513 8.67966574,19.2307692 8.67966574,18.4294872 C8.67966574,18.2692308 8.65320334,18.1623932 8.49442897,18.0555556 C7.77994429,17.5213675 7.54178273,16.6132479 7.88579387,15.8119658 C8.22980501,15.0373932 9.07660167,14.5833333 9.89693593,14.7435897 C10.7966574,14.9305556 11.4052925,15.6517094 11.4317549,16.5598291 C11.4317549,17.1741453 11.1935933,17.6816239 10.6908078,18.0288462 Z M5.39832869,7.50534188 C5.39832869,5.18162393 7.27715877,3.28525641 9.57938719,3.28525641 C11.8816156,3.28525641 13.7604457,5.18162393 13.7604457,7.50534188 L13.7604457,10.1228632 L5.39832869,10.1228632 L5.39832869,7.50534188 Z" id="Shape"></path>
        </g>
        <g id="noun_Lock_243769_000000" transform="translate(203.500000, 55.500000) scale(-1, 1) rotate(15.000000) translate(-203.500000, -55.500000) translate(194.000000, 43.000000)" fill="#87BC55" fill-rule="nonzero">
            <path d="M2.14345404,7.50534188 L2.14345404,10.1228632 L1.95821727,10.1228632 C0.873259053,10.1228632 0,11.0042735 0,12.099359 L0,23.0235043 C0,24.1185897 0.873259053,25 1.95821727,25 L17.0417827,25 C18.1267409,25 19,24.1185897 19,23.0235043 L19,12.099359 C19,11.0042735 18.1267409,10.1228632 17.0417827,10.1228632 L16.9888579,10.1228632 L16.9888579,7.50534188 C16.9888579,3.36538462 13.6545961,0 9.55292479,0 C5.47771588,2.37227142e-16 2.14345404,3.36538462 2.14345404,7.50534188 Z M10.6908078,18.0288462 C10.5320334,18.1356838 10.505571,18.2425214 10.505571,18.4294872 C10.505571,19.2307692 10.505571,20.0320513 10.505571,20.8333333 C10.5320334,21.1538462 10.3467967,21.5010684 10.0557103,21.6346154 C9.36768802,21.9818376 8.67966574,21.5010684 8.67966574,20.8333333 C8.67966574,20.8333333 8.67966574,20.8333333 8.67966574,20.8333333 C8.67966574,20.0320513 8.67966574,19.2307692 8.67966574,18.4294872 C8.67966574,18.2692308 8.65320334,18.1623932 8.49442897,18.0555556 C7.77994429,17.5213675 7.54178273,16.6132479 7.88579387,15.8119658 C8.22980501,15.0373932 9.07660167,14.5833333 9.89693593,14.7435897 C10.7966574,14.9305556 11.4052925,15.6517094 11.4317549,16.5598291 C11.4317549,17.1741453 11.1935933,17.6816239 10.6908078,18.0288462 Z M5.39832869,7.50534188 C5.39832869,5.18162393 7.27715877,3.28525641 9.57938719,3.28525641 C11.8816156,3.28525641 13.7604457,5.18162393 13.7604457,7.50534188 L13.7604457,10.1228632 L5.39832869,10.1228632 L5.39832869,7.50534188 Z" id="Shape"></path>
        </g>
    </g>
</svg>