<?xml version="1.0" encoding="UTF-8"?>
<svg width="338px" height="235px" viewBox="0 0 338 235" version="1.1" xmlns="http://www.w3.org/2000/svg" xmlns:xlink="http://www.w3.org/1999/xlink">
    <!-- Generator: Sketch 49.1 (51147) - http://www.bohemiancoding.com/sketch -->
    <title>encryption-chi</title>
    <desc>Created with Sketch.</desc>
    <defs></defs>
    <g id="encryption-chi" stroke="none" stroke-width="1" fill="none" fill-rule="evenodd">
        <rect id="Rectangle-15" stroke="#292A2B" x="61.5" y="0.5" width="215" height="215"></rect>
        <rect id="Rectangle-17" stroke="#292A2B" x="76.5" y="13.5" width="91" height="91"></rect>
        <rect id="Rectangle-17" stroke="#292A2B" x="146.5" y="131.5" width="58" height="58"></rect>
        <path d="M117.5,56.5 L304.542776,56.5" id="Line" stroke="#292A2B" stroke-linecap="square"></path>
        <path id="Line-decoration-1" d="M293.742776,59.5 L304.542776,56.5 L293.742776,53.5" stroke="#292A2B" stroke-linecap="square"></path>
        <g id="noun_Lock_243769_000000" transform="translate(140.500000, 55.500000) rotate(15.000000) translate(-140.500000, -55.500000) translate(131.000000, 43.000000)" fill="#87BC55" fill-rule="nonzero">
            <path d="M2.14345404,7.50534188 L2.14345404,10.1228632 L1.95821727,10.1228632 C0.873259053,10.1228632 0,11.0042735 0,12.099359 L0,23.0235043 C0,24.1185897 0.873259053,25 1.95821727,25 L17.0417827,25 C18.1267409,25 19,24.1185897 19,23.0235043 L19,12.099359 C19,11.0042735 18.1267409,10.1228632 17.0417827,10.1228632 L16.9888579,10.1228632 L16.9888579,7.50534188 C16.9888579,3.36538462 13.6545961,0 9.55292479,0 C5.47771588,2.37227142e-16 2.14345404,3.36538462 2.14345404,7.50534188 Z M10.6908078,18.0288462 C10.5320334,18.1356838 10.505571,18.2425214 10.505571,18.4294872 C10.505571,19.2307692 10.505571,20.0320513 10.505571,20.8333333 C10.5320334,21.1538462 10.3467967,21.5010684 10.0557103,21.6346154 C9.36768802,21.9818376 8.67966574,21.5010684 8.67966574,20.8333333 C8.67966574,20.8333333 8.67966574,20.8333333 8.67966574,20.8333333 C8.67966574,20.0320513 8.67966574,19.2307692 8.67966574,18.4294872 C8.67966574,18.2692308 8.65320334,18.1623932 8.49442897,18.0555556 C7.77994429,17.5213675 7.54178273,16.6132479 7.88579387,15.8119658 C8.22980501,15.0373932 9.07660167,14.5833333 9.89693593,14.7435897 C10.7966574,14.9305556 11.4052925,15.6517094 11.4317549,16.5598291 C11.4317549,17.1741453 11.1935933,17.6816239 10.6908078,18.0288462 Z M5.39832869,7.50534188 C5.39832869,5.18162393 7.27715877,3.28525641 9.57938719,3.28525641 C11.8816156,3.28525641 13.7604457,5.18162393 13.7604457,7.50534188 L13.7604457,10.1228632 L5.39832869,10.1228632 L5.39832869,7.50534188 Z" id="Shape"></path>
        </g>
        <g id="noun_Lock_243769_000000" transform="translate(203.500000, 55.500000) scale(-1, 1) rotate(15.000000) translate(-203.500000, -55.500000) translate(194.000000, 43.000000)" fill="#87BC55" fill-rule="nonzero">
            <path d="M2.14345404,7.50534188 L2.14345404,10.1228632 L1.95821727,10.1228632 C0.873259053,10.1228632 0,11.0042735 0,12.099359 L0,23.0235043 C0,24.1185897 0.873259053,25 1.95821727,25 L17.0417827,25 C18.1267409,25 19,24.1185897 19,23.0235043 L19,12.099359 C19,11.0042735 18.1267409,10.1228632 17.0417827,10.1228632 L16.9888579,10.1228632 L16.9888579,7.50534188 C16.9888579,3.36538462 13.6545961,0 9.55292479,0 C5.47771588,2.37227142e-16 2.14345404,3.36538462 2.14345404,7.50534188 Z M10.6908078,18.0288462 C10.5320334,18.1356838 10.505571,18.2425214 10.505571,18.4294872 C10.505571,19.2307692 10.505571,20.0320513 10.505571,20.8333333 C10.5320334,21.1538462 10.3467967,21.5010684 10.0557103,21.6346154 C9.36768802,21.9818376 8.67966574,21.5010684 8.67966574,20.8333333 C8.67966574,20.8333333 8.67966574,20.8333333 8.67966574,20.8333333 C8.67966574,20.0320513 8.67966574,19.2307692 8.67966574,18.4294872 C8.67966574,18.2692308 8.65320334,18.1623932 8.49442897,18.0555556 C7.77994429,17.5213675 7.54178273,16.6132479 7.88579387,15.8119658 C8.22980501,15.0373932 9.07660167,14.5833333 9.89693593,14.7435897 C10.7966574,14.9305556 11.4052925,15.6517094 11.4317549,16.5598291 C11.4317549,17.1741453 11.1935933,17.6816239 10.6908078,18.0288462 Z M5.39832869,7.50534188 C5.39832869,5.18162393 7.27715877,3.28525641 9.57938719,3.28525641 C11.8816156,3.28525641 13.7604457,5.18162393 13.7604457,7.50534188 L13.7604457,10.1228632 L5.39832869,10.1228632 L5.39832869,7.50534188 Z" id="Shape"></path>
        </g>
        <path d="M78.712,120.976 L83.752,120.976 C84.52,119.248 85.192,117.1 85.768,114.532 L86.404,114.712 C85.888,117.076 85.24,119.164 84.448,120.976 L87.124,120.976 L87.124,121.612 L78.712,121.612 L78.712,120.976 Z M79.864,115.108 C80.344,116.404 80.788,117.88 81.172,119.536 L80.56,119.704 C80.224,118.18 79.804,116.716 79.3,115.3 L79.864,115.108 Z M82.192,114.268 C82.624,115.6 82.996,117.124 83.32,118.84 L82.708,118.996 C82.42,117.424 82.06,115.912 81.628,114.46 L82.192,114.268 Z M82.18,111.124 C82.42,111.508 82.648,111.94 82.864,112.42 L87.304,112.42 L87.304,113.056 L78.328,113.056 L78.328,115.864 C78.292,118.492 77.872,120.592 77.068,122.176 L76.528,121.684 C77.26,120.292 77.644,118.348 77.68,115.864 L77.68,112.42 L82.18,112.42 C81.964,111.988 81.736,111.604 81.472,111.244 L82.18,111.124 Z M90.436,115.276 L90.436,117.388 C90.436,117.448 90.424,117.508 90.424,117.58 L93.724,117.58 L93.724,115.276 L90.436,115.276 Z M90.388,118.192 C90.268,119.752 89.812,121.036 89.032,122.044 L88.552,121.6 C89.344,120.508 89.752,119.116 89.776,117.436 L89.776,111.748 L98.536,111.748 L98.536,120.724 C98.536,121.504 98.14,121.9 97.36,121.9 L95.98,121.9 L95.812,121.264 C96.292,121.288 96.736,121.3 97.144,121.3 C97.636,121.3 97.888,121.024 97.888,120.484 L97.888,118.192 L94.372,118.192 L94.372,121.768 L93.724,121.768 L93.724,118.192 L90.388,118.192 Z M97.888,117.58 L97.888,115.276 L94.372,115.276 L94.372,117.58 L97.888,117.58 Z M97.888,114.676 L97.888,112.384 L94.372,112.384 L94.372,114.676 L97.888,114.676 Z M93.724,112.384 L90.436,112.384 L90.436,114.676 L93.724,114.676 L93.724,112.384 Z" id="应用" fill="#292A2B"></path>
        <path d="M148.712,205.976 L153.752,205.976 C154.52,204.248 155.192,202.1 155.768,199.532 L156.404,199.712 C155.888,202.076 155.24,204.164 154.448,205.976 L157.124,205.976 L157.124,206.612 L148.712,206.612 L148.712,205.976 Z M149.864,200.108 C150.344,201.404 150.788,202.88 151.172,204.536 L150.56,204.704 C150.224,203.18 149.804,201.716 149.3,200.3 L149.864,200.108 Z M152.192,199.268 C152.624,200.6 152.996,202.124 153.32,203.84 L152.708,203.996 C152.42,202.424 152.06,200.912 151.628,199.46 L152.192,199.268 Z M152.18,196.124 C152.42,196.508 152.648,196.94 152.864,197.42 L157.304,197.42 L157.304,198.056 L148.328,198.056 L148.328,200.864 C148.292,203.492 147.872,205.592 147.068,207.176 L146.528,206.684 C147.26,205.292 147.644,203.348 147.68,200.864 L147.68,197.42 L152.18,197.42 C151.964,196.988 151.736,196.604 151.472,196.244 L152.18,196.124 Z M160.436,200.276 L160.436,202.388 C160.436,202.448 160.424,202.508 160.424,202.58 L163.724,202.58 L163.724,200.276 L160.436,200.276 Z M160.388,203.192 C160.268,204.752 159.812,206.036 159.032,207.044 L158.552,206.6 C159.344,205.508 159.752,204.116 159.776,202.436 L159.776,196.748 L168.536,196.748 L168.536,205.724 C168.536,206.504 168.14,206.9 167.36,206.9 L165.98,206.9 L165.812,206.264 C166.292,206.288 166.736,206.3 167.144,206.3 C167.636,206.3 167.888,206.024 167.888,205.484 L167.888,203.192 L164.372,203.192 L164.372,206.768 L163.724,206.768 L163.724,203.192 L160.388,203.192 Z M167.888,202.58 L167.888,200.276 L164.372,200.276 L164.372,202.58 L167.888,202.58 Z M167.888,199.676 L167.888,197.384 L164.372,197.384 L164.372,199.676 L167.888,199.676 Z M163.724,197.384 L160.436,197.384 L160.436,199.676 L163.724,199.676 L163.724,197.384 Z" id="应用" fill="#292A2B"></path>
        <path d="M67.408,229.84 L65.128,229.84 L65.128,229.24 L68.344,229.24 L68.344,228.46 L68.956,228.46 L68.956,229.24 L72.172,229.24 L72.172,229.84 L69.844,229.84 C70.372,230.728 71.26,231.52 72.52,232.216 L72.1,232.744 C70.78,231.88 69.844,230.908 69.304,229.84 L68.956,229.84 L68.956,233.128 L68.344,233.128 L68.344,229.84 L67.972,229.84 C67.384,231.028 66.424,232 65.092,232.768 L64.756,232.216 C65.968,231.604 66.856,230.812 67.408,229.84 Z M65.008,227.284 L65.008,227.944 C64.6,228.16 64.192,228.364 63.76,228.556 L63.76,232.192 C63.76,232.768 63.472,233.056 62.896,233.056 L61.912,233.056 L61.768,232.444 C62.08,232.468 62.38,232.48 62.668,232.48 C62.956,232.48 63.112,232.324 63.112,232.036 L63.112,228.82 C62.656,228.988 62.212,229.144 61.756,229.288 L61.6,228.652 C62.128,228.508 62.632,228.352 63.112,228.172 L63.112,225.232 L61.684,225.232 L61.684,224.596 L63.112,224.596 L63.112,222.28 L63.76,222.28 L63.76,224.596 L65.128,224.596 L65.128,225.232 L63.76,225.232 L63.76,227.908 C64.192,227.716 64.6,227.512 65.008,227.284 Z M66.424,222.7 L70.876,222.7 L70.876,225.016 L66.424,225.016 L66.424,222.7 Z M70.276,224.476 L70.276,223.228 L67.012,223.228 L67.012,224.476 L70.276,224.476 Z M65.428,225.832 L68.26,225.832 L68.26,228.124 L65.428,228.124 L65.428,225.832 Z M67.696,227.632 L67.696,226.336 L65.968,226.336 L65.968,227.632 L67.696,227.632 Z M69.04,225.832 L71.908,225.832 L71.908,228.124 L69.04,228.124 L69.04,225.832 Z M71.356,227.632 L71.356,226.336 L69.592,226.336 L69.592,227.632 L71.356,227.632 Z M78.7,224.632 C78.148,225.808 77.5,226.828 76.756,227.716 L76.3,227.176 C77.428,225.856 78.316,224.176 78.964,222.16 L79.612,222.316 C79.42,222.916 79.204,223.468 78.988,223.996 L84.364,223.996 L84.364,224.632 L80.176,224.632 L80.176,226.816 L83.812,226.816 L83.812,227.464 L80.176,227.464 L80.176,229.684 L83.908,229.684 L83.908,230.32 L80.176,230.32 L80.176,233.176 L79.528,233.176 L79.528,224.632 L78.7,224.632 Z M75.088,226.144 C74.656,226.72 74.188,227.272 73.672,227.8 L73.468,227.116 C74.812,225.664 75.772,224.032 76.372,222.22 L76.972,222.496 C76.648,223.456 76.24,224.344 75.736,225.172 L75.736,233.176 L75.088,233.176 L75.088,226.144 Z M90.544,233.128 L89.212,233.128 L89.068,232.504 C89.5,232.528 89.908,232.552 90.316,232.552 C90.652,232.552 90.82,232.384 90.82,232.06 L90.82,228.892 C89.644,228.964 88.372,229.024 86.992,229.096 L86.812,228.52 C87.028,228.496 87.22,228.46 87.388,228.4 C88.468,227.944 89.692,227.212 91.036,226.18 C89.908,226.264 88.696,226.336 87.424,226.408 L87.28,225.82 C87.436,225.796 87.592,225.76 87.736,225.7 C88.444,225.364 89.26,224.692 90.172,223.684 C89.092,223.744 87.94,223.78 86.716,223.78 L86.524,223.216 C89.98,223.204 92.812,222.94 95.032,222.412 L95.356,222.964 C94.132,223.276 92.68,223.492 91,223.624 C90.148,224.596 89.296,225.34 88.456,225.856 C89.548,225.796 90.64,225.724 91.72,225.64 C92.272,225.184 92.848,224.692 93.448,224.164 L94.048,224.452 C91.912,226.36 90.04,227.704 88.444,228.484 C90.616,228.364 92.464,228.22 94,228.052 C93.688,227.644 93.352,227.224 92.992,226.804 L93.472,226.492 C94.456,227.632 95.212,228.628 95.728,229.48 L95.212,229.84 C94.972,229.432 94.696,229.012 94.384,228.58 C93.52,228.676 92.548,228.76 91.456,228.844 L91.456,232.216 C91.456,232.816 91.144,233.128 90.544,233.128 Z M93.148,229.708 C94.36,230.608 95.38,231.508 96.208,232.396 L95.74,232.864 C94.996,232 93.976,231.088 92.704,230.128 L93.148,229.708 Z M88.744,229.804 L89.212,230.224 C88.384,231.208 87.364,232.06 86.152,232.804 L85.744,232.264 C86.932,231.568 87.928,230.74 88.744,229.804 Z M101.584,230.596 L101.584,231.208 C100.48,231.772 99.232,232.228 97.84,232.564 L97.756,231.916 C99.22,231.58 100.492,231.136 101.584,230.596 Z M99.808,222.232 L100.42,222.472 C99.784,224.104 99.148,225.388 98.5,226.312 C99.124,226.216 99.748,226.096 100.372,225.94 C100.588,225.532 100.804,225.112 101.044,224.668 L101.62,224.884 C100.492,227.032 99.556,228.532 98.824,229.372 C99.748,229.156 100.672,228.844 101.584,228.436 L101.584,229.048 C100.348,229.564 99.16,229.924 98.008,230.128 L97.84,229.504 C97.96,229.456 98.056,229.396 98.14,229.324 C98.656,228.772 99.28,227.86 100.012,226.576 C99.28,226.732 98.56,226.864 97.852,226.984 L97.696,226.372 C97.792,226.324 97.888,226.24 97.972,226.12 C98.668,225.016 99.28,223.72 99.808,222.232 Z M102.016,227.368 L101.872,226.78 C101.932,226.756 101.98,226.744 102.016,226.72 C102.436,226.408 103,225.568 103.708,224.188 L101.512,224.188 L101.512,223.576 L104.68,223.576 C104.512,223.072 104.308,222.628 104.092,222.22 L104.74,222.1 C104.956,222.532 105.148,223.024 105.34,223.576 L108.088,223.576 L108.088,224.188 L104.392,224.188 C103.792,225.364 103.276,226.216 102.82,226.72 C104.056,226.624 105.292,226.468 106.54,226.252 C106.24,225.82 105.916,225.388 105.568,224.944 L106.06,224.62 C106.912,225.7 107.56,226.624 108.004,227.416 L107.5,227.788 C107.32,227.464 107.116,227.128 106.9,226.792 C105.4,227.032 103.768,227.224 102.016,227.368 Z M103.06,227.956 L103.708,227.956 C103.648,229.456 103.456,230.56 103.132,231.256 C102.784,232 102.208,232.624 101.404,233.14 L100.984,232.624 C101.716,232.168 102.232,231.616 102.544,230.98 C102.844,230.344 103.012,229.336 103.06,227.956 Z M107.248,232.948 L106.348,232.948 C105.724,232.948 105.424,232.624 105.424,232 L105.424,227.86 L106.036,227.86 L106.036,231.892 C106.036,232.18 106.144,232.336 106.36,232.36 L107.212,232.36 C107.524,232.348 107.716,232.216 107.776,231.952 C107.848,231.628 107.884,231.064 107.884,230.272 L108.448,230.476 C108.448,231.58 108.364,232.276 108.22,232.552 C108.064,232.792 107.74,232.924 107.248,232.948 Z" id="操作系统" fill="#292A2B"></path>
        <path d="M281.732,65.732 L286.82,65.732 C286.604,65.192 286.352,64.7 286.076,64.268 L286.784,64.148 C287.048,64.604 287.288,65.132 287.516,65.732 L292.28,65.732 L292.28,66.344 L281.732,66.344 L281.732,65.732 Z M288.836,66.872 C290.168,67.94 291.284,69.008 292.184,70.088 L291.704,70.556 C290.888,69.536 289.772,68.456 288.38,67.304 L288.836,66.872 Z M289.124,69.092 L289.724,69.356 C289.136,70.484 288.404,71.468 287.528,72.284 C288.848,73.28 290.468,74.024 292.388,74.528 L292.004,75.128 C290.012,74.576 288.356,73.772 287.036,72.728 C285.692,73.856 284.036,74.672 282.068,75.176 L281.672,74.6 C283.616,74.096 285.236,73.34 286.532,72.308 C285.608,71.492 284.864,70.568 284.288,69.512 L284.852,69.188 C285.404,70.22 286.136,71.108 287.024,71.876 C287.888,71.084 288.596,70.148 289.124,69.092 Z M285.092,66.872 L285.572,67.304 C284.66,68.492 283.532,69.524 282.188,70.412 L281.768,69.872 C283.088,69.02 284.192,68.024 285.092,66.872 Z M297.224,68.78 L295.424,68.78 L295.424,64.712 L302.636,64.712 L302.636,68.78 L297.932,68.78 C297.692,69.164 297.392,69.536 297.044,69.884 L303.5,69.884 C303.464,71.156 303.392,72.176 303.296,72.956 C303.176,73.724 302.984,74.264 302.732,74.576 C302.48,74.876 302.072,75.044 301.508,75.068 L300.032,75.068 L299.876,74.444 C300.332,74.468 300.776,74.48 301.196,74.48 C301.82,74.48 302.24,74.228 302.444,73.736 C302.648,73.232 302.78,72.14 302.852,70.484 L301.508,70.484 C300.5,72.824 298.832,74.372 296.528,75.14 L296.168,74.6 C298.352,73.88 299.924,72.512 300.86,70.484 L299.072,70.484 C298.256,71.84 296.888,72.908 294.944,73.688 L294.524,73.184 C296.36,72.488 297.644,71.588 298.388,70.484 L296.36,70.484 C295.76,70.952 295.04,71.372 294.224,71.732 L293.864,71.168 C295.4,70.544 296.528,69.74 297.224,68.78 Z M301.988,68.204 L301.988,67.016 L296.06,67.016 L296.06,68.204 L301.988,68.204 Z M296.06,66.464 L301.988,66.464 L301.988,65.276 L296.06,65.276 L296.06,66.464 Z" id="交易" fill="#292A2B"></path>
    </g>
</svg>