<?xml version="1.0" encoding="UTF-8"?>
<svg width="446px" height="551px" viewBox="0 0 446 551" version="1.1" xmlns="http://www.w3.org/2000/svg" xmlns:xlink="http://www.w3.org/1999/xlink">
    <!-- Generator: Sketch 49.1 (51147) - http://www.bohemiancoding.com/sketch -->
    <title>fair-exchange</title>
    <desc>Created with Sketch.</desc>
    <defs></defs>
    <g id="fair-exchange" stroke="none" stroke-width="1" fill="none" fill-rule="evenodd">
        <path d="M445.031717,207.235864 L0.5,207.235864" id="Line" stroke="#292A2B" stroke-linecap="square"></path>
        <path id="Line-decoration-1" d="M434.231717,204.235864 L445.031717,207.235864 L434.231717,210.235864" stroke="#292A2B" stroke-linecap="square"></path>
        <path d="M445.031717,530.235864 L0.5,530.235864" id="Line" stroke="#292A2B" stroke-linecap="square"></path>
        <path id="Line-decoration-1" d="M434.231717,527.235864 L445.031717,530.235864 L434.231717,533.235864" stroke="#292A2B" stroke-linecap="square"></path>
        <path d="M424.087891,219.791016 L424.087891,219.448242 C424.087891,219.354492 424.124511,219.270996 424.197754,219.197754 C424.270996,219.124511 424.354492,219.087891 424.448242,219.087891 L425.907227,219.087891 C426.024415,219.087891 426.085937,219.029297 426.091797,218.912109 L426.091797,216.117188 C426.091797,216.023437 426.126953,215.939942 426.197266,215.866699 C426.267578,215.793457 426.352539,215.756836 426.452148,215.756836 L426.803711,215.756836 C426.897461,215.756836 426.980957,215.793457 427.054199,215.866699 C427.127442,215.939942 427.164062,216.023437 427.164062,216.117188 L427.164062,218.912109 C427.164062,219.029297 427.225585,219.087891 427.348633,219.087891 L429.616211,219.087891 C429.709961,219.087891 429.793457,219.124511 429.866699,219.197754 C429.939942,219.270996 429.976562,219.354492 429.976562,219.448242 L429.976562,219.791016 C429.976562,219.884766 429.939942,219.968261 429.866699,220.041504 C429.793457,220.114746 429.709961,220.151367 429.616211,220.151367 L427.348633,220.151367 C427.231445,220.151367 427.169922,220.21289 427.164062,220.335938 L427.164062,225.117188 C427.164062,225.755863 427.287108,226.227538 427.533203,226.532227 C427.779298,226.836916 428.227536,226.989258 428.87793,226.989258 L429.791992,226.989258 C429.885743,226.989258 429.969238,227.025879 430.04248,227.099121 C430.115723,227.172364 430.152344,227.255859 430.152344,227.349609 L430.152344,227.639648 C430.152344,227.733399 430.117188,227.816894 430.046875,227.890137 C429.976562,227.963379 429.891602,228 429.791992,228 L428.87793,228 C427.940425,228 427.241702,227.780276 426.781738,227.34082 C426.321775,226.901365 426.091797,226.160161 426.091797,225.117188 L426.091797,220.335938 C426.091797,220.218749 426.030274,220.157227 425.907227,220.151367 L424.448242,220.151367 C424.354492,220.151367 424.270996,220.114746 424.197754,220.041504 C424.124511,219.968261 424.087891,219.884766 424.087891,219.791016 Z" id="t" fill="#292A2B"></path>
        <path d="M424.087891,542.791016 L424.087891,542.448242 C424.087891,542.354492 424.124511,542.270996 424.197754,542.197754 C424.270996,542.124511 424.354492,542.087891 424.448242,542.087891 L425.907227,542.087891 C426.024415,542.087891 426.085937,542.029297 426.091797,541.912109 L426.091797,539.117188 C426.091797,539.023437 426.126953,538.939942 426.197266,538.866699 C426.267578,538.793457 426.352539,538.756836 426.452148,538.756836 L426.803711,538.756836 C426.897461,538.756836 426.980957,538.793457 427.054199,538.866699 C427.127442,538.939942 427.164062,539.023437 427.164062,539.117188 L427.164062,541.912109 C427.164062,542.029297 427.225585,542.087891 427.348633,542.087891 L429.616211,542.087891 C429.709961,542.087891 429.793457,542.124511 429.866699,542.197754 C429.939942,542.270996 429.976562,542.354492 429.976562,542.448242 L429.976562,542.791016 C429.976562,542.884766 429.939942,542.968261 429.866699,543.041504 C429.793457,543.114746 429.709961,543.151367 429.616211,543.151367 L427.348633,543.151367 C427.231445,543.151367 427.169922,543.21289 427.164062,543.335938 L427.164062,548.117188 C427.164062,548.755863 427.287108,549.227538 427.533203,549.532227 C427.779298,549.836916 428.227536,549.989258 428.87793,549.989258 L429.791992,549.989258 C429.885743,549.989258 429.969238,550.025879 430.04248,550.099121 C430.115723,550.172364 430.152344,550.255859 430.152344,550.349609 L430.152344,550.639648 C430.152344,550.733399 430.117188,550.816894 430.046875,550.890137 C429.976562,550.963379 429.891602,551 429.791992,551 L428.87793,551 C427.940425,551 427.241702,550.780276 426.781738,550.34082 C426.321775,549.901365 426.091797,549.160161 426.091797,548.117188 L426.091797,543.335938 C426.091797,543.218749 426.030274,543.157227 425.907227,543.151367 L424.448242,543.151367 C424.354492,543.151367 424.270996,543.114746 424.197754,543.041504 C424.124511,542.968261 424.087891,542.884766 424.087891,542.791016 Z" id="t" fill="#292A2B"></path>
        <path d="M1.16894531,398.639648 L1.16894531,386.756836 C1.16894531,386.663085 1.20556604,386.57959 1.27880859,386.506348 C1.35205115,386.433105 1.43554641,386.396484 1.52929688,386.396484 L4.58789062,386.396484 C5.1035182,386.396484 5.59277112,386.496093 6.05566406,386.695312 C6.518557,386.894532 6.921385,387.165526 7.26416016,387.508301 C7.60693531,387.851076 7.87646386,388.252439 8.07275391,388.712402 C8.26904395,389.172366 8.3671875,389.660154 8.3671875,390.175781 C8.3671875,390.703128 8.26904395,391.19531 8.07275391,391.652344 C7.87646386,392.109377 7.60693531,392.509276 7.26416016,392.852051 C6.921385,393.194826 6.518557,393.465819 6.05566406,393.665039 C5.59277112,393.864259 5.1035182,393.963867 4.58789062,393.963867 L2.50488281,393.963867 C2.38769473,393.963867 2.3261719,394.02246 2.3203125,394.139648 L2.3203125,398.639648 C2.3203125,398.733399 2.2851566,398.816894 2.21484375,398.890137 C2.1445309,398.963379 2.05957081,399 1.95996094,399 L1.52929688,399 C1.43554641,399 1.35205115,398.963379 1.27880859,398.890137 C1.20556604,398.816894 1.16894531,398.733399 1.16894531,398.639648 Z M2.3203125,392.62793 C2.3203125,392.745118 2.38183532,392.803711 2.50488281,392.803711 L4.58789062,392.803711 C4.94531429,392.803711 5.28368981,392.734864 5.60302734,392.597168 C5.92236488,392.459472 6.20214724,392.270509 6.44238281,392.030273 C6.68261839,391.790038 6.87158134,391.51172 7.00927734,391.195312 C7.14697334,390.878905 7.21582031,390.539064 7.21582031,390.175781 C7.21582031,389.818358 7.14697334,389.479982 7.00927734,389.160645 C6.87158134,388.841307 6.68261839,388.562989 6.44238281,388.325684 C6.20214724,388.088378 5.92382971,387.899415 5.60742187,387.758789 C5.29101404,387.618163 4.95117369,387.547852 4.58789062,387.547852 L2.50488281,387.547852 C2.38769473,387.547852 2.3261719,387.609374 2.3203125,387.732422 L2.3203125,392.62793 Z M9.08496094,404.759766 L9.08496094,404.314453 C9.08496094,404.224609 9.09765612,404.158203 9.12304688,404.115234 C9.14843763,404.072265 9.17285145,404.039063 9.19628906,404.015625 L12.0849609,400.763672 C12.2138678,400.61914 12.3349604,400.479493 12.4482422,400.344727 C12.561524,400.20996 12.6582027,400.066407 12.7382812,399.914062 C12.8183598,399.761718 12.8798826,399.595704 12.9228516,399.416016 C12.9658205,399.236327 12.9873047,399.029298 12.9873047,398.794922 C12.9873047,398.595702 12.9570316,398.400392 12.8964844,398.208984 C12.8359372,398.017577 12.7421881,397.847657 12.6152344,397.699219 C12.4882806,397.550781 12.3310556,397.432618 12.1435547,397.344727 C11.9560537,397.256835 11.7294935,397.212891 11.4638672,397.212891 C11.2333973,397.212891 11.0234384,397.260742 10.8339844,397.356445 C10.6445303,397.452149 10.4843757,397.574218 10.3535156,397.722656 C10.2226556,397.871094 10.1210941,398.039062 10.0488281,398.226562 C9.97656214,398.414063 9.94042969,398.603515 9.94042969,398.794922 L9.94042969,398.976562 C9.94042969,399.039063 9.91601587,399.094726 9.8671875,399.143555 C9.81835913,399.192383 9.76269562,399.216797 9.70019531,399.216797 L9.42480469,399.216797 C9.36230438,399.216797 9.30664087,399.192383 9.2578125,399.143555 C9.20898413,399.094726 9.18457031,399.039063 9.18457031,398.976562 L9.18457031,398.794922 C9.18457031,398.474608 9.24218692,398.174806 9.35742188,397.895508 C9.47265683,397.61621 9.63281147,397.374024 9.83789062,397.168945 C10.0429698,396.963866 10.2851549,396.801758 10.5644531,396.682617 C10.8437514,396.563476 11.1435531,396.503906 11.4638672,396.503906 C11.7841813,396.503906 12.0820299,396.557617 12.3574219,396.665039 C12.6328139,396.772461 12.8710927,396.926757 13.0722656,397.12793 C13.2734385,397.329103 13.43164,397.571288 13.546875,397.854492 C13.66211,398.137697 13.7197266,398.45117 13.7197266,398.794922 C13.7197266,399.259768 13.6298837,399.682615 13.4501953,400.063477 C13.2705069,400.444338 13.0244156,400.810545 12.7119141,401.162109 L10.0810547,404.074219 C10.0498045,404.113281 10.0419921,404.155273 10.0576172,404.200195 C10.0732423,404.245117 10.1142575,404.267578 10.1806641,404.267578 L13.6728516,404.267578 C13.7353519,404.267578 13.7910154,404.291992 13.8398438,404.34082 C13.8886721,404.389649 13.9130859,404.445312 13.9130859,404.507812 L13.9130859,404.759766 C13.9130859,404.822266 13.8886721,404.877929 13.8398438,404.926758 C13.7910154,404.975586 13.7353519,405 13.6728516,405 L9.32519531,405 C9.262695,405 9.20703149,404.975586 9.15820312,404.926758 C9.10937476,404.877929 9.08496094,404.822266 9.08496094,404.759766 Z" id="P2" fill="#292A2B"></path>
        <path d="M0.03515625,296.196289 L0.03515625,295.756836 C0.03515625,295.663085 0.0717769775,295.57959 0.145019531,295.506348 C0.218262085,295.433105 0.301757344,295.396484 0.395507812,295.396484 L7.23339844,295.396484 C7.32714891,295.396484 7.41064417,295.433105 7.48388672,295.506348 C7.55712927,295.57959 7.59375,295.663085 7.59375,295.756836 L7.59375,296.196289 C7.59375,296.29004 7.5585941,296.37207 7.48828125,296.442383 C7.4179684,296.512696 7.33300831,296.547852 7.23339844,296.547852 L4.58789062,296.547852 C4.47070254,296.547852 4.41210937,296.609374 4.41210937,296.732422 L4.41210937,307.639648 C4.41210937,307.733399 4.37548865,307.816894 4.30224609,307.890137 C4.22900354,307.963379 4.14550828,308 4.05175781,308 L3.60351562,308 C3.50976516,308 3.4262699,307.963379 3.35302734,307.890137 C3.27978479,307.816894 3.24316406,307.733399 3.24316406,307.639648 L3.24316406,296.732422 C3.24316406,296.615234 3.18164124,296.553711 3.05859375,296.547852 L0.395507812,296.547852 C0.301757344,296.547852 0.218262085,296.512696 0.145019531,296.442383 C0.0717769775,296.37207 0.03515625,296.29004 0.03515625,296.196289 Z M8.24414062,296.196289 L8.24414062,295.756836 C8.24414062,295.663085 8.28076135,295.57959 8.35400391,295.506348 C8.42724646,295.433105 8.51074172,295.396484 8.60449219,295.396484 L15.4423828,295.396484 C15.5361333,295.396484 15.6196285,295.433105 15.6928711,295.506348 C15.7661136,295.57959 15.8027344,295.663085 15.8027344,295.756836 L15.8027344,296.196289 C15.8027344,296.29004 15.7675785,296.37207 15.6972656,296.442383 C15.6269528,296.512696 15.5419927,296.547852 15.4423828,296.547852 L12.796875,296.547852 C12.6796869,296.547852 12.6210938,296.609374 12.6210938,296.732422 L12.6210938,307.639648 C12.6210938,307.733399 12.584473,307.816894 12.5112305,307.890137 C12.4379879,307.963379 12.3544927,308 12.2607422,308 L11.8125,308 C11.7187495,308 11.6352543,307.963379 11.5620117,307.890137 C11.4887692,307.816894 11.4521484,307.733399 11.4521484,307.639648 L11.4521484,296.732422 C11.4521484,296.615234 11.3906256,296.553711 11.2675781,296.547852 L8.60449219,296.547852 C8.51074172,296.547852 8.42724646,296.512696 8.35400391,296.442383 C8.28076135,296.37207 8.24414062,296.29004 8.24414062,296.196289 Z M17.0068359,307.639648 L17.0068359,295.756836 C17.0068359,295.663085 17.0434567,295.57959 17.1166992,295.506348 C17.1899418,295.433105 17.273437,295.396484 17.3671875,295.396484 L20.4257812,295.396484 C20.9414088,295.396484 21.4306617,295.496093 21.8935547,295.695312 C22.3564476,295.894532 22.7592756,296.165526 23.1020508,296.508301 C23.4448259,296.851076 23.7143545,297.252439 23.9106445,297.712402 C24.1069346,298.172366 24.2050781,298.660154 24.2050781,299.175781 C24.2050781,299.703128 24.1069346,300.19531 23.9106445,300.652344 C23.7143545,301.109377 23.4448259,301.509276 23.1020508,301.852051 C22.7592756,302.194826 22.3564476,302.465819 21.8935547,302.665039 C21.4306617,302.864259 20.9414088,302.963867 20.4257812,302.963867 L18.3427734,302.963867 C18.2255854,302.963867 18.1640625,303.02246 18.1582031,303.139648 L18.1582031,307.639648 C18.1582031,307.733399 18.1230472,307.816894 18.0527344,307.890137 C17.9824215,307.963379 17.8974614,308 17.7978516,308 L17.3671875,308 C17.273437,308 17.1899418,307.963379 17.1166992,307.890137 C17.0434567,307.816894 17.0068359,307.733399 17.0068359,307.639648 Z M18.1582031,301.62793 C18.1582031,301.745118 18.2197259,301.803711 18.3427734,301.803711 L20.4257812,301.803711 C20.7832049,301.803711 21.1215804,301.734864 21.440918,301.597168 C21.7602555,301.459472 22.0400379,301.270509 22.2802734,301.030273 C22.520509,300.790038 22.709472,300.51172 22.847168,300.195312 C22.984864,299.878905 23.0537109,299.539064 23.0537109,299.175781 C23.0537109,298.818358 22.984864,298.479982 22.847168,298.160645 C22.709472,297.841307 22.520509,297.562989 22.2802734,297.325684 C22.0400379,297.088378 21.7617203,296.899415 21.4453125,296.758789 C21.1289047,296.618163 20.7890643,296.547852 20.4257812,296.547852 L18.3427734,296.547852 C18.2255854,296.547852 18.1640625,296.609374 18.1582031,296.732422 L18.1582031,301.62793 Z" id="TTP" fill="#292A2B"></path>
        <path d="M1.16894531,494.639648 L1.16894531,482.756836 C1.16894531,482.663085 1.20556604,482.57959 1.27880859,482.506348 C1.35205115,482.433105 1.43554641,482.396484 1.52929688,482.396484 L4.58789062,482.396484 C5.1035182,482.396484 5.59277112,482.496093 6.05566406,482.695312 C6.518557,482.894532 6.921385,483.165526 7.26416016,483.508301 C7.60693531,483.851076 7.87646386,484.252439 8.07275391,484.712402 C8.26904395,485.172366 8.3671875,485.660154 8.3671875,486.175781 C8.3671875,486.703128 8.26904395,487.19531 8.07275391,487.652344 C7.87646386,488.109377 7.60693531,488.509276 7.26416016,488.852051 C6.921385,489.194826 6.518557,489.465819 6.05566406,489.665039 C5.59277112,489.864259 5.1035182,489.963867 4.58789062,489.963867 L2.50488281,489.963867 C2.38769473,489.963867 2.3261719,490.02246 2.3203125,490.139648 L2.3203125,494.639648 C2.3203125,494.733399 2.2851566,494.816894 2.21484375,494.890137 C2.1445309,494.963379 2.05957081,495 1.95996094,495 L1.52929688,495 C1.43554641,495 1.35205115,494.963379 1.27880859,494.890137 C1.20556604,494.816894 1.16894531,494.733399 1.16894531,494.639648 Z M2.3203125,488.62793 C2.3203125,488.745118 2.38183532,488.803711 2.50488281,488.803711 L4.58789062,488.803711 C4.94531429,488.803711 5.28368981,488.734864 5.60302734,488.597168 C5.92236488,488.459472 6.20214724,488.270509 6.44238281,488.030273 C6.68261839,487.790038 6.87158134,487.51172 7.00927734,487.195312 C7.14697334,486.878905 7.21582031,486.539064 7.21582031,486.175781 C7.21582031,485.818358 7.14697334,485.479982 7.00927734,485.160645 C6.87158134,484.841307 6.68261839,484.562989 6.44238281,484.325684 C6.20214724,484.088378 5.92382971,483.899415 5.60742188,483.758789 C5.29101404,483.618163 4.95117369,483.547852 4.58789062,483.547852 L2.50488281,483.547852 C2.38769473,483.547852 2.3261719,483.609374 2.3203125,483.732422 L2.3203125,488.62793 Z M9.12597656,495.849609 L9.12597656,495.433594 C9.12597656,495.328124 9.15527314,495.231446 9.21386719,495.143555 C9.27246123,495.055664 9.32324197,494.988281 9.36621094,494.941406 L11.4755859,492.708984 C11.5458988,492.638672 11.6259761,492.601563 11.7158203,492.597656 L12.0615234,492.597656 C12.1240237,492.597656 12.1796873,492.62207 12.2285156,492.670898 C12.277344,492.719727 12.3017578,492.77539 12.3017578,492.837891 L12.3017578,500.759766 C12.3017578,500.822266 12.2783205,500.877929 12.2314453,500.926758 C12.1845701,500.975586 12.12793,501 12.0615234,501 L11.8212891,501 C11.7587888,501 11.7031252,500.975586 11.6542969,500.926758 C11.6054685,500.877929 11.5810547,500.822266 11.5810547,500.759766 L11.5810547,493.763672 C11.5810547,493.724609 11.5673829,493.703125 11.5400391,493.699219 C11.5126952,493.695312 11.491211,493.701172 11.4755859,493.716797 L9.38964844,495.949219 C9.3427732,496.003907 9.2871097,496.017578 9.22265625,495.990234 C9.1582028,495.96289 9.12597656,495.916016 9.12597656,495.849609 Z" id="P1" fill="#292A2B"></path>
        <path d="M56.8613281,442.148438 C56.8378905,441.673826 56.8261719,441.187502 56.8261719,440.689453 C56.8261719,440.191404 56.8378905,439.70801 56.8613281,439.239258 C56.8847657,438.770505 56.9228513,438.357424 56.9755859,438 C57.0458988,437.50781 57.1835927,437.036135 57.3886719,436.584961 C57.593751,436.133787 57.8632796,435.735353 58.1972656,435.389648 C58.5312517,435.043944 58.9296852,434.768556 59.3925781,434.563477 C59.8554711,434.358397 60.3857392,434.255859 60.9833984,434.255859 C61.5693389,434.255859 62.1127905,434.358397 62.6137695,434.563477 C63.1147486,434.768556 63.5380842,435.041014 63.8837891,435.380859 C64.2294939,435.720705 64.5019521,436.119138 64.7011719,436.576172 C64.9003916,437.033205 65,437.50781 65,438 L65,438.070312 C65,438.164063 64.9633793,438.247558 64.8901367,438.320801 C64.8168942,438.394043 64.7333989,438.430664 64.6396484,438.430664 L64.15625,438.430664 C64.0624995,438.430664 63.9790043,438.395508 63.9057617,438.325195 C63.8325192,438.254882 63.7958984,438.169922 63.7958984,438.070312 L63.7958984,438 C63.7958984,437.666014 63.7299811,437.342287 63.5981445,437.028809 C63.4663079,436.71533 63.277345,436.438478 63.03125,436.198242 C62.785155,435.958007 62.4907244,435.766114 62.1479492,435.622559 C61.8051741,435.479003 61.4169944,435.407227 60.9833984,435.407227 C60.5498025,435.407227 60.1718766,435.479003 59.8496094,435.622559 C59.5273421,435.766114 59.2490246,435.960936 59.0146484,436.207031 C58.7802723,436.453126 58.594239,436.732909 58.456543,437.046387 C58.318847,437.359865 58.2265627,437.677733 58.1796875,438 C58.1210935,438.369142 58.0786134,438.788084 58.0522461,439.256836 C58.0258788,439.725588 58.0126953,440.206052 58.0126953,440.698242 C58.0126953,441.190432 58.0258788,441.670896 58.0522461,442.139648 C58.0786134,442.608401 58.1210935,443.027342 58.1796875,443.396484 C58.2148439,443.660158 58.2895502,443.94287 58.4038086,444.244629 C58.518067,444.546388 58.6865223,444.826171 58.9091797,445.083984 C59.1318371,445.341798 59.4101546,445.557128 59.7441406,445.72998 C60.0781267,445.902833 60.4912085,445.989258 60.9833984,445.989258 C61.4638696,445.989258 61.8813459,445.905763 62.2358398,445.73877 C62.5903338,445.571777 62.8847645,445.359376 63.1191406,445.101562 C63.3535168,444.843749 63.5249018,444.561037 63.6333008,444.253418 C63.7416998,443.945799 63.7958984,443.660158 63.7958984,443.396484 L63.7958984,443.326172 C63.7958984,443.232421 63.8310543,443.148926 63.9013672,443.075684 C63.97168,443.002441 64.0566401,442.96582 64.15625,442.96582 L64.6396484,442.96582 C64.7333989,442.96582 64.8168942,443.002441 64.8901367,443.075684 C64.9633793,443.148926 65,443.232421 65,443.326172 L65,443.396484 C65,443.982425 64.8916026,444.506834 64.6748047,444.969727 C64.4580067,445.43262 64.1665057,445.826659 63.800293,446.151855 C63.4340802,446.477052 63.0078149,446.723144 62.5214844,446.890137 C62.0351538,447.05713 61.5224636,447.140625 60.9833984,447.140625 C59.8935492,447.140625 58.9912145,446.808109 58.2763672,446.143066 C57.5615199,445.478024 57.1279304,444.562506 56.9755859,443.396484 C56.9287107,443.039061 56.8906251,442.623049 56.8613281,442.148438 Z M66.5175781,455.162109 L66.5175781,447.240234 C66.5175781,447.177734 66.5419919,447.122071 66.5908203,447.073242 C66.6396487,447.024414 66.6953122,447 66.7578125,447 L66.9511719,447 C67.0058596,447 67.0605466,447.027343 67.1152344,447.082031 C67.1542971,447.121094 67.1982419,447.163086 67.2470703,447.208008 C67.2958987,447.25293 67.3535153,447.275391 67.4199219,447.275391 C67.5097661,447.275391 67.5878903,447.25586 67.6542969,447.216797 C67.7207035,447.177734 67.8017573,447.131836 67.8974609,447.079102 C67.9931645,447.026367 68.1093743,446.980469 68.2460938,446.941406 C68.3828132,446.902344 68.5624989,446.882812 68.7851562,446.882812 C69.0976578,446.882812 69.387694,446.942382 69.6552734,447.061523 C69.9228529,447.180665 70.1572256,447.341796 70.3583984,447.544922 C70.5595713,447.748048 70.7216791,447.990233 70.8447266,448.271484 C70.9677741,448.552736 71.0410155,448.849608 71.0644531,449.162109 C71.0800782,449.400392 71.0878906,449.679686 71.0878906,450 C71.0878906,450.320314 71.0800782,450.599608 71.0644531,450.837891 C71.0410155,451.150392 70.9677741,451.447264 70.8447266,451.728516 C70.7216791,452.009767 70.5595713,452.251952 70.3583984,452.455078 C70.1572256,452.658204 69.9228529,452.819335 69.6552734,452.938477 C69.387694,453.057618 69.0976578,453.117188 68.7851562,453.117188 C68.593749,453.117188 68.4296882,453.101563 68.2929688,453.070312 C68.1562493,453.039062 68.0400395,453.00586 67.9443359,452.970703 C67.8486323,452.935547 67.7646488,452.901367 67.6923828,452.868164 C67.6201168,452.834961 67.5566409,452.818359 67.5019531,452.818359 C67.4238277,452.818359 67.3583987,452.84082 67.3056641,452.885742 C67.2529294,452.930664 67.2265625,453.007812 67.2265625,453.117188 L67.2265625,455.162109 C67.2265625,455.22461 67.2021487,455.280273 67.1533203,455.329102 C67.1044919,455.37793 67.0488284,455.402344 66.9863281,455.402344 L66.7578125,455.402344 C66.6953122,455.402344 66.6396487,455.37793 66.5908203,455.329102 C66.5419919,455.280273 66.5175781,455.22461 66.5175781,455.162109 Z M67.25,449.162109 C67.2265624,449.408204 67.2148438,449.687498 67.2148438,450 C67.2148438,450.312502 67.2265624,450.591796 67.25,450.837891 C67.2656251,450.998048 67.3017575,451.170898 67.3583984,451.356445 C67.4150393,451.541993 67.4990229,451.711913 67.6103516,451.866211 C67.7216802,452.020509 67.8691397,452.15039 68.0527344,452.255859 C68.236329,452.361329 68.4609362,452.414062 68.7265625,452.414062 C69.0156264,452.414062 69.2597646,452.361329 69.4589844,452.255859 C69.6582041,452.15039 69.8193353,452.020509 69.9423828,451.866211 C70.0654303,451.711913 70.1572263,451.541993 70.2177734,451.356445 C70.2783206,451.170898 70.3164062,450.998048 70.3320312,450.837891 C70.3632814,450.591796 70.3789062,450.312502 70.3789062,450 C70.3789062,449.687498 70.3632814,449.408204 70.3320312,449.162109 C70.3164062,449.001952 70.2783206,448.829102 70.2177734,448.643555 C70.1572263,448.458007 70.0654303,448.288087 69.9423828,448.133789 C69.8193353,447.979491 69.6601572,447.84961 69.4648438,447.744141 C69.2695303,447.638671 69.023439,447.585938 68.7265625,447.585938 C68.4609362,447.585938 68.236329,447.638671 68.0527344,447.744141 C67.8691397,447.84961 67.7216802,447.979491 67.6103516,448.133789 C67.4990229,448.288087 67.4150393,448.458007 67.3583984,448.643555 C67.3017575,448.829102 67.2656251,449.001952 67.25,449.162109 Z" id="Cp" fill="#292A2B"></path>
        <path d="M168.861328,442.148438 C168.837891,441.673826 168.826172,441.187502 168.826172,440.689453 C168.826172,440.191404 168.837891,439.70801 168.861328,439.239258 C168.884766,438.770505 168.922851,438.357424 168.975586,438 C169.045899,437.50781 169.183593,437.036135 169.388672,436.584961 C169.593751,436.133787 169.86328,435.735353 170.197266,435.389648 C170.531252,435.043944 170.929685,434.768556 171.392578,434.563477 C171.855471,434.358397 172.385739,434.255859 172.983398,434.255859 C173.569339,434.255859 174.11279,434.358397 174.61377,434.563477 C175.114749,434.768556 175.538084,435.041014 175.883789,435.380859 C176.229494,435.720705 176.501952,436.119138 176.701172,436.576172 C176.900392,437.033205 177,437.50781 177,438 L177,438.070312 C177,438.164063 176.963379,438.247558 176.890137,438.320801 C176.816894,438.394043 176.733399,438.430664 176.639648,438.430664 L176.15625,438.430664 C176.0625,438.430664 175.979004,438.395508 175.905762,438.325195 C175.832519,438.254882 175.795898,438.169922 175.795898,438.070312 L175.795898,438 C175.795898,437.666014 175.729981,437.342287 175.598145,437.028809 C175.466308,436.71533 175.277345,436.438478 175.03125,436.198242 C174.785155,435.958007 174.490724,435.766114 174.147949,435.622559 C173.805174,435.479003 173.416994,435.407227 172.983398,435.407227 C172.549803,435.407227 172.171877,435.479003 171.849609,435.622559 C171.527342,435.766114 171.249025,435.960936 171.014648,436.207031 C170.780272,436.453126 170.594239,436.732909 170.456543,437.046387 C170.318847,437.359865 170.226563,437.677733 170.179688,438 C170.121093,438.369142 170.078613,438.788084 170.052246,439.256836 C170.025879,439.725588 170.012695,440.206052 170.012695,440.698242 C170.012695,441.190432 170.025879,441.670896 170.052246,442.139648 C170.078613,442.608401 170.121093,443.027342 170.179688,443.396484 C170.214844,443.660158 170.28955,443.94287 170.403809,444.244629 C170.518067,444.546388 170.686522,444.826171 170.90918,445.083984 C171.131837,445.341798 171.410155,445.557128 171.744141,445.72998 C172.078127,445.902833 172.491208,445.989258 172.983398,445.989258 C173.46387,445.989258 173.881346,445.905763 174.23584,445.73877 C174.590334,445.571777 174.884764,445.359376 175.119141,445.101562 C175.353517,444.843749 175.524902,444.561037 175.633301,444.253418 C175.7417,443.945799 175.795898,443.660158 175.795898,443.396484 L175.795898,443.326172 C175.795898,443.232421 175.831054,443.148926 175.901367,443.075684 C175.97168,443.002441 176.05664,442.96582 176.15625,442.96582 L176.639648,442.96582 C176.733399,442.96582 176.816894,443.002441 176.890137,443.075684 C176.963379,443.148926 177,443.232421 177,443.326172 L177,443.396484 C177,443.982425 176.891603,444.506834 176.674805,444.969727 C176.458007,445.43262 176.166506,445.826659 175.800293,446.151855 C175.43408,446.477052 175.007815,446.723144 174.521484,446.890137 C174.035154,447.05713 173.522464,447.140625 172.983398,447.140625 C171.893549,447.140625 170.991215,446.808109 170.276367,446.143066 C169.56152,445.478024 169.12793,444.562506 168.975586,443.396484 C168.928711,443.039061 168.890625,442.623049 168.861328,442.148438 Z M178.130859,452.759766 L178.130859,452.314453 C178.130859,452.224609 178.143555,452.158203 178.168945,452.115234 C178.194336,452.072265 178.21875,452.039063 178.242188,452.015625 L181.130859,448.763672 C181.259766,448.61914 181.380859,448.479493 181.494141,448.344727 C181.607422,448.20996 181.704101,448.066407 181.78418,447.914062 C181.864258,447.761718 181.925781,447.595704 181.96875,447.416016 C182.011719,447.236327 182.033203,447.029298 182.033203,446.794922 C182.033203,446.595702 182.00293,446.400392 181.942383,446.208984 C181.881836,446.017577 181.788087,445.847657 181.661133,445.699219 C181.534179,445.550781 181.376954,445.432618 181.189453,445.344727 C181.001952,445.256835 180.775392,445.212891 180.509766,445.212891 C180.279296,445.212891 180.069337,445.260742 179.879883,445.356445 C179.690429,445.452149 179.530274,445.574218 179.399414,445.722656 C179.268554,445.871094 179.166993,446.039062 179.094727,446.226562 C179.022461,446.414063 178.986328,446.603515 178.986328,446.794922 L178.986328,446.976562 C178.986328,447.039063 178.961914,447.094726 178.913086,447.143555 C178.864258,447.192383 178.808594,447.216797 178.746094,447.216797 L178.470703,447.216797 C178.408203,447.216797 178.352539,447.192383 178.303711,447.143555 C178.254883,447.094726 178.230469,447.039063 178.230469,446.976562 L178.230469,446.794922 C178.230469,446.474608 178.288085,446.174806 178.40332,445.895508 C178.518555,445.61621 178.67871,445.374024 178.883789,445.168945 C179.088868,444.963866 179.331053,444.801758 179.610352,444.682617 C179.88965,444.563476 180.189452,444.503906 180.509766,444.503906 C180.83008,444.503906 181.127928,444.557617 181.40332,444.665039 C181.678712,444.772461 181.916991,444.926757 182.118164,445.12793 C182.319337,445.329103 182.477538,445.571288 182.592773,445.854492 C182.708008,446.137697 182.765625,446.45117 182.765625,446.794922 C182.765625,447.259768 182.675782,447.682615 182.496094,448.063477 C182.316405,448.444338 182.070314,448.810545 181.757812,449.162109 L179.126953,452.074219 C179.095703,452.113281 179.087891,452.155273 179.103516,452.200195 C179.119141,452.245117 179.160156,452.267578 179.226562,452.267578 L182.71875,452.267578 C182.78125,452.267578 182.836914,452.291992 182.885742,452.34082 C182.934571,452.389649 182.958984,452.445312 182.958984,452.507812 L182.958984,452.759766 C182.958984,452.822266 182.934571,452.877929 182.885742,452.926758 C182.836914,452.975586 182.78125,453 182.71875,453 L178.371094,453 C178.308593,453 178.25293,452.975586 178.204102,452.926758 C178.155273,452.877929 178.130859,452.822266 178.130859,452.759766 Z" id="C2" fill="#292A2B"></path>
        <path d="M232.307617,446.499023 L234.953125,440.504883 C234.988281,440.422851 235.005859,440.359864 235.005859,440.315918 C235.005859,440.271972 234.988281,440.203125 234.953125,440.109375 L232.615234,434.90625 C232.55664,434.771484 232.55957,434.652833 232.624023,434.550293 C232.688477,434.447753 232.779296,434.396484 232.896484,434.396484 L234.935547,434.396484 C235.082032,434.396484 235.196289,434.487304 235.27832,434.668945 L236.772461,438.395508 C236.795899,438.454102 236.831054,438.483398 236.87793,438.483398 C236.924805,438.483398 236.959961,438.454102 236.983398,438.395508 L238.477539,434.668945 C238.559571,434.487304 238.673827,434.396484 238.820312,434.396484 L240.859375,434.396484 C240.976563,434.396484 241.068847,434.447753 241.13623,434.550293 C241.203614,434.652833 241.205078,434.771484 241.140625,434.90625 L238.802734,440.126953 C238.767578,440.220704 238.75,440.288086 238.75,440.329102 C238.75,440.370117 238.767578,440.43457 238.802734,440.522461 L241.448242,446.499023 C241.477539,446.563477 241.492188,446.625 241.492188,446.683594 C241.492188,446.748047 241.47461,446.803711 241.439453,446.850586 C241.375,446.950196 241.281251,447 241.158203,447 L239.040039,447 C238.846679,447 238.720703,446.909181 238.662109,446.727539 L236.983398,442.464844 C236.959961,442.40625 236.924805,442.376953 236.87793,442.376953 C236.831054,442.376953 236.795899,442.40625 236.772461,442.464844 L235.09375,446.727539 C235.035156,446.909181 234.909181,447 234.71582,447 L232.597656,447 C232.480468,447 232.386719,446.947266 232.316406,446.841797 C232.28125,446.789062 232.263672,446.730469 232.263672,446.666016 C232.263672,446.613281 232.27832,446.557617 232.307617,446.499023 Z" id="X" fill="#F25B44"></path>
        <path d="M264.861328,347.148438 C264.837891,346.673826 264.826172,346.187502 264.826172,345.689453 C264.826172,345.191404 264.837891,344.70801 264.861328,344.239258 C264.884766,343.770505 264.922851,343.357424 264.975586,343 C265.045899,342.50781 265.183593,342.036135 265.388672,341.584961 C265.593751,341.133787 265.86328,340.735353 266.197266,340.389648 C266.531252,340.043944 266.929685,339.768556 267.392578,339.563477 C267.855471,339.358397 268.385739,339.255859 268.983398,339.255859 C269.569339,339.255859 270.11279,339.358397 270.61377,339.563477 C271.114749,339.768556 271.538084,340.041014 271.883789,340.380859 C272.229494,340.720705 272.501952,341.119138 272.701172,341.576172 C272.900392,342.033205 273,342.50781 273,343 L273,343.070312 C273,343.164063 272.963379,343.247558 272.890137,343.320801 C272.816894,343.394043 272.733399,343.430664 272.639648,343.430664 L272.15625,343.430664 C272.0625,343.430664 271.979004,343.395508 271.905762,343.325195 C271.832519,343.254882 271.795898,343.169922 271.795898,343.070312 L271.795898,343 C271.795898,342.666014 271.729981,342.342287 271.598145,342.028809 C271.466308,341.71533 271.277345,341.438478 271.03125,341.198242 C270.785155,340.958007 270.490724,340.766114 270.147949,340.622559 C269.805174,340.479003 269.416994,340.407227 268.983398,340.407227 C268.549803,340.407227 268.171877,340.479003 267.849609,340.622559 C267.527342,340.766114 267.249025,340.960936 267.014648,341.207031 C266.780272,341.453126 266.594239,341.732909 266.456543,342.046387 C266.318847,342.359865 266.226563,342.677733 266.179688,343 C266.121093,343.369142 266.078613,343.788084 266.052246,344.256836 C266.025879,344.725588 266.012695,345.206052 266.012695,345.698242 C266.012695,346.190432 266.025879,346.670896 266.052246,347.139648 C266.078613,347.608401 266.121093,348.027342 266.179688,348.396484 C266.214844,348.660158 266.28955,348.94287 266.403809,349.244629 C266.518067,349.546388 266.686522,349.826171 266.90918,350.083984 C267.131837,350.341798 267.410155,350.557128 267.744141,350.72998 C268.078127,350.902833 268.491208,350.989258 268.983398,350.989258 C269.46387,350.989258 269.881346,350.905763 270.23584,350.73877 C270.590334,350.571777 270.884764,350.359376 271.119141,350.101562 C271.353517,349.843749 271.524902,349.561037 271.633301,349.253418 C271.7417,348.945799 271.795898,348.660158 271.795898,348.396484 L271.795898,348.326172 C271.795898,348.232421 271.831054,348.148926 271.901367,348.075684 C271.97168,348.002441 272.05664,347.96582 272.15625,347.96582 L272.639648,347.96582 C272.733399,347.96582 272.816894,348.002441 272.890137,348.075684 C272.963379,348.148926 273,348.232421 273,348.326172 L273,348.396484 C273,348.982425 272.891603,349.506834 272.674805,349.969727 C272.458007,350.43262 272.166506,350.826659 271.800293,351.151855 C271.43408,351.477052 271.007815,351.723144 270.521484,351.890137 C270.035154,352.05713 269.522464,352.140625 268.983398,352.140625 C267.893549,352.140625 266.991215,351.808109 266.276367,351.143066 C265.56152,350.478024 265.12793,349.562506 264.975586,348.396484 C264.928711,348.039061 264.890625,347.623049 264.861328,347.148438 Z M274.517578,360.162109 L274.517578,352.240234 C274.517578,352.177734 274.541992,352.122071 274.59082,352.073242 C274.639649,352.024414 274.695312,352 274.757812,352 L274.951172,352 C275.00586,352 275.060547,352.027343 275.115234,352.082031 C275.154297,352.121094 275.198242,352.163086 275.24707,352.208008 C275.295899,352.25293 275.353515,352.275391 275.419922,352.275391 C275.509766,352.275391 275.58789,352.25586 275.654297,352.216797 C275.720703,352.177734 275.801757,352.131836 275.897461,352.079102 C275.993165,352.026367 276.109374,351.980469 276.246094,351.941406 C276.382813,351.902344 276.562499,351.882812 276.785156,351.882812 C277.097658,351.882812 277.387694,351.942382 277.655273,352.061523 C277.922853,352.180665 278.157226,352.341796 278.358398,352.544922 C278.559571,352.748048 278.721679,352.990233 278.844727,353.271484 C278.967774,353.552736 279.041016,353.849608 279.064453,354.162109 C279.080078,354.400392 279.087891,354.679686 279.087891,355 C279.087891,355.320314 279.080078,355.599608 279.064453,355.837891 C279.041016,356.150392 278.967774,356.447264 278.844727,356.728516 C278.721679,357.009767 278.559571,357.251952 278.358398,357.455078 C278.157226,357.658204 277.922853,357.819335 277.655273,357.938477 C277.387694,358.057618 277.097658,358.117188 276.785156,358.117188 C276.593749,358.117188 276.429688,358.101563 276.292969,358.070312 C276.156249,358.039062 276.04004,358.00586 275.944336,357.970703 C275.848632,357.935547 275.764649,357.901367 275.692383,357.868164 C275.620117,357.834961 275.556641,357.818359 275.501953,357.818359 C275.423828,357.818359 275.358399,357.84082 275.305664,357.885742 C275.252929,357.930664 275.226562,358.007812 275.226562,358.117188 L275.226562,360.162109 C275.226562,360.22461 275.202149,360.280273 275.15332,360.329102 C275.104492,360.37793 275.048828,360.402344 274.986328,360.402344 L274.757812,360.402344 C274.695312,360.402344 274.639649,360.37793 274.59082,360.329102 C274.541992,360.280273 274.517578,360.22461 274.517578,360.162109 Z M275.25,354.162109 C275.226562,354.408204 275.214844,354.687498 275.214844,355 C275.214844,355.312502 275.226562,355.591796 275.25,355.837891 C275.265625,355.998048 275.301758,356.170898 275.358398,356.356445 C275.415039,356.541993 275.499023,356.711913 275.610352,356.866211 C275.72168,357.020509 275.86914,357.15039 276.052734,357.255859 C276.236329,357.361329 276.460936,357.414062 276.726562,357.414062 C277.015626,357.414062 277.259765,357.361329 277.458984,357.255859 C277.658204,357.15039 277.819335,357.020509 277.942383,356.866211 C278.06543,356.711913 278.157226,356.541993 278.217773,356.356445 C278.278321,356.170898 278.316406,355.998048 278.332031,355.837891 C278.363281,355.591796 278.378906,355.312502 278.378906,355 C278.378906,354.687498 278.363281,354.408204 278.332031,354.162109 C278.316406,354.001952 278.278321,353.829102 278.217773,353.643555 C278.157226,353.458007 278.06543,353.288087 277.942383,353.133789 C277.819335,352.979491 277.660157,352.84961 277.464844,352.744141 C277.26953,352.638671 277.023439,352.585938 276.726562,352.585938 C276.460936,352.585938 276.236329,352.638671 276.052734,352.744141 C275.86914,352.84961 275.72168,352.979491 275.610352,353.133789 C275.499023,353.288087 275.415039,353.458007 275.358398,353.643555 C275.301758,353.829102 275.265625,354.001952 275.25,354.162109 Z M280.394531,357.759766 L280.394531,356.921875 C280.394531,356.859375 280.418945,356.803711 280.467773,356.754883 C280.516602,356.706054 280.572265,356.681641 280.634766,356.681641 L281.472656,356.681641 C281.535157,356.681641 281.59082,356.705078 281.639648,356.751953 C281.688477,356.798828 281.712891,356.855468 281.712891,356.921875 L281.712891,357.818359 C281.712891,357.986329 281.69336,358.112304 281.654297,358.196289 C281.615234,358.280274 281.570313,358.359375 281.519531,358.433594 L281.044922,359.101562 C281.013672,359.140625 280.975586,359.186523 280.930664,359.239258 C280.885742,359.291992 280.806641,359.318359 280.693359,359.318359 L280.576172,359.318359 C280.505859,359.318359 280.448242,359.289063 280.40332,359.230469 C280.358398,359.171875 280.355469,359.105469 280.394531,359.03125 L280.851562,358.181641 C280.875,358.142578 280.876953,358.102539 280.857422,358.061523 C280.837891,358.020508 280.802735,358 280.751953,358 L280.634766,358 C280.572265,358 280.516602,357.975586 280.467773,357.926758 C280.418945,357.877929 280.394531,357.822266 280.394531,357.759766 Z M283.160156,357.759766 L283.160156,357.314453 C283.160156,357.224609 283.172851,357.158203 283.198242,357.115234 C283.223633,357.072265 283.248047,357.039063 283.271484,357.015625 L286.160156,353.763672 C286.289063,353.61914 286.410156,353.479493 286.523438,353.344727 C286.636719,353.20996 286.733398,353.066407 286.813477,352.914062 C286.893555,352.761718 286.955078,352.595704 286.998047,352.416016 C287.041016,352.236327 287.0625,352.029298 287.0625,351.794922 C287.0625,351.595702 287.032227,351.400392 286.97168,351.208984 C286.911133,351.017577 286.817383,350.847657 286.69043,350.699219 C286.563476,350.550781 286.406251,350.432618 286.21875,350.344727 C286.031249,350.256835 285.804689,350.212891 285.539062,350.212891 C285.308593,350.212891 285.098634,350.260742 284.90918,350.356445 C284.719726,350.452149 284.559571,350.574218 284.428711,350.722656 C284.297851,350.871094 284.196289,351.039062 284.124023,351.226562 C284.051757,351.414063 284.015625,351.603515 284.015625,351.794922 L284.015625,351.976562 C284.015625,352.039063 283.991211,352.094726 283.942383,352.143555 C283.893554,352.192383 283.837891,352.216797 283.775391,352.216797 L283.5,352.216797 C283.4375,352.216797 283.381836,352.192383 283.333008,352.143555 C283.284179,352.094726 283.259766,352.039063 283.259766,351.976562 L283.259766,351.794922 C283.259766,351.474608 283.317382,351.174806 283.432617,350.895508 C283.547852,350.61621 283.708007,350.374024 283.913086,350.168945 C284.118165,349.963866 284.36035,349.801758 284.639648,349.682617 C284.918947,349.563476 285.218748,349.503906 285.539062,349.503906 C285.859377,349.503906 286.157225,349.557617 286.432617,349.665039 C286.708009,349.772461 286.946288,349.926757 287.147461,350.12793 C287.348634,350.329103 287.506835,350.571288 287.62207,350.854492 C287.737305,351.137697 287.794922,351.45117 287.794922,351.794922 C287.794922,352.259768 287.705079,352.682615 287.525391,353.063477 C287.345702,353.444338 287.099611,353.810545 286.787109,354.162109 L284.15625,357.074219 C284.125,357.113281 284.117187,357.155273 284.132812,357.200195 C284.148438,357.245117 284.189453,357.267578 284.255859,357.267578 L287.748047,357.267578 C287.810547,357.267578 287.866211,357.291992 287.915039,357.34082 C287.963867,357.389649 287.988281,357.445312 287.988281,357.507812 L287.988281,357.759766 C287.988281,357.822266 287.963867,357.877929 287.915039,357.926758 C287.866211,357.975586 287.810547,358 287.748047,358 L283.400391,358 C283.33789,358 283.282227,357.975586 283.233398,357.926758 C283.18457,357.877929 283.160156,357.822266 283.160156,357.759766 Z" id="Cp,2" fill="#292A2B"></path>
        <path d="M373.861328,347.148438 C373.837891,346.673826 373.826172,346.187502 373.826172,345.689453 C373.826172,345.191404 373.837891,344.70801 373.861328,344.239258 C373.884766,343.770505 373.922851,343.357424 373.975586,343 C374.045899,342.50781 374.183593,342.036135 374.388672,341.584961 C374.593751,341.133787 374.86328,340.735353 375.197266,340.389648 C375.531252,340.043944 375.929685,339.768556 376.392578,339.563477 C376.855471,339.358397 377.385739,339.255859 377.983398,339.255859 C378.569339,339.255859 379.11279,339.358397 379.61377,339.563477 C380.114749,339.768556 380.538084,340.041014 380.883789,340.380859 C381.229494,340.720705 381.501952,341.119138 381.701172,341.576172 C381.900392,342.033205 382,342.50781 382,343 L382,343.070312 C382,343.164063 381.963379,343.247558 381.890137,343.320801 C381.816894,343.394043 381.733399,343.430664 381.639648,343.430664 L381.15625,343.430664 C381.0625,343.430664 380.979004,343.395508 380.905762,343.325195 C380.832519,343.254882 380.795898,343.169922 380.795898,343.070312 L380.795898,343 C380.795898,342.666014 380.729981,342.342287 380.598145,342.028809 C380.466308,341.71533 380.277345,341.438478 380.03125,341.198242 C379.785155,340.958007 379.490724,340.766114 379.147949,340.622559 C378.805174,340.479003 378.416994,340.407227 377.983398,340.407227 C377.549803,340.407227 377.171877,340.479003 376.849609,340.622559 C376.527342,340.766114 376.249025,340.960936 376.014648,341.207031 C375.780272,341.453126 375.594239,341.732909 375.456543,342.046387 C375.318847,342.359865 375.226563,342.677733 375.179688,343 C375.121093,343.369142 375.078613,343.788084 375.052246,344.256836 C375.025879,344.725588 375.012695,345.206052 375.012695,345.698242 C375.012695,346.190432 375.025879,346.670896 375.052246,347.139648 C375.078613,347.608401 375.121093,348.027342 375.179688,348.396484 C375.214844,348.660158 375.28955,348.94287 375.403809,349.244629 C375.518067,349.546388 375.686522,349.826171 375.90918,350.083984 C376.131837,350.341798 376.410155,350.557128 376.744141,350.72998 C377.078127,350.902833 377.491208,350.989258 377.983398,350.989258 C378.46387,350.989258 378.881346,350.905763 379.23584,350.73877 C379.590334,350.571777 379.884764,350.359376 380.119141,350.101562 C380.353517,349.843749 380.524902,349.561037 380.633301,349.253418 C380.7417,348.945799 380.795898,348.660158 380.795898,348.396484 L380.795898,348.326172 C380.795898,348.232421 380.831054,348.148926 380.901367,348.075684 C380.97168,348.002441 381.05664,347.96582 381.15625,347.96582 L381.639648,347.96582 C381.733399,347.96582 381.816894,348.002441 381.890137,348.075684 C381.963379,348.148926 382,348.232421 382,348.326172 L382,348.396484 C382,348.982425 381.891603,349.506834 381.674805,349.969727 C381.458007,350.43262 381.166506,350.826659 380.800293,351.151855 C380.43408,351.477052 380.007815,351.723144 379.521484,351.890137 C379.035154,352.05713 378.522464,352.140625 377.983398,352.140625 C376.893549,352.140625 375.991215,351.808109 375.276367,351.143066 C374.56152,350.478024 374.12793,349.562506 373.975586,348.396484 C373.928711,348.039061 373.890625,347.623049 373.861328,347.148438 Z M383.171875,352.849609 L383.171875,352.433594 C383.171875,352.328124 383.201172,352.231446 383.259766,352.143555 C383.31836,352.055664 383.36914,351.988281 383.412109,351.941406 L385.521484,349.708984 C385.591797,349.638672 385.671875,349.601563 385.761719,349.597656 L386.107422,349.597656 C386.169922,349.597656 386.225586,349.62207 386.274414,349.670898 C386.323242,349.719727 386.347656,349.77539 386.347656,349.837891 L386.347656,357.759766 C386.347656,357.822266 386.324219,357.877929 386.277344,357.926758 C386.230469,357.975586 386.173828,358 386.107422,358 L385.867188,358 C385.804687,358 385.749024,357.975586 385.700195,357.926758 C385.651367,357.877929 385.626953,357.822266 385.626953,357.759766 L385.626953,350.763672 C385.626953,350.724609 385.613281,350.703125 385.585938,350.699219 C385.558594,350.695312 385.537109,350.701172 385.521484,350.716797 L383.435547,352.949219 C383.388672,353.003907 383.333008,353.017578 383.268555,352.990234 C383.204101,352.96289 383.171875,352.916016 383.171875,352.849609 Z M387.630859,357.759766 L387.630859,356.921875 C387.630859,356.859375 387.655273,356.803711 387.704102,356.754883 C387.75293,356.706054 387.808593,356.681641 387.871094,356.681641 L388.708984,356.681641 C388.771485,356.681641 388.827148,356.705078 388.875977,356.751953 C388.924805,356.798828 388.949219,356.855468 388.949219,356.921875 L388.949219,357.818359 C388.949219,357.986329 388.929688,358.112304 388.890625,358.196289 C388.851562,358.280274 388.806641,358.359375 388.755859,358.433594 L388.28125,359.101562 C388.25,359.140625 388.211914,359.186523 388.166992,359.239258 C388.12207,359.291992 388.042969,359.318359 387.929688,359.318359 L387.8125,359.318359 C387.742187,359.318359 387.684571,359.289063 387.639648,359.230469 C387.594726,359.171875 387.591797,359.105469 387.630859,359.03125 L388.087891,358.181641 C388.111328,358.142578 388.113281,358.102539 388.09375,358.061523 C388.074219,358.020508 388.039063,358 387.988281,358 L387.871094,358 C387.808593,358 387.75293,357.975586 387.704102,357.926758 C387.655273,357.877929 387.630859,357.822266 387.630859,357.759766 Z M390.396484,357.759766 L390.396484,357.314453 C390.396484,357.224609 390.40918,357.158203 390.43457,357.115234 C390.459961,357.072265 390.484375,357.039063 390.507812,357.015625 L393.396484,353.763672 C393.525391,353.61914 393.646484,353.479493 393.759766,353.344727 C393.873047,353.20996 393.969726,353.066407 394.049805,352.914062 C394.129883,352.761718 394.191406,352.595704 394.234375,352.416016 C394.277344,352.236327 394.298828,352.029298 394.298828,351.794922 C394.298828,351.595702 394.268555,351.400392 394.208008,351.208984 C394.147461,351.017577 394.053712,350.847657 393.926758,350.699219 C393.799804,350.550781 393.642579,350.432618 393.455078,350.344727 C393.267577,350.256835 393.041017,350.212891 392.775391,350.212891 C392.544921,350.212891 392.334962,350.260742 392.145508,350.356445 C391.956054,350.452149 391.795899,350.574218 391.665039,350.722656 C391.534179,350.871094 391.432618,351.039062 391.360352,351.226562 C391.288086,351.414063 391.251953,351.603515 391.251953,351.794922 L391.251953,351.976562 C391.251953,352.039063 391.227539,352.094726 391.178711,352.143555 C391.129883,352.192383 391.074219,352.216797 391.011719,352.216797 L390.736328,352.216797 C390.673828,352.216797 390.618164,352.192383 390.569336,352.143555 C390.520508,352.094726 390.496094,352.039063 390.496094,351.976562 L390.496094,351.794922 C390.496094,351.474608 390.55371,351.174806 390.668945,350.895508 C390.78418,350.61621 390.944335,350.374024 391.149414,350.168945 C391.354493,349.963866 391.596678,349.801758 391.875977,349.682617 C392.155275,349.563476 392.455077,349.503906 392.775391,349.503906 C393.095705,349.503906 393.393553,349.557617 393.668945,349.665039 C393.944337,349.772461 394.182616,349.926757 394.383789,350.12793 C394.584962,350.329103 394.743163,350.571288 394.858398,350.854492 C394.973633,351.137697 395.03125,351.45117 395.03125,351.794922 C395.03125,352.259768 394.941407,352.682615 394.761719,353.063477 C394.58203,353.444338 394.335939,353.810545 394.023438,354.162109 L391.392578,357.074219 C391.361328,357.113281 391.353516,357.155273 391.369141,357.200195 C391.384766,357.245117 391.425781,357.267578 391.492188,357.267578 L394.984375,357.267578 C395.046875,357.267578 395.102539,357.291992 395.151367,357.34082 C395.200196,357.389649 395.224609,357.445312 395.224609,357.507812 L395.224609,357.759766 C395.224609,357.822266 395.200196,357.877929 395.151367,357.926758 C395.102539,357.975586 395.046875,358 394.984375,358 L390.636719,358 C390.574218,358 390.518555,357.975586 390.469727,357.926758 C390.420898,357.877929 390.396484,357.822266 390.396484,357.759766 Z" id="C1,2" fill="#292A2B"></path>
        <circle id="Oval-22" stroke="#87BC55" cx="46.5" cy="490.5" r="7.5"></circle>
        <circle id="Oval-22" stroke="#87BC55" cx="120.5" cy="394.5" r="7.5"></circle>
        <circle id="Oval-22" stroke="#87BC55" cx="194.5" cy="490.5" r="7.5"></circle>
        <circle id="Oval-22" stroke="#87BC55" cx="268.5" cy="394.5" r="7.5"></circle>
        <circle id="Oval-22" stroke="#87BC55" cx="416.5" cy="490.5" r="7.5"></circle>
        <circle id="Oval-22" stroke="#87BC55" cx="342.5" cy="301.5" r="7.5"></circle>
        <circle id="Oval-22" stroke="#87BC55" cx="362.5" cy="394.5" r="7.5"></circle>
        <path d="M54.5,480.5 L111.5,403.5" id="Line-2" stroke="#292A2B" stroke-linecap="square"></path>
        <path id="Line-2-decoration-1" d="M107.485465,413.965348 L111.5,403.5 L102.663013,410.395481" stroke="#292A2B" stroke-linecap="square"></path>
        <path d="M275.5,385.5 L334.5,312.5" id="Line-2" stroke="#292A2B" stroke-linecap="square"></path>
        <path id="Line-2-decoration-1" d="M330.044504,322.785356 L334.5,312.5 L325.378059,319.013846" stroke="#292A2B" stroke-linecap="square"></path>
        <path d="M127.5,403.5 L186.5,480.5" id="Line-2" stroke="#292A2B" stroke-linecap="square"></path>
        <path id="Line-2-decoration-1" d="M177.54996,473.751905 L186.5,480.5 L182.312594,470.102614" stroke="#292A2B" stroke-linecap="square"></path>
        <path d="M347.5,311.5 L413.5,477.5" id="Line-2" stroke="#292A2B" stroke-linecap="square"></path>
        <path id="Line-2-decoration-1" d="M406.722096,468.572513 L413.5,477.5 L412.297577,466.355756" stroke="#292A2B" stroke-linecap="square"></path>
        <path d="M347.5,311.5 L360.5,382.5" id="Line-2" stroke="#292A2B" stroke-linecap="square"></path>
        <path id="Line-2-decoration-1" d="M355.603929,372.416921 L360.5,382.5 L361.505814,371.336294" stroke="#292A2B" stroke-linecap="square"></path>
        <path d="M1.16894531,79.6396484 L1.16894531,67.7568359 C1.16894531,67.6630855 1.20556604,67.5795902 1.27880859,67.5063477 C1.35205115,67.4331051 1.43554641,67.3964844 1.52929688,67.3964844 L4.58789062,67.3964844 C5.1035182,67.3964844 5.59277112,67.4960928 6.05566406,67.6953125 C6.518557,67.8945322 6.921385,68.1655256 7.26416016,68.5083008 C7.60693531,68.8510759 7.87646386,69.2524391 8.07275391,69.7124023 C8.26904395,70.1723656 8.3671875,70.6601537 8.3671875,71.1757812 C8.3671875,71.7031276 8.26904395,72.1953102 8.07275391,72.6523438 C7.87646386,73.1093773 7.60693531,73.5092756 7.26416016,73.8520508 C6.921385,74.1948259 6.518557,74.4658193 6.05566406,74.6650391 C5.59277112,74.8642588 5.1035182,74.9638672 4.58789062,74.9638672 L2.50488281,74.9638672 C2.38769473,74.9638672 2.3261719,75.0224604 2.3203125,75.1396484 L2.3203125,79.6396484 C2.3203125,79.7333989 2.2851566,79.8168942 2.21484375,79.8901367 C2.1445309,79.9633793 2.05957081,80 1.95996094,80 L1.52929688,80 C1.43554641,80 1.35205115,79.9633793 1.27880859,79.8901367 C1.20556604,79.8168942 1.16894531,79.7333989 1.16894531,79.6396484 Z M2.3203125,73.6279297 C2.3203125,73.7451178 2.38183532,73.8037109 2.50488281,73.8037109 L4.58789062,73.8037109 C4.94531429,73.8037109 5.28368981,73.734864 5.60302734,73.597168 C5.92236488,73.459472 6.20214724,73.270509 6.44238281,73.0302734 C6.68261839,72.7900379 6.87158134,72.5117203 7.00927734,72.1953125 C7.14697334,71.8789047 7.21582031,71.5390643 7.21582031,71.1757812 C7.21582031,70.8183576 7.14697334,70.4799821 7.00927734,70.1606445 C6.87158134,69.841307 6.68261839,69.5629895 6.44238281,69.3256836 C6.20214724,69.0883777 5.92382971,68.8994148 5.60742187,68.7587891 C5.29101404,68.6181634 4.95117369,68.5478516 4.58789062,68.5478516 L2.50488281,68.5478516 C2.38769473,68.5478516 2.3261719,68.6093744 2.3203125,68.7324219 L2.3203125,73.6279297 Z M9.08496094,85.7597656 L9.08496094,85.3144531 C9.08496094,85.2246089 9.09765612,85.1582033 9.12304688,85.1152344 C9.14843763,85.0722654 9.17285145,85.0390626 9.19628906,85.015625 L12.0849609,81.7636719 C12.2138678,81.6191399 12.3349604,81.4794929 12.4482422,81.3447266 C12.561524,81.2099603 12.6582027,81.066407 12.7382812,80.9140625 C12.8183598,80.761718 12.8798826,80.595704 12.9228516,80.4160156 C12.9658205,80.2363272 12.9873047,80.029298 12.9873047,79.7949219 C12.9873047,79.5957021 12.9570316,79.4003916 12.8964844,79.2089844 C12.8359372,79.0175772 12.7421881,78.847657 12.6152344,78.6992188 C12.4882806,78.5507805 12.3310556,78.4326176 12.1435547,78.3447266 C11.9560537,78.2568355 11.7294935,78.2128906 11.4638672,78.2128906 C11.2333973,78.2128906 11.0234384,78.2607417 10.8339844,78.3564453 C10.6445303,78.4521489 10.4843757,78.574218 10.3535156,78.7226562 C10.2226556,78.8710945 10.1210941,79.0390616 10.0488281,79.2265625 C9.97656214,79.4140634 9.94042969,79.6035147 9.94042969,79.7949219 L9.94042969,79.9765625 C9.94042969,80.0390628 9.91601587,80.0947263 9.8671875,80.1435547 C9.81835913,80.1923831 9.76269562,80.2167969 9.70019531,80.2167969 L9.42480469,80.2167969 C9.36230438,80.2167969 9.30664087,80.1923831 9.2578125,80.1435547 C9.20898413,80.0947263 9.18457031,80.0390628 9.18457031,79.9765625 L9.18457031,79.7949219 C9.18457031,79.4746078 9.24218692,79.1748061 9.35742188,78.8955078 C9.47265683,78.6162095 9.63281147,78.3740245 9.83789062,78.1689453 C10.0429698,77.9638662 10.2851549,77.8017584 10.5644531,77.6826172 C10.8437514,77.563476 11.1435531,77.5039062 11.4638672,77.5039062 C11.7841813,77.5039062 12.0820299,77.5576167 12.3574219,77.6650391 C12.6328139,77.7724615 12.8710927,77.9267568 13.0722656,78.1279297 C13.2734385,78.3291026 13.43164,78.5712876 13.546875,78.8544922 C13.66211,79.1376967 13.7197266,79.4511702 13.7197266,79.7949219 C13.7197266,80.2597679 13.6298837,80.6826153 13.4501953,81.0634766 C13.2705069,81.4443378 13.0244156,81.8105451 12.7119141,82.1621094 L10.0810547,85.0742188 C10.0498045,85.1132814 10.0419921,85.1552732 10.0576172,85.2001953 C10.0732423,85.2451174 10.1142575,85.2675781 10.1806641,85.2675781 L13.6728516,85.2675781 C13.7353519,85.2675781 13.7910154,85.2919919 13.8398438,85.3408203 C13.8886721,85.3896487 13.9130859,85.4453122 13.9130859,85.5078125 L13.9130859,85.7597656 C13.9130859,85.8222659 13.8886721,85.8779294 13.8398438,85.9267578 C13.7910154,85.9755862 13.7353519,86 13.6728516,86 L9.32519531,86 C9.262695,86 9.20703149,85.9755862 9.15820312,85.9267578 C9.10937476,85.8779294 9.08496094,85.8222659 9.08496094,85.7597656 Z" id="P2" fill="#292A2B"></path>
        <path d="M1.16894531,175.639648 L1.16894531,163.756836 C1.16894531,163.663085 1.20556604,163.57959 1.27880859,163.506348 C1.35205115,163.433105 1.43554641,163.396484 1.52929688,163.396484 L4.58789062,163.396484 C5.1035182,163.396484 5.59277112,163.496093 6.05566406,163.695312 C6.518557,163.894532 6.921385,164.165526 7.26416016,164.508301 C7.60693531,164.851076 7.87646386,165.252439 8.07275391,165.712402 C8.26904395,166.172366 8.3671875,166.660154 8.3671875,167.175781 C8.3671875,167.703128 8.26904395,168.19531 8.07275391,168.652344 C7.87646386,169.109377 7.60693531,169.509276 7.26416016,169.852051 C6.921385,170.194826 6.518557,170.465819 6.05566406,170.665039 C5.59277112,170.864259 5.1035182,170.963867 4.58789062,170.963867 L2.50488281,170.963867 C2.38769473,170.963867 2.3261719,171.02246 2.3203125,171.139648 L2.3203125,175.639648 C2.3203125,175.733399 2.2851566,175.816894 2.21484375,175.890137 C2.1445309,175.963379 2.05957081,176 1.95996094,176 L1.52929688,176 C1.43554641,176 1.35205115,175.963379 1.27880859,175.890137 C1.20556604,175.816894 1.16894531,175.733399 1.16894531,175.639648 Z M2.3203125,169.62793 C2.3203125,169.745118 2.38183532,169.803711 2.50488281,169.803711 L4.58789062,169.803711 C4.94531429,169.803711 5.28368981,169.734864 5.60302734,169.597168 C5.92236488,169.459472 6.20214724,169.270509 6.44238281,169.030273 C6.68261839,168.790038 6.87158134,168.51172 7.00927734,168.195312 C7.14697334,167.878905 7.21582031,167.539064 7.21582031,167.175781 C7.21582031,166.818358 7.14697334,166.479982 7.00927734,166.160645 C6.87158134,165.841307 6.68261839,165.562989 6.44238281,165.325684 C6.20214724,165.088378 5.92382971,164.899415 5.60742188,164.758789 C5.29101404,164.618163 4.95117369,164.547852 4.58789062,164.547852 L2.50488281,164.547852 C2.38769473,164.547852 2.3261719,164.609374 2.3203125,164.732422 L2.3203125,169.62793 Z M9.12597656,176.849609 L9.12597656,176.433594 C9.12597656,176.328124 9.15527314,176.231446 9.21386719,176.143555 C9.27246123,176.055664 9.32324197,175.988281 9.36621094,175.941406 L11.4755859,173.708984 C11.5458988,173.638672 11.6259761,173.601563 11.7158203,173.597656 L12.0615234,173.597656 C12.1240237,173.597656 12.1796873,173.62207 12.2285156,173.670898 C12.277344,173.719727 12.3017578,173.77539 12.3017578,173.837891 L12.3017578,181.759766 C12.3017578,181.822266 12.2783205,181.877929 12.2314453,181.926758 C12.1845701,181.975586 12.12793,182 12.0615234,182 L11.8212891,182 C11.7587888,182 11.7031252,181.975586 11.6542969,181.926758 C11.6054685,181.877929 11.5810547,181.822266 11.5810547,181.759766 L11.5810547,174.763672 C11.5810547,174.724609 11.5673829,174.703125 11.5400391,174.699219 C11.5126952,174.695312 11.491211,174.701172 11.4755859,174.716797 L9.38964844,176.949219 C9.3427732,177.003907 9.2871097,177.017578 9.22265625,176.990234 C9.1582028,176.96289 9.12597656,176.916016 9.12597656,176.849609 Z" id="P1" fill="#292A2B"></path>
        <path d="M56.8613281,123.148438 C56.8378905,122.673826 56.8261719,122.187502 56.8261719,121.689453 C56.8261719,121.191404 56.8378905,120.70801 56.8613281,120.239258 C56.8847657,119.770505 56.9228513,119.357424 56.9755859,119 C57.0458988,118.50781 57.1835927,118.036135 57.3886719,117.584961 C57.593751,117.133787 57.8632796,116.735353 58.1972656,116.389648 C58.5312517,116.043944 58.9296852,115.768556 59.3925781,115.563477 C59.8554711,115.358397 60.3857392,115.255859 60.9833984,115.255859 C61.5693389,115.255859 62.1127905,115.358397 62.6137695,115.563477 C63.1147486,115.768556 63.5380842,116.041014 63.8837891,116.380859 C64.2294939,116.720705 64.5019521,117.119138 64.7011719,117.576172 C64.9003916,118.033205 65,118.50781 65,119 L65,119.070312 C65,119.164063 64.9633793,119.247558 64.8901367,119.320801 C64.8168942,119.394043 64.7333989,119.430664 64.6396484,119.430664 L64.15625,119.430664 C64.0624995,119.430664 63.9790043,119.395508 63.9057617,119.325195 C63.8325192,119.254882 63.7958984,119.169922 63.7958984,119.070312 L63.7958984,119 C63.7958984,118.666014 63.7299811,118.342287 63.5981445,118.028809 C63.4663079,117.71533 63.277345,117.438478 63.03125,117.198242 C62.785155,116.958007 62.4907244,116.766114 62.1479492,116.622559 C61.8051741,116.479003 61.4169944,116.407227 60.9833984,116.407227 C60.5498025,116.407227 60.1718766,116.479003 59.8496094,116.622559 C59.5273421,116.766114 59.2490246,116.960936 59.0146484,117.207031 C58.7802723,117.453126 58.594239,117.732909 58.456543,118.046387 C58.318847,118.359865 58.2265627,118.677733 58.1796875,119 C58.1210935,119.369142 58.0786134,119.788084 58.0522461,120.256836 C58.0258788,120.725588 58.0126953,121.206052 58.0126953,121.698242 C58.0126953,122.190432 58.0258788,122.670896 58.0522461,123.139648 C58.0786134,123.608401 58.1210935,124.027342 58.1796875,124.396484 C58.2148439,124.660158 58.2895502,124.94287 58.4038086,125.244629 C58.518067,125.546388 58.6865223,125.826171 58.9091797,126.083984 C59.1318371,126.341798 59.4101546,126.557128 59.7441406,126.72998 C60.0781267,126.902833 60.4912085,126.989258 60.9833984,126.989258 C61.4638696,126.989258 61.8813459,126.905763 62.2358398,126.73877 C62.5903338,126.571777 62.8847645,126.359376 63.1191406,126.101562 C63.3535168,125.843749 63.5249018,125.561037 63.6333008,125.253418 C63.7416998,124.945799 63.7958984,124.660158 63.7958984,124.396484 L63.7958984,124.326172 C63.7958984,124.232421 63.8310543,124.148926 63.9013672,124.075684 C63.97168,124.002441 64.0566401,123.96582 64.15625,123.96582 L64.6396484,123.96582 C64.7333989,123.96582 64.8168942,124.002441 64.8901367,124.075684 C64.9633793,124.148926 65,124.232421 65,124.326172 L65,124.396484 C65,124.982425 64.8916026,125.506834 64.6748047,125.969727 C64.4580067,126.43262 64.1665057,126.826659 63.800293,127.151855 C63.4340802,127.477052 63.0078149,127.723144 62.5214844,127.890137 C62.0351538,128.05713 61.5224636,128.140625 60.9833984,128.140625 C59.8935492,128.140625 58.9912145,127.808109 58.2763672,127.143066 C57.5615199,126.478024 57.1279304,125.562506 56.9755859,124.396484 C56.9287107,124.039061 56.8906251,123.623049 56.8613281,123.148438 Z M66.5175781,136.162109 L66.5175781,128.240234 C66.5175781,128.177734 66.5419919,128.122071 66.5908203,128.073242 C66.6396487,128.024414 66.6953122,128 66.7578125,128 L66.9511719,128 C67.0058596,128 67.0605466,128.027343 67.1152344,128.082031 C67.1542971,128.121094 67.1982419,128.163086 67.2470703,128.208008 C67.2958987,128.25293 67.3535153,128.275391 67.4199219,128.275391 C67.5097661,128.275391 67.5878903,128.25586 67.6542969,128.216797 C67.7207035,128.177734 67.8017573,128.131836 67.8974609,128.079102 C67.9931645,128.026367 68.1093743,127.980469 68.2460938,127.941406 C68.3828132,127.902344 68.5624989,127.882812 68.7851562,127.882812 C69.0976578,127.882812 69.387694,127.942382 69.6552734,128.061523 C69.9228529,128.180665 70.1572256,128.341796 70.3583984,128.544922 C70.5595713,128.748048 70.7216791,128.990233 70.8447266,129.271484 C70.9677741,129.552736 71.0410155,129.849608 71.0644531,130.162109 C71.0800782,130.400392 71.0878906,130.679686 71.0878906,131 C71.0878906,131.320314 71.0800782,131.599608 71.0644531,131.837891 C71.0410155,132.150392 70.9677741,132.447264 70.8447266,132.728516 C70.7216791,133.009767 70.5595713,133.251952 70.3583984,133.455078 C70.1572256,133.658204 69.9228529,133.819335 69.6552734,133.938477 C69.387694,134.057618 69.0976578,134.117188 68.7851562,134.117188 C68.593749,134.117188 68.4296882,134.101563 68.2929688,134.070312 C68.1562493,134.039062 68.0400395,134.00586 67.9443359,133.970703 C67.8486323,133.935547 67.7646488,133.901367 67.6923828,133.868164 C67.6201168,133.834961 67.5566409,133.818359 67.5019531,133.818359 C67.4238277,133.818359 67.3583987,133.84082 67.3056641,133.885742 C67.2529294,133.930664 67.2265625,134.007812 67.2265625,134.117188 L67.2265625,136.162109 C67.2265625,136.22461 67.2021487,136.280273 67.1533203,136.329102 C67.1044919,136.37793 67.0488284,136.402344 66.9863281,136.402344 L66.7578125,136.402344 C66.6953122,136.402344 66.6396487,136.37793 66.5908203,136.329102 C66.5419919,136.280273 66.5175781,136.22461 66.5175781,136.162109 Z M67.25,130.162109 C67.2265624,130.408204 67.2148438,130.687498 67.2148438,131 C67.2148438,131.312502 67.2265624,131.591796 67.25,131.837891 C67.2656251,131.998048 67.3017575,132.170898 67.3583984,132.356445 C67.4150393,132.541993 67.4990229,132.711913 67.6103516,132.866211 C67.7216802,133.020509 67.8691397,133.15039 68.0527344,133.255859 C68.236329,133.361329 68.4609362,133.414062 68.7265625,133.414062 C69.0156264,133.414062 69.2597646,133.361329 69.4589844,133.255859 C69.6582041,133.15039 69.8193353,133.020509 69.9423828,132.866211 C70.0654303,132.711913 70.1572263,132.541993 70.2177734,132.356445 C70.2783206,132.170898 70.3164062,131.998048 70.3320312,131.837891 C70.3632814,131.591796 70.3789062,131.312502 70.3789062,131 C70.3789062,130.687498 70.3632814,130.408204 70.3320312,130.162109 C70.3164062,130.001952 70.2783206,129.829102 70.2177734,129.643555 C70.1572263,129.458007 70.0654303,129.288087 69.9423828,129.133789 C69.8193353,128.979491 69.6601572,128.84961 69.4648438,128.744141 C69.2695303,128.638671 69.023439,128.585938 68.7265625,128.585938 C68.4609362,128.585938 68.236329,128.638671 68.0527344,128.744141 C67.8691397,128.84961 67.7216802,128.979491 67.6103516,129.133789 C67.4990229,129.288087 67.4150393,129.458007 67.3583984,129.643555 C67.3017575,129.829102 67.2656251,130.001952 67.25,130.162109 Z" id="Cp" fill="#292A2B"></path>
        <path d="M168.861328,123.148438 C168.837891,122.673826 168.826172,122.187502 168.826172,121.689453 C168.826172,121.191404 168.837891,120.70801 168.861328,120.239258 C168.884766,119.770505 168.922851,119.357424 168.975586,119 C169.045899,118.50781 169.183593,118.036135 169.388672,117.584961 C169.593751,117.133787 169.86328,116.735353 170.197266,116.389648 C170.531252,116.043944 170.929685,115.768556 171.392578,115.563477 C171.855471,115.358397 172.385739,115.255859 172.983398,115.255859 C173.569339,115.255859 174.11279,115.358397 174.61377,115.563477 C175.114749,115.768556 175.538084,116.041014 175.883789,116.380859 C176.229494,116.720705 176.501952,117.119138 176.701172,117.576172 C176.900392,118.033205 177,118.50781 177,119 L177,119.070312 C177,119.164063 176.963379,119.247558 176.890137,119.320801 C176.816894,119.394043 176.733399,119.430664 176.639648,119.430664 L176.15625,119.430664 C176.0625,119.430664 175.979004,119.395508 175.905762,119.325195 C175.832519,119.254882 175.795898,119.169922 175.795898,119.070312 L175.795898,119 C175.795898,118.666014 175.729981,118.342287 175.598145,118.028809 C175.466308,117.71533 175.277345,117.438478 175.03125,117.198242 C174.785155,116.958007 174.490724,116.766114 174.147949,116.622559 C173.805174,116.479003 173.416994,116.407227 172.983398,116.407227 C172.549803,116.407227 172.171877,116.479003 171.849609,116.622559 C171.527342,116.766114 171.249025,116.960936 171.014648,117.207031 C170.780272,117.453126 170.594239,117.732909 170.456543,118.046387 C170.318847,118.359865 170.226563,118.677733 170.179688,119 C170.121093,119.369142 170.078613,119.788084 170.052246,120.256836 C170.025879,120.725588 170.012695,121.206052 170.012695,121.698242 C170.012695,122.190432 170.025879,122.670896 170.052246,123.139648 C170.078613,123.608401 170.121093,124.027342 170.179688,124.396484 C170.214844,124.660158 170.28955,124.94287 170.403809,125.244629 C170.518067,125.546388 170.686522,125.826171 170.90918,126.083984 C171.131837,126.341798 171.410155,126.557128 171.744141,126.72998 C172.078127,126.902833 172.491208,126.989258 172.983398,126.989258 C173.46387,126.989258 173.881346,126.905763 174.23584,126.73877 C174.590334,126.571777 174.884764,126.359376 175.119141,126.101562 C175.353517,125.843749 175.524902,125.561037 175.633301,125.253418 C175.7417,124.945799 175.795898,124.660158 175.795898,124.396484 L175.795898,124.326172 C175.795898,124.232421 175.831054,124.148926 175.901367,124.075684 C175.97168,124.002441 176.05664,123.96582 176.15625,123.96582 L176.639648,123.96582 C176.733399,123.96582 176.816894,124.002441 176.890137,124.075684 C176.963379,124.148926 177,124.232421 177,124.326172 L177,124.396484 C177,124.982425 176.891603,125.506834 176.674805,125.969727 C176.458007,126.43262 176.166506,126.826659 175.800293,127.151855 C175.43408,127.477052 175.007815,127.723144 174.521484,127.890137 C174.035154,128.05713 173.522464,128.140625 172.983398,128.140625 C171.893549,128.140625 170.991215,127.808109 170.276367,127.143066 C169.56152,126.478024 169.12793,125.562506 168.975586,124.396484 C168.928711,124.039061 168.890625,123.623049 168.861328,123.148438 Z M178.130859,133.759766 L178.130859,133.314453 C178.130859,133.224609 178.143555,133.158203 178.168945,133.115234 C178.194336,133.072265 178.21875,133.039063 178.242188,133.015625 L181.130859,129.763672 C181.259766,129.61914 181.380859,129.479493 181.494141,129.344727 C181.607422,129.20996 181.704101,129.066407 181.78418,128.914062 C181.864258,128.761718 181.925781,128.595704 181.96875,128.416016 C182.011719,128.236327 182.033203,128.029298 182.033203,127.794922 C182.033203,127.595702 182.00293,127.400392 181.942383,127.208984 C181.881836,127.017577 181.788087,126.847657 181.661133,126.699219 C181.534179,126.550781 181.376954,126.432618 181.189453,126.344727 C181.001952,126.256835 180.775392,126.212891 180.509766,126.212891 C180.279296,126.212891 180.069337,126.260742 179.879883,126.356445 C179.690429,126.452149 179.530274,126.574218 179.399414,126.722656 C179.268554,126.871094 179.166993,127.039062 179.094727,127.226562 C179.022461,127.414063 178.986328,127.603515 178.986328,127.794922 L178.986328,127.976562 C178.986328,128.039063 178.961914,128.094726 178.913086,128.143555 C178.864258,128.192383 178.808594,128.216797 178.746094,128.216797 L178.470703,128.216797 C178.408203,128.216797 178.352539,128.192383 178.303711,128.143555 C178.254883,128.094726 178.230469,128.039063 178.230469,127.976562 L178.230469,127.794922 C178.230469,127.474608 178.288085,127.174806 178.40332,126.895508 C178.518555,126.61621 178.67871,126.374024 178.883789,126.168945 C179.088868,125.963866 179.331053,125.801758 179.610352,125.682617 C179.88965,125.563476 180.189452,125.503906 180.509766,125.503906 C180.83008,125.503906 181.127928,125.557617 181.40332,125.665039 C181.678712,125.772461 181.916991,125.926757 182.118164,126.12793 C182.319337,126.329103 182.477538,126.571288 182.592773,126.854492 C182.708008,127.137697 182.765625,127.45117 182.765625,127.794922 C182.765625,128.259768 182.675782,128.682615 182.496094,129.063477 C182.316405,129.444338 182.070314,129.810545 181.757812,130.162109 L179.126953,133.074219 C179.095703,133.113281 179.087891,133.155273 179.103516,133.200195 C179.119141,133.245117 179.160156,133.267578 179.226562,133.267578 L182.71875,133.267578 C182.78125,133.267578 182.836914,133.291992 182.885742,133.34082 C182.934571,133.389649 182.958984,133.445312 182.958984,133.507812 L182.958984,133.759766 C182.958984,133.822266 182.934571,133.877929 182.885742,133.926758 C182.836914,133.975586 182.78125,134 182.71875,134 L178.371094,134 C178.308593,134 178.25293,133.975586 178.204102,133.926758 C178.155273,133.877929 178.130859,133.822266 178.130859,133.759766 Z" id="C2" fill="#292A2B"></path>
        <path d="M253.861328,123.148438 C253.837891,122.673826 253.826172,122.187502 253.826172,121.689453 C253.826172,121.191404 253.837891,120.70801 253.861328,120.239258 C253.884766,119.770505 253.922851,119.357424 253.975586,119 C254.045899,118.50781 254.183593,118.036135 254.388672,117.584961 C254.593751,117.133787 254.86328,116.735353 255.197266,116.389648 C255.531252,116.043944 255.929685,115.768556 256.392578,115.563477 C256.855471,115.358397 257.385739,115.255859 257.983398,115.255859 C258.569339,115.255859 259.11279,115.358397 259.61377,115.563477 C260.114749,115.768556 260.538084,116.041014 260.883789,116.380859 C261.229494,116.720705 261.501952,117.119138 261.701172,117.576172 C261.900392,118.033205 262,118.50781 262,119 L262,119.070312 C262,119.164063 261.963379,119.247558 261.890137,119.320801 C261.816894,119.394043 261.733399,119.430664 261.639648,119.430664 L261.15625,119.430664 C261.0625,119.430664 260.979004,119.395508 260.905762,119.325195 C260.832519,119.254882 260.795898,119.169922 260.795898,119.070312 L260.795898,119 C260.795898,118.666014 260.729981,118.342287 260.598145,118.028809 C260.466308,117.71533 260.277345,117.438478 260.03125,117.198242 C259.785155,116.958007 259.490724,116.766114 259.147949,116.622559 C258.805174,116.479003 258.416994,116.407227 257.983398,116.407227 C257.549803,116.407227 257.171877,116.479003 256.849609,116.622559 C256.527342,116.766114 256.249025,116.960936 256.014648,117.207031 C255.780272,117.453126 255.594239,117.732909 255.456543,118.046387 C255.318847,118.359865 255.226563,118.677733 255.179688,119 C255.121093,119.369142 255.078613,119.788084 255.052246,120.256836 C255.025879,120.725588 255.012695,121.206052 255.012695,121.698242 C255.012695,122.190432 255.025879,122.670896 255.052246,123.139648 C255.078613,123.608401 255.121093,124.027342 255.179688,124.396484 C255.214844,124.660158 255.28955,124.94287 255.403809,125.244629 C255.518067,125.546388 255.686522,125.826171 255.90918,126.083984 C256.131837,126.341798 256.410155,126.557128 256.744141,126.72998 C257.078127,126.902833 257.491208,126.989258 257.983398,126.989258 C258.46387,126.989258 258.881346,126.905763 259.23584,126.73877 C259.590334,126.571777 259.884764,126.359376 260.119141,126.101562 C260.353517,125.843749 260.524902,125.561037 260.633301,125.253418 C260.7417,124.945799 260.795898,124.660158 260.795898,124.396484 L260.795898,124.326172 C260.795898,124.232421 260.831054,124.148926 260.901367,124.075684 C260.97168,124.002441 261.05664,123.96582 261.15625,123.96582 L261.639648,123.96582 C261.733399,123.96582 261.816894,124.002441 261.890137,124.075684 C261.963379,124.148926 262,124.232421 262,124.326172 L262,124.396484 C262,124.982425 261.891603,125.506834 261.674805,125.969727 C261.458007,126.43262 261.166506,126.826659 260.800293,127.151855 C260.43408,127.477052 260.007815,127.723144 259.521484,127.890137 C259.035154,128.05713 258.522464,128.140625 257.983398,128.140625 C256.893549,128.140625 255.991215,127.808109 255.276367,127.143066 C254.56152,126.478024 254.12793,125.562506 253.975586,124.396484 C253.928711,124.039061 253.890625,123.623049 253.861328,123.148438 Z M263.130859,133.759766 L263.130859,133.314453 C263.130859,133.224609 263.143555,133.158203 263.168945,133.115234 C263.194336,133.072265 263.21875,133.039063 263.242188,133.015625 L266.130859,129.763672 C266.259766,129.61914 266.380859,129.479493 266.494141,129.344727 C266.607422,129.20996 266.704101,129.066407 266.78418,128.914062 C266.864258,128.761718 266.925781,128.595704 266.96875,128.416016 C267.011719,128.236327 267.033203,128.029298 267.033203,127.794922 C267.033203,127.595702 267.00293,127.400392 266.942383,127.208984 C266.881836,127.017577 266.788087,126.847657 266.661133,126.699219 C266.534179,126.550781 266.376954,126.432618 266.189453,126.344727 C266.001952,126.256835 265.775392,126.212891 265.509766,126.212891 C265.279296,126.212891 265.069337,126.260742 264.879883,126.356445 C264.690429,126.452149 264.530274,126.574218 264.399414,126.722656 C264.268554,126.871094 264.166993,127.039062 264.094727,127.226562 C264.022461,127.414063 263.986328,127.603515 263.986328,127.794922 L263.986328,127.976562 C263.986328,128.039063 263.961914,128.094726 263.913086,128.143555 C263.864258,128.192383 263.808594,128.216797 263.746094,128.216797 L263.470703,128.216797 C263.408203,128.216797 263.352539,128.192383 263.303711,128.143555 C263.254883,128.094726 263.230469,128.039063 263.230469,127.976562 L263.230469,127.794922 C263.230469,127.474608 263.288085,127.174806 263.40332,126.895508 C263.518555,126.61621 263.67871,126.374024 263.883789,126.168945 C264.088868,125.963866 264.331053,125.801758 264.610352,125.682617 C264.88965,125.563476 265.189452,125.503906 265.509766,125.503906 C265.83008,125.503906 266.127928,125.557617 266.40332,125.665039 C266.678712,125.772461 266.916991,125.926757 267.118164,126.12793 C267.319337,126.329103 267.477538,126.571288 267.592773,126.854492 C267.708008,127.137697 267.765625,127.45117 267.765625,127.794922 C267.765625,128.259768 267.675782,128.682615 267.496094,129.063477 C267.316405,129.444338 267.070314,129.810545 266.757812,130.162109 L264.126953,133.074219 C264.095703,133.113281 264.087891,133.155273 264.103516,133.200195 C264.119141,133.245117 264.160156,133.267578 264.226562,133.267578 L267.71875,133.267578 C267.78125,133.267578 267.836914,133.291992 267.885742,133.34082 C267.934571,133.389649 267.958984,133.445312 267.958984,133.507812 L267.958984,133.759766 C267.958984,133.822266 267.934571,133.877929 267.885742,133.926758 C267.836914,133.975586 267.78125,134 267.71875,134 L263.371094,134 C263.308593,134 263.25293,133.975586 263.204102,133.926758 C263.155273,133.877929 263.130859,133.822266 263.130859,133.759766 Z M269.3125,133.759766 L269.3125,132.921875 C269.3125,132.859375 269.336914,132.803711 269.385742,132.754883 C269.434571,132.706054 269.490234,132.681641 269.552734,132.681641 L270.390625,132.681641 C270.453125,132.681641 270.508789,132.705078 270.557617,132.751953 C270.606446,132.798828 270.630859,132.855468 270.630859,132.921875 L270.630859,133.818359 C270.630859,133.986329 270.611328,134.112304 270.572266,134.196289 C270.533203,134.280274 270.488282,134.359375 270.4375,134.433594 L269.962891,135.101562 C269.93164,135.140625 269.893555,135.186523 269.848633,135.239258 C269.803711,135.291992 269.72461,135.318359 269.611328,135.318359 L269.494141,135.318359 C269.423828,135.318359 269.366211,135.289063 269.321289,135.230469 C269.276367,135.171875 269.273437,135.105469 269.3125,135.03125 L269.769531,134.181641 C269.792969,134.142578 269.794922,134.102539 269.775391,134.061523 C269.755859,134.020508 269.720703,134 269.669922,134 L269.552734,134 C269.490234,134 269.434571,133.975586 269.385742,133.926758 C269.336914,133.877929 269.3125,133.822266 269.3125,133.759766 Z M271.445312,128.849609 L271.445312,128.433594 C271.445312,128.328124 271.474609,128.231446 271.533203,128.143555 C271.591797,128.055664 271.642578,127.988281 271.685547,127.941406 L273.794922,125.708984 C273.865235,125.638672 273.945312,125.601563 274.035156,125.597656 L274.380859,125.597656 C274.44336,125.597656 274.499023,125.62207 274.547852,125.670898 C274.59668,125.719727 274.621094,125.77539 274.621094,125.837891 L274.621094,133.759766 C274.621094,133.822266 274.597656,133.877929 274.550781,133.926758 C274.503906,133.975586 274.447266,134 274.380859,134 L274.140625,134 C274.078125,134 274.022461,133.975586 273.973633,133.926758 C273.924804,133.877929 273.900391,133.822266 273.900391,133.759766 L273.900391,126.763672 C273.900391,126.724609 273.886719,126.703125 273.859375,126.699219 C273.832031,126.695312 273.810547,126.701172 273.794922,126.716797 L271.708984,128.949219 C271.662109,129.003907 271.606446,129.017578 271.541992,128.990234 C271.477539,128.96289 271.445312,128.916016 271.445312,128.849609 Z" id="C2,1" fill="#292A2B"></path>
        <circle id="Oval-22" stroke="#87BC55" cx="46.5" cy="171.5" r="7.5"></circle>
        <circle id="Oval-22" stroke="#87BC55" cx="120.5" cy="75.5" r="7.5"></circle>
        <circle id="Oval-22" stroke="#87BC55" cx="194.5" cy="171.5" r="7.5"></circle>
        <circle id="Oval-22" stroke="#87BC55" cx="268.5" cy="75.5" r="7.5"></circle>
        <path d="M54.5,161.5 L111.5,84.5" id="Line-2" stroke="#292A2B" stroke-linecap="square"></path>
        <path id="Line-2-decoration-1" d="M107.485465,94.965348 L111.5,84.5 L102.663013,91.3954806" stroke="#292A2B" stroke-linecap="square"></path>
        <path d="M203.5,161.5 L260.5,84.5" id="Line-2" stroke="#292A2B" stroke-linecap="square"></path>
        <path id="Line-2-decoration-1" d="M256.485465,94.965348 L260.5,84.5 L251.663013,91.3954806" stroke="#292A2B" stroke-linecap="square"></path>
        <path d="M127.5,84.5 L186.5,161.5" id="Line-2" stroke="#292A2B" stroke-linecap="square"></path>
        <path id="Line-2-decoration-1" d="M177.54996,154.751905 L186.5,161.5 L182.312594,151.102614" stroke="#292A2B" stroke-linecap="square"></path>
    </g>
</svg>