<?xml version="1.0" encoding="UTF-8"?>
<svg width="338px" height="235px" viewBox="0 0 338 235" version="1.1" xmlns="http://www.w3.org/2000/svg" xmlns:xlink="http://www.w3.org/1999/xlink">
    <!-- Generator: Sketch 49.1 (51147) - http://www.bohemiancoding.com/sketch -->
    <title>forgotten</title>
    <desc>Created with Sketch.</desc>
    <defs></defs>
    <g id="forgotten" stroke="none" stroke-width="1" fill="none" fill-rule="evenodd">
        <path d="M148.492188,82.0234375 L148.492188,81.2910156 C148.492188,78.6217314 148.939774,76.123384 149.834961,73.7958984 C150.730148,71.4684128 151.98339,69.4176521 153.594727,67.6435547 C155.206063,65.8694573 157.110341,64.4860076 159.307617,63.4931641 C161.504894,62.5003206 163.873034,62.0039062 166.412109,62.0039062 C169.081394,62.0039062 171.530913,62.4189412 173.760742,63.2490234 C175.990571,64.0791057 177.919263,65.2428311 179.546875,66.7402344 C181.174487,68.2376377 182.444006,70.0523982 183.355469,72.1845703 C184.266932,74.3167424 184.722656,76.6848828 184.722656,79.2890625 C184.722656,81.079436 184.47038,82.698886 183.96582,84.1474609 C183.46126,85.5960359 182.826501,86.8981062 182.061523,88.0537109 C181.296546,89.2093157 180.442062,90.2753857 179.498047,91.2519531 C178.554032,92.2285205 177.658858,93.1725215 176.8125,94.0839844 C176.356769,94.5397158 175.656906,95.190751 174.712891,96.0371094 C173.768875,96.8834678 172.833012,97.7867791 171.905273,98.7470703 C170.977534,99.7073616 170.16374,100.724604 169.463867,101.798828 C168.763994,102.873052 168.414062,103.914708 168.414062,104.923828 L168.414062,112.003906 C168.414062,112.524742 168.210614,112.988605 167.803711,113.395508 C167.396808,113.802411 166.932945,114.005859 166.412109,114.005859 L164.410156,114.005859 C163.88932,114.005859 163.425458,113.802411 163.018555,113.395508 C162.611652,112.988605 162.408203,112.524742 162.408203,112.003906 L162.408203,104.923828 C162.408203,102.254544 163.010411,100.220059 164.214844,98.8203125 C165.940113,96.8346255 167.45377,95.288417 168.755859,94.1816406 C170.057949,93.0748643 171.213537,92.0169321 172.222656,91.0078125 C172.678388,90.5520811 173.272457,89.9661494 174.004883,89.25 C174.737308,88.5338506 175.453447,87.6956428 176.15332,86.7353516 C176.853194,85.7750603 177.439125,84.6927144 177.911133,83.4882812 C178.38314,82.2838481 178.619141,80.8841226 178.619141,79.2890625 C178.619141,75.9036289 177.528657,73.1774192 175.347656,71.1103516 C173.166656,69.0432839 170.18817,68.0097656 166.412109,68.0097656 C164.751945,68.0097656 163.181323,68.359697 161.700195,69.0595703 C160.219068,69.7594436 158.94955,70.7115825 157.891602,71.9160156 C156.833654,73.1204487 156.003584,74.5201743 155.401367,76.1152344 C154.799151,77.7102944 154.498047,79.4355376 154.498047,81.2910156 L154.498047,82.0234375 C154.498047,82.5442734 154.294598,82.999998 153.887695,83.390625 C153.480792,83.781252 153.01693,83.9765625 152.496094,83.9765625 L150.494141,83.9765625 C149.973305,83.9765625 149.509442,83.781252 149.102539,83.390625 C148.695636,82.999998 148.492188,82.5442734 148.492188,82.0234375 Z M160.894531,131.388672 L160.894531,125.089844 C160.894531,124.699217 161.049152,124.33301 161.358398,123.991211 C161.667645,123.649412 162.050128,123.478516 162.505859,123.478516 L168.707031,123.478516 C169.162763,123.478516 169.545246,123.649412 169.854492,123.991211 C170.163739,124.33301 170.318359,124.699217 170.318359,125.089844 L170.318359,131.388672 C170.318359,132.462896 169.781255,133 168.707031,133 L162.505859,133 C161.431635,133 160.894531,132.462896 160.894531,131.388672 Z" id="?" fill="#292A2B"></path>
        <path d="M194.492188,20.0234375 L194.492188,19.2910156 C194.492188,16.6217314 194.939774,14.123384 195.834961,11.7958984 C196.730148,9.46841284 197.98339,7.4176521 199.594727,5.64355469 C201.206063,3.86945728 203.110341,2.48600757 205.307617,1.49316406 C207.504894,0.500320557 209.873034,0.00390625 212.412109,0.00390625 C215.081394,0.00390625 217.530913,0.418941162 219.760742,1.24902344 C221.990571,2.07910571 223.919263,3.24283105 225.546875,4.74023438 C227.174487,6.2376377 228.444006,8.05239819 229.355469,10.1845703 C230.266932,12.3167424 230.722656,14.6848828 230.722656,17.2890625 C230.722656,19.079436 230.47038,20.698886 229.96582,22.1474609 C229.46126,23.5960359 228.826501,24.8981062 228.061523,26.0537109 C227.296546,27.2093157 226.442062,28.2753857 225.498047,29.2519531 C224.554032,30.2285205 223.658858,31.1725215 222.8125,32.0839844 C222.356769,32.5397158 221.656906,33.190751 220.712891,34.0371094 C219.768875,34.8834678 218.833012,35.7867791 217.905273,36.7470703 C216.977534,37.7073616 216.16374,38.724604 215.463867,39.7988281 C214.763994,40.8730522 214.414062,41.9147085 214.414062,42.9238281 L214.414062,50.0039062 C214.414062,50.5247422 214.210614,50.9886047 213.803711,51.3955078 C213.396808,51.8024109 212.932945,52.0058594 212.412109,52.0058594 L210.410156,52.0058594 C209.88932,52.0058594 209.425458,51.8024109 209.018555,51.3955078 C208.611652,50.9886047 208.408203,50.5247422 208.408203,50.0039062 L208.408203,42.9238281 C208.408203,40.2545439 209.010411,38.2200591 210.214844,36.8203125 C211.940113,34.8346255 213.45377,33.288417 214.755859,32.1816406 C216.057949,31.0748643 217.213537,30.0169321 218.222656,29.0078125 C218.678388,28.5520811 219.272457,27.9661494 220.004883,27.25 C220.737308,26.5338506 221.453447,25.6956428 222.15332,24.7353516 C222.853194,23.7750603 223.439125,22.6927144 223.911133,21.4882812 C224.38314,20.2838481 224.619141,18.8841226 224.619141,17.2890625 C224.619141,13.9036289 223.528657,11.1774192 221.347656,9.11035156 C219.166656,7.04328394 216.18817,6.00976562 212.412109,6.00976562 C210.751945,6.00976562 209.181323,6.35969702 207.700195,7.05957031 C206.219068,7.7594436 204.94955,8.71158252 203.891602,9.91601562 C202.833654,11.1204487 202.003584,12.5201743 201.401367,14.1152344 C200.799151,15.7102944 200.498047,17.4355376 200.498047,19.2910156 L200.498047,20.0234375 C200.498047,20.5442734 200.294598,20.999998 199.887695,21.390625 C199.480792,21.781252 199.01693,21.9765625 198.496094,21.9765625 L196.494141,21.9765625 C195.973305,21.9765625 195.509442,21.781252 195.102539,21.390625 C194.695636,20.999998 194.492188,20.5442734 194.492188,20.0234375 Z M206.894531,69.3886719 L206.894531,63.0898438 C206.894531,62.6992168 207.049152,62.3330095 207.358398,61.9912109 C207.667645,61.6494124 208.050128,61.4785156 208.505859,61.4785156 L214.707031,61.4785156 C215.162763,61.4785156 215.545246,61.6494124 215.854492,61.9912109 C216.163739,62.3330095 216.318359,62.6992168 216.318359,63.0898438 L216.318359,69.3886719 C216.318359,70.462896 215.781255,71 214.707031,71 L208.505859,71 C207.431635,71 206.894531,70.462896 206.894531,69.3886719 Z" id="?" fill="#292A2B"></path>
        <path d="M93.3691406,134.767578 L93.3691406,134.218262 C93.3691406,132.216299 93.7048306,130.342538 94.3762207,128.596924 C95.0476108,126.85131 95.9875428,125.313239 97.1960449,123.982666 C98.4045471,122.652093 99.8327554,121.614506 101.480713,120.869873 C103.12867,120.12524 104.904776,119.75293 106.809082,119.75293 C108.811045,119.75293 110.648185,120.064206 112.320557,120.686768 C113.992928,121.309329 115.439447,122.182123 116.660156,123.305176 C117.880865,124.428228 118.833004,125.789299 119.516602,127.388428 C120.200199,128.987557 120.541992,130.763662 120.541992,132.716797 C120.541992,134.059577 120.352785,135.274164 119.974365,136.360596 C119.595945,137.447027 119.119876,138.42358 118.546143,139.290283 C117.972409,140.156987 117.331547,140.956539 116.623535,141.688965 C115.915524,142.42139 115.244144,143.129391 114.609375,143.812988 C114.267576,144.154787 113.742679,144.643063 113.034668,145.277832 C112.326657,145.912601 111.624759,146.590084 110.928955,147.310303 C110.233151,148.030521 109.622805,148.793453 109.0979,149.599121 C108.572995,150.404789 108.310547,151.186031 108.310547,151.942871 L108.310547,157.25293 C108.310547,157.643557 108.157961,157.991454 107.852783,158.296631 C107.547606,158.601808 107.199709,158.754395 106.809082,158.754395 L105.307617,158.754395 C104.91699,158.754395 104.569093,158.601808 104.263916,158.296631 C103.958739,157.991454 103.806152,157.643557 103.806152,157.25293 L103.806152,151.942871 C103.806152,149.940908 104.257808,148.415044 105.161133,147.365234 C106.455085,145.875969 107.590327,144.716313 108.566895,143.88623 C109.543462,143.056148 110.410152,142.262699 111.166992,141.505859 C111.508791,141.164061 111.954343,140.724612 112.503662,140.1875 C113.052981,139.650388 113.590085,139.021732 114.11499,138.301514 C114.639895,137.581295 115.079344,136.769536 115.43335,135.866211 C115.787355,134.962886 115.964355,133.913092 115.964355,132.716797 C115.964355,130.177722 115.146493,128.133064 113.510742,126.582764 C111.874992,125.032463 109.641127,124.257324 106.809082,124.257324 C105.563959,124.257324 104.385992,124.519773 103.275146,125.044678 C102.164301,125.569583 101.212162,126.283687 100.418701,127.187012 C99.6252402,128.090337 99.0026878,129.140131 98.5510254,130.336426 C98.099363,131.532721 97.8735352,132.826653 97.8735352,134.218262 L97.8735352,134.767578 C97.8735352,135.158205 97.7209488,135.499999 97.4157715,135.792969 C97.1105942,136.085939 96.7626973,136.232422 96.3720703,136.232422 L94.8706055,136.232422 C94.4799785,136.232422 94.1320816,136.085939 93.8269043,135.792969 C93.521727,135.499999 93.3691406,135.158205 93.3691406,134.767578 Z M102.670898,171.791504 L102.670898,167.067383 C102.670898,166.774413 102.786864,166.499757 103.018799,166.243408 C103.250734,165.987059 103.537596,165.858887 103.879395,165.858887 L108.530273,165.858887 C108.872072,165.858887 109.158934,165.987059 109.390869,166.243408 C109.622804,166.499757 109.73877,166.774413 109.73877,167.067383 L109.73877,171.791504 C109.73877,172.597172 109.335942,173 108.530273,173 L103.879395,173 C103.073726,173 102.670898,172.597172 102.670898,171.791504 Z" id="?" fill="#292A2B"></path>
        <path d="M167.615234,171.279297 L167.615234,170.36377 C167.615234,167.027164 168.174718,163.90423 169.293701,160.994873 C170.412685,158.085516 171.979238,155.522065 173.993408,153.304443 C176.007578,151.086822 178.387926,149.357509 181.134521,148.116455 C183.881117,146.875401 186.841293,146.254883 190.015137,146.254883 C193.351742,146.254883 196.413642,146.773676 199.200928,147.811279 C201.988214,148.848882 204.399078,150.303539 206.433594,152.175293 C208.468109,154.047047 210.055007,156.315498 211.194336,158.980713 C212.333665,161.645928 212.90332,164.606104 212.90332,167.861328 C212.90332,170.099295 212.587975,172.123607 211.957275,173.934326 C211.326576,175.745045 210.533127,177.372633 209.576904,178.817139 C208.620682,180.261645 207.552578,181.594232 206.372559,182.814941 C205.19254,184.035651 204.073573,185.215652 203.015625,186.35498 C202.445961,186.924645 201.571132,187.738439 200.391113,188.796387 C199.211094,189.854335 198.041266,190.983474 196.881592,192.183838 C195.721918,193.384202 194.704676,194.655755 193.829834,195.998535 C192.954992,197.341315 192.517578,198.643386 192.517578,199.904785 L192.517578,208.754883 C192.517578,209.405928 192.263268,209.985756 191.754639,210.494385 C191.24601,211.003014 190.666182,211.257324 190.015137,211.257324 L187.512695,211.257324 C186.86165,211.257324 186.281822,211.003014 185.773193,210.494385 C185.264565,209.985756 185.010254,209.405928 185.010254,208.754883 L185.010254,199.904785 C185.010254,196.56818 185.763013,194.025074 187.268555,192.275391 C189.425141,189.793282 191.317212,187.860521 192.944824,186.477051 C194.572437,185.09358 196.016921,183.771165 197.27832,182.509766 C197.847985,181.940101 198.590572,181.207687 199.506104,180.3125 C200.421635,179.417313 201.316809,178.369554 202.19165,177.169189 C203.066492,175.968825 203.798907,174.615893 204.388916,173.110352 C204.978925,171.60481 205.273926,169.855153 205.273926,167.861328 C205.273926,163.629536 203.910821,160.221774 201.18457,157.637939 C198.45832,155.054105 194.735212,153.762207 190.015137,153.762207 C187.939931,153.762207 185.976653,154.199621 184.125244,155.074463 C182.273835,155.949305 180.686937,157.139478 179.364502,158.64502 C178.042067,160.150561 177.00448,161.900218 176.251709,163.894043 C175.498938,165.887868 175.122559,168.044422 175.122559,170.36377 L175.122559,171.279297 C175.122559,171.930342 174.868248,172.499998 174.359619,172.988281 C173.85099,173.476565 173.271162,173.720703 172.620117,173.720703 L170.117676,173.720703 C169.466631,173.720703 168.886803,173.476565 168.378174,172.988281 C167.869545,172.499998 167.615234,171.930342 167.615234,171.279297 Z M183.118164,232.98584 L183.118164,225.112305 C183.118164,224.624021 183.31144,224.166262 183.697998,223.739014 C184.084556,223.311765 184.56266,223.098145 185.132324,223.098145 L192.883789,223.098145 C193.453453,223.098145 193.931557,223.311765 194.318115,223.739014 C194.704673,224.166262 194.897949,224.624021 194.897949,225.112305 L194.897949,232.98584 C194.897949,234.32862 194.226569,235 192.883789,235 L185.132324,235 C183.789544,235 183.118164,234.32862 183.118164,232.98584 Z" id="?" fill="#292A2B"></path>
        <path d="M81.1933594,58.5722656 C81.1933594,57.1269459 81.5790977,55.7548893 82.3505859,54.4560547 C83.1220742,53.1572201 84.1523373,52.0488327 85.4414062,51.1308594 C86.3593796,50.4472622 86.4375038,49.66602 85.6757812,48.7871094 C84.9921841,47.9863241 84.5332043,47.1562543 84.2988281,46.296875 C84.064452,45.4374957 83.9472656,44.5293017 83.9472656,43.5722656 C83.9472656,42.0488205 84.2158176,40.7109433 84.7529297,39.5585938 C85.2900417,38.4062442 86.0175735,37.439457 86.9355469,36.6582031 C87.8535202,35.8769492 88.9130799,35.2861348 90.1142578,34.8857422 C91.3154357,34.4853496 92.5800715,34.2851562 93.9082031,34.2851562 C95.3535229,34.2851562 96.6621035,34.5146461 97.8339844,34.9736328 C99.0058652,35.4326195 100.011715,36.0820271 100.851562,36.921875 C101.69141,37.7617229 102.350584,38.7822206 102.829102,39.9833984 C103.30762,41.1845763 103.546875,42.5273363 103.546875,44.0117188 L103.546875,45.7988281 C103.546875,46.1113297 103.429689,46.3896472 103.195312,46.6337891 C102.960936,46.8779309 102.677736,47 102.345703,47 L101.085938,47 C100.773436,47 100.500001,46.8779309 100.265625,46.6337891 C100.031249,46.3896472 99.9140625,46.1113297 99.9140625,45.7988281 L99.9140625,44.0117188 C99.9140625,43.2499962 99.7919934,42.4980506 99.5478516,41.7558594 C99.3037097,41.0136682 98.9326197,40.3544951 98.4345703,39.7783203 C97.9365209,39.2021456 97.3066444,38.7334002 96.5449219,38.3720703 C95.7831993,38.0107404 94.9043019,37.8300781 93.9082031,37.8300781 C92.833979,37.8300781 91.9160194,37.976561 91.1542969,38.2695312 C90.3925743,38.5625015 89.7773461,38.9726536 89.3085938,39.5 C88.8398414,40.0273464 88.4980479,40.6279263 88.2832031,41.3017578 C88.0683583,41.9755893 87.9609375,42.6933556 87.9609375,43.4550781 C87.9609375,44.4511769 88.2099584,45.3496054 88.7080078,46.1503906 C89.2060572,46.9511759 89.8359337,47.693356 90.5976562,48.3769531 C91.6718804,49.3339892 92.6826125,50.2421832 93.6298828,51.1015625 C94.5771532,51.9609418 95.4999955,52.7812461 96.3984375,53.5625 C97.2968795,54.3437539 98.1855425,55.1347616 99.0644531,55.9355469 C99.9433638,56.7363321 100.861323,57.5566364 101.818359,58.3964844 C103.009772,59.4707085 103.947262,60.6816339 104.630859,62.0292969 C105.314457,63.3769599 105.65625,64.8027269 105.65625,66.3066406 C105.65625,67.8300857 105.255863,69.333977 104.455078,70.8183594 C103.654293,72.3027418 102.67774,73.4843706 101.525391,74.3632812 C101.173826,74.6367201 100.973633,74.9736308 100.924805,75.3740234 C100.875976,75.7744161 101.017576,76.1992165 101.349609,76.6484375 C101.916018,77.3710974 102.30664,78.1083947 102.521484,78.8603516 C102.736329,79.6123084 102.84375,80.3886679 102.84375,81.1894531 C102.84375,82.6738355 102.575198,83.987299 102.038086,85.1298828 C101.500974,86.2724667 100.768559,87.2343711 99.8408203,88.015625 C98.9130813,88.7968789 97.8486388,89.3876933 96.6474609,89.7880859 C95.4462831,90.1884786 94.1914128,90.3886719 92.8828125,90.3886719 C91.4374928,90.3886719 90.1142638,90.1884786 88.9130859,89.7880859 C87.7119081,89.3876933 86.6718794,88.7871134 85.7929688,87.9863281 C84.9140581,87.1855429 84.2255884,86.1748108 83.7275391,84.9541016 C83.2294897,83.7333923 82.9804688,82.3027426 82.9804688,80.6621094 L82.9804688,78.2011719 C82.9804688,77.8886703 83.1025378,77.6103528 83.3466797,77.3662109 C83.5908215,77.1220691 83.8691391,77 84.1816406,77 L85.4414062,77 C85.7539078,77 86.0322253,77.1220691 86.2763672,77.3662109 C86.520509,77.6103528 86.6425781,77.8886703 86.6425781,78.2011719 L86.6425781,80.6621094 C86.6425781,82.4980561 87.1943304,83.9970645 88.2978516,85.1591797 C89.4013727,86.3212949 90.9296777,86.9023438 92.8828125,86.9023438 C93.6835978,86.9023438 94.4453089,86.7998057 95.1679688,86.5947266 C95.8906286,86.3896474 96.5205051,86.067385 97.0576172,85.6279297 C97.5947292,85.1884744 98.0146469,84.6025427 98.3173828,83.8701172 C98.6201187,83.1376917 98.7714844,82.2441459 98.7714844,81.1894531 C98.7714844,80.1933544 98.4785186,79.3046914 97.8925781,78.5234375 C97.3066377,77.7421836 96.6132853,77.009769 95.8125,76.3261719 C94.7773386,75.4472612 93.8398479,74.6513708 93,73.9384766 C92.1601521,73.2255824 91.3203167,72.4980506 90.4804688,71.7558594 C89.6406208,71.0136682 88.7617233,70.2226604 87.84375,69.3828125 C86.9257767,68.5429646 85.8808652,67.5859429 84.7089844,66.5117188 C83.4199154,65.3593692 82.5117214,64.187506 81.984375,62.9960938 C81.4570286,61.8046815 81.1933594,60.3300869 81.1933594,58.5722656 Z M84.8261719,58.7480469 C84.8261719,59.431644 85.0068341,60.1933552 85.3681641,61.0332031 C85.729494,61.8730511 86.3105429,62.6542933 87.1113281,63.3769531 L97.0136719,72.2539062 C97.2871107,72.4882824 97.6289042,72.6054688 98.0390625,72.6054688 C98.4492208,72.6054688 98.8105453,72.4882824 99.1230469,72.2539062 C99.9238321,71.5703091 100.592771,70.662115 101.129883,69.5292969 C101.666995,68.3964787 101.935547,67.3515673 101.935547,66.3945312 C101.935547,65.7499968 101.745119,64.9687546 101.364258,64.0507812 C100.983397,63.1328079 100.333989,62.2246139 99.4160156,61.3261719 L90.3632812,53.1816406 C90.0507797,52.8691391 89.6943379,52.7226562 89.2939453,52.7421875 C88.8935527,52.7617188 88.5273454,52.9082018 88.1953125,53.1816406 C87.4335899,53.8652378 86.6816443,54.7050731 85.9394531,55.7011719 C85.1972619,56.6972706 84.8261719,57.7128854 84.8261719,58.7480469 Z" id="ยง" fill="#292A2B"></path>
        <path d="M236.661133,126.643555 C236.661133,125.439122 236.982581,124.295741 237.625488,123.213379 C238.268395,122.131017 239.126948,121.207361 240.201172,120.442383 C240.96615,119.872719 241.031253,119.221683 240.396484,118.489258 C239.82682,117.821937 239.444337,117.130212 239.249023,116.414062 C239.05371,115.697913 238.956055,114.941085 238.956055,114.143555 C238.956055,112.874017 239.179848,111.759119 239.627441,110.798828 C240.075035,109.838537 240.681311,109.032881 241.446289,108.381836 C242.211267,107.730791 243.094233,107.238446 244.095215,106.904785 C245.096196,106.571125 246.15006,106.404297 247.256836,106.404297 C248.461269,106.404297 249.551753,106.595538 250.52832,106.978027 C251.504888,107.360516 252.343095,107.901689 253.042969,108.601562 C253.742842,109.301436 254.292153,110.15185 254.690918,111.152832 C255.089683,112.153814 255.289062,113.27278 255.289062,114.509766 L255.289062,115.999023 C255.289062,116.259441 255.191407,116.491373 254.996094,116.694824 C254.80078,116.898276 254.56478,117 254.288086,117 L253.238281,117 C252.977863,117 252.750001,116.898276 252.554688,116.694824 C252.359374,116.491373 252.261719,116.259441 252.261719,115.999023 L252.261719,114.509766 C252.261719,113.874997 252.159995,113.248375 251.956543,112.629883 C251.753091,112.01139 251.44385,111.462079 251.028809,110.981934 C250.613767,110.501788 250.08887,110.111167 249.454102,109.810059 C248.819333,109.50895 248.086918,109.358398 247.256836,109.358398 C246.361649,109.358398 245.596683,109.480468 244.961914,109.724609 C244.327145,109.968751 243.814455,110.310545 243.423828,110.75 C243.033201,111.189455 242.748373,111.689939 242.569336,112.251465 C242.390299,112.812991 242.300781,113.41113 242.300781,114.045898 C242.300781,114.875981 242.508299,115.624671 242.92334,116.291992 C243.338381,116.959313 243.863278,117.577797 244.498047,118.147461 C245.393234,118.944991 246.23551,119.701819 247.024902,120.417969 C247.814294,121.134118 248.58333,121.817705 249.332031,122.46875 C250.080733,123.119795 250.821285,123.778968 251.553711,124.446289 C252.286136,125.11361 253.051103,125.797197 253.848633,126.49707 C254.841476,127.392257 255.622719,128.401362 256.192383,129.524414 C256.762047,130.647467 257.046875,131.835606 257.046875,133.088867 C257.046875,134.358405 256.713219,135.611647 256.045898,136.848633 C255.378577,138.085618 254.564783,139.070309 253.604492,139.802734 C253.311522,140.0306 253.144694,140.311359 253.104004,140.64502 C253.063314,140.97868 253.181314,141.33268 253.458008,141.707031 C253.930015,142.309248 254.255533,142.923662 254.43457,143.550293 C254.613608,144.176924 254.703125,144.82389 254.703125,145.491211 C254.703125,146.728196 254.479332,147.822749 254.031738,148.774902 C253.584145,149.727056 252.973799,150.528643 252.200684,151.179688 C251.427568,151.830732 250.540532,152.323078 249.539551,152.656738 C248.538569,152.990399 247.492844,153.157227 246.402344,153.157227 C245.197911,153.157227 244.09522,152.990399 243.094238,152.656738 C242.093257,152.323078 241.226566,151.822594 240.494141,151.155273 C239.761715,150.487952 239.18799,149.645676 238.772949,148.628418 C238.357908,147.61116 238.150391,146.418952 238.150391,145.051758 L238.150391,143.000977 C238.150391,142.740559 238.252115,142.508627 238.455566,142.305176 C238.659018,142.101724 238.890949,142 239.151367,142 L240.201172,142 C240.46159,142 240.693521,142.101724 240.896973,142.305176 C241.100424,142.508627 241.202148,142.740559 241.202148,143.000977 L241.202148,145.051758 C241.202148,146.581713 241.661942,147.830887 242.581543,148.799316 C243.501144,149.767746 244.774731,150.251953 246.402344,150.251953 C247.069665,150.251953 247.704424,150.166505 248.306641,149.995605 C248.908857,149.824706 249.433754,149.556154 249.881348,149.189941 C250.328941,148.823729 250.678872,148.335452 250.931152,147.725098 C251.183432,147.114743 251.30957,146.370122 251.30957,145.491211 C251.30957,144.661129 251.065432,143.920576 250.577148,143.269531 C250.088865,142.618486 249.511071,142.008141 248.84375,141.438477 C247.981115,140.706051 247.199873,140.042809 246.5,139.44873 C245.800127,138.854652 245.100264,138.248375 244.400391,137.629883 C243.700517,137.01139 242.968103,136.352217 242.203125,135.652344 C241.438147,134.95247 240.567388,134.154952 239.59082,133.259766 C238.516596,132.299474 237.759768,131.322922 237.320312,130.330078 C236.880857,129.337235 236.661133,128.108406 236.661133,126.643555 Z M239.688477,126.790039 C239.688477,127.359703 239.839028,127.994463 240.140137,128.694336 C240.441245,129.394209 240.925452,130.045244 241.592773,130.647461 L249.844727,138.044922 C250.072592,138.240235 250.35742,138.337891 250.699219,138.337891 C251.041017,138.337891 251.342121,138.240235 251.602539,138.044922 C252.26986,137.475258 252.827309,136.718429 253.274902,135.774414 C253.722496,134.830399 253.946289,133.959639 253.946289,133.162109 C253.946289,132.624997 253.787599,131.973962 253.470215,131.208984 C253.15283,130.444007 252.611657,129.687178 251.84668,128.938477 L244.302734,122.151367 C244.042316,121.890949 243.745282,121.76888 243.411621,121.785156 C243.077961,121.801432 242.772788,121.923501 242.496094,122.151367 C241.861325,122.721031 241.234704,123.420894 240.616211,124.250977 C239.997718,125.081059 239.688477,125.927405 239.688477,126.790039 Z" id="ยง" fill="#87BC55"></path>
    </g>
</svg>