<?xml version="1.0" encoding="UTF-8"?>
<svg width="338px" height="168px" viewBox="0 0 338 168" version="1.1" xmlns="http://www.w3.org/2000/svg" xmlns:xlink="http://www.w3.org/1999/xlink">
    <!-- Generator: Sketch 49.1 (51147) - http://www.bohemiancoding.com/sketch -->
    <title>hardware</title>
    <desc>Created with Sketch.</desc>
    <defs></defs>
    <g id="hardware" stroke="none" stroke-width="1" fill="none" fill-rule="evenodd">
        <g id="Group" transform="translate(214.000000, 27.000000)">
            <rect id="Rectangle" stroke="#292A2B" stroke-width="0.6" x="0.3" y="0.3" width="97.4" height="25.8575163" rx="3"></rect>
            <rect id="Rectangle" stroke="#292A2B" stroke-width="0.6" x="0.3" y="33.3718954" width="97.4" height="25.8575163" rx="3"></rect>
            <rect id="Rectangle" stroke="#292A2B" stroke-width="0.6" x="0.3" y="65.8424837" width="97.4" height="25.8575163" rx="3"></rect>
            <ellipse id="Oval-8" fill="#292A2B" cx="85.75" cy="14.7320261" rx="3.28658537" ry="3.30718954"></ellipse>
            <ellipse id="Oval-8" fill="#292A2B" cx="85.75" cy="47.8039216" rx="3.28658537" ry="3.30718954"></ellipse>
            <ellipse id="Oval-8" fill="#292A2B" cx="85.75" cy="80.2745098" rx="3.28658537" ry="3.30718954"></ellipse>
        </g>
        <g id="noun_sensor_381031_000000" transform="translate(26.000000, 90.000000)" fill="#000000" fill-rule="nonzero">
            <ellipse id="Oval" cx="19" cy="14" rx="4.64444444" ry="4.68695652"></ellipse>
            <path d="M12.5460317,5.11304348 C11.8825397,4.44347826 10.8571429,4.44347826 10.1936508,5.11304348 C5.36825397,9.9826087 5.36825397,17.9565217 10.1936508,22.8869565 C10.4952381,23.1913043 10.9174603,23.373913 11.3396825,23.373913 C11.7619048,23.373913 12.184127,23.1913043 12.4857143,22.8869565 C13.1492063,22.2173913 13.1492063,21.1826087 12.4857143,20.5130435 C8.92698413,16.9217391 8.92698413,11.0782609 12.4857143,7.48695652 C13.1492063,6.8173913 13.1492063,5.7826087 12.5460317,5.11304348 Z" id="Shape"></path>
            <path d="M27.8063492,5.11304348 C27.1428571,4.44347826 26.1174603,4.44347826 25.4539683,5.11304348 C24.7904762,5.7826087 24.7904762,6.8173913 25.4539683,7.48695652 C29.0126984,11.0782609 29.0126984,16.9217391 25.4539683,20.5130435 C24.7904762,21.1826087 24.7904762,22.2173913 25.4539683,22.8869565 C25.7555556,23.1913043 26.1777778,23.373913 26.6,23.373913 C27.0222222,23.373913 27.4444444,23.1913043 27.7460317,22.8869565 C32.631746,17.9565217 32.631746,10.0434783 27.8063492,5.11304348 Z" id="Shape"></path>
            <path d="M29.6761905,0.852173913 C29.0126984,1.52173913 29.0126984,2.55652174 29.6761905,3.22608696 C35.5873016,9.13043478 35.5873016,18.8695652 29.6761905,24.8347826 C29.0126984,25.5043478 29.0126984,26.5391304 29.6761905,27.2086957 C29.9777778,27.5130435 30.4,27.6956522 30.8222222,27.6956522 C31.2444444,27.6956522 31.6666667,27.5130435 31.968254,27.2086957 C39.2063492,19.9043478 39.2063492,8.09565217 32.0285714,0.852173913 C31.3650794,0.182608696 30.3396825,0.182608696 29.6761905,0.852173913 Z" id="Shape"></path>
            <path d="M8.26349206,3.16521739 C8.92698413,2.49565217 8.92698413,1.46086957 8.26349206,0.791304348 C7.6,0.12173913 6.57460317,0.12173913 5.91111111,0.791304348 C-1.26666667,8.03478261 -1.26666667,19.8434783 5.91111111,27.1478261 C6.21269841,27.4521739 6.63492063,27.6347826 7.05714286,27.6347826 C7.47936508,27.6347826 7.9015873,27.4521739 8.2031746,27.1478261 C8.86666667,26.4782609 8.86666667,25.4434783 8.2031746,24.773913 C2.35238095,18.8695652 2.35238095,9.13043478 8.26349206,3.16521739 Z" id="Shape"></path>
        </g>
        <g id="Group-2" transform="translate(121.000000, 45.000000)">
            <rect id="Rectangle-21" stroke="#292A2B" stroke-width="0.6" x="0.3" y="0.3" width="36.4" height="73.4" rx="3"></rect>
            <path d="M36.0181149,9.92682927 L0.38516383,9.92682927" id="Line" stroke="#292A2B" stroke-width="0.6" stroke-linecap="square"></path>
            <path d="M25.2656572,5.61517615 L18.8854331,5.61517615" id="Line" stroke="#292A2B" stroke-width="0.6" stroke-linecap="square"></path>
            <path d="M15.7172701,5.61517615 L14.0747445,5.61517615" id="Line" stroke="#292A2B" stroke-width="0.6" stroke-linecap="square"></path>
            <path d="M36.0181149,62.8699187 L0.38516383,62.8699187" id="Line" stroke="#292A2B" stroke-width="0.6" stroke-linecap="square"></path>
            <ellipse id="Oval-12" fill="#292A2B" cx="18.5" cy="67.9837398" rx="2.38709677" ry="2.40650407"></ellipse>
        </g>
        <polygon id="Shape" fill="#87BC55" fill-rule="nonzero" points="91 69.8851775 86.3294737 65 56.5078947 94.2296451 44.9926316 81.2839248 40 85.8162839 56.1589474 104"></polygon>
        <polygon id="Shape" fill="#87BC55" fill-rule="nonzero" points="190 58.8851775 185.329474 54 155.507895 83.2296451 143.992632 70.2839248 139 74.8162839 155.158947 93"></polygon>
        <polygon id="Shape" fill="#87BC55" fill-rule="nonzero" points="338 49.8851775 333.329474 45 303.507895 74.2296451 291.992632 61.2839248 287 65.8162839 303.158947 84"></polygon>
        <path d="M214.779297,132.759766 L214.779297,124.837891 C214.779297,124.77539 214.803711,124.719727 214.852539,124.670898 C214.901367,124.62207 214.957031,124.597656 215.019531,124.597656 L215.306641,124.597656 C215.369141,124.597656 215.424804,124.62207 215.473633,124.670898 C215.522461,124.719727 215.546875,124.77539 215.546875,124.837891 L215.546875,132.109375 C215.546875,132.1875 215.58789,132.228516 215.669922,132.232422 L218.605469,132.232422 C218.667969,132.232422 218.723633,132.256836 218.772461,132.305664 C218.821289,132.354492 218.845703,132.410156 218.845703,132.472656 L218.845703,132.759766 C218.845703,132.822266 218.822266,132.877929 218.775391,132.926758 C218.728515,132.975586 218.671875,133 218.605469,133 L215.019531,133 C214.957031,133 214.901367,132.975586 214.852539,132.926758 C214.803711,132.877929 214.779297,132.822266 214.779297,132.759766 Z M219.601562,131.201172 C219.601562,130.955077 219.645507,130.723634 219.733398,130.506836 C219.82129,130.290038 219.949218,130.103516 220.117188,129.947266 C220.285157,129.791015 220.493163,129.668946 220.741211,129.581055 C220.989259,129.493164 221.26953,129.449219 221.582031,129.449219 L223.298828,129.449219 C223.376954,129.449219 223.416016,129.408204 223.416016,129.326172 L223.416016,128.857422 C223.416016,128.466795 223.281251,128.149415 223.011719,127.905273 C222.742186,127.661132 222.394533,127.539062 221.96875,127.539062 C221.785155,127.539062 221.608399,127.565429 221.438477,127.618164 C221.268554,127.670899 221.120118,127.743164 220.993164,127.834961 C220.86621,127.926758 220.762696,128.036132 220.682617,128.163086 C220.602539,128.29004 220.5625,128.433593 220.5625,128.59375 C220.5625,128.699219 220.530274,128.759766 220.46582,128.775391 C220.401367,128.791016 220.341797,128.798828 220.287109,128.798828 L220.117188,128.798828 C219.95703,128.798828 219.876953,128.718751 219.876953,128.558594 C219.876953,128.277342 219.937499,128.033204 220.058594,127.826172 C220.179688,127.61914 220.339843,127.445313 220.539062,127.304688 C220.738282,127.164062 220.961913,127.058594 221.209961,126.988281 C221.458009,126.917968 221.710936,126.882812 221.96875,126.882812 C222.265626,126.882812 222.542967,126.921875 222.800781,127 C223.058595,127.078125 223.286132,127.199218 223.483398,127.363281 C223.680665,127.527345 223.836913,127.733397 223.952148,127.981445 C224.067383,128.229493 224.125,128.525389 224.125,128.869141 L224.125,132.759766 C224.125,132.822266 224.101563,132.877929 224.054688,132.926758 C224.007812,132.975586 223.951172,133 223.884766,133 L223.779297,133 C223.701171,133 223.644531,132.972657 223.609375,132.917969 C223.578125,132.871094 223.550781,132.817383 223.527344,132.756836 C223.503906,132.696289 223.451172,132.666016 223.369141,132.666016 C223.314453,132.666016 223.243165,132.689453 223.155273,132.736328 C223.067382,132.783203 222.958985,132.834961 222.830078,132.891602 C222.701171,132.948242 222.550782,133 222.378906,133.046875 C222.20703,133.09375 222.009767,133.117188 221.787109,133.117188 C221.41992,133.117188 221.097658,133.06543 220.820312,132.961914 C220.542967,132.858398 220.314454,132.718751 220.134766,132.542969 C219.955077,132.367187 219.82129,132.163087 219.733398,131.930664 C219.645507,131.698241 219.601562,131.455079 219.601562,131.201172 Z M220.310547,131.189453 C220.310547,131.404298 220.348632,131.589843 220.424805,131.746094 C220.500977,131.902345 220.604492,132.032226 220.735352,132.135742 C220.866212,132.239258 221.015624,132.317383 221.183594,132.370117 C221.351563,132.422852 221.533202,132.449219 221.728516,132.449219 C222.2793,132.449219 222.7041,132.32129 223.00293,132.06543 C223.301759,131.809569 223.451172,131.437502 223.451172,130.949219 L223.451172,130.228516 C223.451172,130.15039 223.41211,130.109375 223.333984,130.105469 L221.582031,130.105469 C221.246092,130.105469 220.950197,130.198241 220.694336,130.383789 C220.438475,130.569337 220.310547,130.837889 220.310547,131.189453 Z M225.648438,132.759766 L225.648438,127.240234 C225.648438,127.177734 225.671875,127.122071 225.71875,127.073242 C225.765625,127.024414 225.822265,127 225.888672,127 L226.041016,127 C226.169923,127 226.25,127.080077 226.28125,127.240234 C226.296875,127.31836 226.31543,127.408203 226.336914,127.509766 C226.358399,127.611329 226.412109,127.662109 226.498047,127.662109 C226.576172,127.662109 226.648437,127.62793 226.714844,127.55957 C226.78125,127.491211 226.87207,127.415039 226.987305,127.331055 C227.10254,127.24707 227.255858,127.170899 227.447266,127.102539 C227.638673,127.034179 227.902342,127 228.238281,127 L228.261719,127 C228.324219,127 228.379883,127.024414 228.428711,127.073242 C228.477539,127.122071 228.501953,127.177734 228.501953,127.240234 L228.501953,127.457031 C228.501953,127.519532 228.478516,127.575195 228.431641,127.624023 C228.384765,127.672852 228.328125,127.697266 228.261719,127.697266 L228.226562,127.697266 C228.003905,127.697266 227.782228,127.729492 227.561523,127.793945 C227.340819,127.858399 227.140626,127.967773 226.960938,128.12207 C226.781249,128.276368 226.635743,128.486327 226.524414,128.751953 C226.413085,129.017579 226.357422,129.353514 226.357422,129.759766 L226.357422,132.759766 C226.357422,132.822266 226.333008,132.877929 226.28418,132.926758 C226.235351,132.975586 226.179688,133 226.117188,133 L225.888672,133 C225.826172,133 225.770508,132.975586 225.72168,132.926758 C225.672851,132.877929 225.648438,132.822266 225.648438,132.759766 Z M229.076172,130.837891 C229.060547,130.599608 229.052734,130.320314 229.052734,130 C229.052734,129.679686 229.060547,129.400392 229.076172,129.162109 C229.099609,128.849608 229.173827,128.552736 229.298828,128.271484 C229.423829,127.990233 229.585937,127.748048 229.785156,127.544922 C229.984376,127.341796 230.217772,127.180665 230.485352,127.061523 C230.752931,126.942382 231.042967,126.882812 231.355469,126.882812 C231.578126,126.882812 231.757812,126.902344 231.894531,126.941406 C232.031251,126.980469 232.14746,127.026367 232.243164,127.079102 C232.338868,127.131836 232.420898,127.177734 232.489258,127.216797 C232.557618,127.25586 232.636718,127.275391 232.726562,127.275391 C232.789063,127.275391 232.844726,127.253906 232.893555,127.210938 C232.942383,127.167969 232.986328,127.125 233.025391,127.082031 C233.080078,127.027343 233.136718,127 233.195312,127 L233.382812,127 C233.445313,127 233.500976,127.024414 233.549805,127.073242 C233.598633,127.122071 233.623047,127.177734 233.623047,127.240234 L233.623047,133.357422 C233.623047,133.646486 233.57129,133.92285 233.467773,134.186523 C233.364257,134.450197 233.218751,134.680663 233.03125,134.87793 C232.843749,135.075196 232.620118,135.231445 232.360352,135.34668 C232.100585,135.461915 231.810548,135.519531 231.490234,135.519531 C231.251952,135.519531 231.018556,135.485352 230.790039,135.416992 C230.561522,135.348632 230.350587,135.245118 230.157227,135.106445 C229.963866,134.967773 229.797852,134.795899 229.65918,134.59082 C229.520507,134.385741 229.421875,134.148439 229.363281,133.878906 C229.355469,133.847656 229.351562,133.81836 229.351562,133.791016 C229.351562,133.666015 229.427734,133.601563 229.580078,133.597656 L229.773438,133.597656 C229.878907,133.597656 229.951172,133.62207 229.990234,133.670898 C230.029297,133.719727 230.060547,133.77539 230.083984,133.837891 C230.123047,133.951172 230.178711,134.065429 230.250977,134.180664 C230.323243,134.295899 230.416015,134.40039 230.529297,134.494141 C230.642579,134.587891 230.779296,134.664062 230.939453,134.722656 C231.09961,134.78125 231.283202,134.810547 231.490234,134.810547 C231.712892,134.810547 231.912108,134.768555 232.087891,134.68457 C232.263673,134.600586 232.414062,134.491212 232.539062,134.356445 C232.664063,134.221679 232.758789,134.06836 232.823242,133.896484 C232.887696,133.724609 232.919922,133.544923 232.919922,133.357422 L232.919922,133.117188 C232.919922,132.917968 232.830079,132.818359 232.650391,132.818359 C232.58789,132.818359 232.512696,132.834961 232.424805,132.868164 C232.336914,132.901367 232.237305,132.935547 232.125977,132.970703 C232.014648,133.00586 231.892579,133.039062 231.759766,133.070312 C231.626952,133.101563 231.492188,133.117188 231.355469,133.117188 C231.042967,133.117188 230.752931,133.057618 230.485352,132.938477 C230.217772,132.819335 229.984376,132.658204 229.785156,132.455078 C229.585937,132.251952 229.423829,132.009767 229.298828,131.728516 C229.173827,131.447264 229.099609,131.150392 229.076172,130.837891 Z M229.808594,129.162109 C229.777344,129.408204 229.761719,129.687498 229.761719,130 C229.761719,130.312502 229.777344,130.591796 229.808594,130.837891 C229.824219,130.998048 229.862304,131.170898 229.922852,131.356445 C229.983399,131.541993 230.075195,131.711913 230.198242,131.866211 C230.32129,132.020509 230.483397,132.15039 230.68457,132.255859 C230.885743,132.361329 231.130858,132.414062 231.419922,132.414062 C231.685548,132.414062 231.909179,132.361329 232.09082,132.255859 C232.272462,132.15039 232.419921,132.020509 232.533203,131.866211 C232.646485,131.711913 232.730468,131.541993 232.785156,131.356445 C232.839844,131.170898 232.875,130.998048 232.890625,130.837891 C232.914063,130.591796 232.927734,130.312502 232.931641,130 L232.931641,129.935547 C232.931641,129.650389 232.917969,129.392579 232.890625,129.162109 C232.875,129.001952 232.839844,128.829102 232.785156,128.643555 C232.730468,128.458007 232.646485,128.288087 232.533203,128.133789 C232.419921,127.979491 232.271485,127.84961 232.087891,127.744141 C231.904296,127.638671 231.681642,127.585938 231.419922,127.585938 C231.123045,127.585938 230.875978,127.638671 230.678711,127.744141 C230.481444,127.84961 230.32129,127.979491 230.198242,128.133789 C230.075195,128.288087 229.983399,128.458007 229.922852,128.643555 C229.862304,128.829102 229.824219,129.001952 229.808594,129.162109 Z M234.882812,130.837891 C234.867187,130.599608 234.859375,130.320314 234.859375,130 C234.859375,129.679686 234.867187,129.400392 234.882812,129.162109 C234.90625,128.849608 234.980468,128.552736 235.105469,128.271484 C235.230469,127.990233 235.398436,127.748048 235.609375,127.544922 C235.820314,127.341796 236.072264,127.180665 236.365234,127.061523 C236.658205,126.942382 236.984373,126.882812 237.34375,126.882812 C237.679689,126.882812 237.994139,126.946288 238.287109,127.073242 C238.58008,127.200196 238.833983,127.372069 239.048828,127.588867 C239.263673,127.805665 239.433593,128.059569 239.558594,128.350586 C239.683594,128.641603 239.746094,128.95117 239.746094,129.279297 L239.746094,130.046875 C239.746094,130.109375 239.72168,130.165039 239.672852,130.213867 C239.624023,130.262696 239.56836,130.287109 239.505859,130.287109 L235.697266,130.287109 C235.61914,130.287109 235.580078,130.328125 235.580078,130.410156 C235.580078,130.69922 235.614257,130.964843 235.682617,131.207031 C235.750977,131.44922 235.856445,131.660155 235.999023,131.839844 C236.141602,132.019532 236.323241,132.160156 236.543945,132.261719 C236.76465,132.363282 237.031248,132.414062 237.34375,132.414062 C237.57422,132.414062 237.780273,132.381836 237.961914,132.317383 C238.143556,132.252929 238.299804,132.166993 238.430664,132.05957 C238.561524,131.952148 238.668945,131.832032 238.75293,131.699219 C238.836914,131.566406 238.902344,131.427735 238.949219,131.283203 C238.972656,131.205078 239.010742,131.151367 239.063477,131.12207 C239.116211,131.092773 239.171875,131.078125 239.230469,131.078125 L239.464844,131.078125 C239.527344,131.078125 239.581054,131.09668 239.625977,131.133789 C239.670899,131.170899 239.685547,131.232421 239.669922,131.318359 C239.630859,131.583986 239.547852,131.827147 239.420898,132.047852 C239.293945,132.268556 239.127931,132.458007 238.922852,132.616211 C238.717772,132.774415 238.481447,132.89746 238.213867,132.985352 C237.946288,133.073243 237.656252,133.117188 237.34375,133.117188 C236.984373,133.117188 236.658205,133.057618 236.365234,132.938477 C236.072264,132.819335 235.820314,132.658204 235.609375,132.455078 C235.398436,132.251952 235.230469,132.009767 235.105469,131.728516 C234.980468,131.447264 234.90625,131.150392 234.882812,130.837891 Z M235.603516,129.496094 C235.603516,129.574219 235.644531,129.613281 235.726562,129.613281 L238.960938,129.613281 C239.039063,129.613281 239.080078,129.574219 239.083984,129.496094 C239.083984,129.191405 239.04004,128.9209 238.952148,128.68457 C238.864257,128.448241 238.742188,128.248048 238.585938,128.083984 C238.429687,127.919921 238.247071,127.795899 238.038086,127.711914 C237.829101,127.627929 237.601564,127.585938 237.355469,127.585938 C236.82031,127.585938 236.394533,127.749998 236.078125,128.078125 C235.761717,128.406252 235.603516,128.878903 235.603516,129.496094 Z M240.964844,132.759766 L240.964844,127.240234 C240.964844,127.177734 240.988281,127.122071 241.035156,127.073242 C241.082031,127.024414 241.138672,127 241.205078,127 L241.357422,127 C241.486329,127 241.566406,127.080077 241.597656,127.240234 C241.613281,127.31836 241.631836,127.408203 241.65332,127.509766 C241.674805,127.611329 241.728515,127.662109 241.814453,127.662109 C241.892579,127.662109 241.964843,127.62793 242.03125,127.55957 C242.097657,127.491211 242.188476,127.415039 242.303711,127.331055 C242.418946,127.24707 242.572265,127.170899 242.763672,127.102539 C242.955079,127.034179 243.218748,127 243.554688,127 L243.578125,127 C243.640625,127 243.696289,127.024414 243.745117,127.073242 C243.793946,127.122071 243.818359,127.177734 243.818359,127.240234 L243.818359,127.457031 C243.818359,127.519532 243.794922,127.575195 243.748047,127.624023 C243.701172,127.672852 243.644532,127.697266 243.578125,127.697266 L243.542969,127.697266 C243.320311,127.697266 243.098634,127.729492 242.87793,127.793945 C242.657225,127.858399 242.457032,127.967773 242.277344,128.12207 C242.097655,128.276368 241.952149,128.486327 241.84082,128.751953 C241.729492,129.017579 241.673828,129.353514 241.673828,129.759766 L241.673828,132.759766 C241.673828,132.822266 241.649414,132.877929 241.600586,132.926758 C241.551758,132.975586 241.496094,133 241.433594,133 L241.205078,133 C241.142578,133 241.086914,132.975586 241.038086,132.926758 C240.989258,132.877929 240.964844,132.822266 240.964844,132.759766 Z M247.474609,130.837891 C247.458984,130.599608 247.451172,130.320314 247.451172,130 C247.451172,129.679686 247.458984,129.400392 247.474609,129.162109 C247.498047,128.849608 247.570312,128.552736 247.691406,128.271484 C247.812501,127.990233 247.976561,127.748048 248.183594,127.544922 C248.390626,127.341796 248.63867,127.180665 248.927734,127.061523 C249.216798,126.942382 249.541014,126.882812 249.900391,126.882812 C250.23633,126.882812 250.541991,126.938476 250.817383,127.049805 C251.092775,127.161133 251.331054,127.310546 251.532227,127.498047 C251.733399,127.685548 251.887695,127.901366 251.995117,128.145508 C252.10254,128.38965 252.15625,128.648436 252.15625,128.921875 C252.15625,128.984375 252.137695,129.040039 252.100586,129.088867 C252.063476,129.137696 252.013672,129.162109 251.951172,129.162109 L251.675781,129.162109 C251.621093,129.162109 251.569336,129.145508 251.520508,129.112305 C251.471679,129.079101 251.447266,129.03125 251.447266,128.96875 C251.447266,128.792968 251.413086,128.621095 251.344727,128.453125 C251.276367,128.285155 251.176758,128.136719 251.045898,128.007812 C250.915038,127.878906 250.752931,127.776368 250.55957,127.700195 C250.36621,127.624023 250.146486,127.585938 249.900391,127.585938 C249.595702,127.585938 249.339845,127.638671 249.132812,127.744141 C248.92578,127.84961 248.75586,127.979491 248.623047,128.133789 C248.490234,128.288087 248.391602,128.458007 248.327148,128.643555 C248.262695,128.829102 248.222656,129.001952 248.207031,129.162109 C248.183594,129.408204 248.171875,129.687498 248.171875,130 C248.171875,130.312502 248.183594,130.591796 248.207031,130.837891 C248.222656,130.998048 248.262695,131.170898 248.327148,131.356445 C248.391602,131.541993 248.490234,131.711913 248.623047,131.866211 C248.75586,132.020509 248.92578,132.15039 249.132812,132.255859 C249.339845,132.361329 249.595702,132.414062 249.900391,132.414062 C250.166017,132.414062 250.39453,132.372071 250.585938,132.288086 C250.777345,132.204101 250.936523,132.095704 251.063477,131.962891 C251.19043,131.830077 251.284179,131.683595 251.344727,131.523438 C251.405274,131.36328 251.435547,131.203126 251.435547,131.042969 C251.435547,130.964843 251.459961,130.911133 251.508789,130.881836 C251.557617,130.852539 251.609375,130.837891 251.664062,130.837891 L251.916016,130.837891 C251.978516,130.837891 252.034179,130.862304 252.083008,130.911133 C252.131836,130.959961 252.15625,131.015625 252.15625,131.078125 C252.15625,131.351564 252.10254,131.61035 251.995117,131.854492 C251.887695,132.098634 251.733399,132.314452 251.532227,132.501953 C251.331054,132.689454 251.092775,132.838867 250.817383,132.950195 C250.541991,133.061524 250.23633,133.117188 249.900391,133.117188 C249.541014,133.117188 249.216798,133.057618 248.927734,132.938477 C248.63867,132.819335 248.390626,132.658204 248.183594,132.455078 C247.976561,132.251952 247.812501,132.009767 247.691406,131.728516 C247.570312,131.447264 247.498047,131.150392 247.474609,130.837891 Z M253.205078,130.837891 C253.189453,130.599608 253.181641,130.320314 253.181641,130 C253.181641,129.679686 253.189453,129.400392 253.205078,129.162109 C253.228516,128.849608 253.300781,128.552736 253.421875,128.271484 C253.542969,127.990233 253.70703,127.748048 253.914062,127.544922 C254.121095,127.341796 254.369139,127.180665 254.658203,127.061523 C254.947267,126.942382 255.271483,126.882812 255.630859,126.882812 C255.990236,126.882812 256.313475,126.942382 256.600586,127.061523 C256.887697,127.180665 257.135741,127.341796 257.344727,127.544922 C257.553712,127.748048 257.717773,127.990233 257.836914,128.271484 C257.956055,128.552736 258.029297,128.849608 258.056641,129.162109 C258.072266,129.400392 258.080078,129.679686 258.080078,130 C258.080078,130.320314 258.072266,130.599608 258.056641,130.837891 C258.033203,131.150392 257.960938,131.447264 257.839844,131.728516 C257.718749,132.009767 257.553712,132.251952 257.344727,132.455078 C257.135741,132.658204 256.887697,132.819335 256.600586,132.938477 C256.313475,133.057618 255.990236,133.117188 255.630859,133.117188 C255.271483,133.117188 254.947267,133.057618 254.658203,132.938477 C254.369139,132.819335 254.121095,132.658204 253.914062,132.455078 C253.70703,132.251952 253.542969,132.009767 253.421875,131.728516 C253.300781,131.447264 253.228516,131.150392 253.205078,130.837891 Z M253.9375,129.162109 C253.914062,129.408204 253.902344,129.687498 253.902344,130 C253.902344,130.312502 253.914062,130.591796 253.9375,130.837891 C253.953125,130.998048 253.993164,131.170898 254.057617,131.356445 C254.122071,131.541993 254.220702,131.711913 254.353516,131.866211 C254.486329,132.020509 254.656249,132.15039 254.863281,132.255859 C255.070314,132.361329 255.32617,132.414062 255.630859,132.414062 C255.927736,132.414062 256.18164,132.361329 256.392578,132.255859 C256.603517,132.15039 256.77539,132.020509 256.908203,131.866211 C257.041016,131.711913 257.139648,131.541993 257.204102,131.356445 C257.268555,131.170898 257.308594,130.998048 257.324219,130.837891 C257.347656,130.591796 257.359375,130.312502 257.359375,130 C257.359375,129.687498 257.347656,129.408204 257.324219,129.162109 C257.308594,129.001952 257.268555,128.829102 257.204102,128.643555 C257.139648,128.458007 257.041016,128.288087 256.908203,128.133789 C256.77539,127.979491 256.603517,127.84961 256.392578,127.744141 C256.18164,127.638671 255.927736,127.585938 255.630859,127.585938 C255.32617,127.585938 255.070314,127.638671 254.863281,127.744141 C254.656249,127.84961 254.486329,127.979491 254.353516,128.133789 C254.220702,128.288087 254.122071,128.458007 254.057617,128.643555 C253.993164,128.829102 253.953125,129.001952 253.9375,129.162109 Z M259.386719,132.759766 L259.386719,127.240234 C259.386719,127.177734 259.410156,127.122071 259.457031,127.073242 C259.503906,127.024414 259.560547,127 259.626953,127 L259.820312,127 C259.875,127 259.929687,127.027343 259.984375,127.082031 L260.110352,127.208008 C260.155274,127.25293 260.21289,127.275391 260.283203,127.275391 C260.38086,127.275391 260.471679,127.25586 260.555664,127.216797 C260.639649,127.177734 260.731445,127.131836 260.831055,127.079102 C260.930665,127.026367 261.042968,126.980469 261.167969,126.941406 C261.292969,126.902344 261.447265,126.882812 261.630859,126.882812 C261.806642,126.882812 261.96289,126.902344 262.099609,126.941406 C262.236329,126.980469 262.356445,127.030273 262.459961,127.09082 C262.563477,127.151367 262.657226,127.21289 262.741211,127.275391 C262.825196,127.337891 262.898437,127.398437 262.960938,127.457031 C263.050782,127.527344 263.129882,127.5625 263.198242,127.5625 C263.266602,127.5625 263.34375,127.527344 263.429688,127.457031 C263.492188,127.402343 263.570312,127.342774 263.664062,127.27832 C263.757813,127.213867 263.868163,127.151367 263.995117,127.09082 C264.122071,127.030273 264.26953,126.980469 264.4375,126.941406 C264.60547,126.902344 264.796874,126.882812 265.011719,126.882812 C265.32422,126.882812 265.600585,126.93457 265.84082,127.038086 C266.081056,127.141602 266.281249,127.287108 266.441406,127.474609 C266.601563,127.66211 266.721679,127.883788 266.801758,128.139648 C266.881836,128.395509 266.921875,128.671874 266.921875,128.96875 L266.921875,132.759766 C266.921875,132.822266 266.897461,132.877929 266.848633,132.926758 C266.799804,132.975586 266.744141,133 266.681641,133 L266.453125,133 C266.390625,133 266.334961,132.975586 266.286133,132.926758 C266.237304,132.877929 266.212891,132.822266 266.212891,132.759766 L266.212891,128.96875 C266.212891,128.519529 266.092775,128.176759 265.852539,127.94043 C265.612303,127.7041 265.292971,127.585938 264.894531,127.585938 C264.710937,127.585938 264.535157,127.62207 264.367188,127.694336 C264.199218,127.766602 264.050782,127.865234 263.921875,127.990234 C263.792968,128.115235 263.69043,128.261718 263.614258,128.429688 C263.538086,128.597657 263.5,128.777343 263.5,128.96875 L263.5,132.759766 C263.5,132.822266 263.476563,132.877929 263.429688,132.926758 C263.382812,132.975586 263.326172,133 263.259766,133 L263.048828,133 C262.986328,133 262.930664,132.975586 262.881836,132.926758 C262.833008,132.877929 262.808594,132.822266 262.808594,132.759766 L262.808594,128.96875 C262.808594,128.816405 262.776368,128.658204 262.711914,128.494141 C262.647461,128.330077 262.554688,128.179688 262.433594,128.042969 C262.312499,127.906249 262.166016,127.795899 261.994141,127.711914 C261.822265,127.627929 261.628907,127.585938 261.414062,127.585938 C261.230468,127.585938 261.058595,127.625976 260.898438,127.706055 C260.73828,127.786133 260.598633,127.890624 260.479492,128.019531 C260.360351,128.148438 260.266602,128.291015 260.198242,128.447266 C260.129882,128.603516 260.095703,128.757812 260.095703,128.910156 L260.095703,132.759766 C260.095703,132.822266 260.071289,132.877929 260.022461,132.926758 C259.973633,132.975586 259.917969,133 259.855469,133 L259.626953,133 C259.564453,133 259.508789,132.975586 259.459961,132.926758 C259.411133,132.877929 259.386719,132.822266 259.386719,132.759766 Z M268.263672,135.162109 L268.263672,127.240234 C268.263672,127.177734 268.288086,127.122071 268.336914,127.073242 C268.385742,127.024414 268.441406,127 268.503906,127 L268.697266,127 C268.751953,127 268.80664,127.027343 268.861328,127.082031 C268.900391,127.121094 268.944336,127.163086 268.993164,127.208008 C269.041992,127.25293 269.099609,127.275391 269.166016,127.275391 C269.25586,127.275391 269.333984,127.25586 269.400391,127.216797 C269.466797,127.177734 269.547851,127.131836 269.643555,127.079102 C269.739258,127.026367 269.855468,126.980469 269.992188,126.941406 C270.128907,126.902344 270.308593,126.882812 270.53125,126.882812 C270.843752,126.882812 271.133788,126.942382 271.401367,127.061523 C271.668947,127.180665 271.903319,127.341796 272.104492,127.544922 C272.305665,127.748048 272.467773,127.990233 272.59082,128.271484 C272.713868,128.552736 272.787109,128.849608 272.810547,129.162109 C272.826172,129.400392 272.833984,129.679686 272.833984,130 C272.833984,130.320314 272.826172,130.599608 272.810547,130.837891 C272.787109,131.150392 272.713868,131.447264 272.59082,131.728516 C272.467773,132.009767 272.305665,132.251952 272.104492,132.455078 C271.903319,132.658204 271.668947,132.819335 271.401367,132.938477 C271.133788,133.057618 270.843752,133.117188 270.53125,133.117188 C270.339843,133.117188 270.175782,133.101563 270.039062,133.070312 C269.902343,133.039062 269.786133,133.00586 269.69043,132.970703 C269.594726,132.935547 269.510743,132.901367 269.438477,132.868164 C269.366211,132.834961 269.302735,132.818359 269.248047,132.818359 C269.169921,132.818359 269.104492,132.84082 269.051758,132.885742 C268.999023,132.930664 268.972656,133.007812 268.972656,133.117188 L268.972656,135.162109 C268.972656,135.22461 268.948242,135.280273 268.899414,135.329102 C268.850586,135.37793 268.794922,135.402344 268.732422,135.402344 L268.503906,135.402344 C268.441406,135.402344 268.385742,135.37793 268.336914,135.329102 C268.288086,135.280273 268.263672,135.22461 268.263672,135.162109 Z M268.996094,129.162109 C268.972656,129.408204 268.960938,129.687498 268.960938,130 C268.960938,130.312502 268.972656,130.591796 268.996094,130.837891 C269.011719,130.998048 269.047851,131.170898 269.104492,131.356445 C269.161133,131.541993 269.245117,131.711913 269.356445,131.866211 C269.467774,132.020509 269.615233,132.15039 269.798828,132.255859 C269.982423,132.361329 270.20703,132.414062 270.472656,132.414062 C270.76172,132.414062 271.005858,132.361329 271.205078,132.255859 C271.404298,132.15039 271.565429,132.020509 271.688477,131.866211 C271.811524,131.711913 271.90332,131.541993 271.963867,131.356445 C272.024414,131.170898 272.0625,130.998048 272.078125,130.837891 C272.109375,130.591796 272.125,130.312502 272.125,130 C272.125,129.687498 272.109375,129.408204 272.078125,129.162109 C272.0625,129.001952 272.024414,128.829102 271.963867,128.643555 C271.90332,128.458007 271.811524,128.288087 271.688477,128.133789 C271.565429,127.979491 271.406251,127.84961 271.210938,127.744141 C271.015624,127.638671 270.769533,127.585938 270.472656,127.585938 C270.20703,127.585938 269.982423,127.638671 269.798828,127.744141 C269.615233,127.84961 269.467774,127.979491 269.356445,128.133789 C269.245117,128.288087 269.161133,128.458007 269.104492,128.643555 C269.047851,128.829102 269.011719,129.001952 268.996094,129.162109 Z M274.046875,131.03125 L274.046875,127.240234 C274.046875,127.177734 274.070312,127.122071 274.117188,127.073242 C274.164063,127.024414 274.220703,127 274.287109,127 L274.515625,127 C274.578125,127 274.632812,127.024414 274.679688,127.073242 C274.726563,127.122071 274.75,127.177734 274.75,127.240234 L274.75,131.03125 C274.75,131.535159 274.896483,131.891601 275.189453,132.100586 C275.482423,132.309571 275.845701,132.414062 276.279297,132.414062 C276.494142,132.414062 276.693358,132.379883 276.876953,132.311523 C277.060548,132.243164 277.222656,132.148438 277.363281,132.027344 C277.503907,131.906249 277.612304,131.765626 277.688477,131.605469 C277.764649,131.445312 277.802734,131.273438 277.802734,131.089844 L277.802734,127.240234 C277.802734,127.177734 277.826172,127.122071 277.873047,127.073242 C277.919922,127.024414 277.976562,127 278.042969,127 L278.271484,127 C278.333985,127 278.388672,127.024414 278.435547,127.073242 C278.482422,127.122071 278.505859,127.177734 278.505859,127.240234 L278.505859,132.759766 C278.505859,132.822266 278.482422,132.877929 278.435547,132.926758 C278.388672,132.975586 278.333985,133 278.271484,133 L278.078125,133 C278.023437,133 277.966797,132.972657 277.908203,132.917969 C277.86914,132.878906 277.829102,132.836914 277.788086,132.791992 C277.74707,132.74707 277.691407,132.724609 277.621094,132.724609 C277.53125,132.724609 277.449219,132.74414 277.375,132.783203 C277.300781,132.822266 277.212891,132.868164 277.111328,132.920898 C277.009765,132.973633 276.887696,133.019531 276.745117,133.058594 C276.602538,133.097656 276.41797,133.117188 276.191406,133.117188 C275.878905,133.117188 275.590822,133.073243 275.327148,132.985352 C275.063475,132.89746 274.835938,132.765626 274.644531,132.589844 C274.453124,132.414062 274.305665,132.19629 274.202148,131.936523 C274.098632,131.676757 274.046875,131.375002 274.046875,131.03125 Z M279.162109,127.527344 L279.162109,127.298828 C279.162109,127.236328 279.186523,127.180664 279.235352,127.131836 C279.28418,127.083008 279.339843,127.058594 279.402344,127.058594 L280.375,127.058594 C280.453125,127.058594 280.494141,127.019532 280.498047,126.941406 L280.498047,125.078125 C280.498047,125.015625 280.521484,124.959961 280.568359,124.911133 C280.615235,124.862304 280.671875,124.837891 280.738281,124.837891 L280.972656,124.837891 C281.035157,124.837891 281.09082,124.862304 281.139648,124.911133 C281.188477,124.959961 281.212891,125.015625 281.212891,125.078125 L281.212891,126.941406 C281.212891,127.019532 281.253906,127.058594 281.335938,127.058594 L282.847656,127.058594 C282.910157,127.058594 282.96582,127.083008 283.014648,127.131836 C283.063477,127.180664 283.087891,127.236328 283.087891,127.298828 L283.087891,127.527344 C283.087891,127.589844 283.063477,127.645508 283.014648,127.694336 C282.96582,127.743164 282.910157,127.767578 282.847656,127.767578 L281.335938,127.767578 C281.257812,127.767578 281.216797,127.808593 281.212891,127.890625 L281.212891,131.078125 C281.212891,131.503908 281.294921,131.818358 281.458984,132.021484 C281.623048,132.22461 281.921873,132.326172 282.355469,132.326172 L282.964844,132.326172 C283.027344,132.326172 283.083008,132.350586 283.131836,132.399414 C283.180664,132.448242 283.205078,132.503906 283.205078,132.566406 L283.205078,132.759766 C283.205078,132.822266 283.181641,132.877929 283.134766,132.926758 C283.08789,132.975586 283.03125,133 282.964844,133 L282.355469,133 C281.730466,133 281.26465,132.853517 280.958008,132.560547 C280.651366,132.267577 280.498047,131.773441 280.498047,131.078125 L280.498047,127.890625 C280.498047,127.8125 280.457032,127.771484 280.375,127.767578 L279.402344,127.767578 C279.339843,127.767578 279.28418,127.743164 279.235352,127.694336 C279.186523,127.645508 279.162109,127.589844 279.162109,127.527344 Z M283.673828,130.837891 C283.658203,130.599608 283.650391,130.320314 283.650391,130 C283.650391,129.679686 283.658203,129.400392 283.673828,129.162109 C283.697266,128.849608 283.771484,128.552736 283.896484,128.271484 C284.021485,127.990233 284.189452,127.748048 284.400391,127.544922 C284.611329,127.341796 284.86328,127.180665 285.15625,127.061523 C285.44922,126.942382 285.775389,126.882812 286.134766,126.882812 C286.470705,126.882812 286.785155,126.946288 287.078125,127.073242 C287.371095,127.200196 287.624999,127.372069 287.839844,127.588867 C288.054689,127.805665 288.224609,128.059569 288.349609,128.350586 C288.47461,128.641603 288.537109,128.95117 288.537109,129.279297 L288.537109,130.046875 C288.537109,130.109375 288.512696,130.165039 288.463867,130.213867 C288.415039,130.262696 288.359375,130.287109 288.296875,130.287109 L284.488281,130.287109 C284.410156,130.287109 284.371094,130.328125 284.371094,130.410156 C284.371094,130.69922 284.405273,130.964843 284.473633,131.207031 C284.541993,131.44922 284.64746,131.660155 284.790039,131.839844 C284.932618,132.019532 285.114257,132.160156 285.334961,132.261719 C285.555665,132.363282 285.822264,132.414062 286.134766,132.414062 C286.365236,132.414062 286.571288,132.381836 286.75293,132.317383 C286.934571,132.252929 287.09082,132.166993 287.22168,132.05957 C287.35254,131.952148 287.459961,131.832032 287.543945,131.699219 C287.62793,131.566406 287.693359,131.427735 287.740234,131.283203 C287.763672,131.205078 287.801758,131.151367 287.854492,131.12207 C287.907227,131.092773 287.96289,131.078125 288.021484,131.078125 L288.255859,131.078125 C288.31836,131.078125 288.37207,131.09668 288.416992,131.133789 C288.461914,131.170899 288.476563,131.232421 288.460938,131.318359 C288.421875,131.583986 288.338868,131.827147 288.211914,132.047852 C288.08496,132.268556 287.918946,132.458007 287.713867,132.616211 C287.508788,132.774415 287.272462,132.89746 287.004883,132.985352 C286.737303,133.073243 286.447267,133.117188 286.134766,133.117188 C285.775389,133.117188 285.44922,133.057618 285.15625,132.938477 C284.86328,132.819335 284.611329,132.658204 284.400391,132.455078 C284.189452,132.251952 284.021485,132.009767 283.896484,131.728516 C283.771484,131.447264 283.697266,131.150392 283.673828,130.837891 Z M284.394531,129.496094 C284.394531,129.574219 284.435546,129.613281 284.517578,129.613281 L287.751953,129.613281 C287.830079,129.613281 287.871094,129.574219 287.875,129.496094 C287.875,129.191405 287.831055,128.9209 287.743164,128.68457 C287.655273,128.448241 287.533204,128.248048 287.376953,128.083984 C287.220702,127.919921 287.038087,127.795899 286.829102,127.711914 C286.620116,127.627929 286.392579,127.585938 286.146484,127.585938 C285.611325,127.585938 285.185548,127.749998 284.869141,128.078125 C284.552733,128.406252 284.394531,128.878903 284.394531,129.496094 Z M289.755859,132.759766 L289.755859,127.240234 C289.755859,127.177734 289.779297,127.122071 289.826172,127.073242 C289.873047,127.024414 289.929687,127 289.996094,127 L290.148438,127 C290.277344,127 290.357422,127.080077 290.388672,127.240234 C290.404297,127.31836 290.422851,127.408203 290.444336,127.509766 C290.46582,127.611329 290.519531,127.662109 290.605469,127.662109 C290.683594,127.662109 290.755859,127.62793 290.822266,127.55957 C290.888672,127.491211 290.979492,127.415039 291.094727,127.331055 C291.209962,127.24707 291.36328,127.170899 291.554688,127.102539 C291.746095,127.034179 292.009764,127 292.345703,127 L292.369141,127 C292.431641,127 292.487304,127.024414 292.536133,127.073242 C292.584961,127.122071 292.609375,127.177734 292.609375,127.240234 L292.609375,127.457031 C292.609375,127.519532 292.585938,127.575195 292.539062,127.624023 C292.492187,127.672852 292.435547,127.697266 292.369141,127.697266 L292.333984,127.697266 C292.111327,127.697266 291.88965,127.729492 291.668945,127.793945 C291.448241,127.858399 291.248048,127.967773 291.068359,128.12207 C290.888671,128.276368 290.743165,128.486327 290.631836,128.751953 C290.520507,129.017579 290.464844,129.353514 290.464844,129.759766 L290.464844,132.759766 C290.464844,132.822266 290.44043,132.877929 290.391602,132.926758 C290.342773,132.975586 290.28711,133 290.224609,133 L289.996094,133 C289.933593,133 289.87793,132.975586 289.829102,132.926758 C289.780273,132.877929 289.755859,132.822266 289.755859,132.759766 Z M296.113281,131.201172 L296.113281,131.042969 C296.113281,130.980468 296.136719,130.924805 296.183594,130.875977 C296.230469,130.827148 296.285156,130.802734 296.347656,130.802734 L296.576172,130.802734 C296.638672,130.802734 296.694336,130.827148 296.743164,130.875977 C296.791992,130.924805 296.816406,130.980468 296.816406,131.042969 L296.816406,131.201172 C296.816406,131.384767 296.858398,131.550781 296.942383,131.699219 C297.026368,131.847657 297.140624,131.975585 297.285156,132.083008 C297.429688,132.19043 297.599608,132.274414 297.794922,132.334961 C297.990235,132.395508 298.201171,132.425781 298.427734,132.425781 C298.923831,132.425781 299.313475,132.313478 299.59668,132.088867 C299.879884,131.864257 300.021484,131.587892 300.021484,131.259766 C300.021484,131.068358 299.969727,130.908204 299.866211,130.779297 C299.762695,130.65039 299.63086,130.543946 299.470703,130.459961 C299.310546,130.375976 299.132813,130.310547 298.9375,130.263672 C298.742187,130.216797 298.552735,130.181641 298.369141,130.158203 C298.103514,130.11914 297.846681,130.06543 297.598633,129.99707 C297.350585,129.928711 297.132813,129.832032 296.945312,129.707031 C296.757812,129.582031 296.605469,129.425782 296.488281,129.238281 C296.371093,129.05078 296.3125,128.816408 296.3125,128.535156 C296.3125,128.304686 296.371093,128.086915 296.488281,127.881836 C296.605469,127.676757 296.761718,127.500977 296.957031,127.354492 C297.152345,127.208007 297.377928,127.092774 297.633789,127.008789 C297.88965,126.924804 298.154296,126.882812 298.427734,126.882812 C298.701173,126.882812 298.960936,126.921875 299.207031,127 C299.453126,127.078125 299.672851,127.195312 299.866211,127.351562 C300.059571,127.507813 300.213867,127.696288 300.329102,127.916992 C300.444337,128.137696 300.501953,128.38867 300.501953,128.669922 C300.501953,128.759766 300.478516,128.824219 300.431641,128.863281 C300.384765,128.902344 300.328125,128.921875 300.261719,128.921875 L300.033203,128.921875 C299.970703,128.921875 299.915039,128.901367 299.866211,128.860352 C299.817383,128.819336 299.792969,128.75586 299.792969,128.669922 C299.792969,128.373045 299.6709,128.112306 299.426758,127.887695 C299.182616,127.663085 298.849611,127.550781 298.427734,127.550781 C298.001951,127.550781 297.663087,127.651366 297.411133,127.852539 C297.159178,128.053712 297.033203,128.281249 297.033203,128.535156 C297.033203,128.703126 297.075195,128.838867 297.15918,128.942383 C297.243164,129.045899 297.349609,129.129882 297.478516,129.194336 C297.607423,129.258789 297.751952,129.30957 297.912109,129.34668 C298.072266,129.383789 298.224609,129.414062 298.369141,129.4375 C298.615236,129.484375 298.877928,129.543945 299.157227,129.616211 C299.436525,129.688477 299.692382,129.790038 299.924805,129.920898 C300.157228,130.051758 300.349609,130.225585 300.501953,130.442383 C300.654298,130.659181 300.730469,130.931639 300.730469,131.259766 C300.730469,131.517579 300.676758,131.757811 300.569336,131.980469 C300.461914,132.203126 300.305665,132.398437 300.100586,132.566406 C299.895507,132.734376 299.651369,132.868164 299.368164,132.967773 C299.08496,133.067383 298.771486,133.117188 298.427734,133.117188 C298.123045,133.117188 297.833009,133.073243 297.557617,132.985352 C297.282225,132.89746 297.036134,132.771485 296.819336,132.607422 C296.602538,132.443359 296.430665,132.244142 296.303711,132.009766 C296.176757,131.775389 296.113281,131.505861 296.113281,131.201172 Z M301.169922,127.527344 L301.169922,127.298828 C301.169922,127.236328 301.194336,127.180664 301.243164,127.131836 C301.291992,127.083008 301.347656,127.058594 301.410156,127.058594 L302.382812,127.058594 C302.460938,127.058594 302.501953,127.019532 302.505859,126.941406 L302.505859,125.078125 C302.505859,125.015625 302.529297,124.959961 302.576172,124.911133 C302.623047,124.862304 302.679687,124.837891 302.746094,124.837891 L302.980469,124.837891 C303.042969,124.837891 303.098633,124.862304 303.147461,124.911133 C303.196289,124.959961 303.220703,125.015625 303.220703,125.078125 L303.220703,126.941406 C303.220703,127.019532 303.261718,127.058594 303.34375,127.058594 L304.855469,127.058594 C304.917969,127.058594 304.973633,127.083008 305.022461,127.131836 C305.071289,127.180664 305.095703,127.236328 305.095703,127.298828 L305.095703,127.527344 C305.095703,127.589844 305.071289,127.645508 305.022461,127.694336 C304.973633,127.743164 304.917969,127.767578 304.855469,127.767578 L303.34375,127.767578 C303.265625,127.767578 303.224609,127.808593 303.220703,127.890625 L303.220703,131.078125 C303.220703,131.503908 303.302734,131.818358 303.466797,132.021484 C303.63086,132.22461 303.929685,132.326172 304.363281,132.326172 L304.972656,132.326172 C305.035157,132.326172 305.09082,132.350586 305.139648,132.399414 C305.188477,132.448242 305.212891,132.503906 305.212891,132.566406 L305.212891,132.759766 C305.212891,132.822266 305.189453,132.877929 305.142578,132.926758 C305.095703,132.975586 305.039063,133 304.972656,133 L304.363281,133 C303.738278,133 303.272462,132.853517 302.96582,132.560547 C302.659178,132.267577 302.505859,131.773441 302.505859,131.078125 L302.505859,127.890625 C302.505859,127.8125 302.464844,127.771484 302.382812,127.767578 L301.410156,127.767578 C301.347656,127.767578 301.291992,127.743164 301.243164,127.694336 C301.194336,127.645508 301.169922,127.589844 301.169922,127.527344 Z M305.945312,131.201172 C305.945312,130.955077 305.989257,130.723634 306.077148,130.506836 C306.16504,130.290038 306.292968,130.103516 306.460938,129.947266 C306.628907,129.791015 306.836913,129.668946 307.084961,129.581055 C307.333009,129.493164 307.61328,129.449219 307.925781,129.449219 L309.642578,129.449219 C309.720704,129.449219 309.759766,129.408204 309.759766,129.326172 L309.759766,128.857422 C309.759766,128.466795 309.625001,128.149415 309.355469,127.905273 C309.085936,127.661132 308.738283,127.539062 308.3125,127.539062 C308.128905,127.539062 307.952149,127.565429 307.782227,127.618164 C307.612304,127.670899 307.463868,127.743164 307.336914,127.834961 C307.20996,127.926758 307.106446,128.036132 307.026367,128.163086 C306.946289,128.29004 306.90625,128.433593 306.90625,128.59375 C306.90625,128.699219 306.874024,128.759766 306.80957,128.775391 C306.745117,128.791016 306.685547,128.798828 306.630859,128.798828 L306.460938,128.798828 C306.30078,128.798828 306.220703,128.718751 306.220703,128.558594 C306.220703,128.277342 306.281249,128.033204 306.402344,127.826172 C306.523438,127.61914 306.683593,127.445313 306.882812,127.304688 C307.082032,127.164062 307.305663,127.058594 307.553711,126.988281 C307.801759,126.917968 308.054686,126.882812 308.3125,126.882812 C308.609376,126.882812 308.886717,126.921875 309.144531,127 C309.402345,127.078125 309.629882,127.199218 309.827148,127.363281 C310.024415,127.527345 310.180663,127.733397 310.295898,127.981445 C310.411133,128.229493 310.46875,128.525389 310.46875,128.869141 L310.46875,132.759766 C310.46875,132.822266 310.445313,132.877929 310.398438,132.926758 C310.351562,132.975586 310.294922,133 310.228516,133 L310.123047,133 C310.044921,133 309.988281,132.972657 309.953125,132.917969 C309.921875,132.871094 309.894531,132.817383 309.871094,132.756836 C309.847656,132.696289 309.794922,132.666016 309.712891,132.666016 C309.658203,132.666016 309.586915,132.689453 309.499023,132.736328 C309.411132,132.783203 309.302735,132.834961 309.173828,132.891602 C309.044921,132.948242 308.894532,133 308.722656,133.046875 C308.55078,133.09375 308.353517,133.117188 308.130859,133.117188 C307.76367,133.117188 307.441408,133.06543 307.164062,132.961914 C306.886717,132.858398 306.658204,132.718751 306.478516,132.542969 C306.298827,132.367187 306.16504,132.163087 306.077148,131.930664 C305.989257,131.698241 305.945312,131.455079 305.945312,131.201172 Z M306.654297,131.189453 C306.654297,131.404298 306.692382,131.589843 306.768555,131.746094 C306.844727,131.902345 306.948242,132.032226 307.079102,132.135742 C307.209962,132.239258 307.359374,132.317383 307.527344,132.370117 C307.695313,132.422852 307.876952,132.449219 308.072266,132.449219 C308.62305,132.449219 309.04785,132.32129 309.34668,132.06543 C309.645509,131.809569 309.794922,131.437502 309.794922,130.949219 L309.794922,130.228516 C309.794922,130.15039 309.75586,130.109375 309.677734,130.105469 L307.925781,130.105469 C307.589842,130.105469 307.293947,130.198241 307.038086,130.383789 C306.782225,130.569337 306.654297,130.837889 306.654297,131.189453 Z M311.810547,130.837891 C311.794922,130.599608 311.787109,130.320314 311.787109,130 C311.787109,129.679686 311.794922,129.400392 311.810547,129.162109 C311.833984,128.849608 311.906249,128.552736 312.027344,128.271484 C312.148438,127.990233 312.312499,127.748048 312.519531,127.544922 C312.726564,127.341796 312.974608,127.180665 313.263672,127.061523 C313.552736,126.942382 313.876951,126.882812 314.236328,126.882812 C314.572267,126.882812 314.877928,126.938476 315.15332,127.049805 C315.428712,127.161133 315.666991,127.310546 315.868164,127.498047 C316.069337,127.685548 316.223632,127.901366 316.331055,128.145508 C316.438477,128.38965 316.492188,128.648436 316.492188,128.921875 C316.492188,128.984375 316.473633,129.040039 316.436523,129.088867 C316.399414,129.137696 316.34961,129.162109 316.287109,129.162109 L316.011719,129.162109 C315.957031,129.162109 315.905274,129.145508 315.856445,129.112305 C315.807617,129.079101 315.783203,129.03125 315.783203,128.96875 C315.783203,128.792968 315.749024,128.621095 315.680664,128.453125 C315.612304,128.285155 315.512696,128.136719 315.381836,128.007812 C315.250976,127.878906 315.088868,127.776368 314.895508,127.700195 C314.702147,127.624023 314.482423,127.585938 314.236328,127.585938 C313.931639,127.585938 313.675782,127.638671 313.46875,127.744141 C313.261718,127.84961 313.091798,127.979491 312.958984,128.133789 C312.826171,128.288087 312.727539,128.458007 312.663086,128.643555 C312.598632,128.829102 312.558594,129.001952 312.542969,129.162109 C312.519531,129.408204 312.507812,129.687498 312.507812,130 C312.507812,130.312502 312.519531,130.591796 312.542969,130.837891 C312.558594,130.998048 312.598632,131.170898 312.663086,131.356445 C312.727539,131.541993 312.826171,131.711913 312.958984,131.866211 C313.091798,132.020509 313.261718,132.15039 313.46875,132.255859 C313.675782,132.361329 313.931639,132.414062 314.236328,132.414062 C314.501954,132.414062 314.730468,132.372071 314.921875,132.288086 C315.113282,132.204101 315.27246,132.095704 315.399414,131.962891 C315.526368,131.830077 315.620117,131.683595 315.680664,131.523438 C315.741211,131.36328 315.771484,131.203126 315.771484,131.042969 C315.771484,130.964843 315.795898,130.911133 315.844727,130.881836 C315.893555,130.852539 315.945312,130.837891 316,130.837891 L316.251953,130.837891 C316.314453,130.837891 316.370117,130.862304 316.418945,130.911133 C316.467774,130.959961 316.492188,131.015625 316.492188,131.078125 C316.492188,131.351564 316.438477,131.61035 316.331055,131.854492 C316.223632,132.098634 316.069337,132.314452 315.868164,132.501953 C315.666991,132.689454 315.428712,132.838867 315.15332,132.950195 C314.877928,133.061524 314.572267,133.117188 314.236328,133.117188 C313.876951,133.117188 313.552736,133.057618 313.263672,132.938477 C312.974608,132.819335 312.726564,132.658204 312.519531,132.455078 C312.312499,132.251952 312.148438,132.009767 312.027344,131.728516 C311.906249,131.447264 311.833984,131.150392 311.810547,130.837891 Z M317.78125,132.759766 L317.78125,124.755859 C317.78125,124.693359 317.805664,124.637696 317.854492,124.588867 C317.903321,124.540039 317.958984,124.515625 318.021484,124.515625 L318.25,124.515625 C318.3125,124.515625 318.368164,124.540039 318.416992,124.588867 C318.465821,124.637696 318.490234,124.693359 318.490234,124.755859 L318.490234,129.255859 C318.490234,129.28711 318.501953,129.304687 318.525391,129.308594 C318.548828,129.3125 318.568359,129.302734 318.583984,129.279297 L320.757812,127.158203 C320.789063,127.126953 320.831054,127.092774 320.883789,127.055664 C320.936524,127.018555 321.005859,127 321.091797,127 L321.308594,127 C321.445313,127 321.523437,127.049804 321.542969,127.149414 C321.5625,127.249024 321.541016,127.332031 321.478516,127.398438 L319.087891,129.736328 C318.982421,129.841797 318.982421,129.9375 319.087891,130.023438 L321.660156,132.578125 C321.722657,132.632813 321.753906,132.693359 321.753906,132.759766 C321.75,132.78711 321.744141,132.816406 321.736328,132.847656 C321.697265,132.949219 321.615235,133 321.490234,133 L321.25,133 C321.160156,133 321.085938,132.977539 321.027344,132.932617 C320.96875,132.887695 320.923828,132.84961 320.892578,132.818359 L318.583984,130.492188 C318.568359,130.476562 318.548828,130.46875 318.525391,130.46875 C318.501953,130.46875 318.490234,130.484375 318.490234,130.515625 L318.490234,132.759766 C318.490234,132.822266 318.465821,132.877929 318.416992,132.926758 C318.368164,132.975586 318.3125,133 318.25,133 L318.021484,133 C317.958984,133 317.903321,132.975586 317.854492,132.926758 C317.805664,132.877929 317.78125,132.822266 317.78125,132.759766 Z M322.65625,131.201172 L322.65625,131.042969 C322.65625,130.980468 322.679687,130.924805 322.726562,130.875977 C322.773438,130.827148 322.828125,130.802734 322.890625,130.802734 L323.119141,130.802734 C323.181641,130.802734 323.237304,130.827148 323.286133,130.875977 C323.334961,130.924805 323.359375,130.980468 323.359375,131.042969 L323.359375,131.201172 C323.359375,131.384767 323.401367,131.550781 323.485352,131.699219 C323.569336,131.847657 323.683593,131.975585 323.828125,132.083008 C323.972657,132.19043 324.142577,132.274414 324.337891,132.334961 C324.533204,132.395508 324.744139,132.425781 324.970703,132.425781 C325.466799,132.425781 325.856444,132.313478 326.139648,132.088867 C326.422853,131.864257 326.564453,131.587892 326.564453,131.259766 C326.564453,131.068358 326.512696,130.908204 326.40918,130.779297 C326.305664,130.65039 326.173829,130.543946 326.013672,130.459961 C325.853515,130.375976 325.675782,130.310547 325.480469,130.263672 C325.285155,130.216797 325.095704,130.181641 324.912109,130.158203 C324.646483,130.11914 324.38965,130.06543 324.141602,129.99707 C323.893553,129.928711 323.675782,129.832032 323.488281,129.707031 C323.30078,129.582031 323.148438,129.425782 323.03125,129.238281 C322.914062,129.05078 322.855469,128.816408 322.855469,128.535156 C322.855469,128.304686 322.914062,128.086915 323.03125,127.881836 C323.148438,127.676757 323.304687,127.500977 323.5,127.354492 C323.695313,127.208007 323.920897,127.092774 324.176758,127.008789 C324.432618,126.924804 324.697264,126.882812 324.970703,126.882812 C325.244142,126.882812 325.503905,126.921875 325.75,127 C325.996095,127.078125 326.215819,127.195312 326.40918,127.351562 C326.60254,127.507813 326.756835,127.696288 326.87207,127.916992 C326.987305,128.137696 327.044922,128.38867 327.044922,128.669922 C327.044922,128.759766 327.021485,128.824219 326.974609,128.863281 C326.927734,128.902344 326.871094,128.921875 326.804688,128.921875 L326.576172,128.921875 C326.513672,128.921875 326.458008,128.901367 326.40918,128.860352 C326.360351,128.819336 326.335938,128.75586 326.335938,128.669922 C326.335938,128.373045 326.213868,128.112306 325.969727,127.887695 C325.725585,127.663085 325.39258,127.550781 324.970703,127.550781 C324.54492,127.550781 324.206056,127.651366 323.954102,127.852539 C323.702147,128.053712 323.576172,128.281249 323.576172,128.535156 C323.576172,128.703126 323.618164,128.838867 323.702148,128.942383 C323.786133,129.045899 323.892577,129.129882 324.021484,129.194336 C324.150391,129.258789 324.294921,129.30957 324.455078,129.34668 C324.615235,129.383789 324.767577,129.414062 324.912109,129.4375 C325.158204,129.484375 325.420897,129.543945 325.700195,129.616211 C325.979494,129.688477 326.23535,129.790038 326.467773,129.920898 C326.700196,130.051758 326.892577,130.225585 327.044922,130.442383 C327.197266,130.659181 327.273438,130.931639 327.273438,131.259766 C327.273438,131.517579 327.219727,131.757811 327.112305,131.980469 C327.004882,132.203126 326.848634,132.398437 326.643555,132.566406 C326.438476,132.734376 326.194337,132.868164 325.911133,132.967773 C325.627928,133.067383 325.314455,133.117188 324.970703,133.117188 C324.666014,133.117188 324.375978,133.073243 324.100586,132.985352 C323.825194,132.89746 323.579103,132.771485 323.362305,132.607422 C323.145507,132.443359 322.973633,132.244142 322.84668,132.009766 C322.719726,131.775389 322.65625,131.505861 322.65625,131.201172 Z" id="Larger-computer-stac" fill="#292A2B"></path>
        <path d="M121.779297,132.759766 L121.779297,124.837891 C121.779297,124.77539 121.803711,124.719727 121.852539,124.670898 C121.901367,124.62207 121.957031,124.597656 122.019531,124.597656 L124.058594,124.597656 C124.402345,124.597656 124.728514,124.664062 125.037109,124.796875 C125.345705,124.929688 125.614257,125.11035 125.842773,125.338867 C126.07129,125.567384 126.250976,125.834959 126.381836,126.141602 C126.512696,126.448244 126.578125,126.773436 126.578125,127.117188 C126.578125,127.468752 126.512696,127.796873 126.381836,128.101562 C126.250976,128.406252 126.07129,128.67285 125.842773,128.901367 C125.614257,129.129884 125.345705,129.310546 125.037109,129.443359 C124.728514,129.576173 124.402345,129.642578 124.058594,129.642578 L122.669922,129.642578 C122.591796,129.642578 122.550781,129.68164 122.546875,129.759766 L122.546875,132.759766 C122.546875,132.822266 122.523438,132.877929 122.476562,132.926758 C122.429687,132.975586 122.373047,133 122.306641,133 L122.019531,133 C121.957031,133 121.901367,132.975586 121.852539,132.926758 C121.803711,132.877929 121.779297,132.822266 121.779297,132.759766 Z M122.546875,128.751953 C122.546875,128.830079 122.58789,128.869141 122.669922,128.869141 L124.058594,128.869141 C124.296876,128.869141 124.52246,128.823243 124.735352,128.731445 C124.948243,128.639648 125.134765,128.513673 125.294922,128.353516 C125.455079,128.193359 125.581054,128.007814 125.672852,127.796875 C125.764649,127.585936 125.810547,127.359376 125.810547,127.117188 C125.810547,126.878905 125.764649,126.653321 125.672852,126.44043 C125.581054,126.227538 125.455079,126.041993 125.294922,125.883789 C125.134765,125.725585 124.94922,125.59961 124.738281,125.505859 C124.527343,125.412109 124.300782,125.365234 124.058594,125.365234 L122.669922,125.365234 C122.591796,125.365234 122.550781,125.40625 122.546875,125.488281 L122.546875,128.751953 Z M127.597656,132.759766 L127.597656,124.755859 C127.597656,124.693359 127.62207,124.637696 127.670898,124.588867 C127.719727,124.540039 127.77539,124.515625 127.837891,124.515625 L128.066406,124.515625 C128.128907,124.515625 128.18457,124.540039 128.233398,124.588867 C128.282227,124.637696 128.306641,124.693359 128.306641,124.755859 L128.306641,126.929688 C128.306641,126.984375 128.328125,127.040039 128.371094,127.09668 C128.414063,127.153321 128.480468,127.181641 128.570312,127.181641 C128.625,127.181641 128.690429,127.165039 128.766602,127.131836 C128.842774,127.098633 128.933593,127.064453 129.039062,127.029297 C129.144532,126.99414 129.262695,126.960938 129.393555,126.929688 C129.524415,126.898437 129.677733,126.882812 129.853516,126.882812 C130.166017,126.882812 130.452147,126.938476 130.711914,127.049805 C130.971681,127.161133 131.191405,127.312499 131.371094,127.503906 C131.550782,127.695313 131.690429,127.916991 131.790039,128.168945 C131.889649,128.4209 131.939453,128.687499 131.939453,128.96875 L131.939453,132.759766 C131.939453,132.822266 131.916016,132.877929 131.869141,132.926758 C131.822265,132.975586 131.767578,133 131.705078,133 L131.476562,133 C131.414062,133 131.358399,132.975586 131.30957,132.926758 C131.260742,132.877929 131.236328,132.822266 131.236328,132.759766 L131.236328,128.96875 C131.236328,128.562498 131.099611,128.23047 130.826172,127.972656 C130.552733,127.714842 130.201174,127.585938 129.771484,127.585938 C129.55664,127.585938 129.358399,127.620117 129.176758,127.688477 C128.995116,127.756836 128.840821,127.851562 128.713867,127.972656 C128.586913,128.093751 128.487305,128.234374 128.415039,128.394531 C128.342773,128.554688 128.306641,128.726562 128.306641,128.910156 L128.306641,132.759766 C128.306641,132.822266 128.282227,132.877929 128.233398,132.926758 C128.18457,132.975586 128.128907,133 128.066406,133 L127.837891,133 C127.77539,133 127.719727,132.975586 127.670898,132.926758 C127.62207,132.877929 127.597656,132.822266 127.597656,132.759766 Z M133.076172,130.837891 C133.060547,130.599608 133.052734,130.320314 133.052734,130 C133.052734,129.679686 133.060547,129.400392 133.076172,129.162109 C133.099609,128.849608 133.171874,128.552736 133.292969,128.271484 C133.414063,127.990233 133.578124,127.748048 133.785156,127.544922 C133.992189,127.341796 134.240233,127.180665 134.529297,127.061523 C134.818361,126.942382 135.142576,126.882812 135.501953,126.882812 C135.86133,126.882812 136.184569,126.942382 136.47168,127.061523 C136.75879,127.180665 137.006835,127.341796 137.21582,127.544922 C137.424806,127.748048 137.588867,127.990233 137.708008,128.271484 C137.827149,128.552736 137.90039,128.849608 137.927734,129.162109 C137.943359,129.400392 137.951172,129.679686 137.951172,130 C137.951172,130.320314 137.943359,130.599608 137.927734,130.837891 C137.904297,131.150392 137.832032,131.447264 137.710938,131.728516 C137.589843,132.009767 137.424806,132.251952 137.21582,132.455078 C137.006835,132.658204 136.75879,132.819335 136.47168,132.938477 C136.184569,133.057618 135.86133,133.117188 135.501953,133.117188 C135.142576,133.117188 134.818361,133.057618 134.529297,132.938477 C134.240233,132.819335 133.992189,132.658204 133.785156,132.455078 C133.578124,132.251952 133.414063,132.009767 133.292969,131.728516 C133.171874,131.447264 133.099609,131.150392 133.076172,130.837891 Z M133.808594,129.162109 C133.785156,129.408204 133.773438,129.687498 133.773438,130 C133.773438,130.312502 133.785156,130.591796 133.808594,130.837891 C133.824219,130.998048 133.864257,131.170898 133.928711,131.356445 C133.993164,131.541993 134.091796,131.711913 134.224609,131.866211 C134.357423,132.020509 134.527343,132.15039 134.734375,132.255859 C134.941407,132.361329 135.197264,132.414062 135.501953,132.414062 C135.79883,132.414062 136.052733,132.361329 136.263672,132.255859 C136.47461,132.15039 136.646484,132.020509 136.779297,131.866211 C136.91211,131.711913 137.010742,131.541993 137.075195,131.356445 C137.139649,131.170898 137.179687,130.998048 137.195312,130.837891 C137.21875,130.591796 137.230469,130.312502 137.230469,130 C137.230469,129.687498 137.21875,129.408204 137.195312,129.162109 C137.179687,129.001952 137.139649,128.829102 137.075195,128.643555 C137.010742,128.458007 136.91211,128.288087 136.779297,128.133789 C136.646484,127.979491 136.47461,127.84961 136.263672,127.744141 C136.052733,127.638671 135.79883,127.585938 135.501953,127.585938 C135.197264,127.585938 134.941407,127.638671 134.734375,127.744141 C134.527343,127.84961 134.357423,127.979491 134.224609,128.133789 C134.091796,128.288087 133.993164,128.458007 133.928711,128.643555 C133.864257,128.829102 133.824219,129.001952 133.808594,129.162109 Z M139.257812,132.759766 L139.257812,127.240234 C139.257812,127.177734 139.28125,127.122071 139.328125,127.073242 C139.375,127.024414 139.43164,127 139.498047,127 L139.691406,127 C139.746094,127 139.800781,127.027343 139.855469,127.082031 C139.894531,127.121094 139.93457,127.163086 139.975586,127.208008 C140.016602,127.25293 140.072265,127.275391 140.142578,127.275391 C140.232422,127.275391 140.315429,127.25586 140.391602,127.216797 C140.467774,127.177734 140.555664,127.131836 140.655273,127.079102 C140.754883,127.026367 140.876952,126.980469 141.021484,126.941406 C141.166016,126.902344 141.349608,126.882812 141.572266,126.882812 C141.884767,126.882812 142.17285,126.926757 142.436523,127.014648 C142.700197,127.10254 142.927733,127.234374 143.119141,127.410156 C143.310548,127.585938 143.458984,127.80371 143.564453,128.063477 C143.669922,128.323243 143.722656,128.624998 143.722656,128.96875 L143.722656,132.759766 C143.722656,132.822266 143.698242,132.877929 143.649414,132.926758 C143.600586,132.975586 143.544922,133 143.482422,133 L143.253906,133 C143.191406,133 143.135742,132.975586 143.086914,132.926758 C143.038086,132.877929 143.013672,132.822266 143.013672,132.759766 L143.013672,128.96875 C143.013672,128.464841 142.867189,128.108399 142.574219,127.899414 C142.281249,127.690429 141.919924,127.585938 141.490234,127.585938 C141.27539,127.585938 141.075196,127.620117 140.889648,127.688477 C140.704101,127.756836 140.541993,127.851562 140.40332,127.972656 C140.264648,128.093751 140.157227,128.234374 140.081055,128.394531 C140.004882,128.554688 139.966797,128.726562 139.966797,128.910156 L139.966797,132.759766 C139.966797,132.822266 139.942383,132.877929 139.893555,132.926758 C139.844726,132.975586 139.789063,133 139.726562,133 L139.498047,133 C139.435547,133 139.379883,132.975586 139.331055,132.926758 C139.282226,132.877929 139.257812,132.822266 139.257812,132.759766 Z M144.859375,130.837891 C144.84375,130.599608 144.835938,130.320314 144.835938,130 C144.835938,129.679686 144.84375,129.400392 144.859375,129.162109 C144.882813,128.849608 144.957031,128.552736 145.082031,128.271484 C145.207032,127.990233 145.374999,127.748048 145.585938,127.544922 C145.796876,127.341796 146.048827,127.180665 146.341797,127.061523 C146.634767,126.942382 146.960936,126.882812 147.320312,126.882812 C147.656252,126.882812 147.970702,126.946288 148.263672,127.073242 C148.556642,127.200196 148.810546,127.372069 149.025391,127.588867 C149.240235,127.805665 149.410156,128.059569 149.535156,128.350586 C149.660157,128.641603 149.722656,128.95117 149.722656,129.279297 L149.722656,130.046875 C149.722656,130.109375 149.698242,130.165039 149.649414,130.213867 C149.600586,130.262696 149.544922,130.287109 149.482422,130.287109 L145.673828,130.287109 C145.595703,130.287109 145.556641,130.328125 145.556641,130.410156 C145.556641,130.69922 145.59082,130.964843 145.65918,131.207031 C145.727539,131.44922 145.833007,131.660155 145.975586,131.839844 C146.118165,132.019532 146.299804,132.160156 146.520508,132.261719 C146.741212,132.363282 147.007811,132.414062 147.320312,132.414062 C147.550782,132.414062 147.756835,132.381836 147.938477,132.317383 C148.120118,132.252929 148.276367,132.166993 148.407227,132.05957 C148.538087,131.952148 148.645507,131.832032 148.729492,131.699219 C148.813477,131.566406 148.878906,131.427735 148.925781,131.283203 C148.949219,131.205078 148.987304,131.151367 149.040039,131.12207 C149.092774,131.092773 149.148437,131.078125 149.207031,131.078125 L149.441406,131.078125 C149.503907,131.078125 149.557617,131.09668 149.602539,131.133789 C149.647461,131.170899 149.662109,131.232421 149.646484,131.318359 C149.607422,131.583986 149.524415,131.827147 149.397461,132.047852 C149.270507,132.268556 149.104493,132.458007 148.899414,132.616211 C148.694335,132.774415 148.458009,132.89746 148.19043,132.985352 C147.92285,133.073243 147.632814,133.117188 147.320312,133.117188 C146.960936,133.117188 146.634767,133.057618 146.341797,132.938477 C146.048827,132.819335 145.796876,132.658204 145.585938,132.455078 C145.374999,132.251952 145.207032,132.009767 145.082031,131.728516 C144.957031,131.447264 144.882813,131.150392 144.859375,130.837891 Z M145.580078,129.496094 C145.580078,129.574219 145.621093,129.613281 145.703125,129.613281 L148.9375,129.613281 C149.015625,129.613281 149.056641,129.574219 149.060547,129.496094 C149.060547,129.191405 149.016602,128.9209 148.928711,128.68457 C148.84082,128.448241 148.718751,128.248048 148.5625,128.083984 C148.406249,127.919921 148.223634,127.795899 148.014648,127.711914 C147.805663,127.627929 147.578126,127.585938 147.332031,127.585938 C146.796872,127.585938 146.371095,127.749998 146.054688,128.078125 C145.73828,128.406252 145.580078,128.878903 145.580078,129.496094 Z M150.607422,131.201172 L150.607422,131.042969 C150.607422,130.980468 150.630859,130.924805 150.677734,130.875977 C150.72461,130.827148 150.779297,130.802734 150.841797,130.802734 L151.070312,130.802734 C151.132813,130.802734 151.188476,130.827148 151.237305,130.875977 C151.286133,130.924805 151.310547,130.980468 151.310547,131.042969 L151.310547,131.201172 C151.310547,131.384767 151.352539,131.550781 151.436523,131.699219 C151.520508,131.847657 151.634765,131.975585 151.779297,132.083008 C151.923829,132.19043 152.093749,132.274414 152.289062,132.334961 C152.484376,132.395508 152.695311,132.425781 152.921875,132.425781 C153.417971,132.425781 153.807616,132.313478 154.09082,132.088867 C154.374025,131.864257 154.515625,131.587892 154.515625,131.259766 C154.515625,131.068358 154.463868,130.908204 154.360352,130.779297 C154.256835,130.65039 154.125001,130.543946 153.964844,130.459961 C153.804687,130.375976 153.626954,130.310547 153.431641,130.263672 C153.236327,130.216797 153.046876,130.181641 152.863281,130.158203 C152.597655,130.11914 152.340822,130.06543 152.092773,129.99707 C151.844725,129.928711 151.626954,129.832032 151.439453,129.707031 C151.251952,129.582031 151.09961,129.425782 150.982422,129.238281 C150.865234,129.05078 150.806641,128.816408 150.806641,128.535156 C150.806641,128.304686 150.865234,128.086915 150.982422,127.881836 C151.09961,127.676757 151.255858,127.500977 151.451172,127.354492 C151.646485,127.208007 151.872069,127.092774 152.12793,127.008789 C152.38379,126.924804 152.648436,126.882812 152.921875,126.882812 C153.195314,126.882812 153.455077,126.921875 153.701172,127 C153.947267,127.078125 154.166991,127.195312 154.360352,127.351562 C154.553712,127.507813 154.708007,127.696288 154.823242,127.916992 C154.938477,128.137696 154.996094,128.38867 154.996094,128.669922 C154.996094,128.759766 154.972656,128.824219 154.925781,128.863281 C154.878906,128.902344 154.822266,128.921875 154.755859,128.921875 L154.527344,128.921875 C154.464843,128.921875 154.40918,128.901367 154.360352,128.860352 C154.311523,128.819336 154.287109,128.75586 154.287109,128.669922 C154.287109,128.373045 154.16504,128.112306 153.920898,127.887695 C153.676757,127.663085 153.343752,127.550781 152.921875,127.550781 C152.496092,127.550781 152.157228,127.651366 151.905273,127.852539 C151.653319,128.053712 151.527344,128.281249 151.527344,128.535156 C151.527344,128.703126 151.569336,128.838867 151.65332,128.942383 C151.737305,129.045899 151.843749,129.129882 151.972656,129.194336 C152.101563,129.258789 152.246093,129.30957 152.40625,129.34668 C152.566407,129.383789 152.718749,129.414062 152.863281,129.4375 C153.109376,129.484375 153.372069,129.543945 153.651367,129.616211 C153.930665,129.688477 154.186522,129.790038 154.418945,129.920898 C154.651368,130.051758 154.843749,130.225585 154.996094,130.442383 C155.148438,130.659181 155.224609,130.931639 155.224609,131.259766 C155.224609,131.517579 155.170899,131.757811 155.063477,131.980469 C154.956054,132.203126 154.799806,132.398437 154.594727,132.566406 C154.389647,132.734376 154.145509,132.868164 153.862305,132.967773 C153.5791,133.067383 153.265627,133.117188 152.921875,133.117188 C152.617186,133.117188 152.32715,133.073243 152.051758,132.985352 C151.776366,132.89746 151.530275,132.771485 151.313477,132.607422 C151.096679,132.443359 150.924805,132.244142 150.797852,132.009766 C150.670898,131.775389 150.607422,131.505861 150.607422,131.201172 Z" id="Phones" fill="#292A2B"></path>
        <path d="M26.421875,130.597656 L26.421875,130.410156 C26.421875,130.347656 26.4453123,130.291992 26.4921875,130.243164 C26.5390627,130.194336 26.5957028,130.169922 26.6621094,130.169922 L26.9609375,130.169922 C27.0234378,130.169922 27.0791013,130.193359 27.1279297,130.240234 C27.1767581,130.28711 27.2011719,130.34375 27.2011719,130.410156 L27.2011719,130.597656 C27.2011719,130.804689 27.2392574,131.012694 27.3154297,131.22168 C27.3916019,131.430665 27.5058586,131.617187 27.6582031,131.78125 C27.8105476,131.945313 27.9980458,132.077148 28.2207031,132.176758 C28.4433605,132.276368 28.7031235,132.326172 29,132.326172 C29.550784,132.326172 29.9882796,132.166017 30.3125,131.845703 C30.6367204,131.525389 30.7988281,131.109378 30.7988281,130.597656 C30.7988281,130.324217 30.750977,130.094727 30.6552734,129.90918 C30.5595698,129.723632 30.4218759,129.562501 30.2421875,129.425781 C30.0624991,129.289062 29.8408216,129.174805 29.5771484,129.083008 C29.3134752,128.99121 29.0097673,128.904297 28.6660156,128.822266 C28.4511708,128.77539 28.2226575,128.706055 27.9804688,128.614258 C27.73828,128.52246 27.5195322,128.398438 27.3242188,128.242188 C27.1289053,128.085937 26.9677741,127.887697 26.8408203,127.647461 C26.7138666,127.407225 26.6503906,127.11133 26.6503906,126.759766 C26.6503906,126.400389 26.7138666,126.081056 26.8408203,125.801758 C26.9677741,125.52246 27.1396474,125.286134 27.3564453,125.092773 C27.5732433,124.899413 27.8232408,124.75293 28.1064453,124.65332 C28.3896499,124.55371 28.6874984,124.503906 29,124.503906 C29.3515643,124.503906 29.6718736,124.563476 29.9609375,124.682617 C30.2500014,124.801758 30.4960927,124.963866 30.6992188,125.168945 C30.9023448,125.374024 31.0595698,125.612303 31.1708984,125.883789 C31.2822271,126.155275 31.3378906,126.447264 31.3378906,126.759766 L31.3378906,126.917969 C31.3378906,126.980469 31.3144534,127.036133 31.2675781,127.084961 C31.2207029,127.133789 31.1640628,127.158203 31.0976562,127.158203 L30.8105469,127.158203 C30.7480466,127.158203 30.6923831,127.133789 30.6435547,127.084961 C30.5947263,127.036133 30.5703125,126.980469 30.5703125,126.917969 L30.5703125,126.759766 C30.5703125,126.544921 30.5302738,126.347657 30.4501953,126.167969 C30.3701168,125.98828 30.2607429,125.832032 30.1220703,125.699219 C29.9833977,125.566406 29.8173838,125.461914 29.6240234,125.385742 C29.4306631,125.30957 29.2226574,125.271484 29,125.271484 C28.7343737,125.271484 28.5019541,125.313476 28.3027344,125.397461 C28.1035146,125.481446 27.9394538,125.593749 27.8105469,125.734375 C27.68164,125.875001 27.5859378,126.035155 27.5234375,126.214844 C27.4609372,126.394532 27.4296875,126.576171 27.4296875,126.759766 C27.4296875,127.033204 27.4931634,127.249999 27.6201172,127.410156 C27.7470709,127.570313 27.9072256,127.698242 28.1005859,127.793945 C28.2939463,127.889649 28.5039051,127.964843 28.7304688,128.019531 C28.9570324,128.074219 29.1757802,128.134765 29.3867188,128.201172 C29.7070329,128.298829 30.0029283,128.409179 30.2744141,128.532227 C30.5458998,128.655274 30.7773428,128.808593 30.96875,128.992188 C31.1601572,129.175782 31.3095698,129.39746 31.4169922,129.657227 C31.5244146,129.916993 31.578125,130.230467 31.578125,130.597656 C31.578125,130.988283 31.5087898,131.337889 31.3701172,131.646484 C31.2314446,131.95508 31.0419934,132.217772 30.8017578,132.43457 C30.5615222,132.651368 30.2851578,132.815429 29.9726562,132.926758 C29.6601547,133.038086 29.3359392,133.09375 29,133.09375 C28.6171856,133.09375 28.2656266,133.028321 27.9453125,132.897461 C27.6249984,132.766601 27.3525402,132.586915 27.1279297,132.358398 C26.9033192,132.129882 26.7294928,131.865236 26.6064453,131.564453 C26.4833978,131.26367 26.421875,130.941408 26.421875,130.597656 Z M32.5390625,130.837891 C32.5234374,130.599608 32.515625,130.320314 32.515625,130 C32.515625,129.679686 32.5234374,129.400392 32.5390625,129.162109 C32.5625001,128.849608 32.6367181,128.552736 32.7617188,128.271484 C32.8867194,127.990233 33.0546864,127.748048 33.265625,127.544922 C33.4765636,127.341796 33.7285142,127.180665 34.0214844,127.061523 C34.3144546,126.942382 34.6406232,126.882812 35,126.882812 C35.3359392,126.882812 35.6503892,126.946288 35.9433594,127.073242 C36.2363296,127.200196 36.4902333,127.372069 36.7050781,127.588867 C36.9199229,127.805665 37.0898431,128.059569 37.2148438,128.350586 C37.3398444,128.641603 37.4023438,128.95117 37.4023438,129.279297 L37.4023438,130.046875 C37.4023438,130.109375 37.3779299,130.165039 37.3291016,130.213867 C37.2802732,130.262696 37.2246097,130.287109 37.1621094,130.287109 L33.3535156,130.287109 C33.2753902,130.287109 33.2363281,130.328125 33.2363281,130.410156 C33.2363281,130.69922 33.2705075,130.964843 33.3388672,131.207031 C33.4072269,131.44922 33.5126946,131.660155 33.6552734,131.839844 C33.7978523,132.019532 33.9794911,132.160156 34.2001953,132.261719 C34.4208995,132.363282 34.6874984,132.414062 35,132.414062 C35.2304699,132.414062 35.4365225,132.381836 35.6181641,132.317383 C35.7998056,132.252929 35.956054,132.166993 36.0869141,132.05957 C36.2177741,131.952148 36.3251949,131.832032 36.4091797,131.699219 C36.4931645,131.566406 36.5585935,131.427735 36.6054688,131.283203 C36.6289064,131.205078 36.6669919,131.151367 36.7197266,131.12207 C36.7724612,131.092773 36.8281247,131.078125 36.8867188,131.078125 L37.1210938,131.078125 C37.1835941,131.078125 37.2373045,131.09668 37.2822266,131.133789 C37.3271487,131.170899 37.341797,131.232421 37.3261719,131.318359 C37.2871092,131.583986 37.2041022,131.827147 37.0771484,132.047852 C36.9501947,132.268556 36.7841807,132.458007 36.5791016,132.616211 C36.3740224,132.774415 36.1376967,132.89746 35.8701172,132.985352 C35.6025377,133.073243 35.3125016,133.117188 35,133.117188 C34.6406232,133.117188 34.3144546,133.057618 34.0214844,132.938477 C33.7285142,132.819335 33.4765636,132.658204 33.265625,132.455078 C33.0546864,132.251952 32.8867194,132.009767 32.7617188,131.728516 C32.6367181,131.447264 32.5625001,131.150392 32.5390625,130.837891 Z M33.2597656,129.496094 C33.2597656,129.574219 33.3007808,129.613281 33.3828125,129.613281 L36.6171875,129.613281 C36.6953129,129.613281 36.7363281,129.574219 36.7402344,129.496094 C36.7402344,129.191405 36.6962895,128.9209 36.6083984,128.68457 C36.5205074,128.448241 36.3984383,128.248048 36.2421875,128.083984 C36.0859367,127.919921 35.9033214,127.795899 35.6943359,127.711914 C35.4853505,127.627929 35.2578137,127.585938 35.0117188,127.585938 C34.4765598,127.585938 34.0507828,127.749998 33.734375,128.078125 C33.4179672,128.406252 33.2597656,128.878903 33.2597656,129.496094 Z M38.6210938,132.759766 L38.6210938,127.240234 C38.6210938,127.177734 38.644531,127.122071 38.6914062,127.073242 C38.7382815,127.024414 38.7949215,127 38.8613281,127 L39.0546875,127 C39.1093753,127 39.1640622,127.027343 39.21875,127.082031 C39.2578127,127.121094 39.2978514,127.163086 39.3388672,127.208008 C39.379883,127.25293 39.4355465,127.275391 39.5058594,127.275391 C39.5957036,127.275391 39.6787106,127.25586 39.7548828,127.216797 C39.8310551,127.177734 39.9189448,127.131836 40.0185547,127.079102 C40.1181646,127.026367 40.2402337,126.980469 40.3847656,126.941406 C40.5292976,126.902344 40.7128895,126.882812 40.9355469,126.882812 C41.2480484,126.882812 41.5361315,126.926757 41.7998047,127.014648 C42.0634779,127.10254 42.2910147,127.234374 42.4824219,127.410156 C42.6738291,127.585938 42.8222651,127.80371 42.9277344,128.063477 C43.0332037,128.323243 43.0859375,128.624998 43.0859375,128.96875 L43.0859375,132.759766 C43.0859375,132.822266 43.0615237,132.877929 43.0126953,132.926758 C42.9638669,132.975586 42.9082034,133 42.8457031,133 L42.6171875,133 C42.5546872,133 42.4990237,132.975586 42.4501953,132.926758 C42.4013669,132.877929 42.3769531,132.822266 42.3769531,132.759766 L42.3769531,128.96875 C42.3769531,128.464841 42.2304702,128.108399 41.9375,127.899414 C41.6445298,127.690429 41.2832053,127.585938 40.8535156,127.585938 C40.6386708,127.585938 40.4384775,127.620117 40.2529297,127.688477 C40.0673819,127.756836 39.9052741,127.851562 39.7666016,127.972656 C39.627929,128.093751 39.5205082,128.234374 39.4443359,128.394531 C39.3681637,128.554688 39.3300781,128.726562 39.3300781,128.910156 L39.3300781,132.759766 C39.3300781,132.822266 39.3056643,132.877929 39.2568359,132.926758 C39.2080076,132.975586 39.1523441,133 39.0898438,133 L38.8613281,133 C38.7988278,133 38.7431643,132.975586 38.6943359,132.926758 C38.6455076,132.877929 38.6210938,132.822266 38.6210938,132.759766 Z M44.0703125,131.201172 L44.0703125,131.042969 C44.0703125,130.980468 44.0937498,130.924805 44.140625,130.875977 C44.1875002,130.827148 44.2421872,130.802734 44.3046875,130.802734 L44.5332031,130.802734 C44.5957034,130.802734 44.6513669,130.827148 44.7001953,130.875977 C44.7490237,130.924805 44.7734375,130.980468 44.7734375,131.042969 L44.7734375,131.201172 C44.7734375,131.384767 44.8154293,131.550781 44.8994141,131.699219 C44.9833989,131.847657 45.0976555,131.975585 45.2421875,132.083008 C45.3867195,132.19043 45.5566396,132.274414 45.7519531,132.334961 C45.9472666,132.395508 46.158202,132.425781 46.3847656,132.425781 C46.8808619,132.425781 47.2705064,132.313478 47.5537109,132.088867 C47.8369155,131.864257 47.9785156,131.587892 47.9785156,131.259766 C47.9785156,131.068358 47.9267583,130.908204 47.8232422,130.779297 C47.719726,130.65039 47.5878914,130.543946 47.4277344,130.459961 C47.2675773,130.375976 47.0898447,130.310547 46.8945312,130.263672 C46.6992178,130.216797 46.5097665,130.181641 46.3261719,130.158203 C46.0605455,130.11914 45.8037122,130.06543 45.5556641,129.99707 C45.3076159,129.928711 45.0898447,129.832032 44.9023438,129.707031 C44.7148428,129.582031 44.5625006,129.425782 44.4453125,129.238281 C44.3281244,129.05078 44.2695312,128.816408 44.2695312,128.535156 C44.2695312,128.304686 44.3281244,128.086915 44.4453125,127.881836 C44.5625006,127.676757 44.718749,127.500977 44.9140625,127.354492 C45.109376,127.208007 45.3349597,127.092774 45.5908203,127.008789 C45.846681,126.924804 46.1113268,126.882812 46.3847656,126.882812 C46.6582045,126.882812 46.9179675,126.921875 47.1640625,127 C47.4101575,127.078125 47.6298818,127.195312 47.8232422,127.351562 C48.0166025,127.507813 48.1708979,127.696288 48.2861328,127.916992 C48.4013678,128.137696 48.4589844,128.38867 48.4589844,128.669922 C48.4589844,128.759766 48.4355471,128.824219 48.3886719,128.863281 C48.3417966,128.902344 48.2851566,128.921875 48.21875,128.921875 L47.9902344,128.921875 C47.9277341,128.921875 47.8720706,128.901367 47.8232422,128.860352 C47.7744138,128.819336 47.75,128.75586 47.75,128.669922 C47.75,128.373045 47.6279309,128.112306 47.3837891,127.887695 C47.1396472,127.663085 46.8066427,127.550781 46.3847656,127.550781 C45.9589822,127.550781 45.6201184,127.651366 45.3681641,127.852539 C45.1162097,128.053712 44.9902344,128.281249 44.9902344,128.535156 C44.9902344,128.703126 45.0322261,128.838867 45.1162109,128.942383 C45.2001957,129.045899 45.30664,129.129882 45.4355469,129.194336 C45.5644538,129.258789 45.7089836,129.30957 45.8691406,129.34668 C46.0292977,129.383789 46.1816399,129.414062 46.3261719,129.4375 C46.5722669,129.484375 46.8349595,129.543945 47.1142578,129.616211 C47.3935561,129.688477 47.6494129,129.790038 47.8818359,129.920898 C48.114259,130.051758 48.3066399,130.225585 48.4589844,130.442383 C48.6113289,130.659181 48.6875,130.931639 48.6875,131.259766 C48.6875,131.517579 48.6337896,131.757811 48.5263672,131.980469 C48.4189448,132.203126 48.2626963,132.398437 48.0576172,132.566406 C47.852538,132.734376 47.6083999,132.868164 47.3251953,132.967773 C47.0419908,133.067383 46.7285173,133.117188 46.3847656,133.117188 C46.0800766,133.117188 45.7900404,133.073243 45.5146484,132.985352 C45.2392564,132.89746 44.9931651,132.771485 44.7763672,132.607422 C44.5595692,132.443359 44.3876959,132.244142 44.2607422,132.009766 C44.1337884,131.775389 44.0703125,131.505861 44.0703125,131.201172 Z M49.6074219,130.837891 C49.5917968,130.599608 49.5839844,130.320314 49.5839844,130 C49.5839844,129.679686 49.5917968,129.400392 49.6074219,129.162109 C49.6308595,128.849608 49.7031244,128.552736 49.8242188,128.271484 C49.9453131,127.990233 50.109374,127.748048 50.3164062,127.544922 C50.5234385,127.341796 50.7714829,127.180665 51.0605469,127.061523 C51.3496108,126.942382 51.6738263,126.882812 52.0332031,126.882812 C52.3925799,126.882812 52.7158189,126.942382 53.0029297,127.061523 C53.2900405,127.180665 53.5380849,127.341796 53.7470703,127.544922 C53.9560557,127.748048 54.1201166,127.990233 54.2392578,128.271484 C54.358399,128.552736 54.4316405,128.849608 54.4589844,129.162109 C54.4746095,129.400392 54.4824219,129.679686 54.4824219,130 C54.4824219,130.320314 54.4746095,130.599608 54.4589844,130.837891 C54.4355468,131.150392 54.3632819,131.447264 54.2421875,131.728516 C54.1210931,132.009767 53.9560557,132.251952 53.7470703,132.455078 C53.5380849,132.658204 53.2900405,132.819335 53.0029297,132.938477 C52.7158189,133.057618 52.3925799,133.117188 52.0332031,133.117188 C51.6738263,133.117188 51.3496108,133.057618 51.0605469,132.938477 C50.7714829,132.819335 50.5234385,132.658204 50.3164062,132.455078 C50.109374,132.251952 49.9453131,132.009767 49.8242188,131.728516 C49.7031244,131.447264 49.6308595,131.150392 49.6074219,130.837891 Z M50.3398438,129.162109 C50.3164061,129.408204 50.3046875,129.687498 50.3046875,130 C50.3046875,130.312502 50.3164061,130.591796 50.3398438,130.837891 C50.3554688,130.998048 50.3955075,131.170898 50.4599609,131.356445 C50.5244144,131.541993 50.6230462,131.711913 50.7558594,131.866211 C50.8886725,132.020509 51.0585927,132.15039 51.265625,132.255859 C51.4726573,132.361329 51.7285141,132.414062 52.0332031,132.414062 C52.3300796,132.414062 52.5839833,132.361329 52.7949219,132.255859 C53.0058604,132.15039 53.1777337,132.020509 53.3105469,131.866211 C53.44336,131.711913 53.5419919,131.541993 53.6064453,131.356445 C53.6708988,131.170898 53.7109374,130.998048 53.7265625,130.837891 C53.7500001,130.591796 53.7617188,130.312502 53.7617188,130 C53.7617188,129.687498 53.7500001,129.408204 53.7265625,129.162109 C53.7109374,129.001952 53.6708988,128.829102 53.6064453,128.643555 C53.5419919,128.458007 53.44336,128.288087 53.3105469,128.133789 C53.1777337,127.979491 53.0058604,127.84961 52.7949219,127.744141 C52.5839833,127.638671 52.3300796,127.585938 52.0332031,127.585938 C51.7285141,127.585938 51.4726573,127.638671 51.265625,127.744141 C51.0585927,127.84961 50.8886725,127.979491 50.7558594,128.133789 C50.6230462,128.288087 50.5244144,128.458007 50.4599609,128.643555 C50.3955075,128.829102 50.3554688,129.001952 50.3398438,129.162109 Z M55.7890625,132.759766 L55.7890625,127.240234 C55.7890625,127.177734 55.8124998,127.122071 55.859375,127.073242 C55.9062502,127.024414 55.9628903,127 56.0292969,127 L56.1816406,127 C56.3105475,127 56.3906248,127.080077 56.421875,127.240234 C56.4375001,127.31836 56.4560546,127.408203 56.4775391,127.509766 C56.4990235,127.611329 56.5527339,127.662109 56.6386719,127.662109 C56.7167973,127.662109 56.7890622,127.62793 56.8554688,127.55957 C56.9218753,127.491211 57.0126947,127.415039 57.1279297,127.331055 C57.2431646,127.24707 57.3964834,127.170899 57.5878906,127.102539 C57.7792978,127.034179 58.0429671,127 58.3789062,127 L58.4023438,127 C58.4648441,127 58.5205076,127.024414 58.5693359,127.073242 C58.6181643,127.122071 58.6425781,127.177734 58.6425781,127.240234 L58.6425781,127.457031 C58.6425781,127.519532 58.6191409,127.575195 58.5722656,127.624023 C58.5253904,127.672852 58.4687503,127.697266 58.4023438,127.697266 L58.3671875,127.697266 C58.1445301,127.697266 57.9228527,127.729492 57.7021484,127.793945 C57.4814442,127.858399 57.2812509,127.967773 57.1015625,128.12207 C56.9218741,128.276368 56.7763677,128.486327 56.6650391,128.751953 C56.5537104,129.017579 56.4980469,129.353514 56.4980469,129.759766 L56.4980469,132.759766 C56.4980469,132.822266 56.4736331,132.877929 56.4248047,132.926758 C56.3759763,132.975586 56.3203128,133 56.2578125,133 L56.0292969,133 C55.9667966,133 55.9111331,132.975586 55.8623047,132.926758 C55.8134763,132.877929 55.7890625,132.822266 55.7890625,132.759766 Z M59.3867188,131.201172 L59.3867188,131.042969 C59.3867188,130.980468 59.410156,130.924805 59.4570312,130.875977 C59.5039065,130.827148 59.5585934,130.802734 59.6210938,130.802734 L59.8496094,130.802734 C59.9121097,130.802734 59.9677732,130.827148 60.0166016,130.875977 C60.0654299,130.924805 60.0898438,130.980468 60.0898438,131.042969 L60.0898438,131.201172 C60.0898438,131.384767 60.1318355,131.550781 60.2158203,131.699219 C60.2998051,131.847657 60.4140618,131.975585 60.5585938,132.083008 C60.7031257,132.19043 60.8730459,132.274414 61.0683594,132.334961 C61.2636729,132.395508 61.4746082,132.425781 61.7011719,132.425781 C62.1972681,132.425781 62.5869126,132.313478 62.8701172,132.088867 C63.1533217,131.864257 63.2949219,131.587892 63.2949219,131.259766 C63.2949219,131.068358 63.2431646,130.908204 63.1396484,130.779297 C63.0361323,130.65039 62.9042977,130.543946 62.7441406,130.459961 C62.5839836,130.375976 62.406251,130.310547 62.2109375,130.263672 C62.015624,130.216797 61.8261728,130.181641 61.6425781,130.158203 C61.3769518,130.11914 61.1201184,130.06543 60.8720703,129.99707 C60.6240222,129.928711 60.4062509,129.832032 60.21875,129.707031 C60.0312491,129.582031 59.8789068,129.425782 59.7617188,129.238281 C59.6445307,129.05078 59.5859375,128.816408 59.5859375,128.535156 C59.5859375,128.304686 59.6445307,128.086915 59.7617188,127.881836 C59.8789068,127.676757 60.0351553,127.500977 60.2304688,127.354492 C60.4257822,127.208007 60.6513659,127.092774 60.9072266,127.008789 C61.1630872,126.924804 61.427733,126.882812 61.7011719,126.882812 C61.9746107,126.882812 62.2343738,126.921875 62.4804688,127 C62.7265637,127.078125 62.9462881,127.195312 63.1396484,127.351562 C63.3330088,127.507813 63.4873041,127.696288 63.6025391,127.916992 C63.717774,128.137696 63.7753906,128.38867 63.7753906,128.669922 C63.7753906,128.759766 63.7519534,128.824219 63.7050781,128.863281 C63.6582029,128.902344 63.6015628,128.921875 63.5351562,128.921875 L63.3066406,128.921875 C63.2441403,128.921875 63.1884768,128.901367 63.1396484,128.860352 C63.0908201,128.819336 63.0664062,128.75586 63.0664062,128.669922 C63.0664062,128.373045 62.9443372,128.112306 62.7001953,127.887695 C62.4560535,127.663085 62.123049,127.550781 61.7011719,127.550781 C61.2753885,127.550781 60.9365247,127.651366 60.6845703,127.852539 C60.4326159,128.053712 60.3066406,128.281249 60.3066406,128.535156 C60.3066406,128.703126 60.3486324,128.838867 60.4326172,128.942383 C60.516602,129.045899 60.6230462,129.129882 60.7519531,129.194336 C60.88086,129.258789 61.0253898,129.30957 61.1855469,129.34668 C61.3457039,129.383789 61.4980462,129.414062 61.6425781,129.4375 C61.8886731,129.484375 62.1513658,129.543945 62.4306641,129.616211 C62.7099623,129.688477 62.9658192,129.790038 63.1982422,129.920898 C63.4306652,130.051758 63.6230461,130.225585 63.7753906,130.442383 C63.9277351,130.659181 64.0039062,130.931639 64.0039062,131.259766 C64.0039062,131.517579 63.9501958,131.757811 63.8427734,131.980469 C63.735351,132.203126 63.5791026,132.398437 63.3740234,132.566406 C63.1689443,132.734376 62.9248061,132.868164 62.6416016,132.967773 C62.358397,133.067383 62.0449236,133.117188 61.7011719,133.117188 C61.3964829,133.117188 61.1064467,133.073243 60.8310547,132.985352 C60.5556627,132.89746 60.3095714,132.771485 60.0927734,132.607422 C59.8759755,132.443359 59.7041022,132.244142 59.5771484,132.009766 C59.4501947,131.775389 59.3867188,131.505861 59.3867188,131.201172 Z" id="Sensors" fill="#292A2B"></path>
    </g>
</svg>