<?xml version="1.0" encoding="UTF-8"?>
<svg width="466px" height="168px" viewBox="0 0 466 168" version="1.1" xmlns="http://www.w3.org/2000/svg" xmlns:xlink="http://www.w3.org/1999/xlink">
    <!-- Generator: Sketch 49.1 (51147) - http://www.bohemiancoding.com/sketch -->
    <title>hardware</title>
    <desc>Created with Sketch.</desc>
    <defs></defs>
    <g id="hardware" stroke="none" stroke-width="1" fill="none" fill-rule="evenodd">
        <rect id="Rectangle" stroke="#292A2B" x="276.5" y="0.5" width="163" height="43" rx="5"></rect>
        <rect id="Rectangle" stroke="#292A2B" x="276.5" y="55.5" width="163" height="43" rx="5"></rect>
        <rect id="Rectangle" stroke="#292A2B" x="276.5" y="109.5" width="163" height="43" rx="5"></rect>
        <circle id="Oval-8" fill="#292A2B" cx="419.5" cy="24.5" r="5.5"></circle>
        <circle id="Oval-8" fill="#292A2B" cx="419.5" cy="79.5" r="5.5"></circle>
        <circle id="Oval-8" fill="#292A2B" cx="419.5" cy="133.5" r="5.5"></circle>
        <g id="noun_sensor_381031_000000" transform="translate(0.000000, 54.000000)" fill="#000000" fill-rule="nonzero">
            <circle id="Oval" cx="31.5" cy="23" r="7.7"></circle>
            <path d="M20.8,8.4 C19.7,7.3 18,7.3 16.9,8.4 C8.9,16.4 8.9,29.5 16.9,37.6 C17.4,38.1 18.1,38.4 18.8,38.4 C19.5,38.4 20.2,38.1 20.7,37.6 C21.8,36.5 21.8,34.8 20.7,33.7 C14.8,27.8 14.8,18.2 20.7,12.3 C21.8,11.2 21.8,9.5 20.8,8.4 Z" id="Shape"></path>
            <path d="M46.1,8.4 C45,7.3 43.3,7.3 42.2,8.4 C41.1,9.5 41.1,11.2 42.2,12.3 C48.1,18.2 48.1,27.8 42.2,33.7 C41.1,34.8 41.1,36.5 42.2,37.6 C42.7,38.1 43.4,38.4 44.1,38.4 C44.8,38.4 45.5,38.1 46,37.6 C54.1,29.5 54.1,16.5 46.1,8.4 Z" id="Shape"></path>
            <path d="M49.2,1.4 C48.1,2.5 48.1,4.2 49.2,5.3 C59,15 59,31 49.2,40.8 C48.1,41.9 48.1,43.6 49.2,44.7 C49.7,45.2 50.4,45.5 51.1,45.5 C51.8,45.5 52.5,45.2 53,44.7 C65,32.7 65,13.3 53.1,1.4 C52,0.3 50.3,0.3 49.2,1.4 Z" id="Shape"></path>
            <path d="M13.7,5.2 C14.8,4.1 14.8,2.4 13.7,1.3 C12.6,0.2 10.9,0.2 9.8,1.3 C-2.1,13.2 -2.1,32.6 9.8,44.6 C10.3,45.1 11,45.4 11.7,45.4 C12.4,45.4 13.1,45.1 13.6,44.6 C14.7,43.5 14.7,41.8 13.6,40.7 C3.9,31 3.9,15 13.7,5.2 Z" id="Shape"></path>
        </g>
        <g id="Group-2" transform="translate(139.000000, 15.000000)">
            <rect id="Rectangle-21" stroke="#292A2B" x="0.5" y="0.5" width="61" height="122" rx="5"></rect>
            <path d="M60.354679,16.5 L0.645409661,16.5" id="Line" stroke="#292A2B" stroke-linecap="square"></path>
            <path d="M42.3370472,9.33333333 L31.6458609,9.33333333" id="Line" stroke="#292A2B" stroke-linecap="square"></path>
            <path d="M26.3370472,9.33333333 L23.584707,9.33333333" id="Line" stroke="#292A2B" stroke-linecap="square"></path>
            <path d="M60.354679,104.5 L0.645409661,104.5" id="Line" stroke="#292A2B" stroke-linecap="square"></path>
            <circle id="Oval-12" fill="#292A2B" cx="31" cy="113" r="4"></circle>
        </g>
        <polygon id="Shape" fill="#87BC55" fill-rule="nonzero" points="86 71.8851775 81.3294737 67 51.5078947 96.2296451 39.9926316 83.2839248 35 87.8162839 51.1589474 106"></polygon>
        <polygon id="Shape" fill="#87BC55" fill-rule="nonzero" points="229 110.885177 224.329474 106 194.507895 135.229645 182.992632 122.283925 178 126.816284 194.158947 145"></polygon>
        <polygon id="Shape" fill="#87BC55" fill-rule="nonzero" points="466 133.885177 461.329474 129 431.507895 158.229645 419.992632 145.283925 415 149.816284 431.158947 168"></polygon>
    </g>
</svg>