<?xml version="1.0" encoding="UTF-8"?>
<svg width="338px" height="168px" viewBox="0 0 338 168" version="1.1" xmlns="http://www.w3.org/2000/svg" xmlns:xlink="http://www.w3.org/1999/xlink">
    <!-- Generator: Sketch 49.1 (51147) - http://www.bohemiancoding.com/sketch -->
    <title>hardware</title>
    <desc>Created with Sketch.</desc>
    <defs></defs>
    <g id="hardware" stroke="none" stroke-width="1" fill="none" fill-rule="evenodd">
        <g id="Group" transform="translate(214.000000, 27.000000)">
            <rect id="Rectangle" stroke="#292A2B" stroke-width="0.6" x="0.3" y="0.3" width="97.4" height="25.8575163" rx="3"></rect>
            <rect id="Rectangle" stroke="#292A2B" stroke-width="0.6" x="0.3" y="33.3718954" width="97.4" height="25.8575163" rx="3"></rect>
            <rect id="Rectangle" stroke="#292A2B" stroke-width="0.6" x="0.3" y="65.8424837" width="97.4" height="25.8575163" rx="3"></rect>
            <ellipse id="Oval-8" fill="#292A2B" cx="85.75" cy="14.7320261" rx="3.28658537" ry="3.30718954"></ellipse>
            <ellipse id="Oval-8" fill="#292A2B" cx="85.75" cy="47.8039216" rx="3.28658537" ry="3.30718954"></ellipse>
            <ellipse id="Oval-8" fill="#292A2B" cx="85.75" cy="80.2745098" rx="3.28658537" ry="3.30718954"></ellipse>
        </g>
        <g id="noun_sensor_381031_000000" transform="translate(26.000000, 90.000000)" fill="#000000" fill-rule="nonzero">
            <ellipse id="Oval" cx="19" cy="14" rx="4.64444444" ry="4.68695652"></ellipse>
            <path d="M12.5460317,5.11304348 C11.8825397,4.44347826 10.8571429,4.44347826 10.1936508,5.11304348 C5.36825397,9.9826087 5.36825397,17.9565217 10.1936508,22.8869565 C10.4952381,23.1913043 10.9174603,23.373913 11.3396825,23.373913 C11.7619048,23.373913 12.184127,23.1913043 12.4857143,22.8869565 C13.1492063,22.2173913 13.1492063,21.1826087 12.4857143,20.5130435 C8.92698413,16.9217391 8.92698413,11.0782609 12.4857143,7.48695652 C13.1492063,6.8173913 13.1492063,5.7826087 12.5460317,5.11304348 Z" id="Shape"></path>
            <path d="M27.8063492,5.11304348 C27.1428571,4.44347826 26.1174603,4.44347826 25.4539683,5.11304348 C24.7904762,5.7826087 24.7904762,6.8173913 25.4539683,7.48695652 C29.0126984,11.0782609 29.0126984,16.9217391 25.4539683,20.5130435 C24.7904762,21.1826087 24.7904762,22.2173913 25.4539683,22.8869565 C25.7555556,23.1913043 26.1777778,23.373913 26.6,23.373913 C27.0222222,23.373913 27.4444444,23.1913043 27.7460317,22.8869565 C32.631746,17.9565217 32.631746,10.0434783 27.8063492,5.11304348 Z" id="Shape"></path>
            <path d="M29.6761905,0.852173913 C29.0126984,1.52173913 29.0126984,2.55652174 29.6761905,3.22608696 C35.5873016,9.13043478 35.5873016,18.8695652 29.6761905,24.8347826 C29.0126984,25.5043478 29.0126984,26.5391304 29.6761905,27.2086957 C29.9777778,27.5130435 30.4,27.6956522 30.8222222,27.6956522 C31.2444444,27.6956522 31.6666667,27.5130435 31.968254,27.2086957 C39.2063492,19.9043478 39.2063492,8.09565217 32.0285714,0.852173913 C31.3650794,0.182608696 30.3396825,0.182608696 29.6761905,0.852173913 Z" id="Shape"></path>
            <path d="M8.26349206,3.16521739 C8.92698413,2.49565217 8.92698413,1.46086957 8.26349206,0.791304348 C7.6,0.12173913 6.57460317,0.12173913 5.91111111,0.791304348 C-1.26666667,8.03478261 -1.26666667,19.8434783 5.91111111,27.1478261 C6.21269841,27.4521739 6.63492063,27.6347826 7.05714286,27.6347826 C7.47936508,27.6347826 7.9015873,27.4521739 8.2031746,27.1478261 C8.86666667,26.4782609 8.86666667,25.4434783 8.2031746,24.773913 C2.35238095,18.8695652 2.35238095,9.13043478 8.26349206,3.16521739 Z" id="Shape"></path>
        </g>
        <g id="Group-2" transform="translate(121.000000, 45.000000)">
            <rect id="Rectangle-21" stroke="#292A2B" stroke-width="0.6" x="0.3" y="0.3" width="36.4" height="73.4" rx="3"></rect>
            <path d="M36.0181149,9.92682927 L0.38516383,9.92682927" id="Line" stroke="#292A2B" stroke-width="0.6" stroke-linecap="square"></path>
            <path d="M25.2656572,5.61517615 L18.8854331,5.61517615" id="Line" stroke="#292A2B" stroke-width="0.6" stroke-linecap="square"></path>
            <path d="M15.7172701,5.61517615 L14.0747445,5.61517615" id="Line" stroke="#292A2B" stroke-width="0.6" stroke-linecap="square"></path>
            <path d="M36.0181149,62.8699187 L0.38516383,62.8699187" id="Line" stroke="#292A2B" stroke-width="0.6" stroke-linecap="square"></path>
            <ellipse id="Oval-12" fill="#292A2B" cx="18.5" cy="67.9837398" rx="2.38709677" ry="2.40650407"></ellipse>
        </g>
        <polygon id="Shape" fill="#87BC55" fill-rule="nonzero" points="91 69.8851775 86.3294737 65 56.5078947 94.2296451 44.9926316 81.2839248 40 85.8162839 56.1589474 104"></polygon>
        <polygon id="Shape" fill="#87BC55" fill-rule="nonzero" points="190 58.8851775 185.329474 54 155.507895 83.2296451 143.992632 70.2839248 139 74.8162839 155.158947 93"></polygon>
        <polygon id="Shape" fill="#87BC55" fill-rule="nonzero" points="338 49.8851775 333.329474 45 303.507895 74.2296451 291.992632 61.2839248 287 65.8162839 303.158947 84"></polygon>
        <text id="Larger-computer-stac" font-family="GTPressura-Light, GT Pressura" font-size="12" font-weight="300" fill="#292A2B">
            <tspan x="214" y="133">Larger computer stacks</tspan>
        </text>
        <text id="Phones" font-family="GTPressura-Light, GT Pressura" font-size="12" font-weight="300" fill="#292A2B">
            <tspan x="121" y="133">Phones</tspan>
        </text>
        <text id="Sensors" font-family="GTPressura-Light, GT Pressura" font-size="12" font-weight="300" fill="#292A2B">
            <tspan x="26" y="133">Sensors</tspan>
        </text>
    </g>
</svg>