<?xml version="1.0" encoding="UTF-8"?>
<svg width="338px" height="168px" viewBox="0 0 338 168" version="1.1" xmlns="http://www.w3.org/2000/svg" xmlns:xlink="http://www.w3.org/1999/xlink">
    <!-- Generator: Sketch 49.1 (51147) - http://www.bohemiancoding.com/sketch -->
    <title>hardware-chi</title>
    <desc>Created with Sketch.</desc>
    <defs></defs>
    <g id="hardware-chi" stroke="none" stroke-width="1" fill="none" fill-rule="evenodd">
        <g id="Group" transform="translate(214.000000, 27.000000)">
            <rect id="Rectangle" stroke="#292A2B" stroke-width="0.6" x="0.3" y="0.3" width="97.4" height="25.8575163" rx="3"></rect>
            <rect id="Rectangle" stroke="#292A2B" stroke-width="0.6" x="0.3" y="33.3718954" width="97.4" height="25.8575163" rx="3"></rect>
            <rect id="Rectangle" stroke="#292A2B" stroke-width="0.6" x="0.3" y="65.8424837" width="97.4" height="25.8575163" rx="3"></rect>
            <ellipse id="Oval-8" fill="#292A2B" cx="85.75" cy="14.7320261" rx="3.28658537" ry="3.30718954"></ellipse>
            <ellipse id="Oval-8" fill="#292A2B" cx="85.75" cy="47.8039216" rx="3.28658537" ry="3.30718954"></ellipse>
            <ellipse id="Oval-8" fill="#292A2B" cx="85.75" cy="80.2745098" rx="3.28658537" ry="3.30718954"></ellipse>
        </g>
        <g id="noun_sensor_381031_000000" transform="translate(26.000000, 90.000000)" fill="#000000" fill-rule="nonzero">
            <ellipse id="Oval" cx="19" cy="14" rx="4.64444444" ry="4.68695652"></ellipse>
            <path d="M12.5460317,5.11304348 C11.8825397,4.44347826 10.8571429,4.44347826 10.1936508,5.11304348 C5.36825397,9.9826087 5.36825397,17.9565217 10.1936508,22.8869565 C10.4952381,23.1913043 10.9174603,23.373913 11.3396825,23.373913 C11.7619048,23.373913 12.184127,23.1913043 12.4857143,22.8869565 C13.1492063,22.2173913 13.1492063,21.1826087 12.4857143,20.5130435 C8.92698413,16.9217391 8.92698413,11.0782609 12.4857143,7.48695652 C13.1492063,6.8173913 13.1492063,5.7826087 12.5460317,5.11304348 Z" id="Shape"></path>
            <path d="M27.8063492,5.11304348 C27.1428571,4.44347826 26.1174603,4.44347826 25.4539683,5.11304348 C24.7904762,5.7826087 24.7904762,6.8173913 25.4539683,7.48695652 C29.0126984,11.0782609 29.0126984,16.9217391 25.4539683,20.5130435 C24.7904762,21.1826087 24.7904762,22.2173913 25.4539683,22.8869565 C25.7555556,23.1913043 26.1777778,23.373913 26.6,23.373913 C27.0222222,23.373913 27.4444444,23.1913043 27.7460317,22.8869565 C32.631746,17.9565217 32.631746,10.0434783 27.8063492,5.11304348 Z" id="Shape"></path>
            <path d="M29.6761905,0.852173913 C29.0126984,1.52173913 29.0126984,2.55652174 29.6761905,3.22608696 C35.5873016,9.13043478 35.5873016,18.8695652 29.6761905,24.8347826 C29.0126984,25.5043478 29.0126984,26.5391304 29.6761905,27.2086957 C29.9777778,27.5130435 30.4,27.6956522 30.8222222,27.6956522 C31.2444444,27.6956522 31.6666667,27.5130435 31.968254,27.2086957 C39.2063492,19.9043478 39.2063492,8.09565217 32.0285714,0.852173913 C31.3650794,0.182608696 30.3396825,0.182608696 29.6761905,0.852173913 Z" id="Shape"></path>
            <path d="M8.26349206,3.16521739 C8.92698413,2.49565217 8.92698413,1.46086957 8.26349206,0.791304348 C7.6,0.12173913 6.57460317,0.12173913 5.91111111,0.791304348 C-1.26666667,8.03478261 -1.26666667,19.8434783 5.91111111,27.1478261 C6.21269841,27.4521739 6.63492063,27.6347826 7.05714286,27.6347826 C7.47936508,27.6347826 7.9015873,27.4521739 8.2031746,27.1478261 C8.86666667,26.4782609 8.86666667,25.4434783 8.2031746,24.773913 C2.35238095,18.8695652 2.35238095,9.13043478 8.26349206,3.16521739 Z" id="Shape"></path>
        </g>
        <g id="Group-2" transform="translate(121.000000, 45.000000)">
            <rect id="Rectangle-21" stroke="#292A2B" stroke-width="0.6" x="0.3" y="0.3" width="36.4" height="73.4" rx="3"></rect>
            <path d="M36.0181149,9.92682927 L0.38516383,9.92682927" id="Line" stroke="#292A2B" stroke-width="0.6" stroke-linecap="square"></path>
            <path d="M25.2656572,5.61517615 L18.8854331,5.61517615" id="Line" stroke="#292A2B" stroke-width="0.6" stroke-linecap="square"></path>
            <path d="M15.7172701,5.61517615 L14.0747445,5.61517615" id="Line" stroke="#292A2B" stroke-width="0.6" stroke-linecap="square"></path>
            <path d="M36.0181149,62.8699187 L0.38516383,62.8699187" id="Line" stroke="#292A2B" stroke-width="0.6" stroke-linecap="square"></path>
            <ellipse id="Oval-12" fill="#292A2B" cx="18.5" cy="67.9837398" rx="2.38709677" ry="2.40650407"></ellipse>
        </g>
        <polygon id="Shape" fill="#87BC55" fill-rule="nonzero" points="91 69.8851775 86.3294737 65 56.5078947 94.2296451 44.9926316 81.2839248 40 85.8162839 56.1589474 104"></polygon>
        <polygon id="Shape" fill="#87BC55" fill-rule="nonzero" points="190 58.8851775 185.329474 54 155.507895 83.2296451 143.992632 70.2839248 139 74.8162839 155.158947 93"></polygon>
        <polygon id="Shape" fill="#87BC55" fill-rule="nonzero" points="338 49.8851775 333.329474 45 303.507895 74.2296451 291.992632 61.2839248 287 65.8162839 303.158947 84"></polygon>
        <path d="M28.112,131.192 C27.68,131.816 27.2,132.392 26.684,132.932 L26.468,132.248 C27.8,130.76 28.76,129.092 29.348,127.22 L29.948,127.496 C29.636,128.444 29.24,129.332 28.76,130.16 L28.76,138.2 L28.112,138.2 L28.112,131.192 Z M30.236,128.84 L32.6,128.84 C32.744,128.3 32.864,127.76 32.984,127.22 L33.62,127.28 C33.5,127.82 33.38,128.336 33.26,128.84 L37.004,128.84 L37.004,129.464 L33.092,129.464 C32.936,130.04 32.78,130.58 32.636,131.072 L37.496,131.072 L37.496,131.684 L32.432,131.684 C32.216,132.308 31.988,132.872 31.76,133.4 L36.8,133.4 L36.8,133.976 C36.248,134.876 35.396,135.764 34.244,136.64 C34.856,136.976 35.444,137.324 35.996,137.708 L35.636,138.272 C34.172,137.252 32.66,136.448 31.112,135.86 L31.46,135.332 C32.24,135.644 32.972,135.98 33.668,136.34 C34.7,135.608 35.516,134.828 36.092,134.012 L30.896,134.012 C31.208,133.268 31.508,132.488 31.772,131.684 L29.708,131.684 L29.708,131.072 L31.964,131.072 C32.132,130.544 32.3,130.004 32.444,129.464 L30.236,129.464 L30.236,128.84 Z M40.928,130.112 L44.876,130.112 L44.876,130.664 L40.928,130.664 L40.928,130.112 Z M41.324,131.54 L44.552,131.54 L44.552,133.892 L41.324,133.892 L41.324,131.54 Z M43.94,133.364 L43.94,132.068 L41.936,132.068 L41.936,133.364 L43.94,133.364 Z M48.92,128.384 L48.92,128.984 L45.968,128.984 C46.016,129.92 46.124,130.676 46.292,131.276 C46.4,131.696 46.52,132.068 46.664,132.404 C47.144,131.684 47.552,130.796 47.888,129.764 L48.404,130.028 C48.02,131.228 47.54,132.212 46.964,133.004 C47.036,133.112 47.108,133.22 47.18,133.316 C47.516,133.724 47.84,133.94 48.128,133.94 C48.356,133.94 48.596,133.412 48.86,132.368 L49.388,132.68 C49.04,133.928 48.644,134.552 48.188,134.552 C47.708,134.552 47.252,134.3 46.808,133.82 C46.712,133.712 46.64,133.604 46.568,133.496 C46.16,133.94 45.716,134.3 45.236,134.588 L44.9,134.072 C45.392,133.784 45.836,133.412 46.244,132.956 C46.028,132.536 45.848,132.08 45.704,131.576 C45.512,130.88 45.392,130.016 45.332,128.984 L40.292,128.984 L40.292,130.688 C40.244,132.248 39.86,133.508 39.116,134.456 L38.624,134.024 C39.272,133.22 39.62,132.104 39.644,130.688 L39.644,128.384 L45.308,128.384 C45.284,128 45.284,127.604 45.284,127.184 L45.908,127.184 C45.908,127.604 45.908,128 45.932,128.384 L47.516,128.384 C47.36,128 47.192,127.664 47,127.364 L47.6,127.256 C47.768,127.58 47.936,127.952 48.08,128.384 L48.92,128.384 Z M40.064,134.732 L40.676,134.864 C40.34,135.98 39.848,136.952 39.224,137.78 L38.672,137.42 C39.296,136.628 39.764,135.74 40.064,134.732 Z M45.536,137.984 L42.584,137.984 C41.936,137.984 41.612,137.648 41.612,136.976 L41.612,134.612 L42.272,134.612 L42.272,136.844 C42.272,137.192 42.44,137.372 42.776,137.372 L45.404,137.372 C45.704,137.372 45.908,137.312 46.028,137.192 C46.184,137.036 46.292,136.592 46.34,135.86 L46.964,136.052 C46.892,136.964 46.736,137.516 46.496,137.732 C46.292,137.9 45.968,137.984 45.536,137.984 Z M47.72,135.02 C48.464,135.824 49.028,136.532 49.424,137.132 L48.908,137.492 C48.488,136.844 47.912,136.136 47.18,135.356 L47.72,135.02 Z M43.892,134.408 C44.468,135.032 44.924,135.572 45.236,136.04 L44.732,136.388 C44.408,135.884 43.964,135.32 43.4,134.72 L43.892,134.408 Z M51.728,127.724 L55.244,127.724 L55.244,130.496 L51.728,130.496 L51.728,127.724 Z M54.644,129.932 L54.644,128.288 L52.34,128.288 L52.34,129.932 L54.644,129.932 Z M56.756,127.724 L60.32,127.724 L60.32,130.496 L56.756,130.496 L56.756,127.724 Z M59.708,129.932 L59.708,128.288 L57.356,128.288 L57.356,129.932 L59.708,129.932 Z M50.732,131.852 L54.812,131.852 C55.064,131.516 55.268,131.156 55.412,130.796 L56.024,130.868 C55.88,131.216 55.7,131.54 55.508,131.852 L58.94,131.852 C58.748,131.516 58.544,131.204 58.328,130.94 L58.904,130.76 C59.168,131.108 59.396,131.468 59.588,131.852 L61.268,131.852 L61.268,132.452 L57.824,132.452 C58.628,133.268 59.864,133.904 61.544,134.372 L61.268,134.948 C60.92,134.828 60.596,134.708 60.296,134.588 L60.296,138.188 L59.696,138.188 L59.696,137.624 L57.236,137.624 L57.236,138.188 L56.636,138.188 L56.636,134.504 L60.08,134.504 C58.76,133.94 57.788,133.256 57.164,132.452 L55.064,132.452 C54.344,133.292 53.36,133.976 52.112,134.504 L55.364,134.504 L55.364,138.188 L54.764,138.188 L54.764,137.624 L52.496,137.624 L52.496,138.188 L51.908,138.188 L51.908,134.588 C51.548,134.732 51.164,134.864 50.78,134.984 L50.48,134.444 C52.136,133.94 53.408,133.268 54.272,132.452 L50.732,132.452 L50.732,131.852 Z M52.496,137.06 L54.764,137.06 L54.764,135.08 L52.496,135.08 L52.496,137.06 Z M57.236,137.06 L59.696,137.06 L59.696,135.08 L57.236,135.08 L57.236,137.06 Z" id="传感器" fill="#292A2B"></path>
        <path d="M123.292,132.152 L123.292,134.168 L126.484,134.168 L126.484,132.152 L123.292,132.152 Z M126.484,134.78 L123.292,134.78 L123.292,135.86 L122.644,135.86 L122.644,128.96 L126.484,128.96 L126.484,127.256 L127.12,127.256 L127.12,128.96 L131.032,128.96 L131.032,134.78 L127.12,134.78 L127.12,136.472 C127.12,137.072 127.396,137.384 127.96,137.384 L130.792,137.384 C131.128,137.384 131.368,137.312 131.524,137.168 C131.668,137.024 131.764,136.508 131.812,135.632 L132.436,135.836 C132.364,136.844 132.22,137.468 132.028,137.684 C131.812,137.876 131.44,137.984 130.9,137.984 L127.804,137.984 C126.916,137.984 126.484,137.504 126.484,136.568 L126.484,134.78 Z M127.12,134.168 L130.396,134.168 L130.396,132.152 L127.12,132.152 L127.12,134.168 Z M130.396,131.54 L130.396,129.584 L127.12,129.584 L127.12,131.54 L130.396,131.54 Z M126.484,129.584 L123.292,129.584 L123.292,131.54 L126.484,131.54 L126.484,129.584 Z M137.356,130.808 L140.728,130.808 L140.728,128.708 C139.816,128.804 138.844,128.852 137.788,128.852 L137.584,128.264 C140.104,128.252 142.18,127.964 143.788,127.4 L144.112,127.952 C143.32,128.24 142.42,128.468 141.388,128.624 L141.388,130.808 L144.544,130.808 L144.544,131.432 L141.388,131.432 L141.388,133.556 L143.668,133.556 L143.668,138.14 L143.032,138.14 L143.032,137.48 L139.096,137.48 L139.096,138.14 L138.46,138.14 L138.46,133.556 L140.728,133.556 L140.728,131.432 L137.356,131.432 L137.356,130.808 Z M139.096,136.856 L143.032,136.856 L143.032,134.168 L139.096,134.168 L139.096,136.856 Z M134.848,127.352 C135.676,127.988 136.372,128.624 136.948,129.26 L136.504,129.716 C135.976,129.116 135.268,128.468 134.38,127.796 L134.848,127.352 Z M133.528,130.964 L136,130.964 L136,136.496 C136.456,136.136 136.96,135.692 137.488,135.188 L137.668,135.884 C136.948,136.556 136.192,137.168 135.388,137.696 L135.136,137.108 C135.28,136.976 135.364,136.832 135.364,136.688 L135.364,131.6 L133.528,131.6 L133.528,130.964 Z" id="电话" fill="#292A2B"></path>
        <path d="M214.768,130.448 L219.496,130.448 C219.604,129.716 219.664,128.948 219.676,128.156 L219.676,127.244 L220.324,127.244 L220.324,128.012 C220.324,128.876 220.264,129.692 220.144,130.448 L225.232,130.448 L225.232,131.096 L220.42,131.096 C221.26,133.916 222.928,136.076 225.448,137.588 L225.052,138.116 C222.532,136.58 220.828,134.36 219.952,131.48 C219.268,134.576 217.6,136.808 214.936,138.188 L214.528,137.648 C217.156,136.352 218.776,134.168 219.388,131.096 L214.768,131.096 L214.768,130.448 Z M227.152,127.82 L232.72,127.82 L232.72,128.42 L231.436,128.42 L231.436,130.388 L232.972,130.388 L232.972,131.012 L231.436,131.012 L231.436,133.712 L230.812,133.712 L230.812,131.012 L229.048,131.012 C228.916,132.284 228.448,133.244 227.632,133.868 L227.152,133.436 C227.884,132.896 228.304,132.092 228.412,131.012 L226.84,131.012 L226.84,130.388 L228.448,130.388 L228.448,128.42 L227.152,128.42 L227.152,127.82 Z M229.084,128.42 L229.084,130.388 L230.812,130.388 L230.812,128.42 L229.084,128.42 Z M233.836,128.048 L234.448,128.048 L234.448,132.164 L233.836,132.164 L233.836,128.048 Z M227.44,135.008 L231.724,135.008 L231.724,133.844 L232.372,133.844 L232.372,135.008 L236.572,135.008 L236.572,135.62 L232.372,135.62 L232.372,137.228 L237.244,137.228 L237.244,137.84 L226.756,137.84 L226.756,137.228 L231.724,137.228 L231.724,135.62 L227.44,135.62 L227.44,135.008 Z M235.756,133.796 L234.16,133.796 L234.016,133.184 C234.544,133.208 235.06,133.232 235.54,133.232 C235.84,133.232 235.996,133.04 235.996,132.68 L235.996,127.376 L236.632,127.376 L236.632,132.836 C236.632,133.472 236.332,133.796 235.756,133.796 Z M242.332,130.904 L245.656,130.904 L245.656,127.208 L246.328,127.208 L246.328,130.904 L249.496,130.904 L249.496,131.552 L246.328,131.552 L246.328,138.2 L245.656,138.2 L245.656,131.552 L242.332,131.552 L242.332,130.904 Z M239.848,127.352 C240.676,127.988 241.372,128.624 241.948,129.26 L241.504,129.716 C240.976,129.116 240.268,128.468 239.38,127.796 L239.848,127.352 Z M238.564,130.964 L241.036,130.964 L241.036,136.484 C241.516,136.1 242.032,135.644 242.596,135.104 L242.764,135.776 C242.044,136.484 241.264,137.12 240.424,137.672 L240.172,137.096 C240.316,136.952 240.4,136.808 240.4,136.664 L240.4,131.6 L238.564,131.6 L238.564,130.964 Z M252.196,129.956 L259.936,129.956 L259.936,134.552 L258.484,134.552 L258.484,135.5 L261.304,135.5 L261.304,136.076 L258.484,136.076 L258.484,138.2 L257.848,138.2 L257.848,136.076 L254.272,136.076 C254.152,136.46 253.984,136.784 253.756,137.06 C253.348,137.516 252.7,137.876 251.788,138.14 L251.44,137.612 C252.28,137.384 252.892,137.072 253.252,136.676 C253.396,136.484 253.504,136.292 253.576,136.076 L250.696,136.076 L250.696,135.5 L253.72,135.5 C253.744,135.356 253.756,135.212 253.756,135.092 L253.756,134.552 L252.196,134.552 L252.196,129.956 Z M254.404,134.552 L254.404,135.092 C254.404,135.236 254.392,135.368 254.38,135.5 L257.848,135.5 L257.848,134.552 L254.404,134.552 Z M259.3,134.024 L259.3,133.124 L252.844,133.124 L252.844,134.024 L259.3,134.024 Z M252.844,132.644 L259.3,132.644 L259.3,131.828 L252.844,131.828 L252.844,132.644 Z M252.844,131.336 L259.3,131.336 L259.3,130.484 L252.844,130.484 L252.844,131.336 Z M252.412,128.636 C252.112,129.14 251.764,129.608 251.368,130.04 L250.828,129.692 C251.548,128.948 252.088,128.096 252.436,127.148 L253.048,127.28 C252.952,127.544 252.832,127.808 252.712,128.06 L255.844,128.06 L255.844,128.636 L254.104,128.636 C254.344,128.948 254.536,129.236 254.68,129.5 L254.128,129.704 C253.936,129.332 253.696,128.972 253.432,128.636 L252.412,128.636 Z M257.344,128.612 C257.104,129.044 256.816,129.44 256.504,129.8 L255.964,129.452 C256.564,128.78 257.008,128.012 257.296,127.172 L257.92,127.304 C257.824,127.556 257.728,127.796 257.632,128.036 L261.208,128.036 L261.208,128.612 L259.036,128.612 C259.288,128.936 259.492,129.236 259.648,129.512 L259.108,129.716 C258.892,129.332 258.628,128.972 258.34,128.612 L257.344,128.612 Z M262.732,129.644 L264.592,129.644 L264.592,127.232 L265.24,127.232 L265.24,129.644 L266.8,129.644 L266.8,130.28 L265.24,130.28 L265.24,130.976 C265.816,131.564 266.392,132.236 266.98,132.992 L266.608,133.568 C266.08,132.728 265.624,132.068 265.24,131.576 L265.24,138.116 L264.592,138.116 L264.592,131.636 C264.148,132.956 263.548,134.144 262.78,135.188 L262.504,134.516 C263.488,133.268 264.172,131.864 264.568,130.28 L262.732,130.28 L262.732,129.644 Z M266.344,137.72 C266.872,136.94 267.244,136.112 267.46,135.224 C267.616,134.456 267.7,133.496 267.7,132.32 L267.7,127.796 L271.396,127.796 L271.396,136.88 C271.396,137.132 271.504,137.264 271.744,137.264 L272.164,137.264 C272.332,137.264 272.476,137.228 272.572,137.18 C272.692,137.108 272.764,136.976 272.812,136.772 C272.86,136.496 272.884,135.824 272.884,134.744 L273.496,134.924 C273.496,135.764 273.46,136.4 273.412,136.832 C273.364,137.264 273.244,137.552 273.04,137.708 C272.872,137.816 272.596,137.876 272.212,137.876 L271.744,137.876 C271.072,137.876 270.736,137.552 270.736,136.916 L270.736,128.42 L268.348,128.42 L268.348,132.32 C268.348,133.64 268.24,134.72 268.036,135.56 C267.82,136.472 267.436,137.348 266.872,138.188 L266.344,137.72 Z M280.072,132.44 L280.072,134.288 L282.4,134.288 L282.4,132.44 L280.072,132.44 Z M280.072,134.912 L280.072,136.904 L282.4,136.904 L282.4,134.912 L280.072,134.912 Z M280.072,137.528 L280.072,138.224 L279.436,138.224 L279.436,130.844 C279.088,131.504 278.704,132.128 278.272,132.728 L278.044,132.02 C279.016,130.556 279.7,128.972 280.096,127.244 L280.732,127.364 C280.564,128.048 280.348,128.708 280.108,129.356 L285.268,129.356 L285.268,129.98 L283.036,129.98 L283.036,131.816 L284.992,131.816 L284.992,132.44 L283.036,132.44 L283.036,134.288 L284.992,134.288 L284.992,134.912 L283.036,134.912 L283.036,136.904 L285.448,136.904 L285.448,137.528 L280.072,137.528 Z M282.4,129.98 L280.072,129.98 L280.072,131.816 L282.4,131.816 L282.4,129.98 Z M274.612,130.496 L276.232,130.496 L276.232,127.268 L276.88,127.268 L276.88,130.496 L278.164,130.496 L278.164,131.132 L276.88,131.132 L276.88,135.32 C277.444,135.116 277.996,134.888 278.536,134.624 L278.536,135.26 C277.348,135.824 276.076,136.292 274.72,136.652 L274.552,136.004 C275.128,135.872 275.68,135.716 276.232,135.548 L276.232,131.132 L274.612,131.132 L274.612,130.496 Z M282.436,127.196 C282.736,127.88 282.964,128.504 283.12,129.08 L282.568,129.284 C282.352,128.636 282.1,127.988 281.8,127.364 L282.436,127.196 Z M286.756,129.56 L288.496,129.56 L288.496,127.268 L289.108,127.268 L289.108,129.56 L290.524,129.56 L290.524,130.172 L289.108,130.172 L289.108,130.796 C289.648,131.516 290.2,132.332 290.764,133.244 L290.38,133.82 C289.888,132.812 289.468,131.996 289.108,131.396 L289.108,138.14 L288.496,138.14 L288.496,131.48 C288.064,132.776 287.476,133.952 286.732,134.984 L286.444,134.288 C287.404,133.076 288.076,131.708 288.472,130.172 L286.756,130.172 L286.756,129.56 Z M296.572,129.488 L296.668,130.1 L293.536,130.592 C293.56,131.216 293.596,131.816 293.668,132.368 L297.04,131.768 L297.136,132.392 L293.752,132.992 C293.8,133.28 293.848,133.544 293.896,133.808 C294.016,134.372 294.16,134.876 294.328,135.32 C294.976,134.744 295.552,134.084 296.056,133.34 L296.572,133.688 C295.948,134.552 295.288,135.296 294.58,135.908 C294.676,136.124 294.796,136.316 294.916,136.496 C295.372,137.096 295.768,137.396 296.128,137.396 C296.428,137.396 296.692,136.748 296.92,135.464 L297.46,135.824 C297.172,137.3 296.752,138.044 296.2,138.044 C295.612,138.02 295.048,137.672 294.52,136.976 C294.364,136.772 294.22,136.544 294.088,136.304 C293.104,137.048 292.06,137.588 290.932,137.924 L290.536,137.408 C291.772,137.024 292.864,136.472 293.812,135.74 C293.596,135.248 293.428,134.696 293.284,134.096 C293.212,133.772 293.152,133.448 293.104,133.112 L291.028,133.472 L290.932,132.848 L293.02,132.476 C292.948,131.9 292.912,131.312 292.9,130.688 L290.968,131 L290.872,130.388 L292.888,130.064 L292.888,127.22 L293.524,127.22 L293.524,129.968 L296.572,129.488 Z M294.976,127.304 C295.576,127.868 296.032,128.36 296.344,128.78 L295.828,129.152 C295.492,128.684 295.048,128.168 294.472,127.616 L294.976,127.304 Z" id="大型计算机堆栈" fill="#292A2B"></path>
    </g>
</svg>