<?xml version="1.0" encoding="UTF-8"?>
<svg width="338px" height="239px" viewBox="0 0 338 239" version="1.1" xmlns="http://www.w3.org/2000/svg" xmlns:xlink="http://www.w3.org/1999/xlink">
    <!-- Generator: Sketch 49.1 (51147) - http://www.bohemiancoding.com/sketch -->
    <title>privacy</title>
    <desc>Created with Sketch.</desc>
    <defs></defs>
    <g id="privacy" stroke="none" stroke-width="1" fill="none" fill-rule="evenodd">
        <g id="Group" transform="translate(29.000000, 1.000000)">
            <g id="Server" transform="translate(208.000000, 21.000000)">
                <rect id="Rectangle" stroke="#292A2B" x="0.5" y="0.5" width="64" height="17" rx="3"></rect>
                <rect id="Rectangle" stroke="#292A2B" x="0.5" y="22.5" width="64" height="17" rx="3"></rect>
                <rect id="Rectangle" stroke="#292A2B" x="0.5" y="44.5" width="64" height="17" rx="3"></rect>
                <circle id="Oval-8" fill="#292A2B" cx="57" cy="9" r="2"></circle>
                <circle id="Oval-8" fill="#292A2B" cx="57" cy="31" r="2"></circle>
                <circle id="Oval-8" fill="#292A2B" cx="57" cy="53" r="2"></circle>
            </g>
            <g id="Server" transform="translate(18.000000, 0.000000)">
                <rect id="Rectangle" stroke="#292A2B" x="0.5" y="0.5" width="64" height="17" rx="3"></rect>
                <rect id="Rectangle" stroke="#292A2B" x="0.5" y="22.5" width="64" height="17" rx="3"></rect>
                <rect id="Rectangle" stroke="#292A2B" x="0.5" y="44.5" width="64" height="17" rx="3"></rect>
                <circle id="Oval-8" fill="#292A2B" cx="57" cy="9" r="2"></circle>
                <circle id="Oval-8" fill="#292A2B" cx="57" cy="31" r="2"></circle>
                <circle id="Oval-8" fill="#292A2B" cx="57" cy="53" r="2"></circle>
            </g>
            <g id="Server" transform="translate(6.000000, 153.000000)">
                <rect id="Rectangle" stroke="#292A2B" x="0.5" y="0.5" width="64" height="17" rx="3"></rect>
                <rect id="Rectangle" stroke="#292A2B" x="0.5" y="22.5" width="64" height="17" rx="3"></rect>
                <rect id="Rectangle" stroke="#292A2B" x="0.5" y="44.5" width="64" height="17" rx="3"></rect>
                <circle id="Oval-8" fill="#292A2B" cx="57" cy="9" r="2"></circle>
                <circle id="Oval-8" fill="#292A2B" cx="57" cy="31" r="2"></circle>
                <circle id="Oval-8" fill="#292A2B" cx="57" cy="53" r="2"></circle>
            </g>
            <g id="Server" transform="translate(182.000000, 176.000000)">
                <rect id="Rectangle" stroke="#292A2B" x="0.5" y="0.5" width="64" height="17" rx="3"></rect>
                <rect id="Rectangle" stroke="#292A2B" x="0.5" y="22.5" width="64" height="17" rx="3"></rect>
                <rect id="Rectangle" stroke="#292A2B" x="0.5" y="44.5" width="64" height="17" rx="3"></rect>
                <circle id="Oval-8" fill="#292A2B" cx="57" cy="9" r="2"></circle>
                <circle id="Oval-8" fill="#292A2B" cx="57" cy="31" r="2"></circle>
                <circle id="Oval-8" fill="#292A2B" cx="57" cy="53" r="2"></circle>
            </g>
            <path d="M156.5,137.5 L180.5,172.5" id="Line" stroke="#292A2B" stroke-linecap="square"></path>
            <path id="Line-decoration-1" d="M160.13352,148.103657 L156.5,137.5 L165.081893,144.710487" stroke="#292A2B" stroke-linecap="square"></path>
            <path id="Line-decoration-2" d="M171.918107,165.289513 L180.5,172.5 L176.86648,161.896343" stroke="#292A2B" stroke-linecap="square"></path>
            <path d="M55.5,149.5 L103.5,123.5" id="Line" stroke="#292A2B" stroke-linecap="square"></path>
            <path id="Line-decoration-1" d="M66.4252027,146.994018 L55.5,149.5 L63.5675038,141.718266" stroke="#292A2B" stroke-linecap="square"></path>
            <path id="Line-decoration-2" d="M95.4324962,131.281734 L103.5,123.5 L92.5747973,126.005982" stroke="#292A2B" stroke-linecap="square"></path>
            <path d="M85.5,64.5 L108.5,80.5" id="Line" stroke="#292A2B" stroke-linecap="square"></path>
            <path id="Line-decoration-1" d="M92.6525827,73.1302121 L85.5,64.5 L96.0789696,68.2047809" stroke="#292A2B" stroke-linecap="square"></path>
            <path id="Line-decoration-2" d="M97.9210304,76.7952191 L108.5,80.5 L101.347417,71.8697879" stroke="#292A2B" stroke-linecap="square"></path>
            <path d="M196.5,53.5 L158.5,75.5" id="Line" stroke="#292A2B" stroke-linecap="square"></path>
            <path id="Line-decoration-1" d="M185.650287,56.3149129 L196.5,53.5 L188.656505,61.5074706" stroke="#292A2B" stroke-linecap="square"></path>
            <path id="Line-decoration-2" d="M166.343495,67.4925294 L158.5,75.5 L169.349713,72.6850871" stroke="#292A2B" stroke-linecap="square"></path>
            <g id="Ledger" transform="translate(114.000000, 74.000000)">
                <path d="M32.2032809,-1.77635684e-15 L40,7.79671913 L40,54 L0,54 L0,0 L32.2032809,0 Z" id="Combined-Shape" fill="#FFFFFF"></path>
                <path d="M31.9961741,0.5 L0.5,0.5 L0.5,53.5 L39.5,53.5 L39.5,8.00382591 L31.9961741,0.5 Z" id="Combined-Shape" stroke="#87BC55"></path>
                <path d="M31,0.714285714 L31,9.28571429" id="Line" stroke="#87BC55" stroke-linecap="square"></path>
                <path d="M39.2857143,9 L30.7142857,9" id="Line" stroke="#87BC55" stroke-linecap="square"></path>
                <path d="M26.3,9 L6.7,9" id="Line" stroke="#87BC55" stroke-linecap="square"></path>
                <path d="M34.3095238,21 L6.69047619,21" id="Line" stroke="#87BC55" stroke-linecap="square"></path>
                <path d="M34.3095238,32 L6.69047619,32" id="Line" stroke="#87BC55" stroke-linecap="square"></path>
                <path d="M34.3095238,44 L6.69047619,44" id="Line" stroke="#87BC55" stroke-linecap="square"></path>
            </g>
            <path d="M281,6 L0.5,218.5" id="Line-2" stroke="#F25B44" stroke-width="10" stroke-linecap="square"></path>
        </g>
    </g>
</svg>