<?xml version="1.0" encoding="UTF-8"?>
<svg width="473px" height="235px" viewBox="0 0 473 235" version="1.1" xmlns="http://www.w3.org/2000/svg" xmlns:xlink="http://www.w3.org/1999/xlink">
    <!-- Generator: Sketch 49.1 (51147) - http://www.bohemiancoding.com/sketch -->
    <title>scalability-chi</title>
    <desc>Created with Sketch.</desc>
    <defs></defs>
    <g id="scalability-chi" stroke="none" stroke-width="1" fill="none" fill-rule="evenodd">
        <path d="M428.520065,210.526161 L24.5643939,210.526161" id="Line-9" stroke="#000000" stroke-width="1.13256" stroke-linecap="square"></path>
        <path id="Line-9-decoration-1" d="M417.720065,207.526161 L428.520065,210.526161 L417.720065,213.526161" stroke="#000000" stroke-width="1.13256" stroke-linecap="square"></path>
        <path d="M221.5,15.5 L24.5652174,210.462982" id="Line-9" stroke="#87BC55" stroke-width="1.13256" stroke-linecap="square"></path>
        <path d="M24.5,15.566474 L24.5,210.463165" id="Line-9" stroke="#000000" stroke-width="1.13256" stroke-linecap="square"></path>
        <path id="Line-9-decoration-1" d="M21.5,26.366474 L24.5,15.566474 L27.5,26.366474" stroke="#000000" stroke-width="1.13256" stroke-linecap="square"></path>
        <path d="M352.732,218.732 L357.82,218.732 C357.604,218.192 357.352,217.7 357.076,217.268 L357.784,217.148 C358.048,217.604 358.288,218.132 358.516,218.732 L363.28,218.732 L363.28,219.344 L352.732,219.344 L352.732,218.732 Z M359.836,219.872 C361.168,220.94 362.284,222.008 363.184,223.088 L362.704,223.556 C361.888,222.536 360.772,221.456 359.38,220.304 L359.836,219.872 Z M360.124,222.092 L360.724,222.356 C360.136,223.484 359.404,224.468 358.528,225.284 C359.848,226.28 361.468,227.024 363.388,227.528 L363.004,228.128 C361.012,227.576 359.356,226.772 358.036,225.728 C356.692,226.856 355.036,227.672 353.068,228.176 L352.672,227.6 C354.616,227.096 356.236,226.34 357.532,225.308 C356.608,224.492 355.864,223.568 355.288,222.512 L355.852,222.188 C356.404,223.22 357.136,224.108 358.024,224.876 C358.888,224.084 359.596,223.148 360.124,222.092 Z M356.092,219.872 L356.572,220.304 C355.66,221.492 354.532,222.524 353.188,223.412 L352.768,222.872 C354.088,222.02 355.192,221.024 356.092,219.872 Z M368.224,221.78 L366.424,221.78 L366.424,217.712 L373.636,217.712 L373.636,221.78 L368.932,221.78 C368.692,222.164 368.392,222.536 368.044,222.884 L374.5,222.884 C374.464,224.156 374.392,225.176 374.296,225.956 C374.176,226.724 373.984,227.264 373.732,227.576 C373.48,227.876 373.072,228.044 372.508,228.068 L371.032,228.068 L370.876,227.444 C371.332,227.468 371.776,227.48 372.196,227.48 C372.82,227.48 373.24,227.228 373.444,226.736 C373.648,226.232 373.78,225.14 373.852,223.484 L372.508,223.484 C371.5,225.824 369.832,227.372 367.528,228.14 L367.168,227.6 C369.352,226.88 370.924,225.512 371.86,223.484 L370.072,223.484 C369.256,224.84 367.888,225.908 365.944,226.688 L365.524,226.184 C367.36,225.488 368.644,224.588 369.388,223.484 L367.36,223.484 C366.76,223.952 366.04,224.372 365.224,224.732 L364.864,224.168 C366.4,223.544 367.528,222.74 368.224,221.78 Z M372.988,221.204 L372.988,220.016 L367.06,220.016 L367.06,221.204 L372.988,221.204 Z M367.06,219.464 L372.988,219.464 L372.988,218.276 L367.06,218.276 L367.06,219.464 Z M385.108,223.508 C384.28,222.812 383.656,222.02 383.224,221.132 L381.076,221.132 C380.524,222.008 379.804,222.8 378.916,223.508 L385.108,223.508 Z M383.872,221.132 C384.604,222.452 385.816,223.496 387.496,224.252 L387.208,224.852 C386.44,224.48 385.792,224.072 385.252,223.616 L385.252,228.116 L384.604,228.116 L384.604,227.324 L379.396,227.324 L379.396,228.116 L378.748,228.116 L378.748,223.64 C378.172,224.072 377.536,224.48 376.828,224.84 L376.516,224.252 C378.208,223.412 379.48,222.368 380.344,221.132 L376.816,221.132 L376.816,220.52 L380.728,220.52 C381.088,219.872 381.34,219.2 381.496,218.48 L377.704,218.48 L377.704,217.856 L386.296,217.856 L386.296,218.48 L382.132,218.48 C381.976,219.2 381.736,219.884 381.424,220.52 L387.196,220.52 L387.196,221.132 L383.872,221.132 Z M379.396,226.712 L384.604,226.712 L384.604,224.12 L379.396,224.12 L379.396,226.712 Z M392.128,218.276 L392.128,226.94 L391.492,226.94 L391.492,226.172 L389.752,226.172 L389.752,227.216 L389.104,227.216 L389.104,218.276 L392.128,218.276 Z M389.752,225.56 L391.492,225.56 L391.492,218.9 L389.752,218.9 L389.752,225.56 Z M395.752,217.268 L396.4,217.268 L396.4,220.964 L399.1,220.964 L399.1,221.6 L396.4,221.6 L396.4,227.12 L399.448,227.12 L399.448,227.756 L392.656,227.756 L392.656,227.12 L395.752,227.12 L395.752,221.6 L393.076,221.6 L393.076,220.964 L395.752,220.964 L395.752,217.268 Z M401.92,222.236 L410.104,222.236 L410.104,225.248 L406.312,225.248 L406.312,226.028 L410.464,226.028 L410.464,226.496 L406.312,226.496 L406.312,227.312 L411.352,227.312 L411.352,227.84 L400.648,227.84 L400.648,227.312 L405.664,227.312 L405.664,226.496 L401.56,226.496 L401.56,226.028 L405.664,226.028 L405.664,225.248 L401.92,225.248 L401.92,222.236 Z M409.492,224.816 L409.492,223.964 L406.312,223.964 L406.312,224.816 L409.492,224.816 Z M405.664,224.816 L405.664,223.964 L402.532,223.964 L402.532,224.816 L405.664,224.816 Z M402.532,223.556 L405.664,223.556 L405.664,222.668 L402.532,222.668 L402.532,223.556 Z M406.312,222.668 L406.312,223.556 L409.492,223.556 L409.492,222.668 L406.312,222.668 Z M402.184,217.436 L409.852,217.436 L409.852,220.34 L402.184,220.34 L402.184,217.436 Z M409.228,219.908 L409.228,219.092 L402.808,219.092 L402.808,219.908 L409.228,219.908 Z M402.808,218.672 L409.228,218.672 L409.228,217.868 L402.808,217.868 L402.808,218.672 Z M400.648,221.048 L411.352,221.048 L411.352,221.552 L400.648,221.552 L400.648,221.048 Z" id="交易吞吐量" fill="#292A2B"></path>
        <path d="M-11.244,59.1 L-12.648,59.1 L-12.648,58.476 L-8.808,58.476 L-8.808,59.1 L-10.632,59.1 C-10.8,60.132 -11.052,61.092 -11.388,61.98 L-9.036,61.98 L-9.036,67.212 L-11.208,67.212 L-11.208,68.244 L-11.82,68.244 L-11.82,62.976 C-12.084,63.504 -12.372,64.008 -12.696,64.488 L-13.044,63.924 C-12.132,62.532 -11.532,60.924 -11.244,59.1 Z M-7.368,62.616 L-7.368,64.08 L-5.58,64.08 L-5.58,62.616 L-7.368,62.616 Z M-4.968,62.616 L-4.968,64.08 L-3.18,64.08 L-3.18,62.616 L-4.968,62.616 Z M-3.18,62.064 L-3.18,60.648 L-4.968,60.648 L-4.968,62.064 L-3.18,62.064 Z M-5.58,62.064 L-5.58,60.648 L-7.368,60.648 L-7.368,62.064 L-5.58,62.064 Z M-8.352,58.248 L-2.196,58.248 L-2.196,58.848 L-4.968,58.848 L-4.968,60.072 L-2.58,60.072 L-2.58,64.644 L-5.004,64.644 C-5.1,65.532 -5.352,66.264 -5.736,66.84 C-4.68,67.572 -3.42,67.98 -1.968,68.064 L-2.124,68.652 C-3.66,68.556 -4.992,68.1 -6.12,67.296 C-6.696,67.872 -7.524,68.328 -8.616,68.676 L-8.964,68.148 C-7.92,67.836 -7.14,67.416 -6.612,66.912 C-7.116,66.492 -7.56,66.012 -7.968,65.46 L-7.5,65.124 C-7.128,65.64 -6.708,66.084 -6.24,66.468 C-5.904,65.964 -5.7,65.352 -5.616,64.644 L-7.956,64.644 L-7.956,60.072 L-5.58,60.072 L-5.58,58.848 L-8.352,58.848 L-8.352,58.248 Z M-11.208,66.648 L-9.636,66.648 L-9.636,62.58 L-11.208,62.58 L-11.208,66.648 Z M1.764,57.66 L2.364,57.948 C2.04,58.92 1.644,59.832 1.164,60.672 L1.164,68.688 L0.528,68.688 L0.528,61.692 C0.096,62.304 -0.372,62.88 -0.888,63.432 L-1.104,62.748 C0.216,61.248 1.176,59.556 1.764,57.66 Z M3.768,58.416 L4.404,58.488 C4.284,59.136 4.14,59.736 3.972,60.312 L5.988,60.312 L5.988,57.744 L6.636,57.744 L6.636,60.312 L9.48,60.312 L9.48,60.96 L6.636,60.96 L6.636,64.068 L9.924,64.068 L9.924,64.704 L6.636,64.704 L6.636,68.628 L5.988,68.628 L5.988,64.704 L2.352,64.704 L2.352,64.068 L5.988,64.068 L5.988,60.96 L3.756,60.96 C3.444,61.752 3.072,62.472 2.628,63.108 L2.22,62.58 C2.976,61.44 3.492,60.048 3.768,58.416 Z M11.472,60.012 L12,60.06 C11.964,61.26 11.82,62.4 11.568,63.48 L11.028,63.336 C11.292,62.28 11.436,61.176 11.472,60.012 Z M14.28,59.796 C14.556,60.408 14.808,61.116 15.036,61.908 L14.508,62.04 C14.316,61.32 14.076,60.624 13.788,59.952 L14.28,59.796 Z M12.804,57.756 L13.452,57.756 L13.452,68.628 L12.804,68.628 L12.804,57.756 Z M16.2,60.72 C15.984,61.632 15.648,62.46 15.216,63.228 L14.724,62.796 C15.432,61.512 15.816,60.06 15.888,58.44 L16.488,58.512 C16.464,59.064 16.416,59.58 16.332,60.084 L18.276,60.084 L18.276,57.768 L18.924,57.768 L18.924,60.084 L21.636,60.084 L21.636,60.72 L18.924,60.72 L18.924,63.804 L21.42,63.804 L21.42,64.44 L18.924,64.44 L18.924,67.656 L21.948,67.656 L21.948,68.292 L14.76,68.292 L14.76,67.656 L18.276,67.656 L18.276,64.44 L15.456,64.44 L15.456,63.804 L18.276,63.804 L18.276,60.72 L16.2,60.72 Z M24.54,64.512 L24.54,65.808 L27.528,65.808 L27.528,64.512 L24.54,64.512 Z M27.528,63.936 L27.528,62.616 L24.54,62.616 L24.54,63.936 L27.528,63.936 Z M24.54,66.372 L24.54,68.688 L23.904,68.688 L23.904,62.028 L28.164,62.028 L28.164,67.704 C28.164,68.304 27.852,68.604 27.252,68.604 L26.268,68.604 L26.112,67.992 L27.048,68.028 C27.36,68.028 27.528,67.872 27.528,67.572 L27.528,66.372 L24.54,66.372 Z M32.448,62.904 L30.456,62.904 C29.808,62.904 29.484,62.568 29.484,61.896 L29.484,57.744 L30.12,57.744 L30.12,59.424 C31.512,59.208 32.628,58.98 33.468,58.74 L33.684,59.328 C32.652,59.592 31.464,59.82 30.12,60.024 L30.12,61.764 C30.12,62.124 30.288,62.304 30.648,62.304 L32.328,62.304 C32.592,62.304 32.772,62.244 32.892,62.124 C33.036,61.944 33.12,61.452 33.168,60.648 L33.78,60.852 C33.708,61.812 33.564,62.4 33.348,62.628 C33.156,62.808 32.856,62.904 32.448,62.904 Z M30.12,65.58 L30.12,67.488 C30.12,67.764 30.276,67.908 30.612,67.908 L32.376,67.908 C32.664,67.908 32.856,67.836 32.976,67.716 C33.12,67.548 33.216,67.068 33.264,66.276 L33.864,66.468 C33.792,67.416 33.636,68.004 33.42,68.232 C33.228,68.4 32.928,68.484 32.496,68.484 L30.42,68.484 C29.796,68.484 29.484,68.196 29.484,67.62 L29.484,63.408 L30.12,63.408 L30.12,64.992 C31.38,64.86 32.496,64.644 33.468,64.344 L33.684,64.944 C32.58,65.256 31.392,65.472 30.12,65.58 Z M27.276,58.572 C28.02,59.556 28.596,60.42 28.992,61.164 L28.464,61.536 C28.32,61.272 28.176,60.996 28.008,60.72 C26.724,60.924 25.164,61.08 23.34,61.176 L23.16,60.612 C23.28,60.576 23.376,60.516 23.46,60.444 C24.216,59.712 24.864,58.812 25.416,57.744 L26.04,57.924 C25.44,59.076 24.78,59.964 24.084,60.576 C25.224,60.528 26.436,60.408 27.708,60.24 C27.42,59.808 27.108,59.352 26.772,58.896 L27.276,58.572 Z" id="硬件性能" fill="#292A2B" transform="translate(10.410000, 63.174000) rotate(-90.000000) translate(-10.410000, -63.174000) "></path>
    </g>
</svg>