<?xml version="1.0" encoding="UTF-8"?>
<svg width="473px" height="235px" viewBox="0 0 473 235" version="1.1" xmlns="http://www.w3.org/2000/svg" xmlns:xlink="http://www.w3.org/1999/xlink">
    <!-- Generator: Sketch 49.1 (51147) - http://www.bohemiancoding.com/sketch -->
    <title>scalability</title>
    <desc>Created with Sketch.</desc>
    <defs></defs>
    <g id="scalability" stroke="none" stroke-width="1" fill="none" fill-rule="evenodd">
        <path d="M428.520065,210.526161 L24.5643939,210.526161" id="Line-9" stroke="#000000" stroke-width="1.13256" stroke-linecap="square"></path>
        <path id="Line-9-decoration-1" d="M417.720065,207.526161 L428.520065,210.526161 L417.720065,213.526161" stroke="#000000" stroke-width="1.13256" stroke-linecap="square"></path>
        <path d="M221.5,15.5 L24.5652174,210.462982" id="Line-9" stroke="#87BC55" stroke-width="1.13256" stroke-linecap="square"></path>
        <path d="M328.027344,222.819336 L328.027344,222.477539 C328.027344,222.404622 328.055827,222.339681 328.112793,222.282715 C328.169759,222.225748 328.2347,222.197266 328.307617,222.197266 L333.625977,222.197266 C333.698894,222.197266 333.763834,222.225748 333.820801,222.282715 C333.877767,222.339681 333.90625,222.404622 333.90625,222.477539 L333.90625,222.819336 C333.90625,222.892253 333.878907,222.956054 333.824219,223.010742 C333.769531,223.06543 333.703451,223.092773 333.625977,223.092773 L331.568359,223.092773 C331.477213,223.092773 331.431641,223.140625 331.431641,223.236328 L331.431641,231.719727 C331.431641,231.792644 331.403158,231.857584 331.346191,231.914551 C331.289225,231.971517 331.224284,232 331.151367,232 L330.802734,232 C330.729817,232 330.664877,231.971517 330.60791,231.914551 C330.550944,231.857584 330.522461,231.792644 330.522461,231.719727 L330.522461,223.236328 C330.522461,223.145182 330.47461,223.097331 330.378906,223.092773 L328.307617,223.092773 C328.2347,223.092773 328.169759,223.06543 328.112793,223.010742 C328.055827,222.956054 328.027344,222.892253 328.027344,222.819336 Z M334.049805,231.719727 L334.049805,225.280273 C334.049805,225.207356 334.077148,225.142416 334.131836,225.085449 C334.186524,225.028483 334.252604,225 334.330078,225 L334.507812,225 C334.658204,225 334.751627,225.093424 334.788086,225.280273 C334.806315,225.37142 334.827962,225.476236 334.853027,225.594727 C334.878093,225.713217 334.940755,225.772461 335.041016,225.772461 C335.132162,225.772461 335.216471,225.732585 335.293945,225.652832 C335.37142,225.573079 335.477376,225.484213 335.611816,225.38623 C335.746257,225.288248 335.925129,225.199382 336.148438,225.119629 C336.371746,225.039876 336.67936,225 337.071289,225 L337.098633,225 C337.17155,225 337.236491,225.028483 337.293457,225.085449 C337.350423,225.142416 337.378906,225.207356 337.378906,225.280273 L337.378906,225.533203 C337.378906,225.60612 337.351563,225.671061 337.296875,225.728027 C337.242187,225.784994 337.176107,225.813477 337.098633,225.813477 L337.057617,225.813477 C336.79785,225.813477 336.539227,225.851074 336.281738,225.92627 C336.02425,226.001465 335.790691,226.129068 335.581055,226.309082 C335.371418,226.489096 335.201661,226.734048 335.071777,227.043945 C334.941894,227.353843 334.876953,227.745766 334.876953,228.219727 L334.876953,231.719727 C334.876953,231.792644 334.84847,231.857584 334.791504,231.914551 C334.734537,231.971517 334.669597,232 334.59668,232 L334.330078,232 C334.257161,232 334.19222,231.971517 334.135254,231.914551 C334.078287,231.857584 334.049805,231.792644 334.049805,231.719727 Z M338.021484,229.901367 C338.021484,229.614256 338.072753,229.34424 338.175293,229.091309 C338.277833,228.838378 338.427082,228.620769 338.623047,228.438477 C338.819011,228.256184 339.061685,228.11377 339.351074,228.01123 C339.640464,227.908691 339.967446,227.857422 340.332031,227.857422 L342.334961,227.857422 C342.426107,227.857422 342.47168,227.809571 342.47168,227.713867 L342.47168,227.166992 C342.47168,226.711261 342.314455,226.340984 342,226.056152 C341.685545,225.77132 341.27995,225.628906 340.783203,225.628906 C340.569009,225.628906 340.362794,225.659668 340.164551,225.721191 C339.966308,225.782715 339.793132,225.867024 339.64502,225.974121 C339.496907,226.081218 339.37614,226.208821 339.282715,226.356934 C339.18929,226.505046 339.142578,226.672525 339.142578,226.859375 C339.142578,226.982422 339.104981,227.05306 339.029785,227.071289 C338.954589,227.089518 338.885091,227.098633 338.821289,227.098633 L338.623047,227.098633 C338.436197,227.098633 338.342773,227.005209 338.342773,226.818359 C338.342773,226.490233 338.413411,226.205405 338.554688,225.963867 C338.695964,225.72233 338.882811,225.519532 339.115234,225.355469 C339.347657,225.191405 339.60856,225.06836 339.897949,224.986328 C340.187339,224.904296 340.48242,224.863281 340.783203,224.863281 C341.129559,224.863281 341.453123,224.908854 341.753906,225 C342.054689,225.091146 342.320149,225.232421 342.550293,225.423828 C342.780437,225.615235 342.962727,225.85563 343.097168,226.14502 C343.231609,226.434409 343.298828,226.77962 343.298828,227.180664 L343.298828,231.719727 C343.298828,231.792644 343.271485,231.857584 343.216797,231.914551 C343.162109,231.971517 343.096029,232 343.018555,232 L342.895508,232 C342.804362,232 342.738281,231.968099 342.697266,231.904297 C342.660807,231.849609 342.628906,231.786947 342.601562,231.716309 C342.574219,231.64567 342.512696,231.610352 342.416992,231.610352 C342.35319,231.610352 342.27002,231.637695 342.16748,231.692383 C342.064941,231.747071 341.938477,231.807454 341.788086,231.873535 C341.637695,231.939616 341.462241,232 341.261719,232.054688 C341.061197,232.109375 340.831056,232.136719 340.571289,232.136719 C340.142902,232.136719 339.766929,232.076335 339.443359,231.955566 C339.11979,231.834798 338.853191,231.671876 338.643555,231.466797 C338.433918,231.261718 338.277833,231.023602 338.175293,230.752441 C338.072753,230.481281 338.021484,230.197593 338.021484,229.901367 Z M338.848633,229.887695 C338.848633,230.138348 338.893066,230.354817 338.981934,230.537109 C339.070801,230.719402 339.191568,230.87093 339.344238,230.991699 C339.496908,231.112468 339.671223,231.203613 339.867188,231.265137 C340.063152,231.32666 340.275064,231.357422 340.50293,231.357422 C341.145511,231.357422 341.641112,231.208172 341.989746,230.909668 C342.338381,230.611164 342.512695,230.177086 342.512695,229.607422 L342.512695,228.766602 C342.512695,228.675455 342.467123,228.627604 342.375977,228.623047 L340.332031,228.623047 C339.940102,228.623047 339.594891,228.731281 339.296387,228.947754 C338.997883,229.164226 338.848633,229.477537 338.848633,229.887695 Z M345.076172,231.719727 L345.076172,225.280273 C345.076172,225.207356 345.103515,225.142416 345.158203,225.085449 C345.212891,225.028483 345.278971,225 345.356445,225 L345.582031,225 C345.645834,225 345.709635,225.031901 345.773438,225.095703 C345.819011,225.141276 345.865722,225.190267 345.913574,225.242676 C345.961426,225.295085 346.026367,225.321289 346.108398,225.321289 C346.213217,225.321289 346.310058,225.298503 346.398926,225.25293 C346.487793,225.207357 346.590331,225.153809 346.706543,225.092285 C346.822754,225.030761 346.965168,224.977214 347.133789,224.931641 C347.30241,224.886067 347.5166,224.863281 347.776367,224.863281 C348.140952,224.863281 348.477049,224.91455 348.784668,225.01709 C349.092287,225.119629 349.357746,225.273436 349.581055,225.478516 C349.804363,225.683595 349.977538,225.937661 350.100586,226.240723 C350.223633,226.543784 350.285156,226.895831 350.285156,227.296875 L350.285156,231.719727 C350.285156,231.792644 350.256673,231.857584 350.199707,231.914551 C350.142741,231.971517 350.0778,232 350.004883,232 L349.738281,232 C349.665364,232 349.600423,231.971517 349.543457,231.914551 C349.486491,231.857584 349.458008,231.792644 349.458008,231.719727 L349.458008,227.296875 C349.458008,226.708981 349.287111,226.293133 348.945312,226.049316 C348.603514,225.8055 348.181969,225.683594 347.680664,225.683594 C347.430012,225.683594 347.196453,225.72347 346.97998,225.803223 C346.763508,225.882976 346.574382,225.993489 346.412598,226.134766 C346.250813,226.276042 346.125489,226.440103 346.036621,226.626953 C345.947753,226.813803 345.90332,227.014322 345.90332,227.228516 L345.90332,231.719727 C345.90332,231.792644 345.874838,231.857584 345.817871,231.914551 C345.760905,231.971517 345.695964,232 345.623047,232 L345.356445,232 C345.283528,232 345.218588,231.971517 345.161621,231.914551 C345.104655,231.857584 345.076172,231.792644 345.076172,231.719727 Z M351.433594,229.901367 L351.433594,229.716797 C351.433594,229.64388 351.460937,229.578939 351.515625,229.521973 C351.570313,229.465006 351.634114,229.436523 351.707031,229.436523 L351.973633,229.436523 C352.04655,229.436523 352.111491,229.465006 352.168457,229.521973 C352.225423,229.578939 352.253906,229.64388 352.253906,229.716797 L352.253906,229.901367 C352.253906,230.115561 352.302897,230.309244 352.400879,230.482422 C352.498861,230.6556 352.632161,230.80485 352.800781,230.930176 C352.969402,231.055502 353.167642,231.153483 353.395508,231.224121 C353.623374,231.294759 353.869465,231.330078 354.133789,231.330078 C354.712568,231.330078 355.167153,231.199057 355.497559,230.937012 C355.827964,230.674966 355.993164,230.352541 355.993164,229.969727 C355.993164,229.746418 355.932781,229.559571 355.812012,229.40918 C355.691243,229.258788 355.537436,229.134603 355.350586,229.036621 C355.163736,228.938639 354.956381,228.862305 354.728516,228.807617 C354.50065,228.752929 354.279623,228.711914 354.06543,228.68457 C353.755532,228.638997 353.455893,228.576335 353.166504,228.496582 C352.877114,228.416829 352.623048,228.304037 352.404297,228.158203 C352.185546,228.012369 352.007813,227.830079 351.871094,227.611328 C351.734374,227.392577 351.666016,227.119142 351.666016,226.791016 C351.666016,226.522134 351.734374,226.268068 351.871094,226.028809 C352.007813,225.78955 352.190103,225.584474 352.417969,225.413574 C352.645834,225.242675 352.909015,225.108236 353.20752,225.010254 C353.506024,224.912272 353.814777,224.863281 354.133789,224.863281 C354.452801,224.863281 354.755858,224.908854 355.042969,225 C355.33008,225.091146 355.586425,225.227864 355.812012,225.410156 C356.037599,225.592449 356.21761,225.812336 356.352051,226.069824 C356.486492,226.327312 356.553711,226.620116 356.553711,226.948242 C356.553711,227.05306 356.526367,227.128255 356.47168,227.173828 C356.416992,227.219401 356.350912,227.242188 356.273438,227.242188 L356.006836,227.242188 C355.933919,227.242188 355.868978,227.218262 355.812012,227.17041 C355.755045,227.122558 355.726562,227.048503 355.726562,226.948242 C355.726562,226.601886 355.584149,226.29769 355.299316,226.035645 C355.014484,225.773599 354.625979,225.642578 354.133789,225.642578 C353.637042,225.642578 353.241701,225.759927 352.947754,225.994629 C352.653807,226.229331 352.506836,226.49479 352.506836,226.791016 C352.506836,226.98698 352.555826,227.145344 352.653809,227.266113 C352.751791,227.386882 352.875976,227.484863 353.026367,227.560059 C353.176759,227.635254 353.345377,227.694498 353.532227,227.737793 C353.719076,227.781087 353.896809,227.816406 354.06543,227.84375 C354.35254,227.898438 354.659015,227.967936 354.984863,228.052246 C355.310711,228.136556 355.609211,228.255045 355.880371,228.407715 C356.151531,228.560385 356.375976,228.763182 356.553711,229.016113 C356.731446,229.269044 356.820312,229.586912 356.820312,229.969727 C356.820312,230.270509 356.75765,230.55078 356.632324,230.810547 C356.506998,231.070314 356.324708,231.298176 356.085449,231.494141 C355.84619,231.690105 355.561362,231.846191 355.230957,231.962402 C354.900552,232.078614 354.534833,232.136719 354.133789,232.136719 C353.778319,232.136719 353.439943,232.08545 353.118652,231.98291 C352.797362,231.880371 352.510255,231.733399 352.257324,231.541992 C352.004393,231.350585 351.803874,231.118165 351.655762,230.844727 C351.507649,230.571288 351.433594,230.256838 351.433594,229.901367 Z M357.866211,229.901367 C357.866211,229.614256 357.91748,229.34424 358.02002,229.091309 C358.122559,228.838378 358.271809,228.620769 358.467773,228.438477 C358.663738,228.256184 358.906411,228.11377 359.195801,228.01123 C359.48519,227.908691 359.812173,227.857422 360.176758,227.857422 L362.179688,227.857422 C362.270834,227.857422 362.316406,227.809571 362.316406,227.713867 L362.316406,227.166992 C362.316406,226.711261 362.159181,226.340984 361.844727,226.056152 C361.530272,225.77132 361.124677,225.628906 360.62793,225.628906 C360.413736,225.628906 360.207521,225.659668 360.009277,225.721191 C359.811034,225.782715 359.637859,225.867024 359.489746,225.974121 C359.341633,226.081218 359.220866,226.208821 359.127441,226.356934 C359.034016,226.505046 358.987305,226.672525 358.987305,226.859375 C358.987305,226.982422 358.949707,227.05306 358.874512,227.071289 C358.799316,227.089518 358.729818,227.098633 358.666016,227.098633 L358.467773,227.098633 C358.280924,227.098633 358.1875,227.005209 358.1875,226.818359 C358.1875,226.490233 358.258137,226.205405 358.399414,225.963867 C358.540691,225.72233 358.727538,225.519532 358.959961,225.355469 C359.192384,225.191405 359.453286,225.06836 359.742676,224.986328 C360.032065,224.904296 360.327147,224.863281 360.62793,224.863281 C360.974286,224.863281 361.29785,224.908854 361.598633,225 C361.899416,225.091146 362.164875,225.232421 362.39502,225.423828 C362.625164,225.615235 362.807454,225.85563 362.941895,226.14502 C363.076335,226.434409 363.143555,226.77962 363.143555,227.180664 L363.143555,231.719727 C363.143555,231.792644 363.116211,231.857584 363.061523,231.914551 C363.006836,231.971517 362.940756,232 362.863281,232 L362.740234,232 C362.649088,232 362.583008,231.968099 362.541992,231.904297 C362.505534,231.849609 362.473633,231.786947 362.446289,231.716309 C362.418945,231.64567 362.357422,231.610352 362.261719,231.610352 C362.197916,231.610352 362.114747,231.637695 362.012207,231.692383 C361.909667,231.747071 361.783204,231.807454 361.632812,231.873535 C361.482421,231.939616 361.306967,232 361.106445,232.054688 C360.905923,232.109375 360.675783,232.136719 360.416016,232.136719 C359.987628,232.136719 359.611655,232.076335 359.288086,231.955566 C358.964517,231.834798 358.697918,231.671876 358.488281,231.466797 C358.278645,231.261718 358.122559,231.023602 358.02002,230.752441 C357.91748,230.481281 357.866211,230.197593 357.866211,229.901367 Z M358.693359,229.887695 C358.693359,230.138348 358.737793,230.354817 358.82666,230.537109 C358.915528,230.719402 359.036295,230.87093 359.188965,230.991699 C359.341635,231.112468 359.51595,231.203613 359.711914,231.265137 C359.907879,231.32666 360.119791,231.357422 360.347656,231.357422 C360.990238,231.357422 361.485838,231.208172 361.834473,230.909668 C362.183107,230.611164 362.357422,230.177086 362.357422,229.607422 L362.357422,228.766602 C362.357422,228.675455 362.311849,228.627604 362.220703,228.623047 L360.176758,228.623047 C359.784829,228.623047 359.439617,228.731281 359.141113,228.947754 C358.842609,229.164226 358.693359,229.477537 358.693359,229.887695 Z M364.708984,229.477539 C364.690755,229.199543 364.681641,228.8737 364.681641,228.5 C364.681641,228.1263 364.690755,227.800457 364.708984,227.522461 C364.736328,227.157876 364.820637,226.811525 364.961914,226.483398 C365.103191,226.155272 365.294595,225.872723 365.536133,225.635742 C365.77767,225.398762 366.067056,225.210775 366.404297,225.071777 C366.741538,224.932779 367.11979,224.863281 367.539062,224.863281 C367.930992,224.863281 368.287596,224.928222 368.608887,225.058105 C368.930177,225.187989 369.208169,225.362304 369.442871,225.581055 C369.677573,225.799806 369.857584,226.051594 369.98291,226.336426 C370.108236,226.621258 370.170898,226.923175 370.170898,227.242188 C370.170898,227.315105 370.149252,227.380045 370.105957,227.437012 C370.062663,227.493978 370.004558,227.522461 369.931641,227.522461 L369.610352,227.522461 C369.546549,227.522461 369.486166,227.503093 369.429199,227.464355 C369.372233,227.425618 369.34375,227.369792 369.34375,227.296875 C369.34375,227.091796 369.303874,226.891277 369.224121,226.695312 C369.144368,226.499348 369.028158,226.326173 368.875488,226.175781 C368.722818,226.02539 368.533693,225.905762 368.308105,225.816895 C368.082518,225.728027 367.826173,225.683594 367.539062,225.683594 C367.183592,225.683594 366.885092,225.745117 366.643555,225.868164 C366.402017,225.991212 366.203777,226.14274 366.048828,226.322754 C365.893879,226.502768 365.778809,226.701008 365.703613,226.91748 C365.628418,227.133953 365.581706,227.335611 365.563477,227.522461 C365.536133,227.809572 365.522461,228.135415 365.522461,228.5 C365.522461,228.864585 365.536133,229.190428 365.563477,229.477539 C365.581706,229.664389 365.628418,229.866047 365.703613,230.08252 C365.778809,230.298992 365.893879,230.497232 366.048828,230.677246 C366.203777,230.85726 366.402017,231.008788 366.643555,231.131836 C366.885092,231.254883 367.183592,231.316406 367.539062,231.316406 C367.84896,231.316406 368.115559,231.267416 368.338867,231.169434 C368.562176,231.071451 368.747883,230.944988 368.895996,230.790039 C369.044109,230.63509 369.153483,230.464194 369.224121,230.277344 C369.294759,230.090494 369.330078,229.903647 369.330078,229.716797 C369.330078,229.625651 369.358561,229.562988 369.415527,229.528809 C369.472494,229.494629 369.532877,229.477539 369.59668,229.477539 L369.890625,229.477539 C369.963542,229.477539 370.028483,229.506022 370.085449,229.562988 C370.142416,229.619955 370.170898,229.684895 370.170898,229.757812 C370.170898,230.076825 370.108236,230.378742 369.98291,230.663574 C369.857584,230.948406 369.677573,231.200194 369.442871,231.418945 C369.208169,231.637696 368.930177,231.812011 368.608887,231.941895 C368.287596,232.071778 367.930992,232.136719 367.539062,232.136719 C367.11979,232.136719 366.741538,232.067221 366.404297,231.928223 C366.067056,231.789225 365.77767,231.601238 365.536133,231.364258 C365.294595,231.127277 365.103191,230.844728 364.961914,230.516602 C364.820637,230.188475 364.736328,229.842124 364.708984,229.477539 Z M370.833984,225.615234 L370.833984,225.348633 C370.833984,225.275716 370.862467,225.210775 370.919434,225.153809 C370.9764,225.096842 371.041341,225.068359 371.114258,225.068359 L372.249023,225.068359 C372.34017,225.068359 372.388021,225.022787 372.392578,224.931641 L372.392578,222.757812 C372.392578,222.684895 372.419922,222.619955 372.474609,222.562988 C372.529297,222.506022 372.595377,222.477539 372.672852,222.477539 L372.946289,222.477539 C373.019206,222.477539 373.084147,222.506022 373.141113,222.562988 C373.19808,222.619955 373.226562,222.684895 373.226562,222.757812 L373.226562,224.931641 C373.226562,225.022787 373.274414,225.068359 373.370117,225.068359 L375.133789,225.068359 C375.206706,225.068359 375.271647,225.096842 375.328613,225.153809 C375.38558,225.210775 375.414062,225.275716 375.414062,225.348633 L375.414062,225.615234 C375.414062,225.688151 375.38558,225.753092 375.328613,225.810059 C375.271647,225.867025 375.206706,225.895508 375.133789,225.895508 L373.370117,225.895508 C373.278971,225.895508 373.23112,225.943359 373.226562,226.039062 L373.226562,229.757812 C373.226562,230.25456 373.322265,230.621418 373.513672,230.858398 C373.705079,231.095379 374.053708,231.213867 374.55957,231.213867 L375.270508,231.213867 C375.343425,231.213867 375.408366,231.24235 375.465332,231.299316 C375.522298,231.356283 375.550781,231.421224 375.550781,231.494141 L375.550781,231.719727 C375.550781,231.792644 375.523438,231.857584 375.46875,231.914551 C375.414062,231.971517 375.347982,232 375.270508,232 L374.55957,232 C373.8304,232 373.286948,231.829103 372.929199,231.487305 C372.57145,231.145506 372.392578,230.569014 372.392578,229.757812 L372.392578,226.039062 C372.392578,225.947916 372.344727,225.900065 372.249023,225.895508 L371.114258,225.895508 C371.041341,225.895508 370.9764,225.867025 370.919434,225.810059 C370.862467,225.753092 370.833984,225.688151 370.833984,225.615234 Z M376.712891,223.06543 L376.712891,222.327148 C376.712891,222.272461 376.734538,222.221192 376.777832,222.17334 C376.821127,222.125488 376.874674,222.101562 376.938477,222.101562 L377.663086,222.101562 C377.726888,222.101562 377.780436,222.125488 377.82373,222.17334 C377.867025,222.221192 377.888672,222.272461 377.888672,222.327148 L377.888672,223.06543 C377.888672,223.215821 377.813477,223.291016 377.663086,223.291016 L376.938477,223.291016 C376.788085,223.291016 376.712891,223.215821 376.712891,223.06543 Z M376.897461,231.719727 L376.897461,225.280273 C376.897461,225.207356 376.917969,225.142416 376.958984,225.085449 C377,225.028483 377.072916,225 377.177734,225 L377.458008,225 C377.562826,225 377.635742,225.028483 377.676758,225.085449 C377.717774,225.142416 377.738281,225.207356 377.738281,225.280273 L377.738281,231.719727 C377.738281,231.792644 377.716634,231.857584 377.67334,231.914551 C377.630045,231.971517 377.558269,232 377.458008,232 L377.177734,232 C377.072916,232 377,231.971517 376.958984,231.914551 C376.917969,231.857584 376.897461,231.792644 376.897461,231.719727 Z M379.426758,229.477539 C379.408529,229.199543 379.399414,228.8737 379.399414,228.5 C379.399414,228.1263 379.408529,227.800457 379.426758,227.522461 C379.454102,227.157876 379.538411,226.811525 379.679688,226.483398 C379.820964,226.155272 380.012369,225.872723 380.253906,225.635742 C380.495444,225.398762 380.784829,225.210775 381.12207,225.071777 C381.459312,224.932779 381.837563,224.863281 382.256836,224.863281 C382.676109,224.863281 383.053221,224.932779 383.388184,225.071777 C383.723146,225.210775 384.012531,225.398762 384.256348,225.635742 C384.500164,225.872723 384.691568,226.155272 384.830566,226.483398 C384.969564,226.811525 385.055013,227.157876 385.086914,227.522461 C385.105143,227.800457 385.114258,228.1263 385.114258,228.5 C385.114258,228.8737 385.105143,229.199543 385.086914,229.477539 C385.05957,229.842124 384.975261,230.188475 384.833984,230.516602 C384.692708,230.844728 384.500164,231.127277 384.256348,231.364258 C384.012531,231.601238 383.723146,231.789225 383.388184,231.928223 C383.053221,232.067221 382.676109,232.136719 382.256836,232.136719 C381.837563,232.136719 381.459312,232.067221 381.12207,231.928223 C380.784829,231.789225 380.495444,231.601238 380.253906,231.364258 C380.012369,231.127277 379.820964,230.844728 379.679688,230.516602 C379.538411,230.188475 379.454102,229.842124 379.426758,229.477539 Z M380.28125,227.522461 C380.253906,227.809572 380.240234,228.135415 380.240234,228.5 C380.240234,228.864585 380.253906,229.190428 380.28125,229.477539 C380.299479,229.664389 380.346191,229.866047 380.421387,230.08252 C380.496582,230.298992 380.611653,230.497232 380.766602,230.677246 C380.92155,230.85726 381.11979,231.008788 381.361328,231.131836 C381.602866,231.254883 381.901365,231.316406 382.256836,231.316406 C382.603192,231.316406 382.899413,231.254883 383.145508,231.131836 C383.391603,231.008788 383.592122,230.85726 383.74707,230.677246 C383.902019,230.497232 384.017089,230.298992 384.092285,230.08252 C384.167481,229.866047 384.214193,229.664389 384.232422,229.477539 C384.259766,229.190428 384.273438,228.864585 384.273438,228.5 C384.273438,228.135415 384.259766,227.809572 384.232422,227.522461 C384.214193,227.335611 384.167481,227.133953 384.092285,226.91748 C384.017089,226.701008 383.902019,226.502768 383.74707,226.322754 C383.592122,226.14274 383.391603,225.991212 383.145508,225.868164 C382.899413,225.745117 382.603192,225.683594 382.256836,225.683594 C381.901365,225.683594 381.602866,225.745117 381.361328,225.868164 C381.11979,225.991212 380.92155,226.14274 380.766602,226.322754 C380.611653,226.502768 380.496582,226.701008 380.421387,226.91748 C380.346191,227.133953 380.299479,227.335611 380.28125,227.522461 Z M386.638672,231.719727 L386.638672,225.280273 C386.638672,225.207356 386.666015,225.142416 386.720703,225.085449 C386.775391,225.028483 386.841471,225 386.918945,225 L387.144531,225 C387.208334,225 387.272135,225.031901 387.335938,225.095703 C387.381511,225.141276 387.428222,225.190267 387.476074,225.242676 C387.523926,225.295085 387.588867,225.321289 387.670898,225.321289 C387.775717,225.321289 387.872558,225.298503 387.961426,225.25293 C388.050293,225.207357 388.152831,225.153809 388.269043,225.092285 C388.385254,225.030761 388.527668,224.977214 388.696289,224.931641 C388.86491,224.886067 389.0791,224.863281 389.338867,224.863281 C389.703452,224.863281 390.039549,224.91455 390.347168,225.01709 C390.654787,225.119629 390.920246,225.273436 391.143555,225.478516 C391.366863,225.683595 391.540038,225.937661 391.663086,226.240723 C391.786133,226.543784 391.847656,226.895831 391.847656,227.296875 L391.847656,231.719727 C391.847656,231.792644 391.819173,231.857584 391.762207,231.914551 C391.705241,231.971517 391.6403,232 391.567383,232 L391.300781,232 C391.227864,232 391.162923,231.971517 391.105957,231.914551 C391.048991,231.857584 391.020508,231.792644 391.020508,231.719727 L391.020508,227.296875 C391.020508,226.708981 390.849611,226.293133 390.507812,226.049316 C390.166014,225.8055 389.744469,225.683594 389.243164,225.683594 C388.992512,225.683594 388.758953,225.72347 388.54248,225.803223 C388.326008,225.882976 388.136882,225.993489 387.975098,226.134766 C387.813313,226.276042 387.687989,226.440103 387.599121,226.626953 C387.510253,226.813803 387.46582,227.014322 387.46582,227.228516 L387.46582,231.719727 C387.46582,231.792644 387.437338,231.857584 387.380371,231.914551 C387.323405,231.971517 387.258464,232 387.185547,232 L386.918945,232 C386.846028,232 386.781088,231.971517 386.724121,231.914551 C386.667155,231.857584 386.638672,231.792644 386.638672,231.719727 Z M395.833008,225.615234 L395.833008,225.348633 C395.833008,225.275716 395.861491,225.210775 395.918457,225.153809 C395.975423,225.096842 396.040364,225.068359 396.113281,225.068359 L397.248047,225.068359 C397.339193,225.068359 397.387044,225.022787 397.391602,224.931641 L397.391602,222.757812 C397.391602,222.684895 397.418945,222.619955 397.473633,222.562988 C397.528321,222.506022 397.594401,222.477539 397.671875,222.477539 L397.945312,222.477539 C398.01823,222.477539 398.08317,222.506022 398.140137,222.562988 C398.197103,222.619955 398.225586,222.684895 398.225586,222.757812 L398.225586,224.931641 C398.225586,225.022787 398.273437,225.068359 398.369141,225.068359 L400.132812,225.068359 C400.20573,225.068359 400.27067,225.096842 400.327637,225.153809 C400.384603,225.210775 400.413086,225.275716 400.413086,225.348633 L400.413086,225.615234 C400.413086,225.688151 400.384603,225.753092 400.327637,225.810059 C400.27067,225.867025 400.20573,225.895508 400.132812,225.895508 L398.369141,225.895508 C398.277994,225.895508 398.230143,225.943359 398.225586,226.039062 L398.225586,229.757812 C398.225586,230.25456 398.321288,230.621418 398.512695,230.858398 C398.704103,231.095379 399.052732,231.213867 399.558594,231.213867 L400.269531,231.213867 C400.342448,231.213867 400.407389,231.24235 400.464355,231.299316 C400.521322,231.356283 400.549805,231.421224 400.549805,231.494141 L400.549805,231.719727 C400.549805,231.792644 400.522461,231.857584 400.467773,231.914551 C400.413086,231.971517 400.347006,232 400.269531,232 L399.558594,232 C398.829423,232 398.285972,231.829103 397.928223,231.487305 C397.570473,231.145506 397.391602,230.569014 397.391602,229.757812 L397.391602,226.039062 C397.391602,225.947916 397.34375,225.900065 397.248047,225.895508 L396.113281,225.895508 C396.040364,225.895508 395.975423,225.867025 395.918457,225.810059 C395.861491,225.753092 395.833008,225.688151 395.833008,225.615234 Z M401.711914,231.719727 L401.711914,222.381836 C401.711914,222.308919 401.740397,222.243978 401.797363,222.187012 C401.85433,222.130045 401.91927,222.101562 401.992188,222.101562 L402.258789,222.101562 C402.331706,222.101562 402.396647,222.130045 402.453613,222.187012 C402.51058,222.243978 402.539062,222.308919 402.539062,222.381836 L402.539062,224.917969 C402.539062,224.981771 402.564127,225.046712 402.614258,225.112793 C402.664388,225.178874 402.741861,225.211914 402.84668,225.211914 C402.910482,225.211914 402.986816,225.192546 403.075684,225.153809 C403.164551,225.115071 403.270507,225.075196 403.393555,225.03418 C403.516602,224.993164 403.654459,224.954427 403.807129,224.917969 C403.959799,224.88151 404.138671,224.863281 404.34375,224.863281 C404.708335,224.863281 405.042153,224.928222 405.345215,225.058105 C405.648276,225.187989 405.904621,225.364582 406.114258,225.587891 C406.323894,225.811199 406.486816,226.069823 406.603027,226.36377 C406.719239,226.657716 406.777344,226.968748 406.777344,227.296875 L406.777344,231.719727 C406.777344,231.792644 406.75,231.857584 406.695312,231.914551 C406.640625,231.971517 406.576823,232 406.503906,232 L406.237305,232 C406.164388,232 406.099447,231.971517 406.04248,231.914551 C405.985514,231.857584 405.957031,231.792644 405.957031,231.719727 L405.957031,227.296875 C405.957031,226.822914 405.797528,226.435548 405.478516,226.134766 C405.159504,225.833983 404.749351,225.683594 404.248047,225.683594 C403.997395,225.683594 403.766114,225.72347 403.554199,225.803223 C403.342284,225.882976 403.162273,225.993489 403.01416,226.134766 C402.866047,226.276042 402.749838,226.440103 402.665527,226.626953 C402.581217,226.813803 402.539062,227.014322 402.539062,227.228516 L402.539062,231.719727 C402.539062,231.792644 402.51058,231.857584 402.453613,231.914551 C402.396647,231.971517 402.331706,232 402.258789,232 L401.992188,232 C401.91927,232 401.85433,231.971517 401.797363,231.914551 C401.740397,231.857584 401.711914,231.792644 401.711914,231.719727 Z M408.31543,231.719727 L408.31543,225.280273 C408.31543,225.207356 408.342773,225.142416 408.397461,225.085449 C408.452149,225.028483 408.518229,225 408.595703,225 L408.773438,225 C408.923829,225 409.017252,225.093424 409.053711,225.280273 C409.07194,225.37142 409.093587,225.476236 409.118652,225.594727 C409.143718,225.713217 409.20638,225.772461 409.306641,225.772461 C409.397787,225.772461 409.482096,225.732585 409.55957,225.652832 C409.637045,225.573079 409.743001,225.484213 409.877441,225.38623 C410.011882,225.288248 410.190754,225.199382 410.414062,225.119629 C410.637371,225.039876 410.944985,225 411.336914,225 L411.364258,225 C411.437175,225 411.502116,225.028483 411.559082,225.085449 C411.616048,225.142416 411.644531,225.207356 411.644531,225.280273 L411.644531,225.533203 C411.644531,225.60612 411.617188,225.671061 411.5625,225.728027 C411.507812,225.784994 411.441732,225.813477 411.364258,225.813477 L411.323242,225.813477 C411.063475,225.813477 410.804852,225.851074 410.547363,225.92627 C410.289875,226.001465 410.056316,226.129068 409.84668,226.309082 C409.637043,226.489096 409.467286,226.734048 409.337402,227.043945 C409.207519,227.353843 409.142578,227.745766 409.142578,228.219727 L409.142578,231.719727 C409.142578,231.792644 409.114095,231.857584 409.057129,231.914551 C409.000162,231.971517 408.935222,232 408.862305,232 L408.595703,232 C408.522786,232 408.457845,231.971517 408.400879,231.914551 C408.343912,231.857584 408.31543,231.792644 408.31543,231.719727 Z M412.314453,229.477539 C412.296224,229.199543 412.287109,228.8737 412.287109,228.5 C412.287109,228.1263 412.296224,227.800457 412.314453,227.522461 C412.341797,227.157876 412.426106,226.811525 412.567383,226.483398 C412.70866,226.155272 412.900064,225.872723 413.141602,225.635742 C413.383139,225.398762 413.672524,225.210775 414.009766,225.071777 C414.347007,224.932779 414.725258,224.863281 415.144531,224.863281 C415.563804,224.863281 415.940916,224.932779 416.275879,225.071777 C416.610842,225.210775 416.900227,225.398762 417.144043,225.635742 C417.387859,225.872723 417.579264,226.155272 417.718262,226.483398 C417.85726,226.811525 417.942708,227.157876 417.974609,227.522461 C417.992839,227.800457 418.001953,228.1263 418.001953,228.5 C418.001953,228.8737 417.992839,229.199543 417.974609,229.477539 C417.947265,229.842124 417.862956,230.188475 417.72168,230.516602 C417.580403,230.844728 417.387859,231.127277 417.144043,231.364258 C416.900227,231.601238 416.610842,231.789225 416.275879,231.928223 C415.940916,232.067221 415.563804,232.136719 415.144531,232.136719 C414.725258,232.136719 414.347007,232.067221 414.009766,231.928223 C413.672524,231.789225 413.383139,231.601238 413.141602,231.364258 C412.900064,231.127277 412.70866,230.844728 412.567383,230.516602 C412.426106,230.188475 412.341797,229.842124 412.314453,229.477539 Z M413.168945,227.522461 C413.141601,227.809572 413.12793,228.135415 413.12793,228.5 C413.12793,228.864585 413.141601,229.190428 413.168945,229.477539 C413.187175,229.664389 413.233886,229.866047 413.309082,230.08252 C413.384278,230.298992 413.499348,230.497232 413.654297,230.677246 C413.809246,230.85726 414.007486,231.008788 414.249023,231.131836 C414.490561,231.254883 414.789061,231.316406 415.144531,231.316406 C415.490887,231.316406 415.787108,231.254883 416.033203,231.131836 C416.279298,231.008788 416.479817,230.85726 416.634766,230.677246 C416.789714,230.497232 416.904785,230.298992 416.97998,230.08252 C417.055176,229.866047 417.101888,229.664389 417.120117,229.477539 C417.147461,229.190428 417.161133,228.864585 417.161133,228.5 C417.161133,228.135415 417.147461,227.809572 417.120117,227.522461 C417.101888,227.335611 417.055176,227.133953 416.97998,226.91748 C416.904785,226.701008 416.789714,226.502768 416.634766,226.322754 C416.479817,226.14274 416.279298,225.991212 416.033203,225.868164 C415.787108,225.745117 415.490887,225.683594 415.144531,225.683594 C414.789061,225.683594 414.490561,225.745117 414.249023,225.868164 C414.007486,225.991212 413.809246,226.14274 413.654297,226.322754 C413.499348,226.502768 413.384278,226.701008 413.309082,226.91748 C413.233886,227.133953 413.187175,227.335611 413.168945,227.522461 Z M419.458008,229.703125 L419.458008,225.280273 C419.458008,225.207356 419.485351,225.142416 419.540039,225.085449 C419.594727,225.028483 419.660807,225 419.738281,225 L420.004883,225 C420.0778,225 420.141601,225.028483 420.196289,225.085449 C420.250977,225.142416 420.27832,225.207356 420.27832,225.280273 L420.27832,229.703125 C420.27832,230.291019 420.449217,230.706867 420.791016,230.950684 C421.132814,231.1945 421.556638,231.316406 422.0625,231.316406 C422.313152,231.316406 422.545572,231.27653 422.759766,231.196777 C422.973959,231.117024 423.163085,231.006511 423.327148,230.865234 C423.491212,230.723958 423.617675,230.559897 423.706543,230.373047 C423.795411,230.186197 423.839844,229.985678 423.839844,229.771484 L423.839844,225.280273 C423.839844,225.207356 423.867187,225.142416 423.921875,225.085449 C423.976563,225.028483 424.042643,225 424.120117,225 L424.386719,225 C424.459636,225 424.523437,225.028483 424.578125,225.085449 C424.632813,225.142416 424.660156,225.207356 424.660156,225.280273 L424.660156,231.719727 C424.660156,231.792644 424.632813,231.857584 424.578125,231.914551 C424.523437,231.971517 424.459636,232 424.386719,232 L424.161133,232 C424.09733,232 424.03125,231.968099 423.962891,231.904297 C423.917317,231.858724 423.870606,231.809733 423.822754,231.757324 C423.774902,231.704915 423.709961,231.678711 423.62793,231.678711 C423.523111,231.678711 423.427409,231.701497 423.34082,231.74707 C423.254231,231.792643 423.151693,231.846191 423.033203,231.907715 C422.914713,231.969239 422.772299,232.022786 422.605957,232.068359 C422.439615,232.113933 422.224285,232.136719 421.959961,232.136719 C421.595376,232.136719 421.259279,232.08545 420.95166,231.98291 C420.644041,231.880371 420.378582,231.726564 420.155273,231.521484 C419.931965,231.316405 419.759929,231.062339 419.63916,230.759277 C419.518391,230.456216 419.458008,230.104169 419.458008,229.703125 Z M425.986328,229.477539 C425.968099,229.199543 425.958984,228.8737 425.958984,228.5 C425.958984,228.1263 425.968099,227.800457 425.986328,227.522461 C426.013672,227.157876 426.10026,226.811525 426.246094,226.483398 C426.391928,226.155272 426.581054,225.872723 426.813477,225.635742 C427.0459,225.398762 427.318195,225.210775 427.630371,225.071777 C427.942547,224.932779 428.280923,224.863281 428.645508,224.863281 C428.905275,224.863281 429.114908,224.886067 429.274414,224.931641 C429.43392,224.977214 429.569498,225.030761 429.681152,225.092285 C429.792807,225.153809 429.888509,225.207357 429.968262,225.25293 C430.048015,225.298503 430.140299,225.321289 430.245117,225.321289 C430.318034,225.321289 430.382975,225.296224 430.439941,225.246094 C430.496908,225.195963 430.548177,225.145834 430.59375,225.095703 C430.657552,225.031901 430.723632,225 430.791992,225 L431.010742,225 C431.083659,225 431.1486,225.028483 431.205566,225.085449 C431.262533,225.142416 431.291016,225.207356 431.291016,225.280273 L431.291016,232.416992 C431.291016,232.754233 431.230632,233.076659 431.109863,233.384277 C430.989094,233.691896 430.819337,233.960774 430.600586,234.190918 C430.381835,234.421062 430.120933,234.603352 429.817871,234.737793 C429.51481,234.872234 429.176434,234.939453 428.802734,234.939453 C428.524738,234.939453 428.252443,234.899577 427.98584,234.819824 C427.719237,234.740071 427.473146,234.619304 427.247559,234.45752 C427.021972,234.295735 426.828289,234.095216 426.666504,233.855957 C426.504719,233.616698 426.389649,233.339845 426.321289,233.025391 C426.312174,232.988932 426.307617,232.954753 426.307617,232.922852 C426.307617,232.777017 426.396483,232.701823 426.574219,232.697266 L426.799805,232.697266 C426.922852,232.697266 427.007161,232.725748 427.052734,232.782715 C427.098308,232.839681 427.134765,232.904622 427.162109,232.977539 C427.207683,233.109701 427.272623,233.243001 427.356934,233.377441 C427.441244,233.511882 427.549479,233.633789 427.681641,233.743164 C427.813803,233.85254 427.973306,233.941406 428.160156,234.009766 C428.347006,234.078125 428.561197,234.112305 428.802734,234.112305 C429.062501,234.112305 429.294921,234.063314 429.5,233.965332 C429.705079,233.86735 429.880533,233.739747 430.026367,233.58252 C430.172201,233.425292 430.282714,233.24642 430.35791,233.045898 C430.433106,232.845377 430.470703,232.635743 430.470703,232.416992 L430.470703,232.136719 C430.470703,231.904296 430.365886,231.788086 430.15625,231.788086 C430.083333,231.788086 429.995606,231.807454 429.893066,231.846191 C429.790527,231.884929 429.674317,231.924804 429.544434,231.96582 C429.41455,232.006836 429.272136,232.045573 429.117188,232.082031 C428.962239,232.11849 428.805014,232.136719 428.645508,232.136719 C428.280923,232.136719 427.942547,232.067221 427.630371,231.928223 C427.318195,231.789225 427.0459,231.601238 426.813477,231.364258 C426.581054,231.127277 426.391928,230.844728 426.246094,230.516602 C426.10026,230.188475 426.013672,229.842124 425.986328,229.477539 Z M426.84082,227.522461 C426.804362,227.809572 426.786133,228.135415 426.786133,228.5 C426.786133,228.864585 426.804362,229.190428 426.84082,229.477539 C426.85905,229.664389 426.903483,229.866047 426.974121,230.08252 C427.044759,230.298992 427.151855,230.497232 427.29541,230.677246 C427.438966,230.85726 427.628091,231.008788 427.862793,231.131836 C428.097495,231.254883 428.383462,231.316406 428.720703,231.316406 C429.030601,231.316406 429.291503,231.254883 429.503418,231.131836 C429.715333,231.008788 429.887369,230.85726 430.019531,230.677246 C430.151693,230.497232 430.249674,230.298992 430.313477,230.08252 C430.377279,229.866047 430.418294,229.664389 430.436523,229.477539 C430.463867,229.190428 430.479818,228.864585 430.484375,228.5 L430.484375,228.424805 C430.484375,228.092121 430.468425,227.791342 430.436523,227.522461 C430.418294,227.335611 430.377279,227.133953 430.313477,226.91748 C430.249674,226.701008 430.151693,226.502768 430.019531,226.322754 C429.887369,226.14274 429.714194,225.991212 429.5,225.868164 C429.285806,225.745117 429.026043,225.683594 428.720703,225.683594 C428.374347,225.683594 428.086101,225.745117 427.855957,225.868164 C427.625813,225.991212 427.438966,226.14274 427.29541,226.322754 C427.151855,226.502768 427.044759,226.701008 426.974121,226.91748 C426.903483,227.133953 426.85905,227.335611 426.84082,227.522461 Z M433.041016,231.719727 L433.041016,222.381836 C433.041016,222.308919 433.069498,222.243978 433.126465,222.187012 C433.183431,222.130045 433.248372,222.101562 433.321289,222.101562 L433.587891,222.101562 C433.660808,222.101562 433.725748,222.130045 433.782715,222.187012 C433.839681,222.243978 433.868164,222.308919 433.868164,222.381836 L433.868164,224.917969 C433.868164,224.981771 433.893229,225.046712 433.943359,225.112793 C433.99349,225.178874 434.070963,225.211914 434.175781,225.211914 C434.239584,225.211914 434.315918,225.192546 434.404785,225.153809 C434.493653,225.115071 434.599609,225.075196 434.722656,225.03418 C434.845704,224.993164 434.98356,224.954427 435.13623,224.917969 C435.288901,224.88151 435.467772,224.863281 435.672852,224.863281 C436.037437,224.863281 436.371255,224.928222 436.674316,225.058105 C436.977378,225.187989 437.233723,225.364582 437.443359,225.587891 C437.652996,225.811199 437.815917,226.069823 437.932129,226.36377 C438.04834,226.657716 438.106445,226.968748 438.106445,227.296875 L438.106445,231.719727 C438.106445,231.792644 438.079102,231.857584 438.024414,231.914551 C437.969726,231.971517 437.905925,232 437.833008,232 L437.566406,232 C437.493489,232 437.428548,231.971517 437.371582,231.914551 C437.314616,231.857584 437.286133,231.792644 437.286133,231.719727 L437.286133,227.296875 C437.286133,226.822914 437.126629,226.435548 436.807617,226.134766 C436.488605,225.833983 436.078453,225.683594 435.577148,225.683594 C435.326496,225.683594 435.095216,225.72347 434.883301,225.803223 C434.671386,225.882976 434.491374,225.993489 434.343262,226.134766 C434.195149,226.276042 434.078939,226.440103 433.994629,226.626953 C433.910319,226.813803 433.868164,227.014322 433.868164,227.228516 L433.868164,231.719727 C433.868164,231.792644 433.839681,231.857584 433.782715,231.914551 C433.725748,231.971517 433.660808,232 433.587891,232 L433.321289,232 C433.248372,232 433.183431,231.971517 433.126465,231.914551 C433.069498,231.857584 433.041016,231.792644 433.041016,231.719727 Z M439.671875,234.522461 L439.671875,225.280273 C439.671875,225.207356 439.700358,225.142416 439.757324,225.085449 C439.814291,225.028483 439.879231,225 439.952148,225 L440.177734,225 C440.241537,225 440.305338,225.031901 440.369141,225.095703 C440.414714,225.141276 440.465983,225.190267 440.522949,225.242676 C440.579916,225.295085 440.647135,225.321289 440.724609,225.321289 C440.829428,225.321289 440.920573,225.298503 440.998047,225.25293 C441.075521,225.207357 441.170084,225.153809 441.281738,225.092285 C441.393392,225.030761 441.528971,224.977214 441.688477,224.931641 C441.847983,224.886067 442.057616,224.863281 442.317383,224.863281 C442.681968,224.863281 443.020343,224.932779 443.33252,225.071777 C443.644696,225.210775 443.91813,225.398762 444.152832,225.635742 C444.387534,225.872723 444.576659,226.155272 444.720215,226.483398 C444.86377,226.811525 444.949219,227.157876 444.976562,227.522461 C444.994792,227.800457 445.003906,228.1263 445.003906,228.5 C445.003906,228.8737 444.994792,229.199543 444.976562,229.477539 C444.949219,229.842124 444.86377,230.188475 444.720215,230.516602 C444.576659,230.844728 444.387534,231.127277 444.152832,231.364258 C443.91813,231.601238 443.644696,231.789225 443.33252,231.928223 C443.020343,232.067221 442.681968,232.136719 442.317383,232.136719 C442.094074,232.136719 441.90267,232.11849 441.743164,232.082031 C441.583658,232.045573 441.44808,232.006836 441.336426,231.96582 C441.224772,231.924804 441.126791,231.884929 441.04248,231.846191 C440.95817,231.807454 440.884115,231.788086 440.820312,231.788086 C440.729166,231.788086 440.652832,231.81429 440.591309,231.866699 C440.529785,231.919108 440.499023,232.009114 440.499023,232.136719 L440.499023,234.522461 C440.499023,234.595378 440.470541,234.660319 440.413574,234.717285 C440.356608,234.774252 440.291667,234.802734 440.21875,234.802734 L439.952148,234.802734 C439.879231,234.802734 439.814291,234.774252 439.757324,234.717285 C439.700358,234.660319 439.671875,234.595378 439.671875,234.522461 Z M440.526367,227.522461 C440.499023,227.809572 440.485352,228.135415 440.485352,228.5 C440.485352,228.864585 440.499023,229.190428 440.526367,229.477539 C440.544596,229.664389 440.586751,229.866047 440.652832,230.08252 C440.718913,230.298992 440.816894,230.497232 440.946777,230.677246 C441.076661,230.85726 441.248697,231.008788 441.462891,231.131836 C441.677084,231.254883 441.939126,231.316406 442.249023,231.316406 C442.586265,231.316406 442.871093,231.254883 443.103516,231.131836 C443.335939,231.008788 443.523925,230.85726 443.66748,230.677246 C443.811036,230.497232 443.918131,230.298992 443.98877,230.08252 C444.059408,229.866047 444.103841,229.664389 444.12207,229.477539 C444.158529,229.190428 444.176758,228.864585 444.176758,228.5 C444.176758,228.135415 444.158529,227.809572 444.12207,227.522461 C444.103841,227.335611 444.059408,227.133953 443.98877,226.91748 C443.918131,226.701008 443.811036,226.502768 443.66748,226.322754 C443.523925,226.14274 443.338217,225.991212 443.110352,225.868164 C442.882486,225.745117 442.595379,225.683594 442.249023,225.683594 C441.939126,225.683594 441.677084,225.745117 441.462891,225.868164 C441.248697,225.991212 441.076661,226.14274 440.946777,226.322754 C440.816894,226.502768 440.718913,226.701008 440.652832,226.91748 C440.586751,227.133953 440.544596,227.335611 440.526367,227.522461 Z M446.418945,229.703125 L446.418945,225.280273 C446.418945,225.207356 446.446289,225.142416 446.500977,225.085449 C446.555664,225.028483 446.621744,225 446.699219,225 L446.96582,225 C447.038737,225 447.102539,225.028483 447.157227,225.085449 C447.211914,225.142416 447.239258,225.207356 447.239258,225.280273 L447.239258,229.703125 C447.239258,230.291019 447.410155,230.706867 447.751953,230.950684 C448.093752,231.1945 448.517576,231.316406 449.023438,231.316406 C449.27409,231.316406 449.506509,231.27653 449.720703,231.196777 C449.934897,231.117024 450.124023,231.006511 450.288086,230.865234 C450.452149,230.723958 450.578613,230.559897 450.66748,230.373047 C450.756348,230.186197 450.800781,229.985678 450.800781,229.771484 L450.800781,225.280273 C450.800781,225.207356 450.828125,225.142416 450.882812,225.085449 C450.9375,225.028483 451.00358,225 451.081055,225 L451.347656,225 C451.420573,225 451.484375,225.028483 451.539062,225.085449 C451.59375,225.142416 451.621094,225.207356 451.621094,225.280273 L451.621094,231.719727 C451.621094,231.792644 451.59375,231.857584 451.539062,231.914551 C451.484375,231.971517 451.420573,232 451.347656,232 L451.12207,232 C451.058268,232 450.992188,231.968099 450.923828,231.904297 C450.878255,231.858724 450.831543,231.809733 450.783691,231.757324 C450.73584,231.704915 450.670899,231.678711 450.588867,231.678711 C450.484049,231.678711 450.388347,231.701497 450.301758,231.74707 C450.215169,231.792643 450.112631,231.846191 449.994141,231.907715 C449.87565,231.969239 449.733237,232.022786 449.566895,232.068359 C449.400553,232.113933 449.185223,232.136719 448.920898,232.136719 C448.556313,232.136719 448.220216,232.08545 447.912598,231.98291 C447.604979,231.880371 447.339519,231.726564 447.116211,231.521484 C446.892903,231.316405 446.720866,231.062339 446.600098,230.759277 C446.479329,230.456216 446.418945,230.104169 446.418945,229.703125 Z M452.386719,225.615234 L452.386719,225.348633 C452.386719,225.275716 452.415202,225.210775 452.472168,225.153809 C452.529134,225.096842 452.594075,225.068359 452.666992,225.068359 L453.801758,225.068359 C453.892904,225.068359 453.940755,225.022787 453.945312,224.931641 L453.945312,222.757812 C453.945312,222.684895 453.972656,222.619955 454.027344,222.562988 C454.082032,222.506022 454.148112,222.477539 454.225586,222.477539 L454.499023,222.477539 C454.57194,222.477539 454.636881,222.506022 454.693848,222.562988 C454.750814,222.619955 454.779297,222.684895 454.779297,222.757812 L454.779297,224.931641 C454.779297,225.022787 454.827148,225.068359 454.922852,225.068359 L456.686523,225.068359 C456.75944,225.068359 456.824381,225.096842 456.881348,225.153809 C456.938314,225.210775 456.966797,225.275716 456.966797,225.348633 L456.966797,225.615234 C456.966797,225.688151 456.938314,225.753092 456.881348,225.810059 C456.824381,225.867025 456.75944,225.895508 456.686523,225.895508 L454.922852,225.895508 C454.831705,225.895508 454.783854,225.943359 454.779297,226.039062 L454.779297,229.757812 C454.779297,230.25456 454.874999,230.621418 455.066406,230.858398 C455.257813,231.095379 455.606443,231.213867 456.112305,231.213867 L456.823242,231.213867 C456.896159,231.213867 456.9611,231.24235 457.018066,231.299316 C457.075033,231.356283 457.103516,231.421224 457.103516,231.494141 L457.103516,231.719727 C457.103516,231.792644 457.076172,231.857584 457.021484,231.914551 C456.966797,231.971517 456.900717,232 456.823242,232 L456.112305,232 C455.383134,232 454.839683,231.829103 454.481934,231.487305 C454.124184,231.145506 453.945312,230.569014 453.945312,229.757812 L453.945312,226.039062 C453.945312,225.947916 453.897461,225.900065 453.801758,225.895508 L452.666992,225.895508 C452.594075,225.895508 452.529134,225.867025 452.472168,225.810059 C452.415202,225.753092 452.386719,225.688151 452.386719,225.615234 Z" id="Transaction-throughp" fill="#000000"></path>
        <path d="M-58.0908203,68.7197266 L-58.0908203,59.4775391 C-58.0908203,59.404622 -58.0623375,59.3396813 -58.0053711,59.2827148 C-57.9484047,59.2257484 -57.8834639,59.1972656 -57.8105469,59.1972656 L-57.4755859,59.1972656 C-57.4026689,59.1972656 -57.3377281,59.2257484 -57.2807617,59.2827148 C-57.2237953,59.3396813 -57.1953125,59.404622 -57.1953125,59.4775391 L-57.1953125,63.4013672 C-57.1953125,63.4925135 -57.1474614,63.5380859 -57.0517578,63.5380859 L-53.3876953,63.5380859 C-53.296549,63.5380859 -53.2486979,63.4925135 -53.2441406,63.4013672 L-53.2441406,59.4775391 C-53.2441406,59.404622 -53.2167971,59.3396813 -53.1621094,59.2827148 C-53.1074216,59.2257484 -53.0413415,59.1972656 -52.9638672,59.1972656 L-52.6289062,59.1972656 C-52.5559892,59.1972656 -52.4910485,59.2257484 -52.434082,59.2827148 C-52.3771156,59.3396813 -52.3486328,59.404622 -52.3486328,59.4775391 L-52.3486328,68.7197266 C-52.3486328,68.7926436 -52.3771156,68.8575844 -52.434082,68.9145508 C-52.4910485,68.9715172 -52.5559892,69 -52.6289062,69 L-52.9638672,69 C-53.0367842,69 -53.101725,68.9715172 -53.1586914,68.9145508 C-53.2156578,68.8575844 -53.2441406,68.7926436 -53.2441406,68.7197266 L-53.2441406,64.5771484 C-53.2441406,64.4860021 -53.2919917,64.4381511 -53.3876953,64.4335938 L-57.0517578,64.4335938 C-57.1429041,64.4335938 -57.1907552,64.4814448 -57.1953125,64.5771484 L-57.1953125,68.7197266 C-57.1953125,68.7926436 -57.222656,68.8575844 -57.2773438,68.9145508 C-57.3320315,68.9715172 -57.3981116,69 -57.4755859,69 L-57.8105469,69 C-57.8834639,69 -57.9484047,68.9715172 -58.0053711,68.9145508 C-58.0623375,68.8575844 -58.0908203,68.7926436 -58.0908203,68.7197266 Z M-50.8447266,66.9013672 C-50.8447266,66.6142564 -50.7934575,66.3442395 -50.690918,66.0913086 C-50.5883784,65.8383776 -50.4391286,65.6207691 -50.2431641,65.4384766 C-50.0471995,65.256184 -49.8045262,65.11377 -49.5151367,65.0112305 C-49.2257473,64.9086909 -48.8987648,64.8574219 -48.5341797,64.8574219 L-46.53125,64.8574219 C-46.4401037,64.8574219 -46.3945312,64.8095708 -46.3945312,64.7138672 L-46.3945312,64.1669922 C-46.3945312,63.7112607 -46.5517562,63.3409845 -46.8662109,63.0561523 C-47.1806656,62.7713202 -47.5862605,62.6289062 -48.0830078,62.6289062 C-48.2972016,62.6289062 -48.503417,62.6596677 -48.7016602,62.7211914 C-48.8999033,62.7827152 -49.0730787,62.8670242 -49.2211914,62.9741211 C-49.3693041,63.081218 -49.4900711,63.2088209 -49.5834961,63.3569336 C-49.676921,63.5050463 -49.7236328,63.6725251 -49.7236328,63.859375 C-49.7236328,63.9824225 -49.7612301,64.0530598 -49.8364258,64.0712891 C-49.9116215,64.0895183 -49.9811195,64.0986328 -50.0449219,64.0986328 L-50.2431641,64.0986328 C-50.430014,64.0986328 -50.5234375,64.0052093 -50.5234375,63.8183594 C-50.5234375,63.4902327 -50.4528002,63.2054049 -50.3115234,62.9638672 C-50.1702467,62.7223295 -49.9833996,62.5195321 -49.7509766,62.3554688 C-49.5185535,62.1914054 -49.2576512,62.0683598 -48.9682617,61.9863281 C-48.6788723,61.9042965 -48.3837906,61.8632812 -48.0830078,61.8632812 C-47.7366519,61.8632812 -47.4130874,61.9088537 -47.1123047,62 C-46.8115219,62.0911463 -46.5460623,62.2324209 -46.315918,62.4238281 C-46.0857736,62.6152353 -45.9034837,62.8556301 -45.769043,63.1450195 C-45.6346022,63.434409 -45.5673828,63.7796204 -45.5673828,64.1806641 L-45.5673828,68.7197266 C-45.5673828,68.7926436 -45.5947263,68.8575844 -45.6494141,68.9145508 C-45.7041018,68.9715172 -45.7701819,69 -45.8476562,69 L-45.9707031,69 C-46.0618494,69 -46.1279295,68.9680993 -46.1689453,68.9042969 C-46.2054038,68.8496091 -46.2373046,68.786947 -46.2646484,68.7163086 C-46.2919923,68.6456702 -46.3535151,68.6103516 -46.4492188,68.6103516 C-46.5130212,68.6103516 -46.5961909,68.637695 -46.6987305,68.6923828 C-46.80127,68.7470706 -46.9277336,68.8074541 -47.078125,68.8735352 C-47.2285164,68.9396162 -47.4039704,68.9999997 -47.6044922,69.0546875 C-47.805014,69.1093753 -48.035155,69.1367188 -48.2949219,69.1367188 C-48.7233094,69.1367188 -49.0992822,69.0763352 -49.4228516,68.9555664 C-49.7464209,68.8347976 -50.0130198,68.671876 -50.2226562,68.4667969 C-50.4322927,68.2617177 -50.5883784,68.0236016 -50.690918,67.7524414 C-50.7934575,67.4812812 -50.8447266,67.1975926 -50.8447266,66.9013672 Z M-50.0175781,66.8876953 C-50.0175781,67.1383476 -49.973145,67.3548168 -49.8842773,67.5371094 C-49.7954097,67.719402 -49.6746427,67.8709304 -49.5219727,67.9916992 C-49.3693026,68.1124681 -49.194988,68.203613 -48.9990234,68.2651367 C-48.8030589,68.3266605 -48.591147,68.3574219 -48.3632812,68.3574219 C-47.7206999,68.3574219 -47.2250994,68.2081721 -46.8764648,67.909668 C-46.5278303,67.6111639 -46.3535156,67.1770862 -46.3535156,66.6074219 L-46.3535156,65.7666016 C-46.3535156,65.6754553 -46.3990881,65.6276042 -46.4902344,65.6230469 L-48.5341797,65.6230469 C-48.9261087,65.6230469 -49.2713201,65.7312815 -49.5698242,65.9477539 C-49.8683283,66.1642263 -50.0175781,66.477537 -50.0175781,66.8876953 Z M-43.7900391,68.7197266 L-43.7900391,62.2802734 C-43.7900391,62.2073564 -43.7626956,62.1424156 -43.7080078,62.0854492 C-43.65332,62.0284828 -43.58724,62 -43.5097656,62 L-43.3320312,62 C-43.1816399,62 -43.0882163,62.0934235 -43.0517578,62.2802734 C-43.0335286,62.3714197 -43.0118816,62.4762364 -42.9868164,62.5947266 C-42.9617512,62.7132167 -42.899089,62.7724609 -42.7988281,62.7724609 C-42.7076818,62.7724609 -42.6233728,62.732585 -42.5458984,62.652832 C-42.4684241,62.573079 -42.3624681,62.4842127 -42.2280273,62.3862305 C-42.0935866,62.2882482 -41.9147147,62.1993819 -41.6914062,62.1196289 C-41.4680978,62.0398759 -41.1604837,62 -40.7685547,62 L-40.7412109,62 C-40.6682939,62 -40.6033531,62.0284828 -40.5463867,62.0854492 C-40.4894203,62.1424156 -40.4609375,62.2073564 -40.4609375,62.2802734 L-40.4609375,62.5332031 C-40.4609375,62.6061202 -40.488281,62.6710609 -40.5429688,62.7280273 C-40.5976565,62.7849938 -40.6637366,62.8134766 -40.7412109,62.8134766 L-40.7822266,62.8134766 C-41.0419935,62.8134766 -41.3006172,62.8510738 -41.5581055,62.9262695 C-41.8155937,63.0014652 -42.0491526,63.1290681 -42.2587891,63.309082 C-42.4684255,63.489096 -42.6381829,63.7340479 -42.7680664,64.0439453 C-42.8979499,64.3538427 -42.9628906,64.7457659 -42.9628906,65.2197266 L-42.9628906,68.7197266 C-42.9628906,68.7926436 -42.9913734,68.8575844 -43.0483398,68.9145508 C-43.1053063,68.9715172 -43.170247,69 -43.2431641,69 L-43.5097656,69 C-43.5826827,69 -43.6476234,68.9715172 -43.7045898,68.9145508 C-43.7615563,68.8575844 -43.7900391,68.7926436 -43.7900391,68.7197266 Z M-39.7910156,66.4775391 C-39.8092449,66.1995429 -39.8183594,65.8736998 -39.8183594,65.5 C-39.8183594,65.1263002 -39.8092449,64.8004571 -39.7910156,64.5224609 C-39.7636717,64.1578758 -39.6770841,63.8115251 -39.53125,63.4833984 C-39.3854159,63.1552718 -39.1962902,62.8727225 -38.9638672,62.6357422 C-38.7314442,62.3987618 -38.4591487,62.2107754 -38.1469727,62.0717773 C-37.8347966,61.9327793 -37.4964211,61.8632812 -37.1318359,61.8632812 C-36.9085275,61.8632812 -36.7194018,61.8815102 -36.5644531,61.9179688 C-36.4095044,61.9544273 -36.276205,61.9931639 -36.1645508,62.0341797 C-36.0528966,62.0751955 -35.959473,62.1150714 -35.8842773,62.1538086 C-35.8090817,62.1925458 -35.7350264,62.2119141 -35.6621094,62.2119141 C-35.5572911,62.2119141 -35.4718428,62.1857099 -35.4057617,62.1333008 C-35.3396807,62.0808917 -35.3066406,61.9908861 -35.3066406,61.8632812 L-35.3066406,59.3818359 C-35.3066406,59.3089189 -35.2792971,59.2439781 -35.2246094,59.1870117 C-35.1699216,59.1300453 -35.1061202,59.1015625 -35.0332031,59.1015625 L-34.7666016,59.1015625 C-34.6936845,59.1015625 -34.6287438,59.1300453 -34.5717773,59.1870117 C-34.5148109,59.2439781 -34.4863281,59.3089189 -34.4863281,59.3818359 L-34.4863281,68.7197266 C-34.4863281,68.7926436 -34.5136716,68.8575844 -34.5683594,68.9145508 C-34.6230471,68.9715172 -34.6891272,69 -34.7666016,69 L-34.9853516,69 C-35.049154,69 -35.115234,68.9680993 -35.1835938,68.9042969 C-35.2291669,68.8587237 -35.2804359,68.8097333 -35.3374023,68.7573242 C-35.3943688,68.7049151 -35.4593095,68.6787109 -35.5322266,68.6787109 C-35.6370448,68.6787109 -35.729329,68.7014972 -35.809082,68.7470703 C-35.888835,68.7926435 -35.9845372,68.8461911 -36.0961914,68.9077148 C-36.2078456,68.9692386 -36.3434237,69.0227862 -36.5029297,69.0683594 C-36.6624357,69.1139325 -36.872069,69.1367188 -37.1318359,69.1367188 C-37.4964211,69.1367188 -37.8347966,69.0672207 -38.1469727,68.9282227 C-38.4591487,68.7892246 -38.7314442,68.6012382 -38.9638672,68.3642578 C-39.1962902,68.1272775 -39.3854159,67.8447282 -39.53125,67.5166016 C-39.6770841,67.1884749 -39.7636717,66.8421242 -39.7910156,66.4775391 Z M-38.9365234,64.5224609 C-38.972982,64.8095717 -38.9912109,65.1354148 -38.9912109,65.5 C-38.9912109,65.8645852 -38.972982,66.1904283 -38.9365234,66.4775391 C-38.9182942,66.664389 -38.873861,66.8660471 -38.8032227,67.0825195 C-38.7325843,67.298992 -38.625489,67.4972322 -38.4819336,67.6772461 C-38.3383782,67.85726 -38.1515311,68.0087884 -37.9213867,68.1318359 C-37.6912423,68.2548834 -37.4029965,68.3164062 -37.0566406,68.3164062 C-36.7467432,68.3164062 -36.4858409,68.2548834 -36.2739258,68.1318359 C-36.0620107,68.0087884 -35.8899746,67.85726 -35.7578125,67.6772461 C-35.6256504,67.4972322 -35.5276696,67.298992 -35.4638672,67.0825195 C-35.4000648,66.8660471 -35.3590496,66.664389 -35.3408203,66.4775391 C-35.3089191,66.1904283 -35.2929688,65.8645852 -35.2929688,65.5 L-35.2929688,65.4248047 C-35.2929688,65.0875634 -35.3089191,64.7867852 -35.3408203,64.5224609 C-35.3590496,64.335611 -35.4000648,64.1339529 -35.4638672,63.9174805 C-35.5276696,63.701008 -35.6256504,63.5027678 -35.7578125,63.3227539 C-35.8899746,63.14274 -36.06315,62.9912116 -36.2773438,62.8681641 C-36.4915375,62.7451166 -36.7513006,62.6835938 -37.0566406,62.6835938 C-37.3938819,62.6835938 -37.6798491,62.7451166 -37.9145508,62.8681641 C-38.1492525,62.9912116 -38.3383782,63.14274 -38.4819336,63.3227539 C-38.625489,63.5027678 -38.7325843,63.701008 -38.8032227,63.9174805 C-38.873861,64.1339529 -38.9182942,64.335611 -38.9365234,64.5224609 Z M-33.3515625,62.3212891 C-33.3561198,62.2985025 -33.3583984,62.2757163 -33.3583984,62.2529297 C-33.3583984,62.2027992 -33.3447267,62.1549481 -33.3173828,62.109375 C-33.276367,62.036458 -33.1988938,62 -33.0849609,62 L-32.8046875,62 C-32.6634108,62 -32.5745445,62.0706373 -32.5380859,62.2119141 L-31.1435547,67.2363281 C-31.1253254,67.2910159 -31.094564,67.3183594 -31.0512695,67.3183594 C-31.007975,67.3183594 -30.9772136,67.2910159 -30.9589844,67.2363281 L-29.6123047,62.2119141 C-29.5758462,62.0706373 -29.4892585,62 -29.3525391,62 L-28.9013672,62 C-28.7600904,62 -28.6712241,62.0706373 -28.6347656,62.2119141 L-27.2880859,67.2363281 C-27.2698567,67.2910159 -27.2402346,67.3183594 -27.1992188,67.3183594 C-27.1582029,67.3183594 -27.1285808,67.2910159 -27.1103516,67.2363281 L-25.7089844,62.2119141 C-25.6725259,62.0706373 -25.5836596,62 -25.4423828,62 L-25.1621094,62 C-25.0481765,62 -24.9707033,62.036458 -24.9296875,62.109375 C-24.9023436,62.1595055 -24.8886719,62.2073565 -24.8886719,62.2529297 C-24.8886719,62.2757163 -24.8909505,62.2985025 -24.8955078,62.3212891 L-26.8027344,68.7880859 C-26.8483075,68.9293627 -26.9371738,69 -27.0693359,69 L-27.390625,69 C-27.5319017,69 -27.620768,68.9293627 -27.6572266,68.7880859 L-29.0722656,63.4560547 C-29.0813803,63.4287108 -29.0996092,63.4150391 -29.1269531,63.4150391 C-29.154297,63.4150391 -29.172526,63.4287108 -29.1816406,63.4560547 L-30.5966797,68.7880859 C-30.6422528,68.9293627 -30.7311191,69 -30.8632812,69 L-31.1845703,69 C-31.3258471,69 -31.4147134,68.9293627 -31.4511719,68.7880859 L-33.3515625,62.3212891 Z M-24.4648438,66.9013672 C-24.4648438,66.6142564 -24.4135747,66.3442395 -24.3110352,66.0913086 C-24.2084956,65.8383776 -24.0592458,65.6207691 -23.8632812,65.4384766 C-23.6673167,65.256184 -23.4246434,65.11377 -23.1352539,65.0112305 C-22.8458644,64.9086909 -22.518882,64.8574219 -22.1542969,64.8574219 L-20.1513672,64.8574219 C-20.0602209,64.8574219 -20.0146484,64.8095708 -20.0146484,64.7138672 L-20.0146484,64.1669922 C-20.0146484,63.7112607 -20.1718734,63.3409845 -20.4863281,63.0561523 C-20.8007828,62.7713202 -21.2063777,62.6289062 -21.703125,62.6289062 C-21.9173188,62.6289062 -22.1235342,62.6596677 -22.3217773,62.7211914 C-22.5200205,62.7827152 -22.6931959,62.8670242 -22.8413086,62.9741211 C-22.9894213,63.081218 -23.1101883,63.2088209 -23.2036133,63.3569336 C-23.2970382,63.5050463 -23.34375,63.6725251 -23.34375,63.859375 C-23.34375,63.9824225 -23.3813473,64.0530598 -23.456543,64.0712891 C-23.5317387,64.0895183 -23.6012367,64.0986328 -23.6650391,64.0986328 L-23.8632812,64.0986328 C-24.0501311,64.0986328 -24.1435547,64.0052093 -24.1435547,63.8183594 C-24.1435547,63.4902327 -24.0729174,63.2054049 -23.9316406,62.9638672 C-23.7903639,62.7223295 -23.6035168,62.5195321 -23.3710938,62.3554688 C-23.1386707,62.1914054 -22.8777684,62.0683598 -22.5883789,61.9863281 C-22.2989894,61.9042965 -22.0039078,61.8632812 -21.703125,61.8632812 C-21.3567691,61.8632812 -21.0332046,61.9088537 -20.7324219,62 C-20.4316391,62.0911463 -20.1661795,62.2324209 -19.9360352,62.4238281 C-19.7058908,62.6152353 -19.5236009,62.8556301 -19.3891602,63.1450195 C-19.2547194,63.434409 -19.1875,63.7796204 -19.1875,64.1806641 L-19.1875,68.7197266 C-19.1875,68.7926436 -19.2148435,68.8575844 -19.2695312,68.9145508 C-19.324219,68.9715172 -19.3902991,69 -19.4677734,69 L-19.5908203,69 C-19.6819666,69 -19.7480467,68.9680993 -19.7890625,68.9042969 C-19.825521,68.8496091 -19.8574217,68.786947 -19.8847656,68.7163086 C-19.9121095,68.6456702 -19.9736323,68.6103516 -20.0693359,68.6103516 C-20.1331383,68.6103516 -20.2163081,68.637695 -20.3188477,68.6923828 C-20.4213872,68.7470706 -20.5478508,68.8074541 -20.6982422,68.8735352 C-20.8486336,68.9396162 -21.0240875,68.9999997 -21.2246094,69.0546875 C-21.4251312,69.1093753 -21.6552721,69.1367188 -21.9150391,69.1367188 C-22.3434266,69.1367188 -22.7193994,69.0763352 -23.0429688,68.9555664 C-23.3665381,68.8347976 -23.633137,68.671876 -23.8427734,68.4667969 C-24.0524099,68.2617177 -24.2084956,68.0236016 -24.3110352,67.7524414 C-24.4135747,67.4812812 -24.4648438,67.1975926 -24.4648438,66.9013672 Z M-23.6376953,66.8876953 C-23.6376953,67.1383476 -23.5932622,67.3548168 -23.5043945,67.5371094 C-23.4155269,67.719402 -23.2947599,67.8709304 -23.1420898,67.9916992 C-22.9894198,68.1124681 -22.8151051,68.203613 -22.6191406,68.2651367 C-22.4231761,68.3266605 -22.2112642,68.3574219 -21.9833984,68.3574219 C-21.3408171,68.3574219 -20.8452166,68.2081721 -20.496582,67.909668 C-20.1479475,67.6111639 -19.9736328,67.1770862 -19.9736328,66.6074219 L-19.9736328,65.7666016 C-19.9736328,65.6754553 -20.0192053,65.6276042 -20.1103516,65.6230469 L-22.1542969,65.6230469 C-22.5462259,65.6230469 -22.8914373,65.7312815 -23.1899414,65.9477539 C-23.4884455,66.1642263 -23.6376953,66.477537 -23.6376953,66.8876953 Z M-17.4101562,68.7197266 L-17.4101562,62.2802734 C-17.4101562,62.2073564 -17.3828128,62.1424156 -17.328125,62.0854492 C-17.2734372,62.0284828 -17.2073572,62 -17.1298828,62 L-16.9521484,62 C-16.8017571,62 -16.7083335,62.0934235 -16.671875,62.2802734 C-16.6536457,62.3714197 -16.6319988,62.4762364 -16.6069336,62.5947266 C-16.5818684,62.7132167 -16.5192062,62.7724609 -16.4189453,62.7724609 C-16.327799,62.7724609 -16.24349,62.732585 -16.1660156,62.652832 C-16.0885413,62.573079 -15.9825853,62.4842127 -15.8481445,62.3862305 C-15.7137038,62.2882482 -15.5348318,62.1993819 -15.3115234,62.1196289 C-15.088215,62.0398759 -14.7806009,62 -14.3886719,62 L-14.3613281,62 C-14.2884111,62 -14.2234703,62.0284828 -14.1665039,62.0854492 C-14.1095375,62.1424156 -14.0810547,62.2073564 -14.0810547,62.2802734 L-14.0810547,62.5332031 C-14.0810547,62.6061202 -14.1083982,62.6710609 -14.1630859,62.7280273 C-14.2177737,62.7849938 -14.2838538,62.8134766 -14.3613281,62.8134766 L-14.4023438,62.8134766 C-14.6621107,62.8134766 -14.9207344,62.8510738 -15.1782227,62.9262695 C-15.4357109,63.0014652 -15.6692698,63.1290681 -15.8789062,63.309082 C-16.0885427,63.489096 -16.2583001,63.7340479 -16.3881836,64.0439453 C-16.5180671,64.3538427 -16.5830078,64.7457659 -16.5830078,65.2197266 L-16.5830078,68.7197266 C-16.5830078,68.7926436 -16.6114906,68.8575844 -16.668457,68.9145508 C-16.7254235,68.9715172 -16.7903642,69 -16.8632812,69 L-17.1298828,69 C-17.2027998,69 -17.2677406,68.9715172 -17.324707,68.9145508 C-17.3816735,68.8575844 -17.4101562,68.7926436 -17.4101562,68.7197266 Z M-13.4111328,66.4775391 C-13.4293621,66.1995429 -13.4384766,65.8736998 -13.4384766,65.5 C-13.4384766,65.1263002 -13.4293621,64.8004571 -13.4111328,64.5224609 C-13.3837889,64.1578758 -13.2972012,63.8115251 -13.1513672,63.4833984 C-13.0055331,63.1552718 -12.8095715,62.8727225 -12.5634766,62.6357422 C-12.3173816,62.3987618 -12.0234392,62.2107754 -11.6816406,62.0717773 C-11.339842,61.9327793 -10.959312,61.8632812 -10.5400391,61.8632812 C-10.14811,61.8632812 -9.78125171,61.9373365 -9.43945312,62.0854492 C-9.09765454,62.2335619 -8.80143354,62.4340808 -8.55078125,62.6870117 C-8.30012896,62.9399427 -8.10188875,63.2361637 -7.95605469,63.5756836 C-7.81022062,63.9152035 -7.73730469,64.2763653 -7.73730469,64.6591797 L-7.73730469,65.5546875 C-7.73730469,65.6276045 -7.76578748,65.6925453 -7.82275391,65.7495117 C-7.87972034,65.8064781 -7.94466109,65.8349609 -8.01757812,65.8349609 L-12.4609375,65.8349609 C-12.5520838,65.8349609 -12.5976562,65.882812 -12.5976562,65.9785156 C-12.5976562,66.3157569 -12.5577803,66.6256496 -12.4780273,66.9082031 C-12.3982743,67.1907566 -12.2752287,67.4368479 -12.1088867,67.6464844 C-11.9425447,67.8561208 -11.7306328,68.0201817 -11.4731445,68.1386719 C-11.2156563,68.2571621 -10.9046242,68.3164062 -10.5400391,68.3164062 C-10.2711575,68.3164062 -10.0307628,68.278809 -9.81884766,68.2036133 C-9.60693253,68.1284176 -9.42464269,68.0281582 -9.27197266,67.902832 C-9.11930262,67.7775059 -8.99397835,67.6373706 -8.89599609,67.4824219 C-8.79801383,67.3274732 -8.72167996,67.1656909 -8.66699219,66.9970703 C-8.6396483,66.905924 -8.59521515,66.8432619 -8.53369141,66.809082 C-8.47216766,66.7749022 -8.4072269,66.7578125 -8.33886719,66.7578125 L-8.06542969,66.7578125 C-7.99251266,66.7578125 -7.92985052,66.7794594 -7.87744141,66.8227539 C-7.82503229,66.8660484 -7.80794262,66.937825 -7.82617187,67.0380859 C-7.87174502,67.3479833 -7.9685865,67.6316719 -8.11669922,67.8891602 C-8.26481194,68.1466484 -8.4584949,68.3676749 -8.69775391,68.5522461 C-8.93701292,68.7368173 -9.2127263,68.8803706 -9.52490234,68.9829102 C-9.83707838,69.0854497 -10.1754539,69.1367188 -10.5400391,69.1367188 C-10.959312,69.1367188 -11.339842,69.0672207 -11.6816406,68.9282227 C-12.0234392,68.7892246 -12.3173816,68.6012382 -12.5634766,68.3642578 C-12.8095715,68.1272775 -13.0055331,67.8447282 -13.1513672,67.5166016 C-13.2972012,67.1884749 -13.3837889,66.8421242 -13.4111328,66.4775391 Z M-12.5703125,64.9121094 C-12.5703125,65.0032557 -12.5224614,65.0488281 -12.4267578,65.0488281 L-8.65332031,65.0488281 C-8.56217402,65.0488281 -8.51432294,65.0032557 -8.50976562,64.9121094 C-8.50976562,64.5566388 -8.56103464,64.2410496 -8.66357422,63.965332 C-8.76611379,63.6896145 -8.90852773,63.4560556 -9.09082031,63.2646484 C-9.27311289,63.0732412 -9.48616415,62.9285487 -9.72998047,62.8305664 C-9.97379679,62.7325841 -10.2392564,62.6835938 -10.5263672,62.6835938 C-11.1507193,62.6835938 -11.6474591,62.8749981 -12.0166016,63.2578125 C-12.385744,63.6406269 -12.5703125,64.1920537 -12.5703125,64.9121094 Z M-3.06835938,71.5224609 L-3.06835938,62.2802734 C-3.06835938,62.2073564 -3.03987659,62.1424156 -2.98291016,62.0854492 C-2.92594373,62.0284828 -2.86100297,62 -2.78808594,62 L-2.5625,62 C-2.4986976,62 -2.43489615,62.0319007 -2.37109375,62.0957031 C-2.32552061,62.1412763 -2.27425159,62.1902667 -2.21728516,62.2426758 C-2.16031873,62.2950849 -2.09309935,62.3212891 -2.015625,62.3212891 C-1.91080677,62.3212891 -1.81966185,62.2985028 -1.7421875,62.2529297 C-1.66471315,62.2073565 -1.5701503,62.1538089 -1.45849609,62.0922852 C-1.34684189,62.0307614 -1.21126382,61.9772138 -1.05175781,61.9316406 C-0.892251807,61.8860675 -0.682618486,61.8632812 -0.422851563,61.8632812 C-0.0582664063,61.8632812 0.280109116,61.9327793 0.592285156,62.0717773 C0.904461196,62.2107754 1.17789596,62.3987618 1.41259766,62.6357422 C1.64729935,62.8727225 1.83642506,63.1552718 1.97998047,63.4833984 C2.12353587,63.8115251 2.20898424,64.1578758 2.23632812,64.5224609 C2.25455738,64.8004571 2.26367187,65.1263002 2.26367187,65.5 C2.26367187,65.8736998 2.25455738,66.1995429 2.23632812,66.4775391 C2.20898424,66.8421242 2.12353587,67.1884749 1.97998047,67.5166016 C1.83642506,67.8447282 1.64729935,68.1272775 1.41259766,68.3642578 C1.17789596,68.6012382 0.904461196,68.7892246 0.592285156,68.9282227 C0.280109116,69.0672207 -0.0582664063,69.1367188 -0.422851563,69.1367188 C-0.646159971,69.1367188 -0.837564307,69.1184898 -0.997070313,69.0820312 C-1.15657632,69.0455727 -1.29215439,69.0068361 -1.40380859,68.9658203 C-1.5154628,68.9248045 -1.61344359,68.8849286 -1.69775391,68.8461914 C-1.78206422,68.8074542 -1.85611947,68.7880859 -1.91992188,68.7880859 C-2.01106816,68.7880859 -2.08740204,68.8142901 -2.14892578,68.8666992 C-2.21044953,68.9191083 -2.24121094,69.0091139 -2.24121094,69.1367188 L-2.24121094,71.5224609 C-2.24121094,71.595378 -2.26969373,71.6603187 -2.32666016,71.7172852 C-2.38362659,71.7742516 -2.44856734,71.8027344 -2.52148438,71.8027344 L-2.78808594,71.8027344 C-2.86100297,71.8027344 -2.92594373,71.7742516 -2.98291016,71.7172852 C-3.03987659,71.6603187 -3.06835938,71.595378 -3.06835938,71.5224609 Z M-2.21386719,64.5224609 C-2.24121107,64.8095717 -2.25488281,65.1354148 -2.25488281,65.5 C-2.25488281,65.8645852 -2.24121107,66.1904283 -2.21386719,66.4775391 C-2.19563793,66.664389 -2.1534834,66.8660471 -2.08740234,67.0825195 C-2.02132128,67.298992 -1.92334049,67.4972322 -1.79345703,67.6772461 C-1.66357357,67.85726 -1.49153753,68.0087884 -1.27734375,68.1318359 C-1.06314997,68.2548834 -0.80110832,68.3164062 -0.491210938,68.3164062 C-0.153969668,68.3164062 0.130858213,68.2548834 0.36328125,68.1318359 C0.595704287,68.0087884 0.783690688,67.85726 0.927246094,67.6772461 C1.0708015,67.4972322 1.17789678,67.298992 1.24853516,67.0825195 C1.31917353,66.8660471 1.36360668,66.664389 1.38183594,66.4775391 C1.41829445,66.1904283 1.43652344,65.8645852 1.43652344,65.5 C1.43652344,65.1354148 1.41829445,64.8095717 1.38183594,64.5224609 C1.36360668,64.335611 1.31917353,64.1339529 1.24853516,63.9174805 C1.17789678,63.701008 1.0708015,63.5027678 0.927246094,63.3227539 C0.783690688,63.14274 0.59798291,62.9912116 0.370117188,62.8681641 C0.142251465,62.7451166 -0.144855039,62.6835938 -0.491210938,62.6835938 C-0.80110832,62.6835938 -1.06314997,62.7451166 -1.27734375,62.8681641 C-1.49153753,62.9912116 -1.66357357,63.14274 -1.79345703,63.3227539 C-1.92334049,63.5027678 -2.02132128,63.701008 -2.08740234,63.9174805 C-2.1534834,64.1339529 -2.19563793,64.335611 -2.21386719,64.5224609 Z M3.53515625,66.4775391 C3.51692699,66.1995429 3.5078125,65.8736998 3.5078125,65.5 C3.5078125,65.1263002 3.51692699,64.8004571 3.53515625,64.5224609 C3.56250014,64.1578758 3.64908781,63.8115251 3.79492188,63.4833984 C3.94075594,63.1552718 4.13671752,62.8727225 4.3828125,62.6357422 C4.62890748,62.3987618 4.92284985,62.2107754 5.26464844,62.0717773 C5.60644702,61.9327793 5.98697707,61.8632812 6.40625,61.8632812 C6.79817904,61.8632812 7.16503735,61.9373365 7.50683594,62.0854492 C7.84863452,62.2335619 8.14485552,62.4340808 8.39550781,62.6870117 C8.64616011,62.9399427 8.84440031,63.2361637 8.99023438,63.5756836 C9.13606844,63.9152035 9.20898438,64.2763653 9.20898438,64.6591797 L9.20898438,65.5546875 C9.20898438,65.6276045 9.18050159,65.6925453 9.12353516,65.7495117 C9.06656873,65.8064781 9.00162797,65.8349609 8.92871094,65.8349609 L4.48535156,65.8349609 C4.39420527,65.8349609 4.34863281,65.882812 4.34863281,65.9785156 C4.34863281,66.3157569 4.38850872,66.6256496 4.46826172,66.9082031 C4.54801472,67.1907566 4.67106037,67.4368479 4.83740234,67.6464844 C5.00374432,67.8561208 5.21565626,68.0201817 5.47314453,68.1386719 C5.7306328,68.2571621 6.04166484,68.3164062 6.40625,68.3164062 C6.67513155,68.3164062 6.91552628,68.278809 7.12744141,68.2036133 C7.33935653,68.1284176 7.52164637,68.0281582 7.67431641,67.902832 C7.82698644,67.7775059 7.95231071,67.6373706 8.05029297,67.4824219 C8.14827523,67.3274732 8.2246091,67.1656909 8.27929688,66.9970703 C8.30664076,66.905924 8.35107391,66.8432619 8.41259766,66.809082 C8.4741214,66.7749022 8.53906216,66.7578125 8.60742188,66.7578125 L8.88085938,66.7578125 C8.95377641,66.7578125 9.01643854,66.7794594 9.06884766,66.8227539 C9.12125677,66.8660484 9.13834645,66.937825 9.12011719,67.0380859 C9.07454404,67.3479833 8.97770256,67.6316719 8.82958984,67.8891602 C8.68147712,68.1466484 8.48779417,68.3676749 8.24853516,68.5522461 C8.00927615,68.7368173 7.73356276,68.8803706 7.42138672,68.9829102 C7.10921068,69.0854497 6.77083516,69.1367188 6.40625,69.1367188 C5.98697707,69.1367188 5.60644702,69.0672207 5.26464844,68.9282227 C4.92284985,68.7892246 4.62890748,68.6012382 4.3828125,68.3642578 C4.13671752,68.1272775 3.94075594,67.8447282 3.79492188,67.5166016 C3.64908781,67.1884749 3.56250014,66.8421242 3.53515625,66.4775391 Z M4.37597656,64.9121094 C4.37597656,65.0032557 4.42382765,65.0488281 4.51953125,65.0488281 L8.29296875,65.0488281 C8.38411504,65.0488281 8.43196612,65.0032557 8.43652344,64.9121094 C8.43652344,64.5566388 8.38525442,64.2410496 8.28271484,63.965332 C8.18017527,63.6896145 8.03776133,63.4560556 7.85546875,63.2646484 C7.67317617,63.0732412 7.46012492,62.9285487 7.21630859,62.8305664 C6.97249227,62.7325841 6.70703269,62.6835938 6.41992188,62.6835938 C5.79556979,62.6835938 5.29882997,62.8749981 4.9296875,63.2578125 C4.56054503,63.6406269 4.37597656,64.1920537 4.37597656,64.9121094 Z M10.6308594,68.7197266 L10.6308594,62.2802734 C10.6308594,62.2073564 10.6582029,62.1424156 10.7128906,62.0854492 C10.7675784,62.0284828 10.8336585,62 10.9111328,62 L11.0888672,62 C11.2392586,62 11.3326821,62.0934235 11.3691406,62.2802734 C11.3873699,62.3714197 11.4090168,62.4762364 11.434082,62.5947266 C11.4591473,62.7132167 11.5218094,62.7724609 11.6220703,62.7724609 C11.7132166,62.7724609 11.7975257,62.732585 11.875,62.652832 C11.9524743,62.573079 12.0584303,62.4842127 12.1928711,62.3862305 C12.3273119,62.2882482 12.5061838,62.1993819 12.7294922,62.1196289 C12.9528006,62.0398759 13.2604147,62 13.6523438,62 L13.6796875,62 C13.7526045,62 13.8175453,62.0284828 13.8745117,62.0854492 C13.9314781,62.1424156 13.9599609,62.2073564 13.9599609,62.2802734 L13.9599609,62.5332031 C13.9599609,62.6061202 13.9326175,62.6710609 13.8779297,62.7280273 C13.8232419,62.7849938 13.7571618,62.8134766 13.6796875,62.8134766 L13.6386719,62.8134766 C13.378905,62.8134766 13.1202812,62.8510738 12.862793,62.9262695 C12.6053047,63.0014652 12.3717458,63.1290681 12.1621094,63.309082 C11.9524729,63.489096 11.7827155,63.7340479 11.652832,64.0439453 C11.5229486,64.3538427 11.4580078,64.7457659 11.4580078,65.2197266 L11.4580078,68.7197266 C11.4580078,68.7926436 11.429525,68.8575844 11.3725586,68.9145508 C11.3155922,68.9715172 11.2506514,69 11.1777344,69 L10.9111328,69 C10.8382158,69 10.773275,68.9715172 10.7163086,68.9145508 C10.6593422,68.8575844 10.6308594,68.7926436 10.6308594,68.7197266 Z M14.4453125,62.6152344 L14.4453125,62.3486328 C14.4453125,62.2757158 14.4737953,62.210775 14.5307617,62.1538086 C14.5877281,62.0968422 14.6526689,62.0683594 14.7255859,62.0683594 L15.9423828,62.0683594 C16.0335291,62.0683594 16.0813802,62.0227869 16.0859375,61.9316406 L16.0859375,61.7197266 C16.0859375,61.3277975 16.1440424,60.971193 16.2602539,60.6499023 C16.3764654,60.3286117 16.539387,60.0528983 16.7490234,59.8227539 C16.9586599,59.5926095 17.2081691,59.4148769 17.4975586,59.2895508 C17.7869481,59.1642246 18.1093732,59.1015625 18.4648437,59.1015625 L18.5332031,59.1015625 C18.6061202,59.1015625 18.6710609,59.1300453 18.7280273,59.1870117 C18.7849938,59.2439781 18.8134766,59.3089189 18.8134766,59.3818359 L18.8134766,59.6074219 C18.8134766,59.6803389 18.7861331,59.7452797 18.7314453,59.8022461 C18.6767575,59.8592125 18.6106775,59.8876953 18.5332031,59.8876953 L18.4648437,59.8876953 C18.1959622,59.8876953 17.9658213,59.9366857 17.7744141,60.034668 C17.5830069,60.1326502 17.4235032,60.2648104 17.2958984,60.4311523 C17.1682936,60.5974943 17.0748701,60.7934559 17.015625,61.019043 C16.9563799,61.24463 16.9267578,61.4781889 16.9267578,61.7197266 L16.9267578,61.9316406 C16.9267578,62.0227869 16.9723303,62.0683594 17.0634766,62.0683594 L18.6630859,62.0683594 C18.736003,62.0683594 18.8009437,62.0968422 18.8579102,62.1538086 C18.9148766,62.210775 18.9433594,62.2757158 18.9433594,62.3486328 L18.9433594,62.6152344 C18.9433594,62.6881514 18.9148766,62.7530922 18.8579102,62.8100586 C18.8009437,62.867025 18.736003,62.8955078 18.6630859,62.8955078 L17.0634766,62.8955078 C16.9723303,62.8955078 16.9267578,62.9433589 16.9267578,63.0390625 L16.9267578,68.7197266 C16.9267578,68.7926436 16.898275,68.8575844 16.8413086,68.9145508 C16.7843422,68.9715172 16.7194014,69 16.6464844,69 L16.3662109,69 C16.2932939,69 16.2283531,68.9715172 16.1713867,68.9145508 C16.1144203,68.8575844 16.0859375,68.7926436 16.0859375,68.7197266 L16.0859375,63.0390625 C16.0859375,62.9479162 16.0380864,62.9000651 15.9423828,62.8955078 L14.7255859,62.8955078 C14.6526689,62.8955078 14.5877281,62.867025 14.5307617,62.8100586 C14.4737953,62.7530922 14.4453125,62.6881514 14.4453125,62.6152344 Z M19.4013672,66.4775391 C19.3831379,66.1995429 19.3740234,65.8736998 19.3740234,65.5 C19.3740234,65.1263002 19.3831379,64.8004571 19.4013672,64.5224609 C19.4287111,64.1578758 19.5130201,63.8115251 19.6542969,63.4833984 C19.7955736,63.1552718 19.986978,62.8727225 20.2285156,62.6357422 C20.4700533,62.3987618 20.7594384,62.2107754 21.0966797,62.0717773 C21.433921,61.9327793 21.8121724,61.8632812 22.2314453,61.8632812 C22.6507182,61.8632812 23.0278304,61.9327793 23.362793,62.0717773 C23.6977556,62.2107754 23.9871407,62.3987618 24.230957,62.6357422 C24.4747734,62.8727225 24.6661777,63.1552718 24.8051758,63.4833984 C24.9441739,63.8115251 25.0296222,64.1578758 25.0615234,64.5224609 C25.0797527,64.8004571 25.0888672,65.1263002 25.0888672,65.5 C25.0888672,65.8736998 25.0797527,66.1995429 25.0615234,66.4775391 C25.0341796,66.8421242 24.9498705,67.1884749 24.8085938,67.5166016 C24.667317,67.8447282 24.4747734,68.1272775 24.230957,68.3642578 C23.9871407,68.6012382 23.6977556,68.7892246 23.362793,68.9282227 C23.0278304,69.0672207 22.6507182,69.1367188 22.2314453,69.1367188 C21.8121724,69.1367188 21.433921,69.0672207 21.0966797,68.9282227 C20.7594384,68.7892246 20.4700533,68.6012382 20.2285156,68.3642578 C19.986978,68.1272775 19.7955736,67.8447282 19.6542969,67.5166016 C19.5130201,67.1884749 19.4287111,66.8421242 19.4013672,66.4775391 Z M20.2558594,64.5224609 C20.2285155,64.8095717 20.2148438,65.1354148 20.2148438,65.5 C20.2148438,65.8645852 20.2285155,66.1904283 20.2558594,66.4775391 C20.2740886,66.664389 20.3208004,66.8660471 20.3959961,67.0825195 C20.4711918,67.298992 20.5862622,67.4972322 20.7412109,67.6772461 C20.8961596,67.85726 21.0943998,68.0087884 21.3359375,68.1318359 C21.5774752,68.2548834 21.8759748,68.3164062 22.2314453,68.3164062 C22.5778012,68.3164062 22.8740222,68.2548834 23.1201172,68.1318359 C23.3662122,68.0087884 23.566731,67.85726 23.7216797,67.6772461 C23.8766284,67.4972322 23.9916988,67.298992 24.0668945,67.0825195 C24.1420902,66.8660471 24.188802,66.664389 24.2070312,66.4775391 C24.2343751,66.1904283 24.2480469,65.8645852 24.2480469,65.5 C24.2480469,65.1354148 24.2343751,64.8095717 24.2070312,64.5224609 C24.188802,64.335611 24.1420902,64.1339529 24.0668945,63.9174805 C23.9916988,63.701008 23.8766284,63.5027678 23.7216797,63.3227539 C23.566731,63.14274 23.3662122,62.9912116 23.1201172,62.8681641 C22.8740222,62.7451166 22.5778012,62.6835938 22.2314453,62.6835938 C21.8759748,62.6835938 21.5774752,62.7451166 21.3359375,62.8681641 C21.0943998,62.9912116 20.8961596,63.14274 20.7412109,63.3227539 C20.5862622,63.5027678 20.4711918,63.701008 20.3959961,63.9174805 C20.3208004,64.1339529 20.2740886,64.335611 20.2558594,64.5224609 Z M26.6132813,68.7197266 L26.6132813,62.2802734 C26.6132813,62.2073564 26.6406247,62.1424156 26.6953125,62.0854492 C26.7500003,62.0284828 26.8160803,62 26.8935547,62 L27.0712891,62 C27.2216804,62 27.315104,62.0934235 27.3515625,62.2802734 C27.3697918,62.3714197 27.3914387,62.4762364 27.4165039,62.5947266 C27.4415691,62.7132167 27.5042313,62.7724609 27.6044922,62.7724609 C27.6956385,62.7724609 27.7799475,62.732585 27.8574219,62.652832 C27.9348962,62.573079 28.0408522,62.4842127 28.175293,62.3862305 C28.3097337,62.2882482 28.4886057,62.1993819 28.7119141,62.1196289 C28.9352225,62.0398759 29.2428366,62 29.6347656,62 L29.6621094,62 C29.7350264,62 29.7999672,62.0284828 29.8569336,62.0854492 C29.9139,62.1424156 29.9423828,62.2073564 29.9423828,62.2802734 L29.9423828,62.5332031 C29.9423828,62.6061202 29.9150393,62.6710609 29.8603516,62.7280273 C29.8056638,62.7849938 29.7395837,62.8134766 29.6621094,62.8134766 L29.6210938,62.8134766 C29.3613268,62.8134766 29.1027031,62.8510738 28.8452148,62.9262695 C28.5877266,63.0014652 28.3541677,63.1290681 28.1445313,63.309082 C27.9348948,63.489096 27.7651374,63.7340479 27.6352539,64.0439453 C27.5053704,64.3538427 27.4404297,64.7457659 27.4404297,65.2197266 L27.4404297,68.7197266 C27.4404297,68.7926436 27.4119469,68.8575844 27.3549805,68.9145508 C27.298014,68.9715172 27.2330733,69 27.1601563,69 L26.8935547,69 C26.8206377,69 26.7556969,68.9715172 26.6987305,68.9145508 C26.641764,68.8575844 26.6132813,68.7926436 26.6132813,68.7197266 Z M31.2001953,68.7197266 L31.2001953,62.2802734 C31.2001953,62.2073564 31.2275388,62.1424156 31.2822266,62.0854492 C31.3369143,62.0284828 31.4029944,62 31.4804687,62 L31.7060547,62 C31.7698571,62 31.8336585,62.0319007 31.8974609,62.0957031 L32.0444336,62.2426758 C32.0968427,62.2950849 32.1640621,62.3212891 32.2460937,62.3212891 C32.3600266,62.3212891 32.4659826,62.2985028 32.5639648,62.2529297 C32.6619471,62.2073565 32.7690424,62.1538089 32.8852539,62.0922852 C33.0014654,62.0307614 33.1324862,61.9772138 33.2783203,61.9316406 C33.4241544,61.8860675 33.6041656,61.8632812 33.8183594,61.8632812 C34.0234385,61.8632812 34.2057284,61.8860675 34.3652344,61.9316406 C34.5247404,61.9772138 34.6648757,62.0353187 34.7856445,62.105957 C34.9064134,62.1765954 35.0157873,62.248372 35.1137695,62.3212891 C35.2117518,62.3942061 35.2972002,62.4648434 35.3701172,62.5332031 C35.4749354,62.6152348 35.5672197,62.65625 35.6469727,62.65625 C35.7267257,62.65625 35.8167313,62.6152348 35.9169922,62.5332031 C35.9899092,62.4694007 36.0810541,62.3999027 36.1904297,62.324707 C36.2998052,62.2495113 36.4285474,62.1765954 36.5766602,62.105957 C36.7247729,62.0353187 36.8968089,61.9772138 37.0927734,61.9316406 C37.288738,61.8860675 37.512043,61.8632812 37.7626953,61.8632812 C38.1272805,61.8632812 38.4497056,61.9236648 38.7299805,62.0444336 C39.0102553,62.1652024 39.2438142,62.3349598 39.4306641,62.5537109 C39.617514,62.772462 39.7576493,63.0310857 39.8510742,63.3295898 C39.9444992,63.6280939 39.9912109,63.9505191 39.9912109,64.296875 L39.9912109,68.7197266 C39.9912109,68.7926436 39.9627281,68.8575844 39.9057617,68.9145508 C39.8487953,68.9715172 39.7838545,69 39.7109375,69 L39.4443359,69 C39.3714189,69 39.3064781,68.9715172 39.2495117,68.9145508 C39.1925453,68.8575844 39.1640625,68.7926436 39.1640625,68.7197266 L39.1640625,64.296875 C39.1640625,63.7727838 39.0239272,63.3728855 38.7436523,63.097168 C38.4633775,62.8214504 38.0908226,62.6835938 37.6259766,62.6835938 C37.4117828,62.6835938 37.2067067,62.7257483 37.0107422,62.8100586 C36.8147777,62.8943689 36.6416023,63.0094394 36.4912109,63.1552734 C36.3408196,63.3011075 36.2211919,63.4720042 36.1323242,63.6679688 C36.0434566,63.8639333 35.9990234,64.0735666 35.9990234,64.296875 L35.9990234,68.7197266 C35.9990234,68.7926436 35.97168,68.8575844 35.9169922,68.9145508 C35.8623044,68.9715172 35.7962243,69 35.71875,69 L35.4726562,69 C35.3997392,69 35.3347985,68.9715172 35.277832,68.9145508 C35.2208656,68.8575844 35.1923828,68.7926436 35.1923828,68.7197266 L35.1923828,64.296875 C35.1923828,64.1191397 35.1547855,63.9345713 35.0795898,63.7431641 C35.0043942,63.5517569 34.8961596,63.3763029 34.7548828,63.2167969 C34.6136061,63.0572909 34.4427093,62.9285487 34.2421875,62.8305664 C34.0416657,62.7325841 33.816082,62.6835938 33.5654297,62.6835938 C33.3512359,62.6835938 33.1507171,62.7303055 32.9638672,62.8237305 C32.7770173,62.9171554 32.6140957,63.0390617 32.4750977,63.1894531 C32.3360996,63.3398445 32.2267257,63.506184 32.1469727,63.6884766 C32.0672197,63.8707691 32.0273437,64.0507804 32.0273437,64.2285156 L32.0273437,68.7197266 C32.0273437,68.7926436 31.998861,68.8575844 31.9418945,68.9145508 C31.8849281,68.9715172 31.8199873,69 31.7470703,69 L31.4804687,69 C31.4075517,69 31.342611,68.9715172 31.2856445,68.9145508 C31.2286781,68.8575844 31.2001953,68.7926436 31.2001953,68.7197266 Z M41.2900391,66.9013672 C41.2900391,66.6142564 41.3413081,66.3442395 41.4438477,66.0913086 C41.5463872,65.8383776 41.695637,65.6207691 41.8916016,65.4384766 C42.0875661,65.256184 42.3302394,65.11377 42.6196289,65.0112305 C42.9090184,64.9086909 43.2360008,64.8574219 43.6005859,64.8574219 L45.6035156,64.8574219 C45.6946619,64.8574219 45.7402344,64.8095708 45.7402344,64.7138672 L45.7402344,64.1669922 C45.7402344,63.7112607 45.5830094,63.3409845 45.2685547,63.0561523 C44.9541,62.7713202 44.5485051,62.6289062 44.0517578,62.6289062 C43.837564,62.6289062 43.6313486,62.6596677 43.4331055,62.7211914 C43.2348623,62.7827152 43.0616869,62.8670242 42.9135742,62.9741211 C42.7654615,63.081218 42.6446945,63.2088209 42.5512695,63.3569336 C42.4578446,63.5050463 42.4111328,63.6725251 42.4111328,63.859375 C42.4111328,63.9824225 42.3735355,64.0530598 42.2983398,64.0712891 C42.2231442,64.0895183 42.1536462,64.0986328 42.0898438,64.0986328 L41.8916016,64.0986328 C41.7047517,64.0986328 41.6113281,64.0052093 41.6113281,63.8183594 C41.6113281,63.4902327 41.6819654,63.2054049 41.8232422,62.9638672 C41.9645189,62.7223295 42.151366,62.5195321 42.3837891,62.3554688 C42.6162121,62.1914054 42.8771144,62.0683598 43.1665039,61.9863281 C43.4558934,61.9042965 43.7509751,61.8632812 44.0517578,61.8632812 C44.3981137,61.8632812 44.7216782,61.9088537 45.0224609,62 C45.3232437,62.0911463 45.5887033,62.2324209 45.8188477,62.4238281 C46.048992,62.6152353 46.2312819,62.8556301 46.3657227,63.1450195 C46.5001634,63.434409 46.5673828,63.7796204 46.5673828,64.1806641 L46.5673828,68.7197266 C46.5673828,68.7926436 46.5400393,68.8575844 46.4853516,68.9145508 C46.4306638,68.9715172 46.3645837,69 46.2871094,69 L46.1640625,69 C46.0729162,69 46.0068361,68.9680993 45.9658203,68.9042969 C45.9293618,68.8496091 45.8974611,68.786947 45.8701172,68.7163086 C45.8427733,68.6456702 45.7812505,68.6103516 45.6855469,68.6103516 C45.6217445,68.6103516 45.5385747,68.637695 45.4360352,68.6923828 C45.3334956,68.7470706 45.207032,68.8074541 45.0566406,68.8735352 C44.9062492,68.9396162 44.7307953,68.9999997 44.5302734,69.0546875 C44.3297516,69.1093753 44.0996107,69.1367188 43.8398438,69.1367188 C43.4114562,69.1367188 43.0354834,69.0763352 42.7119141,68.9555664 C42.3883447,68.8347976 42.1217458,68.671876 41.9121094,68.4667969 C41.7024729,68.2617177 41.5463872,68.0236016 41.4438477,67.7524414 C41.3413081,67.4812812 41.2900391,67.1975926 41.2900391,66.9013672 Z M42.1171875,66.8876953 C42.1171875,67.1383476 42.1616206,67.3548168 42.2504883,67.5371094 C42.3393559,67.719402 42.4601229,67.8709304 42.612793,67.9916992 C42.765463,68.1124681 42.9397777,68.203613 43.1357422,68.2651367 C43.3317067,68.3266605 43.5436187,68.3574219 43.7714844,68.3574219 C44.4140657,68.3574219 44.9096662,68.2081721 45.2583008,67.909668 C45.6069353,67.6111639 45.78125,67.1770862 45.78125,66.6074219 L45.78125,65.7666016 C45.78125,65.6754553 45.7356775,65.6276042 45.6445312,65.6230469 L43.6005859,65.6230469 C43.2086569,65.6230469 42.8634455,65.7312815 42.5649414,65.9477539 C42.2664373,66.1642263 42.1171875,66.477537 42.1171875,66.8876953 Z M48.3447266,68.7197266 L48.3447266,62.2802734 C48.3447266,62.2073564 48.37207,62.1424156 48.4267578,62.0854492 C48.4814456,62.0284828 48.5475257,62 48.625,62 L48.8505859,62 C48.9143883,62 48.9781898,62.0319007 49.0419922,62.0957031 C49.0875653,62.1412763 49.1342771,62.1902667 49.1821289,62.2426758 C49.2299807,62.2950849 49.2949215,62.3212891 49.3769531,62.3212891 C49.4817714,62.3212891 49.5786128,62.2985028 49.6674805,62.2529297 C49.7563481,62.2073565 49.8588861,62.1538089 49.9750977,62.0922852 C50.0913092,62.0307614 50.2337231,61.9772138 50.4023437,61.9316406 C50.5709644,61.8860675 50.785155,61.8632812 51.0449219,61.8632812 C51.409507,61.8632812 51.7456039,61.9145503 52.0532227,62.0170898 C52.3608414,62.1196294 52.626301,62.2734365 52.8496094,62.4785156 C53.0729178,62.6835948 53.2460931,62.9376612 53.3691406,63.2407227 C53.4921881,63.5437841 53.5537109,63.8958313 53.5537109,64.296875 L53.5537109,68.7197266 C53.5537109,68.7926436 53.5252281,68.8575844 53.4682617,68.9145508 C53.4112953,68.9715172 53.3463545,69 53.2734375,69 L53.0068359,69 C52.9339189,69 52.8689781,68.9715172 52.8120117,68.9145508 C52.7550453,68.8575844 52.7265625,68.7926436 52.7265625,68.7197266 L52.7265625,64.296875 C52.7265625,63.7089814 52.5556658,63.2931327 52.2138672,63.0493164 C51.8720686,62.8055001 51.4505233,62.6835938 50.9492187,62.6835938 C50.6985665,62.6835938 50.4650076,62.7234697 50.2485352,62.8032227 C50.0320627,62.8829757 49.842937,62.9934889 49.6811523,63.1347656 C49.5193677,63.2760424 49.3940434,63.4401032 49.3051758,63.6269531 C49.2163081,63.813803 49.171875,64.0143218 49.171875,64.2285156 L49.171875,68.7197266 C49.171875,68.7926436 49.1433922,68.8575844 49.0864258,68.9145508 C49.0294594,68.9715172 48.9645186,69 48.8916016,69 L48.625,69 C48.552083,69 48.4871422,68.9715172 48.4301758,68.9145508 C48.3732094,68.8575844 48.3447266,68.7926436 48.3447266,68.7197266 Z M54.8798828,66.4775391 C54.8616536,66.1995429 54.8525391,65.8736998 54.8525391,65.5 C54.8525391,65.1263002 54.8616536,64.8004571 54.8798828,64.5224609 C54.9072267,64.1578758 54.9915358,63.8115251 55.1328125,63.4833984 C55.2740892,63.1552718 55.4654936,62.8727225 55.7070312,62.6357422 C55.9485689,62.3987618 56.237954,62.2107754 56.5751953,62.0717773 C56.9124366,61.9327793 57.290688,61.8632812 57.7099609,61.8632812 C58.10189,61.8632812 58.4584945,61.928222 58.7797852,62.0581055 C59.1010758,62.1879889 59.3790678,62.3623036 59.6137695,62.5810547 C59.8484712,62.7998058 60.0284824,63.0515936 60.1538086,63.3364258 C60.2791347,63.6212579 60.3417969,63.9231755 60.3417969,64.2421875 C60.3417969,64.3151045 60.32015,64.3800453 60.2768555,64.4370117 C60.233561,64.4939781 60.1754561,64.5224609 60.1025391,64.5224609 L59.78125,64.5224609 C59.7174476,64.5224609 59.6570641,64.5030926 59.6000977,64.4643555 C59.5431312,64.4256183 59.5146484,64.369792 59.5146484,64.296875 C59.5146484,64.0917958 59.4747725,63.891277 59.3950195,63.6953125 C59.3152665,63.499348 59.1990568,63.3261726 59.0463867,63.1757812 C58.8937167,63.0253899 58.704591,62.9057622 58.4790039,62.8168945 C58.2534168,62.7280269 57.9970717,62.6835938 57.7099609,62.6835938 C57.3544904,62.6835938 57.0559908,62.7451166 56.8144531,62.8681641 C56.5729155,62.9912116 56.3746753,63.14274 56.2197266,63.3227539 C56.0647779,63.5027678 55.9497074,63.701008 55.8745117,63.9174805 C55.799316,64.1339529 55.7526043,64.335611 55.734375,64.5224609 C55.7070311,64.8095717 55.6933594,65.1354148 55.6933594,65.5 C55.6933594,65.8645852 55.7070311,66.1904283 55.734375,66.4775391 C55.7526043,66.664389 55.799316,66.8660471 55.8745117,67.0825195 C55.9497074,67.298992 56.0647779,67.4972322 56.2197266,67.6772461 C56.3746753,67.85726 56.5729155,68.0087884 56.8144531,68.1318359 C57.0559908,68.2548834 57.3544904,68.3164062 57.7099609,68.3164062 C58.0198583,68.3164062 58.2864572,68.2674159 58.5097656,68.1694336 C58.733074,68.0714513 58.9187818,67.9449878 59.0668945,67.7900391 C59.2150073,67.6350904 59.3243812,67.4641936 59.3950195,67.2773438 C59.4656579,67.0904939 59.5009766,66.9036468 59.5009766,66.7167969 C59.5009766,66.6256506 59.5294594,66.5629885 59.5864258,66.5288086 C59.6433922,66.4946287 59.7037757,66.4775391 59.7675781,66.4775391 L60.0615234,66.4775391 C60.1344405,66.4775391 60.1993812,66.5060219 60.2563477,66.5629883 C60.3133141,66.6199547 60.3417969,66.6848955 60.3417969,66.7578125 C60.3417969,67.0768245 60.2791347,67.3787421 60.1538086,67.6635742 C60.0284824,67.9484064 59.8484712,68.2001942 59.6137695,68.4189453 C59.3790678,68.6376964 59.1010758,68.8120111 58.7797852,68.9418945 C58.4584945,69.071778 58.10189,69.1367188 57.7099609,69.1367188 C57.290688,69.1367188 56.9124366,69.0672207 56.5751953,68.9282227 C56.237954,68.7892246 55.9485689,68.6012382 55.7070312,68.3642578 C55.4654936,68.1272775 55.2740892,67.8447282 55.1328125,67.5166016 C54.9915358,67.1884749 54.9072267,66.8421242 54.8798828,66.4775391 Z M61.5654297,66.4775391 C61.5472004,66.1995429 61.5380859,65.8736998 61.5380859,65.5 C61.5380859,65.1263002 61.5472004,64.8004571 61.5654297,64.5224609 C61.5927736,64.1578758 61.6793612,63.8115251 61.8251953,63.4833984 C61.9710294,63.1552718 62.166991,62.8727225 62.4130859,62.6357422 C62.6591809,62.3987618 62.9531233,62.2107754 63.2949219,62.0717773 C63.6367205,61.9327793 64.0172505,61.8632812 64.4365234,61.8632812 C64.8284525,61.8632812 65.1953108,61.9373365 65.5371094,62.0854492 C65.878908,62.2335619 66.175129,62.4340808 66.4257812,62.6870117 C66.6764335,62.9399427 66.8746737,63.2361637 67.0205078,63.5756836 C67.1663419,63.9152035 67.2392578,64.2763653 67.2392578,64.6591797 L67.2392578,65.5546875 C67.2392578,65.6276045 67.210775,65.6925453 67.1538086,65.7495117 C67.0968422,65.8064781 67.0319014,65.8349609 66.9589844,65.8349609 L62.515625,65.8349609 C62.4244787,65.8349609 62.3789062,65.882812 62.3789062,65.9785156 C62.3789062,66.3157569 62.4187822,66.6256496 62.4985352,66.9082031 C62.5782882,67.1907566 62.7013338,67.4368479 62.8676758,67.6464844 C63.0340178,67.8561208 63.2459297,68.0201817 63.503418,68.1386719 C63.7609062,68.2571621 64.0719383,68.3164062 64.4365234,68.3164062 C64.705405,68.3164062 64.9457997,68.278809 65.1577148,68.2036133 C65.36963,68.1284176 65.5519198,68.0281582 65.7045898,67.902832 C65.8572599,67.7775059 65.9825841,67.6373706 66.0805664,67.4824219 C66.1785487,67.3274732 66.2548825,67.1656909 66.3095703,66.9970703 C66.3369142,66.905924 66.3813473,66.8432619 66.4428711,66.809082 C66.5043948,66.7749022 66.5693356,66.7578125 66.6376953,66.7578125 L66.9111328,66.7578125 C66.9840498,66.7578125 67.046712,66.7794594 67.0991211,66.8227539 C67.1515302,66.8660484 67.1686199,66.937825 67.1503906,67.0380859 C67.1048175,67.3479833 67.007976,67.6316719 66.8598633,67.8891602 C66.7117506,68.1466484 66.5180676,68.3676749 66.2788086,68.5522461 C66.0395496,68.7368173 65.7638362,68.8803706 65.4516602,68.9829102 C65.1394841,69.0854497 64.8011086,69.1367188 64.4365234,69.1367188 C64.0172505,69.1367188 63.6367205,69.0672207 63.2949219,68.9282227 C62.9531233,68.7892246 62.6591809,68.6012382 62.4130859,68.3642578 C62.166991,68.1272775 61.9710294,67.8447282 61.8251953,67.5166016 C61.6793612,67.1884749 61.5927736,66.8421242 61.5654297,66.4775391 Z M62.40625,64.9121094 C62.40625,65.0032557 62.4541011,65.0488281 62.5498047,65.0488281 L66.3232422,65.0488281 C66.4143885,65.0488281 66.4622396,65.0032557 66.4667969,64.9121094 C66.4667969,64.5566388 66.4155279,64.2410496 66.3129883,63.965332 C66.2104487,63.6896145 66.0680348,63.4560556 65.8857422,63.2646484 C65.7034496,63.0732412 65.4903984,62.9285487 65.246582,62.8305664 C65.0027657,62.7325841 64.7373061,62.6835938 64.4501953,62.6835938 C63.8258432,62.6835938 63.3291034,62.8749981 62.9599609,63.2578125 C62.5908185,63.6406269 62.40625,64.1920537 62.40625,64.9121094 Z" id="Hardware-performance" fill="#000000" transform="translate(4.574219, 65.452148) rotate(270.000000) translate(-4.574219, -65.452148) "></path>
        <path d="M24.5,15.566474 L24.5,210.463165" id="Line-9" stroke="#000000" stroke-width="1.13256" stroke-linecap="square"></path>
        <path id="Line-9-decoration-1" d="M21.5,26.366474 L24.5,15.566474 L27.5,26.366474" stroke="#000000" stroke-width="1.13256" stroke-linecap="square"></path>
    </g>
</svg>