<?xml version="1.0" encoding="UTF-8"?>
<svg width="633px" height="572px" viewBox="0 0 633 572" version="1.1" xmlns="http://www.w3.org/2000/svg" xmlns:xlink="http://www.w3.org/1999/xlink">
    <!-- Generator: Sketch 49.1 (51147) - http://www.bohemiancoding.com/sketch -->
    <title>use-case</title>
    <desc>Created with Sketch.</desc>
    <defs></defs>
    <g id="use-case" stroke="none" stroke-width="1" fill="none" fill-rule="evenodd">
        <g id="Server" transform="translate(446.000000, 404.000000)">
            <rect id="Rectangle" stroke="#292A2B" x="0.5" y="0.5" width="64" height="17" rx="3"></rect>
            <rect id="Rectangle" stroke="#292A2B" x="0.5" y="22.5" width="64" height="17" rx="3"></rect>
            <rect id="Rectangle" stroke="#292A2B" x="0.5" y="44.5" width="64" height="17" rx="3"></rect>
            <circle id="Oval-8" fill="#292A2B" cx="57" cy="9" r="2"></circle>
            <circle id="Oval-8" fill="#292A2B" cx="57" cy="31" r="2"></circle>
            <circle id="Oval-8" fill="#292A2B" cx="57" cy="53" r="2"></circle>
        </g>
        <g id="Ledger" transform="translate(464.000000, 416.000000)">
            <path d="M23.4228355,-3.55271368e-15 L29,5.57716447 L29,39 L0,39 L0,0 L23.4228355,0 Z" id="Combined-Shape" fill="#E8E8E8"></path>
            <path d="M23.2157288,0.5 L0.5,0.5 L0.5,38.5 L28.5,38.5 L28.5,5.78427125 L23.2157288,0.5 Z" id="Combined-Shape" stroke="#87BC55"></path>
            <path d="M22.5,0.5 L22.5,6.5" id="Line" stroke="#87BC55" stroke-linecap="square"></path>
            <path d="M28.5,6.5 L22.5,6.5" id="Line" stroke="#87BC55" stroke-linecap="square"></path>
            <path d="M18.5,6.5 L4.5,6.5" id="Line" stroke="#87BC55" stroke-linecap="square"></path>
            <path d="M24.5,15.5 L4.5,15.5" id="Line" stroke="#87BC55" stroke-linecap="square"></path>
            <path d="M24.5,23.5 L4.5,23.5" id="Line" stroke="#87BC55" stroke-linecap="square"></path>
            <path d="M24.5,31.5 L4.5,31.5" id="Line" stroke="#87BC55" stroke-linecap="square"></path>
        </g>
        <g id="Group-2" transform="translate(138.000000, 404.000000)">
            <rect id="Rectangle-21" stroke="#292A2B" stroke-width="0.6" x="0.3" y="0.3" width="36.4" height="73.4" rx="3"></rect>
            <path d="M36.0181149,9.92682927 L0.38516383,9.92682927" id="Line" stroke="#292A2B" stroke-width="0.6" stroke-linecap="square"></path>
            <path d="M25.2656572,5.61517615 L18.8854331,5.61517615" id="Line" stroke="#292A2B" stroke-width="0.6" stroke-linecap="square"></path>
            <path d="M15.7172701,5.61517615 L14.0747445,5.61517615" id="Line" stroke="#292A2B" stroke-width="0.6" stroke-linecap="square"></path>
            <path d="M36.0181149,62.8699187 L0.38516383,62.8699187" id="Line" stroke="#292A2B" stroke-width="0.6" stroke-linecap="square"></path>
            <ellipse id="Oval-12" fill="#292A2B" cx="18.5" cy="67.9837398" rx="2.38709677" ry="2.40650407"></ellipse>
        </g>
        <path d="M91.5,52.5 L146.5,74.5" id="Line" stroke="#292A2B" stroke-linecap="square"></path>
        <path id="Line-decoration-1" d="M100.413376,59.2964494 L91.5,52.5 L102.64172,53.7255892" stroke="#292A2B" stroke-linecap="square"></path>
        <path id="Line-decoration-2" d="M135.35828,73.2744108 L146.5,74.5 L137.586624,67.7035506" stroke="#292A2B" stroke-linecap="square"></path>
        <path d="M82.5,154.5 L146.5,128.5" id="Line" stroke="#292A2B" stroke-linecap="square"></path>
        <path id="Line-decoration-1" d="M93.6349702,153.214528 L82.5,154.5 L91.3767079,147.655728" stroke="#292A2B" stroke-linecap="square"></path>
        <path id="Line-decoration-2" d="M137.623292,135.344272 L146.5,128.5 L135.36503,129.785472" stroke="#292A2B" stroke-linecap="square"></path>
        <path d="M33.5,127.5 L42.5,72.5" id="Line" stroke="#292A2B" stroke-linecap="square"></path>
        <path id="Line-decoration-1" d="M38.2047003,117.32622 L33.5,127.5 L32.2834528,116.357289" stroke="#292A2B" stroke-linecap="square"></path>
        <path id="Line-decoration-2" d="M43.7165472,83.6427112 L42.5,72.5 L37.7952997,82.6737798" stroke="#292A2B" stroke-linecap="square"></path>
        <g id="Server" transform="translate(13.000000, 0.000000)">
            <rect id="Rectangle" stroke="#292A2B" x="0.5" y="0.5" width="64" height="17" rx="3"></rect>
            <rect id="Rectangle" stroke="#292A2B" x="0.5" y="22.5" width="64" height="17" rx="3"></rect>
            <rect id="Rectangle" stroke="#292A2B" x="0.5" y="44.5" width="64" height="17" rx="3"></rect>
            <circle id="Oval-8" fill="#292A2B" cx="57" cy="9" r="2"></circle>
            <circle id="Oval-8" fill="#292A2B" cx="57" cy="31" r="2"></circle>
            <circle id="Oval-8" fill="#292A2B" cx="57" cy="53" r="2"></circle>
        </g>
        <g id="Server" transform="translate(157.000000, 75.000000)">
            <rect id="Rectangle" stroke="#292A2B" x="0.5" y="0.5" width="64" height="17" rx="3"></rect>
            <rect id="Rectangle" stroke="#292A2B" x="0.5" y="22.5" width="64" height="17" rx="3"></rect>
            <rect id="Rectangle" stroke="#292A2B" x="0.5" y="44.5" width="64" height="17" rx="3"></rect>
            <circle id="Oval-8" fill="#292A2B" cx="57" cy="9" r="2"></circle>
            <circle id="Oval-8" fill="#292A2B" cx="57" cy="31" r="2"></circle>
            <circle id="Oval-8" fill="#292A2B" cx="57" cy="53" r="2"></circle>
        </g>
        <g id="Server" transform="translate(0.000000, 137.000000)">
            <rect id="Rectangle" stroke="#292A2B" x="0.5" y="0.5" width="64" height="17" rx="3"></rect>
            <rect id="Rectangle" stroke="#292A2B" x="0.5" y="22.5" width="64" height="17" rx="3"></rect>
            <rect id="Rectangle" stroke="#292A2B" x="0.5" y="44.5" width="64" height="17" rx="3"></rect>
            <circle id="Oval-8" fill="#292A2B" cx="57" cy="9" r="2"></circle>
            <circle id="Oval-8" fill="#292A2B" cx="57" cy="31" r="2"></circle>
            <circle id="Oval-8" fill="#292A2B" cx="57" cy="53" r="2"></circle>
        </g>
        <path d="M489.5,126.5 L558.5,106.5" id="Line" stroke="#292A2B" stroke-linecap="square"></path>
        <path id="Line-decoration-1" d="M500.708225,126.374722 L489.5,126.5 L499.037849,120.611924" stroke="#292A2B" stroke-linecap="square"></path>
        <path id="Line-decoration-2" d="M548.962151,112.388076 L558.5,106.5 L547.291775,106.625278" stroke="#292A2B" stroke-linecap="square"></path>
        <path d="M490.5,154.5 L552.5,204.5" id="Line" stroke="#292A2B" stroke-linecap="square"></path>
        <path id="Line-decoration-1" d="M497.023603,163.614966 L490.5,154.5 L500.790118,158.944487" stroke="#292A2B" stroke-linecap="square"></path>
        <path id="Line-decoration-2" d="M542.209882,200.055513 L552.5,204.5 L545.976397,195.385034" stroke="#292A2B" stroke-linecap="square"></path>
        <path d="M598.5,113.5 L598.5,173.5" id="Line" stroke="#292A2B" stroke-linecap="square"></path>
        <path id="Line-decoration-1" d="M595.5,124.3 L598.5,113.5 L601.5,124.3" stroke="#292A2B" stroke-linecap="square"></path>
        <path id="Line-decoration-2" d="M595.5,162.7 L598.5,173.5 L601.5,162.7" stroke="#292A2B" stroke-linecap="square"></path>
        <path d="M267.026488,108.5 L363.520729,108.5" id="Line" stroke="#292A2B" stroke-linecap="square"></path>
        <path id="Line-decoration-1" d="M277.826488,111.5 L267.026488,108.5 L277.826488,105.5" stroke="#292A2B" stroke-linecap="square"></path>
        <path id="Line-decoration-2" d="M352.720729,111.5 L363.520729,108.5 L352.720729,105.5" stroke="#292A2B" stroke-linecap="square"></path>
        <path d="M191.49722,442.5 L435.600388,442.5" id="Line" stroke="#292A2B" stroke-linecap="square"></path>
        <path id="Line-decoration-1" d="M202.29722,445.5 L191.49722,442.5 L202.29722,439.5" stroke="#292A2B" stroke-linecap="square"></path>
        <path id="Line-decoration-2" d="M424.800388,445.5 L435.600388,442.5 L424.800388,439.5" stroke="#292A2B" stroke-linecap="square"></path>
        <path d="M236.5,139.5 L429.5,394.5" id="Line" stroke="#292A2B" stroke-linecap="square"></path>
        <path id="Line-decoration-1" d="M240.625664,149.922039 L236.5,139.5 L245.409858,146.301061" stroke="#292A2B" stroke-linecap="square"></path>
        <path id="Line-decoration-2" d="M420.590142,387.698939 L429.5,394.5 L425.374336,384.077961" stroke="#292A2B" stroke-linecap="square"></path>
        <path d="M191.49722,404.5 L396.5,203.5" id="Line" stroke="#292A2B" stroke-linecap="square"></path>
        <path id="Line-decoration-1" d="M201.309193,399.081035 L191.49722,404.5 L197.108585,394.796775" stroke="#292A2B" stroke-linecap="square"></path>
        <path id="Line-decoration-2" d="M390.888635,213.203225 L396.5,203.5 L386.688027,208.918965" stroke="#292A2B" stroke-linecap="square"></path>
        <path d="M131.5,390.5 L38.5,215.5" id="Line" stroke="#292A2B" stroke-linecap="square"></path>
        <path id="Line-decoration-1" d="M129.080947,379.555221 L131.5,390.5 L123.782644,382.370891" stroke="#292A2B" stroke-linecap="square"></path>
        <path id="Line-decoration-2" d="M46.2173557,223.629109 L38.5,215.5 L40.9190534,226.444779" stroke="#292A2B" stroke-linecap="square"></path>
        <path d="M558.5,71.5 L476.5,45.5" id="Line" stroke="#292A2B" stroke-linecap="square"></path>
        <path id="Line-decoration-1" d="M549.111841,65.3760744 L558.5,71.5 L547.298378,71.0954582" stroke="#292A2B" stroke-linecap="square"></path>
        <path id="Line-decoration-2" d="M487.701622,45.9045418 L476.5,45.5 L485.888159,51.6239256" stroke="#292A2B" stroke-linecap="square"></path>
        <path d="M561.5,176.5 L468.5,80.5" id="Line-2" stroke="#292A2B" stroke-linecap="square"></path>
        <path id="Line-2-decoration-1" d="M556.140132,166.65562 L561.5,176.5 L551.830691,170.830391" stroke="#292A2B" stroke-linecap="square"></path>
        <path id="Line-2-decoration-2" d="M478.169309,86.1696088 L468.5,80.5 L473.859868,90.3443801" stroke="#292A2B" stroke-linecap="square"></path>
        <g id="Server" transform="translate(568.000000, 38.000000)">
            <rect id="Rectangle" stroke="#292A2B" x="0.5" y="0.5" width="64" height="17" rx="3"></rect>
            <rect id="Rectangle" stroke="#292A2B" x="0.5" y="22.5" width="64" height="17" rx="3"></rect>
            <rect id="Rectangle" stroke="#292A2B" x="0.5" y="44.5" width="64" height="17" rx="3"></rect>
            <circle id="Oval-8" fill="#292A2B" cx="57" cy="9" r="2"></circle>
            <circle id="Oval-8" fill="#292A2B" cx="57" cy="31" r="2"></circle>
            <circle id="Oval-8" fill="#292A2B" cx="57" cy="53" r="2"></circle>
        </g>
        <g id="Ledger" transform="translate(586.000000, 50.000000)">
            <path d="M23.4228355,-3.55271368e-15 L29,5.57716447 L29,39 L0,39 L0,0 L23.4228355,0 Z" id="Combined-Shape" fill="#E8E8E8"></path>
            <path d="M23.2157288,0.5 L0.5,0.5 L0.5,38.5 L28.5,38.5 L28.5,5.78427125 L23.2157288,0.5 Z" id="Combined-Shape" stroke="#87BC55"></path>
            <path d="M22.5,0.5 L22.5,6.5" id="Line" stroke="#87BC55" stroke-linecap="square"></path>
            <path d="M28.5,6.5 L22.5,6.5" id="Line" stroke="#87BC55" stroke-linecap="square"></path>
            <path d="M18.5,6.5 L4.5,6.5" id="Line" stroke="#87BC55" stroke-linecap="square"></path>
            <path d="M24.5,15.5 L4.5,15.5" id="Line" stroke="#87BC55" stroke-linecap="square"></path>
            <path d="M24.5,23.5 L4.5,23.5" id="Line" stroke="#87BC55" stroke-linecap="square"></path>
            <path d="M24.5,31.5 L4.5,31.5" id="Line" stroke="#87BC55" stroke-linecap="square"></path>
        </g>
        <g id="Server" transform="translate(404.000000, 10.000000)">
            <rect id="Rectangle" stroke="#292A2B" x="0.5" y="0.5" width="64" height="17" rx="3"></rect>
            <rect id="Rectangle" stroke="#292A2B" x="0.5" y="22.5" width="64" height="17" rx="3"></rect>
            <rect id="Rectangle" stroke="#292A2B" x="0.5" y="44.5" width="64" height="17" rx="3"></rect>
            <circle id="Oval-8" fill="#292A2B" cx="57" cy="9" r="2"></circle>
            <circle id="Oval-8" fill="#292A2B" cx="57" cy="31" r="2"></circle>
            <circle id="Oval-8" fill="#292A2B" cx="57" cy="53" r="2"></circle>
        </g>
        <g id="Ledger" transform="translate(422.000000, 22.000000)">
            <path d="M23.4228355,-3.55271368e-15 L29,5.57716447 L29,39 L0,39 L0,0 L23.4228355,0 Z" id="Combined-Shape" fill="#E8E8E8"></path>
            <path d="M23.2157288,0.5 L0.5,0.5 L0.5,38.5 L28.5,38.5 L28.5,5.78427125 L23.2157288,0.5 Z" id="Combined-Shape" stroke="#87BC55"></path>
            <path d="M22.5,0.5 L22.5,6.5" id="Line" stroke="#87BC55" stroke-linecap="square"></path>
            <path d="M28.5,6.5 L22.5,6.5" id="Line" stroke="#87BC55" stroke-linecap="square"></path>
            <path d="M18.5,6.5 L4.5,6.5" id="Line" stroke="#87BC55" stroke-linecap="square"></path>
            <path d="M24.5,15.5 L4.5,15.5" id="Line" stroke="#87BC55" stroke-linecap="square"></path>
            <path d="M24.5,23.5 L4.5,23.5" id="Line" stroke="#87BC55" stroke-linecap="square"></path>
            <path d="M24.5,31.5 L4.5,31.5" id="Line" stroke="#87BC55" stroke-linecap="square"></path>
        </g>
        <g id="Server" transform="translate(411.000000, 131.000000)">
            <rect id="Rectangle" stroke="#292A2B" x="0.5" y="0.5" width="64" height="17" rx="3"></rect>
            <rect id="Rectangle" stroke="#292A2B" x="0.5" y="22.5" width="64" height="17" rx="3"></rect>
            <rect id="Rectangle" stroke="#292A2B" x="0.5" y="44.5" width="64" height="17" rx="3"></rect>
            <circle id="Oval-8" fill="#292A2B" cx="57" cy="9" r="2"></circle>
            <circle id="Oval-8" fill="#292A2B" cx="57" cy="31" r="2"></circle>
            <circle id="Oval-8" fill="#292A2B" cx="57" cy="53" r="2"></circle>
        </g>
        <g id="Ledger" transform="translate(429.000000, 143.000000)">
            <path d="M23.4228355,-3.55271368e-15 L29,5.57716447 L29,39 L0,39 L0,0 L23.4228355,0 Z" id="Combined-Shape" fill="#E8E8E8"></path>
            <path d="M23.2157288,0.5 L0.5,0.5 L0.5,38.5 L28.5,38.5 L28.5,5.78427125 L23.2157288,0.5 Z" id="Combined-Shape" stroke="#87BC55"></path>
            <path d="M22.5,0.5 L22.5,6.5" id="Line" stroke="#87BC55" stroke-linecap="square"></path>
            <path d="M28.5,6.5 L22.5,6.5" id="Line" stroke="#87BC55" stroke-linecap="square"></path>
            <path d="M18.5,6.5 L4.5,6.5" id="Line" stroke="#87BC55" stroke-linecap="square"></path>
            <path d="M24.5,15.5 L4.5,15.5" id="Line" stroke="#87BC55" stroke-linecap="square"></path>
            <path d="M24.5,23.5 L4.5,23.5" id="Line" stroke="#87BC55" stroke-linecap="square"></path>
            <path d="M24.5,31.5 L4.5,31.5" id="Line" stroke="#87BC55" stroke-linecap="square"></path>
        </g>
        <g id="Server" transform="translate(568.000000, 186.000000)">
            <rect id="Rectangle" stroke="#292A2B" x="0.5" y="0.5" width="64" height="17" rx="3"></rect>
            <rect id="Rectangle" stroke="#292A2B" x="0.5" y="22.5" width="64" height="17" rx="3"></rect>
            <rect id="Rectangle" stroke="#292A2B" x="0.5" y="44.5" width="64" height="17" rx="3"></rect>
            <circle id="Oval-8" fill="#292A2B" cx="57" cy="9" r="2"></circle>
            <circle id="Oval-8" fill="#292A2B" cx="57" cy="31" r="2"></circle>
            <circle id="Oval-8" fill="#292A2B" cx="57" cy="53" r="2"></circle>
        </g>
        <g id="Ledger" transform="translate(586.000000, 198.000000)">
            <path d="M23.4228355,-3.55271368e-15 L29,5.57716447 L29,39 L0,39 L0,0 L23.4228355,0 Z" id="Combined-Shape" fill="#E8E8E8"></path>
            <path d="M23.2157288,0.5 L0.5,0.5 L0.5,38.5 L28.5,38.5 L28.5,5.78427125 L23.2157288,0.5 Z" id="Combined-Shape" stroke="#87BC55"></path>
            <path d="M22.5,0.5 L22.5,6.5" id="Line" stroke="#87BC55" stroke-linecap="square"></path>
            <path d="M28.5,6.5 L22.5,6.5" id="Line" stroke="#87BC55" stroke-linecap="square"></path>
            <path d="M18.5,6.5 L4.5,6.5" id="Line" stroke="#87BC55" stroke-linecap="square"></path>
            <path d="M24.5,15.5 L4.5,15.5" id="Line" stroke="#87BC55" stroke-linecap="square"></path>
            <path d="M24.5,23.5 L4.5,23.5" id="Line" stroke="#87BC55" stroke-linecap="square"></path>
            <path d="M24.5,31.5 L4.5,31.5" id="Line" stroke="#87BC55" stroke-linecap="square"></path>
        </g>
        <path d="M561.5,176.5 L468.5,80.5" id="Line-2" stroke="#292A2B" stroke-linecap="square"></path>
        <path id="Line-2-decoration-1" d="M556.140132,166.65562 L561.5,176.5 L551.830691,170.830391" stroke="#292A2B" stroke-linecap="square"></path>
        <path id="Line-2-decoration-2" d="M478.169309,86.1696088 L468.5,80.5 L473.859868,90.3443801" stroke="#292A2B" stroke-linecap="square"></path>
        <text id="Accountant-B" font-family="GTPressura-Bold, GT Pressura" font-size="12" font-weight="bold" fill="#292A2B">
            <tspan x="446" y="489">Accountant B</tspan>
        </text>
        <text id="Telecom-customer" font-family="GTPressura-Bold, GT Pressura" font-size="12" font-weight="bold" fill="#292A2B">
            <tspan x="138" y="501">Telecom customer</tspan>
        </text>
        <text id="Private-person-using" font-family="GTPressura-Light, GT Pressura" font-size="12" font-weight="300" fill="#292A2B">
            <tspan x="138" y="521">Private person using network </tspan>
            <tspan x="138" y="537">of telekom operator. Hashes </tspan>
            <tspan x="138" y="553">of settled transactions are </tspan>
            <tspan x="138" y="569">kept in a private blockchain.</tspan>
        </text>
        <text id="Telecom-operator" font-family="GTPressura-Bold, GT Pressura" font-size="12" font-weight="bold" fill="#292A2B">
            <tspan x="110" y="168">Telecom operator</tspan>
        </text>
        <text id="The-operator-uses-th" font-family="GTPressura-Light, GT Pressura" font-size="12" font-weight="300" fill="#292A2B">
            <tspan x="110" y="188">The operator uses three </tspan>
            <tspan x="110" y="204">network servers as nodes to </tspan>
            <tspan x="110" y="220">create byzantine failure </tspan>
            <tspan x="110" y="236">tolerance. Hashes of settled </tspan>
            <tspan x="110" y="252">transactions are cept in a </tspan>
            <tspan x="110" y="268">distributed private block-</tspan>
            <tspan x="110" y="284">chain but are deleted after X </tspan>
            <tspan x="110" y="300">months for data privacy </tspan>
            <tspan x="110" y="316">reasons.</tspan>
        </text>
        <text id="Accountant-A" font-family="GTPressura-Bold, GT Pressura" font-size="12" font-weight="bold" fill="#292A2B">
            <tspan x="411" y="216">Accountant A</tspan>
        </text>
        <text id="Telecom-operator’s-a" font-family="GTPressura-Light, GT Pressura" font-size="12" font-weight="300" fill="#292A2B">
            <tspan x="411" y="236">Telecom operator’s </tspan>
            <tspan x="411" y="252">accountant. Stores trans-</tspan>
            <tspan x="411" y="268">action data immutably in a </tspan>
            <tspan x="411" y="284">private blockchain but </tspan>
            <tspan x="411" y="300">erases data after X months </tspan>
            <tspan x="411" y="316">in accordance with the </tspan>
            <tspan x="411" y="332">operator’s guidelines.</tspan>
        </text>
        <text id="Phone-user’s-account" font-family="GTPressura-Light, GT Pressura" font-size="12" font-weight="300" fill="#292A2B">
            <tspan x="446" y="509">Phone user’s accountant. </tspan>
            <tspan x="446" y="525">Third party service that </tspan>
            <tspan x="446" y="541">stores all transaction data in </tspan>
            <tspan x="446" y="557">a private blockchain.</tspan>
        </text>
    </g>
</svg>