<?xml version="1.0" encoding="UTF-8"?>
<svg width="745px" height="651px" viewBox="0 0 745 651" version="1.1" xmlns="http://www.w3.org/2000/svg" xmlns:xlink="http://www.w3.org/1999/xlink">
    <!-- Generator: Sketch 49.1 (51147) - http://www.bohemiancoding.com/sketch -->
    <title>use-case</title>
    <desc>Created with Sketch.</desc>
    <defs></defs>
    <g id="use-case" stroke="none" stroke-width="1" fill="none" fill-rule="evenodd">
        <g id="Server" transform="translate(499.000000, 436.000000)">
            <rect id="Rectangle" stroke="#292A2B" x="0.5" y="0.5" width="64" height="17" rx="3"></rect>
            <rect id="Rectangle" stroke="#292A2B" x="0.5" y="22.5" width="64" height="17" rx="3"></rect>
            <rect id="Rectangle" stroke="#292A2B" x="0.5" y="44.5" width="64" height="17" rx="3"></rect>
            <circle id="Oval-8" fill="#292A2B" cx="57" cy="9" r="2"></circle>
            <circle id="Oval-8" fill="#292A2B" cx="57" cy="31" r="2"></circle>
            <circle id="Oval-8" fill="#292A2B" cx="57" cy="53" r="2"></circle>
        </g>
        <g id="Ledger" transform="translate(517.000000, 448.000000)">
            <path d="M23.4228355,-3.55271368e-15 L29,5.57716447 L29,39 L0,39 L0,0 L23.4228355,0 Z" id="Combined-Shape" fill="#E8E8E8"></path>
            <path d="M23.2157288,0.5 L0.5,0.5 L0.5,38.5 L28.5,38.5 L28.5,5.78427125 L23.2157288,0.5 Z" id="Combined-Shape" stroke="#87BC55"></path>
            <path d="M22.5,0.5 L22.5,6.5" id="Line" stroke="#87BC55" stroke-linecap="square"></path>
            <path d="M28.5,6.5 L22.5,6.5" id="Line" stroke="#87BC55" stroke-linecap="square"></path>
            <path d="M18.5,6.5 L4.5,6.5" id="Line" stroke="#87BC55" stroke-linecap="square"></path>
            <path d="M24.5,15.5 L4.5,15.5" id="Line" stroke="#87BC55" stroke-linecap="square"></path>
            <path d="M24.5,23.5 L4.5,23.5" id="Line" stroke="#87BC55" stroke-linecap="square"></path>
            <path d="M24.5,31.5 L4.5,31.5" id="Line" stroke="#87BC55" stroke-linecap="square"></path>
        </g>
        <g id="Group-2" transform="translate(191.000000, 436.000000)">
            <rect id="Rectangle-21" stroke="#292A2B" stroke-width="0.6" x="0.3" y="0.3" width="36.4" height="73.4" rx="3"></rect>
            <path d="M36.0181149,9.92682927 L0.38516383,9.92682927" id="Line" stroke="#292A2B" stroke-width="0.6" stroke-linecap="square"></path>
            <path d="M25.2656572,5.61517615 L18.8854331,5.61517615" id="Line" stroke="#292A2B" stroke-width="0.6" stroke-linecap="square"></path>
            <path d="M15.7172701,5.61517615 L14.0747445,5.61517615" id="Line" stroke="#292A2B" stroke-width="0.6" stroke-linecap="square"></path>
            <path d="M36.0181149,62.8699187 L0.38516383,62.8699187" id="Line" stroke="#292A2B" stroke-width="0.6" stroke-linecap="square"></path>
            <ellipse id="Oval-12" fill="#292A2B" cx="18.5" cy="67.9837398" rx="2.38709677" ry="2.40650407"></ellipse>
        </g>
        <path d="M144.5,84.5 L199.5,106.5" id="Line" stroke="#292A2B" stroke-linecap="square"></path>
        <path id="Line-decoration-1" d="M153.413376,91.2964494 L144.5,84.5 L155.64172,85.7255892" stroke="#292A2B" stroke-linecap="square"></path>
        <path id="Line-decoration-2" d="M188.35828,105.274411 L199.5,106.5 L190.586624,99.7035506" stroke="#292A2B" stroke-linecap="square"></path>
        <path d="M135.5,186.5 L199.5,160.5" id="Line" stroke="#292A2B" stroke-linecap="square"></path>
        <path id="Line-decoration-1" d="M146.63497,185.214528 L135.5,186.5 L144.376708,179.655728" stroke="#292A2B" stroke-linecap="square"></path>
        <path id="Line-decoration-2" d="M190.623292,167.344272 L199.5,160.5 L188.36503,161.785472" stroke="#292A2B" stroke-linecap="square"></path>
        <path d="M86.5,159.5 L95.5,104.5" id="Line" stroke="#292A2B" stroke-linecap="square"></path>
        <path id="Line-decoration-1" d="M91.2047003,149.32622 L86.5,159.5 L85.2834528,148.357289" stroke="#292A2B" stroke-linecap="square"></path>
        <path id="Line-decoration-2" d="M96.7165472,115.642711 L95.5,104.5 L90.7952997,114.67378" stroke="#292A2B" stroke-linecap="square"></path>
        <g id="Server" transform="translate(66.000000, 32.000000)">
            <rect id="Rectangle" stroke="#292A2B" x="0.5" y="0.5" width="64" height="17" rx="3"></rect>
            <rect id="Rectangle" stroke="#292A2B" x="0.5" y="22.5" width="64" height="17" rx="3"></rect>
            <rect id="Rectangle" stroke="#292A2B" x="0.5" y="44.5" width="64" height="17" rx="3"></rect>
            <circle id="Oval-8" fill="#292A2B" cx="57" cy="9" r="2"></circle>
            <circle id="Oval-8" fill="#292A2B" cx="57" cy="31" r="2"></circle>
            <circle id="Oval-8" fill="#292A2B" cx="57" cy="53" r="2"></circle>
        </g>
        <g id="Server" transform="translate(210.000000, 107.000000)">
            <rect id="Rectangle" stroke="#292A2B" x="0.5" y="0.5" width="64" height="17" rx="3"></rect>
            <rect id="Rectangle" stroke="#292A2B" x="0.5" y="22.5" width="64" height="17" rx="3"></rect>
            <rect id="Rectangle" stroke="#292A2B" x="0.5" y="44.5" width="64" height="17" rx="3"></rect>
            <circle id="Oval-8" fill="#292A2B" cx="57" cy="9" r="2"></circle>
            <circle id="Oval-8" fill="#292A2B" cx="57" cy="31" r="2"></circle>
            <circle id="Oval-8" fill="#292A2B" cx="57" cy="53" r="2"></circle>
        </g>
        <g id="Server" transform="translate(53.000000, 169.000000)">
            <rect id="Rectangle" stroke="#292A2B" x="0.5" y="0.5" width="64" height="17" rx="3"></rect>
            <rect id="Rectangle" stroke="#292A2B" x="0.5" y="22.5" width="64" height="17" rx="3"></rect>
            <rect id="Rectangle" stroke="#292A2B" x="0.5" y="44.5" width="64" height="17" rx="3"></rect>
            <circle id="Oval-8" fill="#292A2B" cx="57" cy="9" r="2"></circle>
            <circle id="Oval-8" fill="#292A2B" cx="57" cy="31" r="2"></circle>
            <circle id="Oval-8" fill="#292A2B" cx="57" cy="53" r="2"></circle>
        </g>
        <path d="M542.5,158.5 L611.5,138.5" id="Line" stroke="#292A2B" stroke-linecap="square"></path>
        <path id="Line-decoration-1" d="M553.708225,158.374722 L542.5,158.5 L552.037849,152.611924" stroke="#292A2B" stroke-linecap="square"></path>
        <path id="Line-decoration-2" d="M601.962151,144.388076 L611.5,138.5 L600.291775,138.625278" stroke="#292A2B" stroke-linecap="square"></path>
        <path d="M543.5,186.5 L605.5,236.5" id="Line" stroke="#292A2B" stroke-linecap="square"></path>
        <path id="Line-decoration-1" d="M550.023603,195.614966 L543.5,186.5 L553.790118,190.944487" stroke="#292A2B" stroke-linecap="square"></path>
        <path id="Line-decoration-2" d="M595.209882,232.055513 L605.5,236.5 L598.976397,227.385034" stroke="#292A2B" stroke-linecap="square"></path>
        <path d="M651.5,145.5 L651.5,205.5" id="Line" stroke="#292A2B" stroke-linecap="square"></path>
        <path id="Line-decoration-1" d="M648.5,156.3 L651.5,145.5 L654.5,156.3" stroke="#292A2B" stroke-linecap="square"></path>
        <path id="Line-decoration-2" d="M648.5,194.7 L651.5,205.5 L654.5,194.7" stroke="#292A2B" stroke-linecap="square"></path>
        <path d="M320.026488,140.5 L416.520729,140.5" id="Line" stroke="#292A2B" stroke-linecap="square"></path>
        <path id="Line-decoration-1" d="M330.826488,143.5 L320.026488,140.5 L330.826488,137.5" stroke="#292A2B" stroke-linecap="square"></path>
        <path id="Line-decoration-2" d="M405.720729,143.5 L416.520729,140.5 L405.720729,137.5" stroke="#292A2B" stroke-linecap="square"></path>
        <path d="M244.49722,474.5 L488.600388,474.5" id="Line" stroke="#292A2B" stroke-linecap="square"></path>
        <path id="Line-decoration-1" d="M255.29722,477.5 L244.49722,474.5 L255.29722,471.5" stroke="#292A2B" stroke-linecap="square"></path>
        <path id="Line-decoration-2" d="M477.800388,477.5 L488.600388,474.5 L477.800388,471.5" stroke="#292A2B" stroke-linecap="square"></path>
        <path d="M289.5,171.5 L482.5,426.5" id="Line" stroke="#292A2B" stroke-linecap="square"></path>
        <path id="Line-decoration-1" d="M293.625664,181.922039 L289.5,171.5 L298.409858,178.301061" stroke="#292A2B" stroke-linecap="square"></path>
        <path id="Line-decoration-2" d="M473.590142,419.698939 L482.5,426.5 L478.374336,416.077961" stroke="#292A2B" stroke-linecap="square"></path>
        <path d="M244.49722,436.5 L449.5,235.5" id="Line" stroke="#292A2B" stroke-linecap="square"></path>
        <path id="Line-decoration-1" d="M254.309193,431.081035 L244.49722,436.5 L250.108585,426.796775" stroke="#292A2B" stroke-linecap="square"></path>
        <path id="Line-decoration-2" d="M443.888635,245.203225 L449.5,235.5 L439.688027,240.918965" stroke="#292A2B" stroke-linecap="square"></path>
        <path d="M184.5,422.5 L91.5,247.5" id="Line" stroke="#292A2B" stroke-linecap="square"></path>
        <path id="Line-decoration-1" d="M182.080947,411.555221 L184.5,422.5 L176.782644,414.370891" stroke="#292A2B" stroke-linecap="square"></path>
        <path id="Line-decoration-2" d="M99.2173557,255.629109 L91.5,247.5 L93.9190534,258.444779" stroke="#292A2B" stroke-linecap="square"></path>
        <path d="M611.5,103.5 L529.5,77.5" id="Line" stroke="#292A2B" stroke-linecap="square"></path>
        <path id="Line-decoration-1" d="M602.111841,97.3760744 L611.5,103.5 L600.298378,103.095458" stroke="#292A2B" stroke-linecap="square"></path>
        <path id="Line-decoration-2" d="M540.701622,77.9045418 L529.5,77.5 L538.888159,83.6239256" stroke="#292A2B" stroke-linecap="square"></path>
        <path d="M614.5,208.5 L521.5,112.5" id="Line-2" stroke="#292A2B" stroke-linecap="square"></path>
        <path id="Line-2-decoration-1" d="M609.140132,198.65562 L614.5,208.5 L604.830691,202.830391" stroke="#292A2B" stroke-linecap="square"></path>
        <path id="Line-2-decoration-2" d="M531.169309,118.169609 L521.5,112.5 L526.859868,122.34438" stroke="#292A2B" stroke-linecap="square"></path>
        <g id="Server" transform="translate(621.000000, 70.000000)">
            <rect id="Rectangle" stroke="#292A2B" x="0.5" y="0.5" width="64" height="17" rx="3"></rect>
            <rect id="Rectangle" stroke="#292A2B" x="0.5" y="22.5" width="64" height="17" rx="3"></rect>
            <rect id="Rectangle" stroke="#292A2B" x="0.5" y="44.5" width="64" height="17" rx="3"></rect>
            <circle id="Oval-8" fill="#292A2B" cx="57" cy="9" r="2"></circle>
            <circle id="Oval-8" fill="#292A2B" cx="57" cy="31" r="2"></circle>
            <circle id="Oval-8" fill="#292A2B" cx="57" cy="53" r="2"></circle>
        </g>
        <g id="Ledger" transform="translate(639.000000, 82.000000)">
            <path d="M23.4228355,-3.55271368e-15 L29,5.57716447 L29,39 L0,39 L0,0 L23.4228355,0 Z" id="Combined-Shape" fill="#E8E8E8"></path>
            <path d="M23.2157288,0.5 L0.5,0.5 L0.5,38.5 L28.5,38.5 L28.5,5.78427125 L23.2157288,0.5 Z" id="Combined-Shape" stroke="#87BC55"></path>
            <path d="M22.5,0.5 L22.5,6.5" id="Line" stroke="#87BC55" stroke-linecap="square"></path>
            <path d="M28.5,6.5 L22.5,6.5" id="Line" stroke="#87BC55" stroke-linecap="square"></path>
            <path d="M18.5,6.5 L4.5,6.5" id="Line" stroke="#87BC55" stroke-linecap="square"></path>
            <path d="M24.5,15.5 L4.5,15.5" id="Line" stroke="#87BC55" stroke-linecap="square"></path>
            <path d="M24.5,23.5 L4.5,23.5" id="Line" stroke="#87BC55" stroke-linecap="square"></path>
            <path d="M24.5,31.5 L4.5,31.5" id="Line" stroke="#87BC55" stroke-linecap="square"></path>
        </g>
        <g id="Server" transform="translate(457.000000, 42.000000)">
            <rect id="Rectangle" stroke="#292A2B" x="0.5" y="0.5" width="64" height="17" rx="3"></rect>
            <rect id="Rectangle" stroke="#292A2B" x="0.5" y="22.5" width="64" height="17" rx="3"></rect>
            <rect id="Rectangle" stroke="#292A2B" x="0.5" y="44.5" width="64" height="17" rx="3"></rect>
            <circle id="Oval-8" fill="#292A2B" cx="57" cy="9" r="2"></circle>
            <circle id="Oval-8" fill="#292A2B" cx="57" cy="31" r="2"></circle>
            <circle id="Oval-8" fill="#292A2B" cx="57" cy="53" r="2"></circle>
        </g>
        <g id="Ledger" transform="translate(475.000000, 54.000000)">
            <path d="M23.4228355,-3.55271368e-15 L29,5.57716447 L29,39 L0,39 L0,0 L23.4228355,0 Z" id="Combined-Shape" fill="#E8E8E8"></path>
            <path d="M23.2157288,0.5 L0.5,0.5 L0.5,38.5 L28.5,38.5 L28.5,5.78427125 L23.2157288,0.5 Z" id="Combined-Shape" stroke="#87BC55"></path>
            <path d="M22.5,0.5 L22.5,6.5" id="Line" stroke="#87BC55" stroke-linecap="square"></path>
            <path d="M28.5,6.5 L22.5,6.5" id="Line" stroke="#87BC55" stroke-linecap="square"></path>
            <path d="M18.5,6.5 L4.5,6.5" id="Line" stroke="#87BC55" stroke-linecap="square"></path>
            <path d="M24.5,15.5 L4.5,15.5" id="Line" stroke="#87BC55" stroke-linecap="square"></path>
            <path d="M24.5,23.5 L4.5,23.5" id="Line" stroke="#87BC55" stroke-linecap="square"></path>
            <path d="M24.5,31.5 L4.5,31.5" id="Line" stroke="#87BC55" stroke-linecap="square"></path>
        </g>
        <g id="Server" transform="translate(464.000000, 163.000000)">
            <rect id="Rectangle" stroke="#292A2B" x="0.5" y="0.5" width="64" height="17" rx="3"></rect>
            <rect id="Rectangle" stroke="#292A2B" x="0.5" y="22.5" width="64" height="17" rx="3"></rect>
            <rect id="Rectangle" stroke="#292A2B" x="0.5" y="44.5" width="64" height="17" rx="3"></rect>
            <circle id="Oval-8" fill="#292A2B" cx="57" cy="9" r="2"></circle>
            <circle id="Oval-8" fill="#292A2B" cx="57" cy="31" r="2"></circle>
            <circle id="Oval-8" fill="#292A2B" cx="57" cy="53" r="2"></circle>
        </g>
        <g id="Ledger" transform="translate(482.000000, 175.000000)">
            <path d="M23.4228355,-3.55271368e-15 L29,5.57716447 L29,39 L0,39 L0,0 L23.4228355,0 Z" id="Combined-Shape" fill="#E8E8E8"></path>
            <path d="M23.2157288,0.5 L0.5,0.5 L0.5,38.5 L28.5,38.5 L28.5,5.78427125 L23.2157288,0.5 Z" id="Combined-Shape" stroke="#87BC55"></path>
            <path d="M22.5,0.5 L22.5,6.5" id="Line" stroke="#87BC55" stroke-linecap="square"></path>
            <path d="M28.5,6.5 L22.5,6.5" id="Line" stroke="#87BC55" stroke-linecap="square"></path>
            <path d="M18.5,6.5 L4.5,6.5" id="Line" stroke="#87BC55" stroke-linecap="square"></path>
            <path d="M24.5,15.5 L4.5,15.5" id="Line" stroke="#87BC55" stroke-linecap="square"></path>
            <path d="M24.5,23.5 L4.5,23.5" id="Line" stroke="#87BC55" stroke-linecap="square"></path>
            <path d="M24.5,31.5 L4.5,31.5" id="Line" stroke="#87BC55" stroke-linecap="square"></path>
        </g>
        <g id="Server" transform="translate(621.000000, 218.000000)">
            <rect id="Rectangle" stroke="#292A2B" x="0.5" y="0.5" width="64" height="17" rx="3"></rect>
            <rect id="Rectangle" stroke="#292A2B" x="0.5" y="22.5" width="64" height="17" rx="3"></rect>
            <rect id="Rectangle" stroke="#292A2B" x="0.5" y="44.5" width="64" height="17" rx="3"></rect>
            <circle id="Oval-8" fill="#292A2B" cx="57" cy="9" r="2"></circle>
            <circle id="Oval-8" fill="#292A2B" cx="57" cy="31" r="2"></circle>
            <circle id="Oval-8" fill="#292A2B" cx="57" cy="53" r="2"></circle>
        </g>
        <g id="Ledger" transform="translate(639.000000, 230.000000)">
            <path d="M23.4228355,-3.55271368e-15 L29,5.57716447 L29,39 L0,39 L0,0 L23.4228355,0 Z" id="Combined-Shape" fill="#E8E8E8"></path>
            <path d="M23.2157288,0.5 L0.5,0.5 L0.5,38.5 L28.5,38.5 L28.5,5.78427125 L23.2157288,0.5 Z" id="Combined-Shape" stroke="#87BC55"></path>
            <path d="M22.5,0.5 L22.5,6.5" id="Line" stroke="#87BC55" stroke-linecap="square"></path>
            <path d="M28.5,6.5 L22.5,6.5" id="Line" stroke="#87BC55" stroke-linecap="square"></path>
            <path d="M18.5,6.5 L4.5,6.5" id="Line" stroke="#87BC55" stroke-linecap="square"></path>
            <path d="M24.5,15.5 L4.5,15.5" id="Line" stroke="#87BC55" stroke-linecap="square"></path>
            <path d="M24.5,23.5 L4.5,23.5" id="Line" stroke="#87BC55" stroke-linecap="square"></path>
            <path d="M24.5,31.5 L4.5,31.5" id="Line" stroke="#87BC55" stroke-linecap="square"></path>
        </g>
        <path d="M614.5,208.5 L521.5,112.5" id="Line-2" stroke="#292A2B" stroke-linecap="square"></path>
        <path id="Line-2-decoration-1" d="M609.140132,198.65562 L614.5,208.5 L604.830691,202.830391" stroke="#292A2B" stroke-linecap="square"></path>
        <path id="Line-2-decoration-2" d="M531.169309,118.169609 L521.5,112.5 L526.859868,122.34438" stroke="#292A2B" stroke-linecap="square"></path>
        <text id="Accountant-B" font-family="GTPressura-Bold, GT Pressura" font-size="12" font-weight="bold" fill="#292A2B">
            <tspan x="499" y="521">Accountant B</tspan>
        </text>
        <text id="Telecom-customer" font-family="GTPressura-Bold, GT Pressura" font-size="12" font-weight="bold" fill="#292A2B">
            <tspan x="191" y="533">Telecom customer</tspan>
        </text>
        <text id="Private-person-using" font-family="GTPressura-Light, GT Pressura" font-size="12" font-weight="300" fill="#292A2B">
            <tspan x="191" y="553">Private person using network </tspan>
            <tspan x="191" y="569">of telekom operator. Hashes </tspan>
            <tspan x="191" y="585">of settled transactions are </tspan>
            <tspan x="191" y="601">kept in a private blockchain.</tspan>
        </text>
        <text id="Telecom-operator" font-family="GTPressura-Bold, GT Pressura" font-size="12" font-weight="bold" fill="#292A2B">
            <tspan x="163" y="200">Telecom operator</tspan>
        </text>
        <text id="The-operator-uses-th" font-family="GTPressura-Light, GT Pressura" font-size="12" font-weight="300" fill="#292A2B">
            <tspan x="163" y="220">The operator uses three </tspan>
            <tspan x="163" y="236">network servers as nodes to </tspan>
            <tspan x="163" y="252">create byzantine failure </tspan>
            <tspan x="163" y="268">tolerance. Hashes of settled </tspan>
            <tspan x="163" y="284">transactions are cept in a </tspan>
            <tspan x="163" y="300">distributed private block-</tspan>
            <tspan x="163" y="316">chain but are deleted after X </tspan>
            <tspan x="163" y="332">months for data privacy </tspan>
            <tspan x="163" y="348">reasons.</tspan>
        </text>
        <text id="Accountant-A" font-family="GTPressura-Bold, GT Pressura" font-size="12" font-weight="bold" fill="#292A2B">
            <tspan x="464" y="248">Accountant A</tspan>
        </text>
        <text id="Telecom-operator’s-a" font-family="GTPressura-Light, GT Pressura" font-size="12" font-weight="300" fill="#292A2B">
            <tspan x="464" y="268">Telecom operator’s </tspan>
            <tspan x="464" y="284">accountant. Stores trans-</tspan>
            <tspan x="464" y="300">action data immutably in a </tspan>
            <tspan x="464" y="316">private blockchain but </tspan>
            <tspan x="464" y="332">erases data after X months </tspan>
            <tspan x="464" y="348">in accordance with the </tspan>
            <tspan x="464" y="364">operator’s guidelines.</tspan>
        </text>
        <text id="Phone-user’s-account" font-family="GTPressura-Light, GT Pressura" font-size="12" font-weight="300" fill="#292A2B">
            <tspan x="499" y="541">Phone user’s accountant. </tspan>
            <tspan x="499" y="557">Third party service that </tspan>
            <tspan x="499" y="573">stores all transaction data in </tspan>
            <tspan x="499" y="589">a private blockchain.</tspan>
        </text>
    </g>
</svg>