<?xml version="1.0" encoding="UTF-8"?>
<svg width="386px" height="510px" viewBox="0 0 386 510" version="1.1" xmlns="http://www.w3.org/2000/svg" xmlns:xlink="http://www.w3.org/1999/xlink">
    <!-- Generator: Sketch 49.1 (51147) - http://www.bohemiancoding.com/sketch -->
    <title>use-case-mobile</title>
    <desc>Created with Sketch.</desc>
    <defs>
        <rect id="path-1" x="0" y="0" width="19" height="25"></rect>
        <rect id="path-2" x="0" y="0" width="19" height="25"></rect>
        <rect id="path-3" x="0" y="0" width="19" height="25"></rect>
        <rect id="path-4" x="0" y="0" width="19" height="25"></rect>
        <rect id="path-5" x="0" y="0" width="19" height="25"></rect>
    </defs>
    <g id="use-case-mobile" stroke="none" stroke-width="1" fill="none" fill-rule="evenodd">
        <g id="Group-2" transform="translate(63.000000, 366.000000)">
            <rect id="Rectangle-21" stroke="#292A2B" stroke-width="0.6" x="0.3" y="0.3" width="24.4" height="49.4" rx="3"></rect>
            <path d="M24.7355242,7 L0.264512156,7" id="Line" stroke="#292A2B" stroke-width="0.6" stroke-linecap="square"></path>
            <path d="M17.7237697,3.66666667 L13.2691087,3.66666667" id="Line" stroke="#292A2B" stroke-width="0.6" stroke-linecap="square"></path>
            <path d="M10.6685236,3.66666667 L9.2923535,3.66666667" id="Line" stroke="#292A2B" stroke-width="0.6" stroke-linecap="square"></path>
            <path d="M24.7355242,42 L0.264512156,42" id="Line" stroke="#292A2B" stroke-width="0.6" stroke-linecap="square"></path>
            <circle id="Oval-12" fill="#292A2B" cx="12.5" cy="45.5" r="1.5"></circle>
        </g>
        <text id="Accountant-B" font-family="GTPressura-Bold, GT Pressura" font-size="12" font-weight="bold" fill="#292A2B">
            <tspan x="260" y="428">Accountant B</tspan>
        </text>
        <text id="Telecom-customer" font-family="GTPressura-Bold, GT Pressura" font-size="12" font-weight="bold" fill="#292A2B">
            <tspan x="63" y="439">Telecom customer</tspan>
        </text>
        <text id="Private-person-using" font-family="GTPressura-Light, GT Pressura" font-size="12" font-weight="300" fill="#292A2B">
            <tspan x="63" y="459">Private person using network </tspan>
            <tspan x="63" y="475">of telekom operator. Hashes </tspan>
            <tspan x="63" y="491">of settled transactions are </tspan>
            <tspan x="63" y="507">kept in a private blockchain.</tspan>
        </text>
        <text id="Telecom-operator" font-family="GTPressura-Bold, GT Pressura" font-size="12" font-weight="bold" fill="#292A2B">
            <tspan x="0" y="140">Telecom operator</tspan>
        </text>
        <text id="The-operator-uses-th" font-family="GTPressura-Light, GT Pressura" font-size="12" font-weight="300" fill="#292A2B">
            <tspan x="0" y="160">The operator uses three </tspan>
            <tspan x="0" y="176">network servers as nodes to </tspan>
            <tspan x="0" y="192">create byzantine failure </tspan>
            <tspan x="0" y="208">tolerance. Hashes of settled </tspan>
            <tspan x="0" y="224">transactions are cept in a </tspan>
            <tspan x="0" y="240">distributed private block-</tspan>
            <tspan x="0" y="256">chain but are deleted after X </tspan>
            <tspan x="0" y="272">months for data privacy </tspan>
            <tspan x="0" y="288">reasons.</tspan>
        </text>
        <text id="Accountant-A" font-family="GTPressura-Bold, GT Pressura" font-size="12" font-weight="bold" fill="#292A2B">
            <tspan x="229" y="138">Accountant A</tspan>
        </text>
        <text id="Telecom-operator’s-a" font-family="GTPressura-Light, GT Pressura" font-size="12" font-weight="300" fill="#292A2B">
            <tspan x="229" y="158">Telecom operator’s </tspan>
            <tspan x="229" y="174">accountant. Stores trans-</tspan>
            <tspan x="229" y="190">action data immutably in a </tspan>
            <tspan x="229" y="206">private blockchain but </tspan>
            <tspan x="229" y="222">erases data after X months </tspan>
            <tspan x="229" y="238">in accordance with the </tspan>
            <tspan x="229" y="254">operator’s guidelines.</tspan>
        </text>
        <text id="Phone-user’s-account" font-family="GTPressura-Light, GT Pressura" font-size="12" font-weight="300" fill="#292A2B">
            <tspan x="260" y="448">Phone user’s accountant. </tspan>
            <tspan x="260" y="464">Third party service that </tspan>
            <tspan x="260" y="480">stores all transaction data </tspan>
            <tspan x="260" y="496">in a private blockchain.</tspan>
        </text>
        <path d="M222.5,124.5 L93.5,358.5" id="Line" stroke="#292A2B" stroke-linecap="square"></path>
        <path id="Line-decoration-1" d="M214.658746,132.509665 L222.5,124.5 L219.913195,135.406349" stroke="#292A2B" stroke-linecap="square"></path>
        <path id="Line-decoration-2" d="M96.0868053,347.593651 L93.5,358.5 L101.341254,350.490335" stroke="#292A2B" stroke-linecap="square"></path>
        <path d="M124.5,124.5 L255.5,356.5" id="Line" stroke="#292A2B" stroke-linecap="square"></path>
        <path id="Line-decoration-1" d="M127.197893,135.379401 L124.5,124.5 L132.422528,132.429284" stroke="#292A2B" stroke-linecap="square"></path>
        <path id="Line-decoration-2" d="M247.577472,348.570716 L255.5,356.5 L252.802107,345.620599" stroke="#292A2B" stroke-linecap="square"></path>
        <path d="M108.5,385.5 L239.5,385.5" id="Line" stroke="#292A2B" stroke-linecap="square"></path>
        <path id="Line-decoration-1" d="M119.3,388.5 L108.5,385.5 L119.3,382.5" stroke="#292A2B" stroke-linecap="square"></path>
        <path id="Line-decoration-2" d="M228.7,388.5 L239.5,385.5 L228.7,382.5" stroke="#292A2B" stroke-linecap="square"></path>
        <path d="M143.5,55.5 L199.722771,55.5" id="Line" stroke="#292A2B" stroke-linecap="square"></path>
        <path id="Line-decoration-1" d="M154.3,58.5 L143.5,55.5 L154.3,52.5" stroke="#292A2B" stroke-linecap="square"></path>
        <path id="Line-decoration-2" d="M188.922771,58.5 L199.722771,55.5 L188.922771,52.5" stroke="#292A2B" stroke-linecap="square"></path>
        <path d="M143.5,55.5 L199.722771,55.5" id="Line" stroke="#292A2B" stroke-linecap="square"></path>
        <path id="Line-decoration-1" d="M154.3,58.5 L143.5,55.5 L154.3,52.5" stroke="#292A2B" stroke-linecap="square"></path>
        <path id="Line-decoration-2" d="M188.922771,58.5 L199.722771,55.5 L188.922771,52.5" stroke="#292A2B" stroke-linecap="square"></path>
        <path d="M23.5,49.5 L59.5,21.5" id="Line" stroke="#292A2B" stroke-linecap="square"></path>
        <path id="Line-decoration-1" d="M33.8668258,45.237498 L23.5,49.5 L30.1831821,40.5013847" stroke="#292A2B" stroke-linecap="square"></path>
        <path id="Line-decoration-2" d="M52.8168179,30.4986153 L59.5,21.5 L49.1331742,25.762502" stroke="#292A2B" stroke-linecap="square"></path>
        <path d="M92.5,70.5 L86.5,42.5" id="Line" stroke="#292A2B" stroke-linecap="square"></path>
        <path id="Line-decoration-1" d="M93.1704931,59.3111467 L92.5,70.5 L87.3036786,60.5683212" stroke="#292A2B" stroke-linecap="square"></path>
        <path id="Line-decoration-2" d="M91.6963214,52.4316788 L86.5,42.5 L85.8295069,53.6888533" stroke="#292A2B" stroke-linecap="square"></path>
        <path d="M252.5,71.5 L263.5,42.5" id="Line" stroke="#292A2B" stroke-linecap="square"></path>
        <path id="Line-decoration-1" d="M259.135258,62.4659894 L252.5,71.5 L253.525273,60.338064" stroke="#292A2B" stroke-linecap="square"></path>
        <path id="Line-decoration-2" d="M262.474727,53.661936 L263.5,42.5 L256.864742,51.5340106" stroke="#292A2B" stroke-linecap="square"></path>
        <path d="M275.5,95.5 L321.5,102.5" id="Line" stroke="#292A2B" stroke-linecap="square"></path>
        <path id="Line-decoration-1" d="M285.725757,100.09063 L275.5,95.5 L286.628409,94.1589171" stroke="#292A2B" stroke-linecap="square"></path>
        <path id="Line-decoration-2" d="M310.371591,103.841083 L321.5,102.5 L311.274243,97.9093699" stroke="#292A2B" stroke-linecap="square"></path>
        <path d="M70.5,95.5 L47.5,76.5" id="Line" stroke="#292A2B" stroke-linecap="square"></path>
        <path id="Line-decoration-1" d="M64.0842574,86.3087951 L70.5,95.5 L60.2629687,90.9345656" stroke="#292A2B" stroke-linecap="square"></path>
        <path id="Line-decoration-2" d="M57.7370313,81.0654344 L47.5,76.5 L53.9157426,85.6912049" stroke="#292A2B" stroke-linecap="square"></path>
        <rect id="Rectangle" stroke="#292A2B" x="229.5" y="76.5" width="40" height="10" rx="1.5"></rect>
        <rect id="Rectangle" stroke="#292A2B" x="229.5" y="90.5" width="40" height="10" rx="1.5"></rect>
        <rect id="Rectangle" stroke="#292A2B" x="229.5" y="104.5" width="40" height="10" rx="1.5"></rect>
        <ellipse id="Oval-8" fill="#292A2B" cx="265" cy="82.5" rx="1" ry="1.5"></ellipse>
        <ellipse id="Oval-8" fill="#292A2B" cx="265" cy="96.5" rx="1" ry="1.5"></ellipse>
        <ellipse id="Oval-8" fill="#292A2B" cx="265" cy="110.5" rx="1" ry="1.5"></ellipse>
        <g id="Group-2" transform="translate(239.000000, 84.000000)">
            <g id="Rectangle-18">
                <use fill="#E8E8E8" fill-rule="evenodd" xlink:href="#path-1"></use>
                <rect stroke="#87BC55" stroke-width="1" x="0.5" y="0.5" width="18" height="24"></rect>
            </g>
            <path d="M3.16666667,4.375 L9.5,4.375" id="Line-2" stroke="#87BC55" stroke-linecap="square"></path>
            <path d="M3.16666667,9.375 L15.8333333,9.375" id="Line-2" stroke="#87BC55" stroke-linecap="square"></path>
            <path d="M3.16666667,14.375 L15.8333333,14.375" id="Line-2" stroke="#87BC55" stroke-linecap="square"></path>
            <path d="M3.16666667,19.375 L15.8333333,19.375" id="Line-2" stroke="#87BC55" stroke-linecap="square"></path>
        </g>
        <rect id="Rectangle" stroke="#292A2B" x="260.5" y="366.5" width="40" height="10" rx="1.5"></rect>
        <rect id="Rectangle" stroke="#292A2B" x="260.5" y="380.5" width="40" height="10" rx="1.5"></rect>
        <rect id="Rectangle" stroke="#292A2B" x="260.5" y="394.5" width="40" height="10" rx="1.5"></rect>
        <ellipse id="Oval-8" fill="#292A2B" cx="296" cy="372.5" rx="1" ry="1.5"></ellipse>
        <ellipse id="Oval-8" fill="#292A2B" cx="296" cy="386.5" rx="1" ry="1.5"></ellipse>
        <ellipse id="Oval-8" fill="#292A2B" cx="296" cy="400.5" rx="1" ry="1.5"></ellipse>
        <g id="Group-2" transform="translate(270.000000, 374.000000)">
            <g id="Rectangle-18">
                <use fill="#E8E8E8" fill-rule="evenodd" xlink:href="#path-2"></use>
                <rect stroke="#87BC55" stroke-width="1" x="0.5" y="0.5" width="18" height="24"></rect>
            </g>
            <path d="M3.16666667,4.375 L9.5,4.375" id="Line-2" stroke="#87BC55" stroke-linecap="square"></path>
            <path d="M3.16666667,9.375 L15.8333333,9.375" id="Line-2" stroke="#87BC55" stroke-linecap="square"></path>
            <path d="M3.16666667,14.375 L15.8333333,14.375" id="Line-2" stroke="#87BC55" stroke-linecap="square"></path>
            <path d="M3.16666667,19.375 L15.8333333,19.375" id="Line-2" stroke="#87BC55" stroke-linecap="square"></path>
        </g>
        <g id="Group" transform="translate(76.000000, 76.000000)">
            <rect id="Rectangle" stroke="#292A2B" x="0.5" y="0.5" width="40" height="10" rx="1.5"></rect>
            <rect id="Rectangle" stroke="#292A2B" x="0.5" y="14.5" width="40" height="10" rx="1.5"></rect>
            <rect id="Rectangle" stroke="#292A2B" x="0.5" y="28.5" width="40" height="10" rx="1.5"></rect>
            <ellipse id="Oval-8" fill="#292A2B" cx="36" cy="6.5" rx="1" ry="1.5"></ellipse>
            <ellipse id="Oval-8" fill="#292A2B" cx="36" cy="20.5" rx="1" ry="1.5"></ellipse>
            <ellipse id="Oval-8" fill="#292A2B" cx="36" cy="34.5" rx="1" ry="1.5"></ellipse>
        </g>
        <g id="Group" transform="translate(0.000000, 57.000000)">
            <rect id="Rectangle" stroke="#292A2B" x="0.5" y="0.5" width="40" height="10" rx="1.5"></rect>
            <rect id="Rectangle" stroke="#292A2B" x="0.5" y="14.5" width="40" height="10" rx="1.5"></rect>
            <rect id="Rectangle" stroke="#292A2B" x="0.5" y="28.5" width="40" height="10" rx="1.5"></rect>
            <ellipse id="Oval-8" fill="#292A2B" cx="36" cy="6.5" rx="1" ry="1.5"></ellipse>
            <ellipse id="Oval-8" fill="#292A2B" cx="36" cy="20.5" rx="1" ry="1.5"></ellipse>
            <ellipse id="Oval-8" fill="#292A2B" cx="36" cy="34.5" rx="1" ry="1.5"></ellipse>
        </g>
        <g id="Group" transform="translate(67.000000, 0.000000)">
            <rect id="Rectangle" stroke="#292A2B" x="0.5" y="0.5" width="40" height="10" rx="1.5"></rect>
            <rect id="Rectangle" stroke="#292A2B" x="0.5" y="14.5" width="40" height="10" rx="1.5"></rect>
            <rect id="Rectangle" stroke="#292A2B" x="0.5" y="28.5" width="40" height="10" rx="1.5"></rect>
            <ellipse id="Oval-8" fill="#292A2B" cx="36" cy="6.5" rx="1" ry="1.5"></ellipse>
            <ellipse id="Oval-8" fill="#292A2B" cx="36" cy="20.5" rx="1" ry="1.5"></ellipse>
            <ellipse id="Oval-8" fill="#292A2B" cx="36" cy="34.5" rx="1" ry="1.5"></ellipse>
        </g>
        <rect id="Rectangle" stroke="#292A2B" x="327.5" y="88.5" width="40" height="10" rx="1.5"></rect>
        <rect id="Rectangle" stroke="#292A2B" x="327.5" y="102.5" width="40" height="10" rx="1.5"></rect>
        <rect id="Rectangle" stroke="#292A2B" x="327.5" y="116.5" width="40" height="10" rx="1.5"></rect>
        <ellipse id="Oval-8" fill="#292A2B" cx="363" cy="94.5" rx="1" ry="1.5"></ellipse>
        <ellipse id="Oval-8" fill="#292A2B" cx="363" cy="108.5" rx="1" ry="1.5"></ellipse>
        <ellipse id="Oval-8" fill="#292A2B" cx="363" cy="122.5" rx="1" ry="1.5"></ellipse>
        <g id="Group-2" transform="translate(337.000000, 96.000000)">
            <g id="Rectangle-18">
                <use fill="#E8E8E8" fill-rule="evenodd" xlink:href="#path-3"></use>
                <rect stroke="#87BC55" stroke-width="1" x="0.5" y="0.5" width="18" height="24"></rect>
            </g>
            <path d="M3.16666667,4.375 L9.5,4.375" id="Line-2" stroke="#87BC55" stroke-linecap="square"></path>
            <path d="M3.16666667,9.375 L15.8333333,9.375" id="Line-2" stroke="#87BC55" stroke-linecap="square"></path>
            <path d="M3.16666667,14.375 L15.8333333,14.375" id="Line-2" stroke="#87BC55" stroke-linecap="square"></path>
            <path d="M3.16666667,19.375 L15.8333333,19.375" id="Line-2" stroke="#87BC55" stroke-linecap="square"></path>
        </g>
        <rect id="Rectangle" stroke="#292A2B" x="244.5" y="0.5" width="40" height="10" rx="1.5"></rect>
        <rect id="Rectangle" stroke="#292A2B" x="244.5" y="14.5" width="40" height="10" rx="1.5"></rect>
        <rect id="Rectangle" stroke="#292A2B" x="244.5" y="28.5" width="40" height="10" rx="1.5"></rect>
        <ellipse id="Oval-8" fill="#292A2B" cx="280" cy="6.5" rx="1" ry="1.5"></ellipse>
        <ellipse id="Oval-8" fill="#292A2B" cx="280" cy="20.5" rx="1" ry="1.5"></ellipse>
        <ellipse id="Oval-8" fill="#292A2B" cx="280" cy="34.5" rx="1" ry="1.5"></ellipse>
        <g id="Group-2" transform="translate(254.000000, 8.000000)">
            <g id="Rectangle-18">
                <use fill="#E8E8E8" fill-rule="evenodd" xlink:href="#path-4"></use>
                <rect stroke="#87BC55" stroke-width="1" x="0.5" y="0.5" width="18" height="24"></rect>
            </g>
            <path d="M3.16666667,4.375 L9.5,4.375" id="Line-2" stroke="#87BC55" stroke-linecap="square"></path>
            <path d="M3.16666667,9.375 L15.8333333,9.375" id="Line-2" stroke="#87BC55" stroke-linecap="square"></path>
            <path d="M3.16666667,14.375 L15.8333333,14.375" id="Line-2" stroke="#87BC55" stroke-linecap="square"></path>
            <path d="M3.16666667,19.375 L15.8333333,19.375" id="Line-2" stroke="#87BC55" stroke-linecap="square"></path>
        </g>
        <rect id="Rectangle" stroke="#292A2B" x="333.5" y="10.5" width="40" height="10" rx="1.5"></rect>
        <rect id="Rectangle" stroke="#292A2B" x="333.5" y="24.5" width="40" height="10" rx="1.5"></rect>
        <rect id="Rectangle" stroke="#292A2B" x="333.5" y="38.5" width="40" height="10" rx="1.5"></rect>
        <ellipse id="Oval-8" fill="#292A2B" cx="369" cy="16.5" rx="1" ry="1.5"></ellipse>
        <ellipse id="Oval-8" fill="#292A2B" cx="369" cy="30.5" rx="1" ry="1.5"></ellipse>
        <ellipse id="Oval-8" fill="#292A2B" cx="369" cy="44.5" rx="1" ry="1.5"></ellipse>
        <g id="Group-2" transform="translate(343.000000, 18.000000)">
            <g id="Rectangle-18">
                <use fill="#E8E8E8" fill-rule="evenodd" xlink:href="#path-5"></use>
                <rect stroke="#87BC55" stroke-width="1" x="0.5" y="0.5" width="18" height="24"></rect>
            </g>
            <path d="M3.16666667,4.375 L9.5,4.375" id="Line-2" stroke="#87BC55" stroke-linecap="square"></path>
            <path d="M3.16666667,9.375 L15.8333333,9.375" id="Line-2" stroke="#87BC55" stroke-linecap="square"></path>
            <path d="M3.16666667,14.375 L15.8333333,14.375" id="Line-2" stroke="#87BC55" stroke-linecap="square"></path>
            <path d="M3.16666667,19.375 L15.8333333,19.375" id="Line-2" stroke="#87BC55" stroke-linecap="square"></path>
        </g>
        <path d="M143.5,55.5 L199.722771,55.5" id="Line" stroke="#292A2B" stroke-linecap="square"></path>
        <path id="Line-decoration-1" d="M154.3,58.5 L143.5,55.5 L154.3,52.5" stroke="#292A2B" stroke-linecap="square"></path>
        <path id="Line-decoration-2" d="M188.922771,58.5 L199.722771,55.5 L188.922771,52.5" stroke="#292A2B" stroke-linecap="square"></path>
        <path d="M290.5,21.5 L324.5,29.5" id="Line" stroke="#292A2B" stroke-linecap="square"></path>
        <path id="Line-decoration-1" d="M300.325787,26.8938763 L290.5,21.5 L301.700023,21.0533733" stroke="#292A2B" stroke-linecap="square"></path>
        <path id="Line-decoration-2" d="M313.299977,29.9466267 L324.5,29.5 L314.674213,24.1061237" stroke="#292A2B" stroke-linecap="square"></path>
        <path d="M343.5,79.5 L350.5,53.5" id="Line" stroke="#292A2B" stroke-linecap="square"></path>
        <path id="Line-decoration-1" d="M349.204561,69.8512702 L343.5,79.5 L343.410866,68.2914294" stroke="#292A2B" stroke-linecap="square"></path>
        <path id="Line-decoration-2" d="M350.589134,64.7085706 L350.5,53.5 L344.795439,63.1487298" stroke="#292A2B" stroke-linecap="square"></path>
        <path d="M276.5,74.5 L328.5,52.5" id="Line" stroke="#292A2B" stroke-linecap="square"></path>
        <path id="Line-decoration-1" d="M287.615366,73.0547899 L276.5,74.5 L285.277526,67.5289863" stroke="#292A2B" stroke-linecap="square"></path>
        <path id="Line-decoration-2" d="M319.722474,59.4710137 L328.5,52.5 L317.384634,53.9452101" stroke="#292A2B" stroke-linecap="square"></path>
        <path d="M288.5,43.5 L320.5,80.5" id="Line" stroke="#292A2B" stroke-linecap="square"></path>
        <path id="Line-decoration-1" d="M293.295751,53.6311781 L288.5,43.5 L297.83393,49.7062665" stroke="#292A2B" stroke-linecap="square"></path>
        <path id="Line-decoration-2" d="M311.16607,74.2937335 L320.5,80.5 L315.704249,70.3688219" stroke="#292A2B" stroke-linecap="square"></path>
    </g>
</svg>