<?xml version="1.0" encoding="UTF-8"?>
<svg width="759px" height="632px" viewBox="0 0 759 632" version="1.1" xmlns="http://www.w3.org/2000/svg" xmlns:xlink="http://www.w3.org/1999/xlink">
    <!-- Generator: Sketch 55.2 (78181) - https://sketchapp.com -->
    <title>loraalliancememberwhite</title>
    <desc>Created with Sketch.</desc>
    <g id="loraalliancememberwhite" stroke="none" stroke-width="1" fill="none" fill-rule="evenodd">
        <path d="M185.376892,298 C185.660564,298.244144 185.945092,298.487323 186.230469,298.72953 L186.230469,441.164062 L158.789062,441.164062 L158.789062,298 L185.376892,298 Z M214.355444,317.921995 C223.056091,322.603056 232.233807,326.51194 241.796875,329.55693 L241.796875,441.164062 L214.355469,441.164062 L214.355469,317.922009 Z M143.652344,441.164062 L112.207031,441.164062 L99.7070312,408.644531 L42.4804688,408.644531 L30.6640625,441.164062 L0,441.164062 L55.7617188,298 L86.328125,298 L143.652344,441.164062 Z M90.4296875,384.523438 L70.703125,331.398438 L51.3671875,384.523438 L90.4296875,384.523438 Z M269.921875,441.164062 L269.921875,337.453125 L297.363281,337.453125 L297.363281,441.164062 L269.921875,441.164062 Z M345.996094,369.09375 L321.09375,364.601562 C323.893243,354.575471 328.710903,347.15367 335.546875,342.335938 C342.382847,337.518205 352.538995,335.109375 366.015625,335.109375 C378.25527,335.109375 387.369762,336.557928 393.359375,339.455078 C399.348988,342.352228 403.564441,346.030577 406.005859,350.490234 C408.447278,354.949892 409.667969,363.136659 409.667969,375.050781 L409.375,407.082031 C409.375,416.19666 409.814449,422.918598 410.693359,427.248047 C411.57227,431.577496 413.216134,436.216121 415.625,441.164062 L388.476562,441.164062 C387.760413,439.341137 386.881516,436.639341 385.839844,433.058594 C385.384112,431.430981 385.058595,430.356773 384.863281,429.835938 C380.175758,434.393252 375.162787,437.811187 369.824219,440.089844 C364.48565,442.368501 358.789093,443.507812 352.734375,443.507812 C342.057238,443.507812 333.642609,440.610706 327.490234,434.816406 C321.33786,429.022106 318.261719,421.697961 318.261719,412.84375 C318.261719,406.984346 319.661444,401.759789 322.460938,397.169922 C325.260431,392.580055 329.182917,389.064465 334.228516,386.623047 C339.274114,384.181628 346.549432,382.049488 356.054688,380.226562 C368.880272,377.817696 377.766902,375.571625 382.714844,373.488281 L382.714844,370.753906 C382.714844,365.480442 381.412773,361.720714 378.808594,359.474609 C376.204414,357.228504 371.289099,356.105469 364.0625,356.105469 C359.179663,356.105469 355.371107,357.065746 352.636719,358.986328 C349.90233,360.906911 347.688811,364.276018 345.996094,369.09375 Z M382.714844,391.359375 C379.199201,392.531256 373.632851,393.930981 366.015625,395.558594 C358.398399,397.186206 353.41798,398.781242 351.074219,400.34375 C347.493472,402.882825 345.703125,406.105449 345.703125,410.011719 C345.703125,413.852884 347.135402,417.173163 350,419.972656 C352.864598,422.772149 356.510395,424.171875 360.9375,424.171875 C365.885441,424.171875 370.605446,422.544287 375.097656,419.289062 C378.417985,416.815092 380.598953,413.787778 381.640625,410.207031 C382.356774,407.86327 382.714844,403.403679 382.714844,396.828125 L382.714844,391.359375 Z M531.054688,441.164062 L503.613281,441.164062 L503.613281,388.234375 C503.613281,377.036402 503.02735,369.793636 501.855469,366.505859 C500.683588,363.218083 498.77931,360.66277 496.142578,358.839844 C493.505846,357.016918 490.33205,356.105469 486.621094,356.105469 C481.868466,356.105469 477.604186,357.407539 473.828125,360.011719 C470.052064,362.615898 467.4642,366.066385 466.064453,370.363281 C464.664707,374.660178 463.964844,382.602807 463.964844,394.191406 L463.964844,441.164062 L436.523438,441.164062 L436.523438,337.453125 L462.011719,337.453125 L462.011719,352.6875 C471.061243,340.968691 482.454358,335.109375 496.191406,335.109375 C502.246124,335.109375 507.779923,336.199859 512.792969,338.380859 C517.806015,340.56186 521.598294,343.345035 524.169922,346.730469 C526.741549,350.115902 528.531896,353.95701 529.541016,358.253906 C530.550135,362.550803 531.054688,368.703085 531.054688,376.710938 L531.054688,441.164062 Z M649.316406,368.117188 L622.265625,373 C621.354162,367.596327 619.287125,363.527357 616.064453,360.792969 C612.841781,358.05858 608.65888,356.691406 603.515625,356.691406 C596.679653,356.691406 591.227234,359.051409 587.158203,363.771484 C583.089172,368.49156 581.054688,376.385361 581.054688,387.453125 C581.054688,399.757874 583.121724,408.449193 587.255859,413.527344 C591.389995,418.605494 596.940069,421.144531 603.90625,421.144531 C609.114609,421.144531 613.37889,419.663426 616.699219,416.701172 C620.019548,413.738917 622.363274,408.644567 623.730469,401.417969 L650.683594,406.007812 C647.884101,418.377666 642.513061,427.720021 634.570312,434.035156 C626.627564,440.350292 615.98314,443.507812 602.636719,443.507812 C587.467372,443.507812 575.374394,438.722704 566.357422,429.152344 C557.34045,419.581983 552.832031,406.333418 552.832031,389.40625 C552.832031,372.283769 557.356726,358.953824 566.40625,349.416016 C575.455774,339.878208 587.695235,335.109375 603.125,335.109375 C615.755271,335.109375 625.797489,337.827447 633.251953,343.263672 C640.706417,348.699897 646.061182,356.984319 649.316406,368.117188 Z M730.175781,408.15625 L757.519531,412.746094 C754.003889,422.772186 748.453814,430.405573 740.869141,435.646484 C733.284467,440.887396 723.79563,443.507812 712.402344,443.507812 C694.368399,443.507812 681.022179,437.615944 672.363281,425.832031 C665.52731,416.39188 662.109375,404.477937 662.109375,390.089844 C662.109375,372.902258 666.601518,359.442106 675.585938,349.708984 C684.570357,339.975863 695.930921,335.109375 709.667969,335.109375 C725.097733,335.109375 737.272091,340.203725 746.191406,350.392578 C755.110722,360.581431 759.375002,376.189999 758.984375,397.21875 L690.234375,397.21875 C690.429688,405.356812 692.643208,411.688128 696.875,416.212891 C701.106792,420.737653 706.380177,423 712.695312,423 C716.992209,423 720.605454,421.828137 723.535156,419.484375 C726.464858,417.140613 728.678378,413.364609 730.175781,408.15625 Z M731.738281,380.421875 C731.542968,372.479127 729.492207,366.440776 725.585938,362.306641 C721.679668,358.172505 716.927111,356.105469 711.328125,356.105469 C705.338512,356.105469 700.390645,358.286437 696.484375,362.648438 C692.578105,367.010438 690.657552,372.934858 690.722656,380.421875 L731.738281,380.421875 Z" id="Combined-Shape" fill="#FFFFFF"></path>
        <path d="M19,629.164062 L19,486 L47.515625,486 L81.4023438,587.367188 C84.5273594,596.807339 86.8059824,603.87107 88.2382812,608.558594 C89.8658936,603.350234 92.4049307,595.700571 95.8554688,585.609375 L130.132812,486 L155.621094,486 L155.621094,629.164062 L137.359375,629.164062 L137.359375,509.339844 L95.7578125,629.164062 L78.6679688,629.164062 L37.2617188,507.289062 L37.2617188,629.164062 L19,629.164062 Z M254.9375,595.765625 L273.101562,598.011719 C270.236965,608.623751 264.931028,616.859346 257.183594,622.71875 C249.436159,628.578154 239.540425,631.507812 227.496094,631.507812 C212.326747,631.507812 200.298873,626.836635 191.412109,617.494141 C182.525346,608.151646 178.082031,595.049563 178.082031,578.1875 C178.082031,560.739496 182.574174,547.197965 191.558594,537.5625 C200.543014,527.927035 212.196543,523.109375 226.519531,523.109375 C240.386788,523.109375 251.7148,527.82938 260.503906,537.269531 C269.293013,546.709683 273.6875,559.9908 273.6875,577.113281 C273.6875,578.154953 273.654948,579.717437 273.589844,581.800781 L196.246094,581.800781 C196.897139,593.194067 200.119763,601.917938 205.914062,607.972656 C211.708362,614.027374 218.934853,617.054688 227.59375,617.054688 C234.039095,617.054688 239.540342,615.361996 244.097656,611.976562 C248.654971,608.591129 252.268216,603.187537 254.9375,595.765625 Z M197.222656,567.347656 L255.132812,567.347656 C254.351559,558.623654 252.138039,552.080751 248.492188,547.71875 C242.893201,540.947883 235.634159,537.5625 226.714844,537.5625 C218.641887,537.5625 211.854845,540.264296 206.353516,545.667969 C200.852186,551.071642 197.808597,558.298132 197.222656,567.347656 Z M295.171875,629.164062 L295.171875,525.453125 L310.894531,525.453125 L310.894531,540.003906 C314.149756,534.925756 318.47914,530.84051 323.882812,527.748047 C329.286485,524.655583 335.438768,523.109375 342.339844,523.109375 C350.022174,523.109375 356.320939,524.704411 361.236328,527.894531 C366.151717,531.084651 369.618479,535.544242 371.636719,541.273438 C379.839885,529.164002 390.516861,523.109375 403.667969,523.109375 C413.954479,523.109375 421.864556,525.957654 427.398438,531.654297 C432.932319,537.35094 435.699219,546.123639 435.699219,557.972656 L435.699219,629.164062 L418.21875,629.164062 L418.21875,563.832031 C418.21875,556.800746 417.649094,551.738948 416.509766,548.646484 C415.370437,545.554021 413.3034,543.063812 410.308594,541.175781 C407.313787,539.287751 403.798197,538.34375 399.761719,538.34375 C392.470016,538.34375 386.415389,540.768856 381.597656,545.619141 C376.779924,550.469425 374.371094,558.23302 374.371094,568.910156 L374.371094,629.164062 L356.792969,629.164062 L356.792969,561.78125 C356.792969,553.968711 355.360691,548.109395 352.496094,544.203125 C349.631496,540.296855 344.944043,538.34375 338.433594,538.34375 C333.485652,538.34375 328.91213,539.64582 324.712891,542.25 C320.513651,544.85418 317.470062,548.662735 315.582031,553.675781 C313.694001,558.688827 312.75,565.915317 312.75,575.355469 L312.75,629.164062 L295.171875,629.164062 Z M477.984375,629.164062 L461.675781,629.164062 L461.675781,486 L479.253906,486 L479.253906,537.074219 C486.675818,527.764276 496.14838,523.109375 507.671875,523.109375 C514.052115,523.109375 520.090466,524.395169 525.787109,526.966797 C531.483752,529.538424 536.171206,533.151669 539.849609,537.806641 C543.528013,542.461612 546.408844,548.07679 548.492188,554.652344 C550.575531,561.227897 551.617188,568.259077 551.617188,575.746094 C551.617188,593.51962 547.2227,607.256462 538.433594,616.957031 C529.644487,626.657601 519.097718,631.507812 506.792969,631.507812 C494.553324,631.507812 484.950556,626.397187 477.984375,616.175781 L477.984375,629.164062 Z M477.789062,576.527344 C477.789062,588.962302 479.481754,597.946587 482.867188,603.480469 C488.401069,612.529993 495.887974,617.054688 505.328125,617.054688 C513.010455,617.054688 519.651014,613.718132 525.25,607.044922 C530.848986,600.371711 533.648438,590.427149 533.648438,577.210938 C533.648438,563.669203 530.962917,553.675813 525.591797,547.230469 C520.220676,540.785124 513.726601,537.5625 506.109375,537.5625 C498.427045,537.5625 491.786486,540.899055 486.1875,547.572266 C480.588514,554.245476 477.789062,563.897072 477.789062,576.527344 Z M644,595.765625 L662.164062,598.011719 C659.299465,608.623751 653.993528,616.859346 646.246094,622.71875 C638.498659,628.578154 628.602925,631.507812 616.558594,631.507812 C601.389247,631.507812 589.361373,626.836635 580.474609,617.494141 C571.587846,608.151646 567.144531,595.049563 567.144531,578.1875 C567.144531,560.739496 571.636674,547.197965 580.621094,537.5625 C589.605514,527.927035 601.259043,523.109375 615.582031,523.109375 C629.449288,523.109375 640.7773,527.82938 649.566406,537.269531 C658.355513,546.709683 662.75,559.9908 662.75,577.113281 C662.75,578.154953 662.717448,579.717437 662.652344,581.800781 L585.308594,581.800781 C585.959639,593.194067 589.182263,601.917938 594.976562,607.972656 C600.770862,614.027374 607.997353,617.054688 616.65625,617.054688 C623.101595,617.054688 628.602842,615.361996 633.160156,611.976562 C637.717471,608.591129 641.330716,603.187537 644,595.765625 Z M586.285156,567.347656 L644.195312,567.347656 C643.414059,558.623654 641.200539,552.080751 637.554688,547.71875 C631.955701,540.947883 624.696659,537.5625 615.777344,537.5625 C607.704387,537.5625 600.917345,540.264296 595.416016,545.667969 C589.914686,551.071642 586.871097,558.298132 586.285156,567.347656 Z M684.039062,629.164062 L684.039062,525.453125 L699.859375,525.453125 L699.859375,541.175781 C703.895854,533.818974 707.62303,528.968762 711.041016,526.625 C714.459001,524.281238 718.218729,523.109375 722.320312,523.109375 C728.244821,523.109375 734.266896,524.997377 740.386719,528.773438 L734.332031,545.082031 C730.035135,542.542956 725.738303,541.273438 721.441406,541.273438 C717.600241,541.273438 714.149755,542.429025 711.089844,544.740234 C708.029933,547.051444 705.848965,550.257792 704.546875,554.359375 C702.59374,560.609406 701.617188,567.445275 701.617188,574.867188 L701.617188,629.164062 L684.039062,629.164062 Z" id="Member" fill="#FFFFFF" fill-rule="nonzero"></path>
        <g id="Group-2" transform="translate(119.000000, 0.000000)">
            <path d="M240.254402,38.5374223 C219.091672,25.512674 194.173663,18 167.500976,18 C137.615777,18 109.933384,27.4313377 87.2678266,43.4799855 L77,28.6932003 C102.577959,10.6188357 133.799386,0 167.500976,0 C197.677591,0 225.865731,8.51367741 249.794475,23.2701127 L240.254391,38.5374379 Z M224.453372,63.8243553 C208.007017,53.7847855 188.679551,48 168.000976,48 C144.332751,48 122.434556,55.578398 104.600569,68.4410164 L96.6136988,56.9390563 C116.713589,42.5014736 141.36447,34 168.000976,34 C191.404822,34 213.275756,40.5631778 231.873658,51.9494142 L224.453363,63.8243695 Z M208.552245,89.2714767 C196.716799,82.1171719 182.839696,78 168.000976,78 C150.693316,78 134.693891,83.6012228 121.716522,93.0898483 L115.790231,84.5553448 C130.365192,74.1331841 148.216843,68 167.500976,68 C184.440544,68 200.274778,72.7324981 213.753659,80.9474757 L208.552245,89.2714767 Z M257.287945,285.808383 C231.843936,303.577461 200.889613,314 167.500976,314 C134.216575,314 103.351314,303.642436 77.9524705,285.974589 L88.3290444,271.26404 C110.795034,286.859762 138.080597,296 167.500976,296 C196.991785,296 224.337544,286.815947 246.83417,271.151924 L257.287945,285.808383 Z M237.177179,257.612575 C217.4926,271.105688 193.668695,279 168.000976,279 C142.07945,279 118.038383,270.948796 98.2420564,257.210669 L106.312806,245.769016 C123.827954,257.895551 145.084798,265 168.000976,265 C190.637066,265 211.654137,258.068154 229.04525,246.211402 L237.177179,257.612575 Z M217.794446,230.437487 C203.486271,240.25522 186.164506,246 167.500976,246 C148.813978,246 131.472121,240.240764 117.153546,230.400432 L123.607666,221.250625 C136.234226,229.924046 151.524824,235 168.000976,235 C184.140736,235 199.14286,230.1292 211.617582,221.777366 L217.794446,230.437487 Z" id="Combined-Shape" fill="#00ADE7"></path>
            <path d="M0,207.164062 L0,65.171875 L28.90625,65.171875 L28.90625,183.042969 L100.78125,183.042969 L100.78125,207.164062 L0,207.164062 Z M114.84375,153.84375 C114.84375,144.729121 117.089821,135.907595 121.582031,127.378906 C126.074241,118.850218 132.43811,112.339866 140.673828,107.847656 C148.909546,103.355446 158.105418,101.109375 168.261719,101.109375 C183.951901,101.109375 196.809846,106.203725 206.835938,116.392578 C216.862029,126.581431 221.875,139.455651 221.875,155.015625 C221.875,170.705808 216.813202,183.710235 206.689453,194.029297 C196.565705,204.348359 183.821691,209.507812 168.457031,209.507812 C158.951775,209.507812 149.886111,207.359396 141.259766,203.0625 C132.63342,198.765604 126.074241,192.466838 121.582031,184.166016 C117.089821,175.865193 114.84375,165.757872 114.84375,153.84375 Z M142.96875,155.308594 C142.96875,165.595104 145.410132,173.472629 150.292969,178.941406 C155.175806,184.410184 161.197881,187.144531 168.359375,187.144531 C175.520869,187.144531 181.526668,184.410184 186.376953,178.941406 C191.227238,173.472629 193.652344,165.53 193.652344,155.113281 C193.652344,144.95698 191.227238,137.144559 186.376953,131.675781 C181.526668,126.207004 175.520869,123.472656 168.359375,123.472656 C161.197881,123.472656 155.175806,126.207004 150.292969,131.675781 C145.410132,137.144559 142.96875,145.022084 142.96875,155.308594 Z M243.652344,207.164062 L243.652344,64 L304.492188,64 C319.791743,64 330.908168,65.2857944 337.841797,67.8574219 C344.775425,70.4290493 350.3255,75.0025713 354.492188,81.578125 C358.658875,88.1536787 360.742188,95.6731348 360.742188,104.136719 C360.742188,114.87896 357.584667,123.749314 351.269531,130.748047 C344.954396,137.74678 335.514386,142.157543 322.949219,143.980469 C329.19925,147.62632 334.358704,151.630187 338.427734,155.992188 C342.496765,160.354188 347.981736,168.101507 354.882812,179.234375 L372.363281,207.164062 L337.792969,207.164062 L316.894531,176.011719 C309.472619,164.878851 304.394545,157.863947 301.660156,154.966797 C298.925768,152.069647 296.028661,150.08399 292.96875,149.009766 C289.908839,147.935542 285.058627,147.398438 278.417969,147.398438 L272.558594,147.398438 L272.558594,207.164062 L243.652344,207.164062 Z M272.558594,124.546875 L293.945312,124.546875 C307.812569,124.546875 316.471337,123.960943 319.921875,122.789062 C323.372413,121.617182 326.074209,119.598973 328.027344,116.734375 C329.980479,113.869777 330.957031,110.289084 330.957031,105.992188 C330.957031,101.174455 329.671237,97.28452 327.099609,94.3222656 C324.527982,91.3600112 320.898461,89.4882852 316.210938,88.7070312 C313.867176,88.3815088 306.835996,88.21875 295.117188,88.21875 L272.558594,88.21875 L272.558594,124.546875 Z M408.300781,135.09375 L383.398438,130.601562 C386.197931,120.575471 391.015591,113.15367 397.851562,108.335938 C404.687534,103.518205 414.843683,101.109375 428.320312,101.109375 C440.559957,101.109375 449.674449,102.557928 455.664062,105.455078 C461.653676,108.352228 465.869128,112.030577 468.310547,116.490234 C470.751965,120.949892 471.972656,129.136659 471.972656,141.050781 L471.679688,173.082031 C471.679688,182.19666 472.119136,188.918598 472.998047,193.248047 C473.876958,197.577496 475.520821,202.216121 477.929688,207.164062 L450.78125,207.164062 C450.065101,205.341137 449.186203,202.639341 448.144531,199.058594 C447.6888,197.430981 447.363282,196.356773 447.167969,195.835938 C442.480445,200.393252 437.467475,203.811187 432.128906,206.089844 C426.790338,208.368501 421.09378,209.507812 415.039062,209.507812 C404.361926,209.507812 395.947296,206.610706 389.794922,200.816406 C383.642547,195.022106 380.566406,187.697961 380.566406,178.84375 C380.566406,172.984346 381.966132,167.759789 384.765625,163.169922 C387.565118,158.580055 391.487605,155.064465 396.533203,152.623047 C401.578801,150.181628 408.854119,148.049488 418.359375,146.226562 C431.18496,143.817696 440.07159,141.571625 445.019531,139.488281 L445.019531,136.753906 C445.019531,131.480442 443.717461,127.720714 441.113281,125.474609 C438.509102,123.228504 433.593786,122.105469 426.367188,122.105469 C421.484351,122.105469 417.675795,123.065746 414.941406,124.986328 C412.207018,126.906911 409.993498,130.276018 408.300781,135.09375 Z M445.019531,157.359375 C441.503889,158.531256 435.937538,159.930981 428.320312,161.558594 C420.703087,163.186206 415.722668,164.781242 413.378906,166.34375 C409.798159,168.882825 408.007812,172.105449 408.007812,176.011719 C408.007812,179.852884 409.44009,183.173163 412.304688,185.972656 C415.169285,188.772149 418.815082,190.171875 423.242188,190.171875 C428.190129,190.171875 432.910134,188.544287 437.402344,185.289062 C440.722673,182.815092 442.903641,179.787778 443.945312,176.207031 C444.661462,173.86327 445.019531,169.403679 445.019531,162.828125 L445.019531,157.359375 Z" id="LoRa" fill="#FFFFFF" fill-rule="nonzero"></path>
            <text id="TM" font-family="ArialMT, Arial" font-size="25" font-weight="normal" fill="#FFFFFF">
                <tspan x="477" y="116">TM</tspan>
            </text>
        </g>
    </g>
</svg>