<?xml version="1.0" encoding="UTF-8"?>
<svg width="338px" height="235px" viewBox="0 0 338 235" version="1.1" xmlns="http://www.w3.org/2000/svg" xmlns:xlink="http://www.w3.org/1999/xlink">
    <!-- Generator: Sketch 55.2 (78181) - https://sketchapp.com -->
    <title>network_landscape</title>
    <desc>Created with Sketch.</desc>
    <g id="network_landscape" stroke="none" stroke-width="1" fill="none" fill-rule="evenodd">
        <circle id="Oval" stroke="#292A2B" fill="#FFFFFF" cx="254.5" cy="46.5" r="18.5"></circle>
        <path d="M210.908823,54.3483186 C212.070544,54.1197865 213.271283,54 214.5,54 C224.717268,54 233,62.2827321 233,72.5 C233,82.7172679 224.717268,91 214.5,91 C204.282732,91 196,82.7172679 196,72.5 C196,71.8762012 196.030874,71.2596134 196.091177,70.6516814 C194.929456,70.8802135 193.728717,71 192.5,71 C182.282732,71 174,62.7172679 174,52.5 C174,42.2827321 182.282732,34 192.5,34 C202.717268,34 211,42.2827321 211,52.5 C211,53.1237988 210.969126,53.7403866 210.908823,54.3483186 Z" id="Combined-Shape" stroke="#292A2B" fill="#FFFFFF"></path>
        <path d="M193.893164,100.182233 C194.744852,100.062119 195.615172,100 196.5,100 C206.717268,100 215,108.282732 215,118.5 C215,121.585671 214.244554,124.494897 212.908525,127.052819 C222.467763,127.772474 230,135.756613 230,145.5 C230,155.717268 221.717268,164 211.5,164 C207.600593,164 203.982963,162.793573 201,160.73361 C198.017037,162.793573 194.399407,164 190.5,164 C182.81984,164 176.23275,159.320014 173.434958,152.656271 C171.293276,153.52283 168.952363,154 166.5,154 C156.282732,154 148,145.717268 148,135.5 C148,126.936773 153.81807,119.732429 161.716908,117.624272 C159.383412,114.52818 158,110.675647 158,106.5 C158,96.2827321 166.282732,88 176.5,88 C184.49844,88 191.311336,93.0759187 193.893164,100.182233 Z" id="Combined-Shape" stroke="#292A2B" fill="#FFFFFF"></path>
        <path d="M65.8623151,87.9892157 C55.9403159,87.6531256 48,79.5038429 48,69.5 C48,59.2827321 56.2827321,51 66.5,51 C73.853801,51 80.2054561,55.2906966 83.1880559,61.5051803 C84.5715392,61.1748858 86.0153462,61 87.5,61 C97.7172679,61 106,69.2827321 106,79.5 C106,86.601522 101.998646,92.7684778 96.1275128,95.8692938 C96.6941562,97.6447327 97,99.5366495 97,101.5 C97,103.196316 96.7716939,104.839308 96.344133,106.399925 C104.716508,108.169289 111,115.60085 111,124.5 C111,134.717268 102.717268,143 92.5,143 C86.9441124,143 81.9602485,140.550875 78.5691279,136.673344 C75.3814442,142.245253 69.3792062,146 62.5,146 C52.2827321,146 44,137.717268 44,127.5 C44,117.586794 51.7970858,109.494695 61.5931215,109.021839 C60.5691574,106.723727 60,104.17833 60,101.5 C60,96.1692821 62.2546309,91.3651615 65.8623151,87.9892157 Z" id="Combined-Shape" stroke="#292A2B" fill="#FFFFFF"></path>
        <circle id="Oval" stroke="#292A2B" fill="#FFFFFF" cx="81.5" cy="192.5" r="18.5"></circle>
        <circle id="Oval" stroke="#292A2B" fill="#FFFFFF" cx="129.5" cy="169.5" r="18.5"></circle>
        <circle id="Oval" stroke="#292A2B" fill="#FFFFFF" cx="139.5" cy="82.5" r="18.5"></circle>
        <circle id="Oval" stroke="#87BC55" fill="#FFFFFF" cx="267.5" cy="145.5" r="18.5"></circle>
        <circle id="Oval" stroke="#292A2B" fill="#FFFFFF" cx="25.5" cy="35.5" r="18.5"></circle>
        <circle id="Oval" stroke="#292A2B" fill="#FFFFFF" cx="304.5" cy="27.5" r="18.5"></circle>
        <circle id="Oval" stroke="#292A2B" fill="#FFFFFF" cx="139.5" cy="35.5" r="18.5"></circle>
        <circle id="Oval" stroke="#292A2B" fill="#FFFFFF" cx="307.5" cy="195.5" r="18.5"></circle>
        <circle id="Oval" stroke="#292A2B" fill="#FFFFFF" cx="50.5" cy="83.5" r="18.5"></circle>
        <circle id="Oval" stroke="#292A2B" fill="#FFFFFF" cx="304.5" cy="87.5" r="18.5"></circle>
        <circle id="Oval" stroke="#292A2B" fill="#FFFFFF" cx="177.5" cy="206.5" r="18.5"></circle>
        <circle id="Oval" stroke="#292A2B" fill="#FFFFFF" cx="87.5" cy="27.5" r="18.5"></circle>
        <circle id="Oval" stroke="#292A2B" fill="#FFFFFF" cx="25.5" cy="172.5" r="18.5"></circle>
        <path d="M272.441406,101.97022 C272.80623,103.419746 273,104.937244 273,106.5 C273,116.717268 264.717268,125 254.5,125 C244.282732,125 236,116.717268 236,106.5 C236,96.2827321 244.282732,88 254.5,88 C254.855293,88 255.208247,88.0100156 255.558594,88.0297799 C255.19377,86.5802542 255,85.0627558 255,83.5 C255,73.2827321 263.282732,65 273.5,65 C283.717268,65 292,73.2827321 292,83.5 C292,93.7172679 283.717268,102 273.5,102 C273.144707,102 272.791753,101.989984 272.441406,101.97022 Z" id="Combined-Shape" stroke="#292A2B" fill="#FFFFFF"></path>
        <circle id="Oval" stroke="#292A2B" fill="#FFFFFF" cx="242.5" cy="192.5" r="18.5"></circle>
        <path d="M185.477051,131.699707 L188.34082,121.724121 C188.370117,121.572753 188.465331,121.49707 188.626465,121.49707 L189.380859,121.49707 C189.541993,121.49707 189.637207,121.572753 189.666504,121.724121 L192.530273,131.699707 C192.535156,131.719238 192.537598,131.738769 192.537598,131.758301 C192.537598,131.802246 192.518067,131.848633 192.479004,131.897461 C192.430176,131.965821 192.347169,132 192.22998,132 L191.856445,132 C191.695312,132 191.600098,131.924317 191.570801,131.772949 L190.831055,129.23877 C190.782226,129.097167 190.687012,129.026367 190.54541,129.026367 L187.461914,129.026367 C187.320312,129.026367 187.225098,129.097167 187.17627,129.23877 L186.436523,131.772949 C186.407226,131.924317 186.312013,132 186.150879,132 L185.777344,132 C185.655273,132 185.569824,131.965821 185.520996,131.897461 C185.486816,131.848633 185.469727,131.802246 185.469727,131.758301 C185.469727,131.738769 185.472168,131.719238 185.477051,131.699707 Z M187.564453,127.935059 C187.55957,127.959473 187.557129,127.981445 187.557129,128.000977 C187.557129,128.069336 187.598632,128.103516 187.681641,128.103516 L190.325684,128.103516 C190.413575,128.103516 190.45752,128.069336 190.45752,128.000977 C190.45752,127.981445 190.452637,127.959473 190.442871,127.935059 L189.080566,122.837402 C189.061035,122.778808 189.041504,122.74707 189.021973,122.742188 L188.985352,122.742188 C188.956055,122.742188 188.936523,122.773925 188.926758,122.837402 L187.564453,127.935059 Z" id="A" fill="#292A2B" fill-rule="nonzero"></path>
        <path d="M125.861816,174.699707 L125.861816,164.797363 C125.861816,164.719238 125.892334,164.649659 125.953369,164.588623 C126.014405,164.527588 126.083984,164.49707 126.162109,164.49707 L127.194824,164.49707 C127.365724,164.49707 127.470703,164.582519 127.509766,164.753418 L129.926758,173.352051 C129.946289,173.400879 129.971924,173.425293 130.003662,173.425293 C130.035401,173.425293 130.061035,173.400879 130.080566,173.352051 L132.490234,164.753418 C132.529297,164.582519 132.634276,164.49707 132.805176,164.49707 L133.845215,164.49707 C133.92334,164.49707 133.99292,164.527588 134.053955,164.588623 C134.114991,164.649659 134.145508,164.719238 134.145508,164.797363 L134.145508,174.699707 C134.145508,174.777832 134.114991,174.847412 134.053955,174.908447 C133.99292,174.969483 133.92334,175 133.845215,175 L133.515625,175 C133.4375,175 133.36792,174.969483 133.306885,174.908447 C133.245849,174.847412 133.215332,174.777832 133.215332,174.699707 L133.215332,166.057129 C133.215332,166.008301 133.197022,165.983887 133.1604,165.983887 C133.123779,165.983887 133.100586,165.998535 133.09082,166.027832 L130.556641,174.743652 C130.498047,174.914552 130.393067,175 130.241699,175 L129.765625,175 C129.614257,175 129.509278,174.914552 129.450684,174.743652 L126.90918,166.027832 C126.899414,165.998535 126.877442,165.983887 126.843262,165.983887 C126.809082,165.983887 126.791992,166.008301 126.791992,166.057129 L126.791992,174.699707 C126.791992,174.777832 126.762696,174.847412 126.704102,174.908447 C126.645508,174.969483 126.574707,175 126.491699,175 L126.162109,175 C126.083984,175 126.014405,174.969483 125.953369,174.908447 C125.892334,174.847412 125.861816,174.777832 125.861816,174.699707 Z" id="M" fill="#292A2B" fill-rule="nonzero"></path>
        <path d="M78.050293,194.957031 C78.0307616,194.561521 78.0209961,194.156252 78.0209961,193.741211 C78.0209961,193.32617 78.0307616,192.923342 78.050293,192.532715 C78.0698243,192.142088 78.1015623,191.797853 78.1455078,191.5 C78.2041019,191.089842 78.3188468,190.696779 78.4897461,190.320801 C78.6606454,189.944822 78.8852525,189.612794 79.1635742,189.324707 C79.4418959,189.03662 79.7739239,188.80713 80.159668,188.63623 C80.5454121,188.465331 80.9873022,188.379883 81.4853516,188.379883 C81.9736353,188.379883 82.413084,188.465331 82.8037109,188.63623 C83.1943379,188.80713 83.5300279,189.03662 83.810791,189.324707 C84.0915541,189.612794 84.317382,189.944822 84.4882812,190.320801 C84.6591805,190.696779 84.7739255,191.089842 84.8325195,191.5 C84.8715822,191.797853 84.9008788,192.142088 84.9204102,192.532715 C84.9399415,192.923342 84.949707,193.32617 84.949707,193.741211 C84.949707,194.156252 84.9399415,194.561521 84.9204102,194.957031 C84.9008788,195.352541 84.8715822,195.699217 84.8325195,195.99707 C84.7006829,196.968755 84.3381377,197.731687 83.744873,198.285889 C83.1516084,198.840091 82.3984421,199.117188 81.4853516,199.117188 C80.5771439,199.117188 79.8251983,198.840091 79.2294922,198.285889 C78.6337861,197.731687 78.2724616,196.968755 78.1455078,195.99707 C78.1064451,195.699217 78.0747072,195.352541 78.050293,194.957031 Z M79.0390625,192.547363 C79.0195312,192.93799 79.0097656,193.338377 79.0097656,193.748535 C79.0097656,194.158693 79.0207518,194.55908 79.0427246,194.949707 C79.0646974,195.340334 79.1000974,195.689452 79.1489258,195.99707 C79.1782228,196.216798 79.240478,196.452391 79.3356934,196.703857 C79.4309087,196.955324 79.5712881,197.188475 79.7568359,197.40332 C79.9423837,197.618165 80.174315,197.797607 80.4526367,197.94165 C80.7309584,198.085694 81.0751933,198.157715 81.4853516,198.157715 C81.8857442,198.157715 82.2287583,198.085694 82.5144043,197.94165 C82.8000503,197.797607 83.0356436,197.618165 83.2211914,197.40332 C83.4067392,197.188475 83.5471187,196.955324 83.642334,196.703857 C83.7375493,196.452391 83.7998045,196.216798 83.8291016,195.99707 C83.8681643,195.689452 83.8999022,195.340334 83.9243164,194.949707 C83.9487306,194.55908 83.9609375,194.158693 83.9609375,193.748535 C83.9609375,193.338377 83.9487306,192.93799 83.9243164,192.547363 C83.8999022,192.156736 83.8681643,191.807619 83.8291016,191.5 C83.7900389,191.231444 83.7119146,190.966554 83.5947266,190.705322 C83.4775385,190.44409 83.3225107,190.210939 83.1296387,190.005859 C82.9367666,189.80078 82.7048353,189.638428 82.4338379,189.518799 C82.1628404,189.399169 81.8466815,189.339355 81.4853516,189.339355 C81.1240216,189.339355 80.8090834,189.399169 80.5405273,189.518799 C80.2719713,189.638428 80.04004,189.80078 79.8447266,190.005859 C79.6494131,190.210939 79.4943853,190.44409 79.3796387,190.705322 C79.264892,190.966554 79.1879885,191.231444 79.1489258,191.5 C79.1000974,191.807619 79.0634767,192.156736 79.0390625,192.547363 Z" id="O" fill="#292A2B" fill-rule="nonzero"></path>
        <path d="M23.3376465,177.699707 L23.3376465,167.797363 C23.3376465,167.719238 23.3681638,167.649659 23.4291992,167.588623 C23.4902347,167.527588 23.5598141,167.49707 23.6379395,167.49707 L26.1867676,167.49707 C26.6164572,167.49707 27.024168,167.580077 27.4099121,167.746094 C27.7956562,167.91211 28.1313462,168.137938 28.4169922,168.423584 C28.7026381,168.70923 28.9272453,169.043699 29.0908203,169.427002 C29.2543953,169.810305 29.3361816,170.216795 29.3361816,170.646484 C29.3361816,171.08594 29.2543953,171.496092 29.0908203,171.876953 C28.9272453,172.257814 28.7026381,172.591063 28.4169922,172.876709 C28.1313462,173.162355 27.7956562,173.388183 27.4099121,173.554199 C27.024168,173.720216 26.6164572,173.803223 26.1867676,173.803223 L24.4509277,173.803223 C24.353271,173.803223 24.302002,173.85205 24.2971191,173.949707 L24.2971191,177.699707 C24.2971191,177.777832 24.2678226,177.847412 24.2092285,177.908447 C24.1506345,177.969483 24.0798344,178 23.9968262,178 L23.6379395,178 C23.5598141,178 23.4902347,177.969483 23.4291992,177.908447 C23.3681638,177.847412 23.3376465,177.777832 23.3376465,177.699707 Z M24.2971191,172.689941 C24.2971191,172.787598 24.3483882,172.836426 24.4509277,172.836426 L26.1867676,172.836426 C26.4846206,172.836426 26.7666002,172.779053 27.0327148,172.664307 C27.2988295,172.54956 27.5319814,172.392091 27.7321777,172.191895 C27.932374,171.991698 28.0898432,171.759767 28.2045898,171.496094 C28.3193365,171.232421 28.376709,170.94922 28.376709,170.646484 C28.376709,170.348631 28.3193365,170.066652 28.2045898,169.800537 C28.0898432,169.534422 27.932374,169.302491 27.7321777,169.104736 C27.5319814,168.906981 27.3000501,168.749512 27.036377,168.632324 C26.7727038,168.515136 26.4895035,168.456543 26.1867676,168.456543 L24.4509277,168.456543 C24.353271,168.456543 24.302002,168.507812 24.2971191,168.610352 L24.2971191,172.689941 Z" id="P" fill="#292A2B" fill-rule="nonzero"></path>
        <path d="M47.050293,85.9570312 C47.0307616,85.5615215 47.0209961,85.1562521 47.0209961,84.7412109 C47.0209961,84.3261698 47.0307616,83.9233418 47.050293,83.5327148 C47.0698243,83.1420879 47.1015623,82.7978531 47.1455078,82.5 C47.2041019,82.0898417 47.3188468,81.6967792 47.4897461,81.3208008 C47.6606454,80.9448223 47.8852525,80.6127944 48.1635742,80.324707 C48.4418959,80.0366197 48.7739239,79.8071298 49.159668,79.6362305 C49.5454121,79.4653312 49.9873022,79.3798828 50.4853516,79.3798828 C50.9736353,79.3798828 51.413084,79.4653312 51.8037109,79.6362305 C52.1943379,79.8071298 52.5300279,80.0366197 52.810791,80.324707 C53.0915541,80.6127944 53.317382,80.9448223 53.4882812,81.3208008 C53.6591805,81.6967792 53.7739255,82.0898417 53.8325195,82.5 C53.8715822,82.7978531 53.9008788,83.1420879 53.9204102,83.5327148 C53.9399415,83.9233418 53.949707,84.3261698 53.949707,84.7412109 C53.949707,85.1562521 53.9399415,85.5615215 53.9204102,85.9570312 C53.9008788,86.352541 53.8715822,86.6992173 53.8325195,86.9970703 C53.7739255,87.4755883 53.6481943,87.9089336 53.4553223,88.2971191 C53.2624502,88.6853047 53.0219741,89.0136705 52.7338867,89.2822266 C52.7045897,89.3115236 52.6850586,89.3408202 52.675293,89.3701172 C52.6655273,89.3994142 52.6704101,89.4384763 52.6899414,89.4873047 L53.4589844,90.9301758 C53.5078127,91.042481 53.5053714,91.1401363 53.4516602,91.2231445 C53.397949,91.3061528 53.3198247,91.3476562 53.2172852,91.3476562 L52.7998047,91.3476562 C52.6777338,91.3476562 52.5776371,91.2744148 52.4995117,91.1279297 L51.8696289,90 C51.8305662,89.941406 51.7731937,89.9169921 51.6975098,89.9267578 C51.6218258,89.9365235 51.5595706,89.9511718 51.5107422,89.9707031 C51.2031235,90.0683599 50.86133,90.1171875 50.4853516,90.1171875 C49.5771439,90.1171875 48.8251983,89.8400907 48.2294922,89.2858887 C47.6337861,88.7316867 47.2724616,87.9687549 47.1455078,86.9970703 C47.1064451,86.6992173 47.0747072,86.352541 47.050293,85.9570312 Z M48.0390625,83.5473633 C48.0195312,83.9379902 48.0097656,84.3383769 48.0097656,84.7485352 C48.0097656,85.1586935 48.0207518,85.5590801 48.0427246,85.949707 C48.0646974,86.340334 48.1000974,86.6894516 48.1489258,86.9970703 C48.1782228,87.216798 48.240478,87.4523913 48.3356934,87.7038574 C48.4309087,87.9553235 48.5712881,88.1884755 48.7568359,88.4033203 C48.9423837,88.6181651 49.174315,88.7976067 49.4526367,88.9416504 C49.7309584,89.0856941 50.0751933,89.1577148 50.4853516,89.1577148 C50.8857442,89.1577148 51.2287583,89.0856941 51.5144043,88.9416504 C51.8000503,88.7976067 52.0356436,88.6181651 52.2211914,88.4033203 C52.4067392,88.1884755 52.5471187,87.9553235 52.642334,87.7038574 C52.7375493,87.4523913 52.7998045,87.216798 52.8291016,86.9970703 C52.8681643,86.6894516 52.8999022,86.340334 52.9243164,85.949707 C52.9487306,85.5590801 52.9609375,85.1586935 52.9609375,84.7485352 C52.9609375,84.3383769 52.9487306,83.9379902 52.9243164,83.5473633 C52.8999022,83.1567363 52.8681643,82.8076187 52.8291016,82.5 C52.7900389,82.231444 52.7119146,81.966554 52.5947266,81.7053223 C52.4775385,81.4440905 52.3225107,81.2109385 52.1296387,81.0058594 C51.9367666,80.8007802 51.7048353,80.6384283 51.4338379,80.5187988 C51.1628404,80.3991693 50.8466815,80.3393555 50.4853516,80.3393555 C50.1240216,80.3393555 49.8090834,80.3991693 49.5405273,80.5187988 C49.2719713,80.6384283 49.04004,80.8007802 48.8447266,81.0058594 C48.6494131,81.2109385 48.4943853,81.4440905 48.3796387,81.7053223 C48.264892,81.966554 48.1879885,82.231444 48.1489258,82.5 C48.1000974,82.8076187 48.0634767,83.1567363 48.0390625,83.5473633 Z" id="Q" fill="#292A2B" fill-rule="nonzero"></path>
        <path d="M75.1582031,104.699707 L75.1582031,94.7973633 C75.1582031,94.7192379 75.1887204,94.6496585 75.2497559,94.588623 C75.3107913,94.5275876 75.3803707,94.4970703 75.4584961,94.4970703 L78.0073242,94.4970703 C78.4370139,94.4970703 78.8447246,94.5800773 79.2304688,94.7460938 C79.6162129,94.9121102 79.9519029,95.137938 80.2375488,95.423584 C80.5231948,95.7092299 80.7478019,96.0436993 80.911377,96.427002 C81.074952,96.8103047 81.1567383,97.2167947 81.1567383,97.6464844 C81.1567383,98.3251987 80.9943864,98.8854958 80.6696777,99.3273926 C80.3449691,99.7692893 79.9140652,100.161131 79.3769531,100.50293 C79.2646479,100.581055 79.2084961,100.671386 79.2084961,100.773926 C79.2084961,100.837403 79.2280271,100.905761 79.2670898,100.979004 L81.1567383,104.553223 C81.1909181,104.6167 81.2080078,104.675293 81.2080078,104.729004 C81.2080078,104.772949 81.1958009,104.816894 81.1713867,104.86084 C81.1225583,104.953614 81.0224617,105 80.8710938,105 L80.5415039,105 C80.419433,105 80.3291019,104.971924 80.2705078,104.915771 C80.2119138,104.859619 80.1582031,104.787598 80.109375,104.699707 L78.1904297,100.979004 C78.1708983,100.930176 78.1379397,100.888672 78.0915527,100.854492 C78.0451658,100.820312 77.9829105,100.803223 77.9047852,100.803223 L76.2714844,100.803223 C76.1738276,100.803223 76.1225586,100.85205 76.1176758,100.949707 L76.1176758,104.699707 C76.1176758,104.777832 76.0883792,104.847412 76.0297852,104.908447 C75.9711911,104.969483 75.900391,105 75.8173828,105 L75.4584961,105 C75.3803707,105 75.3107913,104.969483 75.2497559,104.908447 C75.1887204,104.847412 75.1582031,104.777832 75.1582031,104.699707 Z M76.1176758,99.6899414 C76.1176758,99.7875981 76.1689448,99.8364258 76.2714844,99.8364258 L78.0073242,99.8364258 C78.3051773,99.8364258 78.5871569,99.7790533 78.8532715,99.6643066 C79.1193861,99.54956 79.3525381,99.3920908 79.5527344,99.1918945 C79.7529307,98.9916982 79.9103998,98.7597669 80.0251465,98.4960938 C80.1398932,98.2324206 80.1972656,97.9492203 80.1972656,97.6464844 C80.1972656,97.3486313 80.1398932,97.0666517 80.0251465,96.8005371 C79.9103998,96.5344225 79.7529307,96.3024912 79.5527344,96.1047363 C79.3525381,95.9069814 79.1206068,95.7495123 78.8569336,95.6323242 C78.5932604,95.5151361 78.3100601,95.456543 78.0073242,95.456543 L76.2714844,95.456543 C76.1738276,95.456543 76.1225586,95.507812 76.1176758,95.6103516 L76.1176758,99.6899414 Z" id="R" fill="#292A2B" fill-rule="nonzero"></path>
        <path d="M84.7773438,30.9970703 L84.7773438,30.7626953 C84.7773438,30.6845699 84.8066403,30.6149905 84.8652344,30.5539551 C84.9238284,30.4929196 84.9946285,30.4624023 85.0776367,30.4624023 L85.4511719,30.4624023 C85.5292973,30.4624023 85.5988766,30.4916989 85.6599121,30.550293 C85.7209476,30.608887 85.7514648,30.6796871 85.7514648,30.7626953 L85.7514648,30.9970703 C85.7514648,31.2558607 85.7990718,31.5158678 85.8942871,31.7770996 C85.9895024,32.0383314 86.1323233,32.2714833 86.3227539,32.4765625 C86.5131845,32.6816417 86.7475572,32.8464349 87.0258789,32.9709473 C87.3042006,33.0954596 87.6289044,33.1577148 88,33.1577148 C88.68848,33.1577148 89.2353495,32.9575215 89.640625,32.5571289 C90.0459005,32.1567363 90.2485352,31.6367219 90.2485352,30.9970703 C90.2485352,30.6552717 90.1887213,30.3684094 90.0690918,30.1364746 C89.9494623,29.9045399 89.7773438,29.7031259 89.5527344,29.5322266 C89.3281239,29.3613273 89.051027,29.2185064 88.7214355,29.1037598 C88.3918441,28.9890131 88.0122092,28.8803716 87.5825195,28.777832 C87.3139635,28.719238 87.0283218,28.6325689 86.7255859,28.5178223 C86.42285,28.4030756 86.1494153,28.2480479 85.9052734,28.0527344 C85.6611316,27.8574209 85.4597176,27.6096206 85.3010254,27.3093262 C85.1423332,27.0090317 85.0629883,26.6391624 85.0629883,26.199707 C85.0629883,25.750486 85.1423332,25.3513201 85.3010254,25.0021973 C85.4597176,24.6530744 85.6745592,24.3576672 85.9455566,24.1159668 C86.2165541,23.8742664 86.529051,23.6911627 86.8830566,23.5666504 C87.2370623,23.442138 87.609373,23.3798828 88,23.3798828 C88.4394553,23.3798828 88.8398419,23.454345 89.2011719,23.6032715 C89.5625018,23.752198 89.8701159,23.9548327 90.1240234,24.2111816 C90.377931,24.4675306 90.5744622,24.7653792 90.713623,25.1047363 C90.8527839,25.4440935 90.9223633,25.8090801 90.9223633,26.199707 L90.9223633,26.3974609 C90.9223633,26.4755863 90.8930667,26.5451657 90.8344727,26.6062012 C90.7758786,26.6672366 90.7050785,26.6977539 90.6220703,26.6977539 L90.2631836,26.6977539 C90.1850582,26.6977539 90.1154788,26.6672366 90.0544434,26.6062012 C89.9934079,26.5451657 89.9628906,26.4755863 89.9628906,26.3974609 L89.9628906,26.199707 C89.9628906,25.931151 89.9128423,25.6845714 89.8127441,25.4599609 C89.712646,25.2353504 89.5759286,25.0400399 89.4025879,24.8740234 C89.2292472,24.708007 89.0217297,24.5773931 88.7800293,24.4821777 C88.5383289,24.3869624 88.2783217,24.3393555 88,24.3393555 C87.6679671,24.3393555 87.3774427,24.3918452 87.128418,24.4968262 C86.8793933,24.6018072 86.6743172,24.7421866 86.5131836,24.9179688 C86.35205,25.0937509 86.2324223,25.2939442 86.1542969,25.5185547 C86.0761715,25.7431652 86.0371094,25.9702137 86.0371094,26.199707 C86.0371094,26.5415056 86.1164543,26.812499 86.2751465,27.0126953 C86.4338387,27.2128916 86.634032,27.3728021 86.8757324,27.4924316 C87.1174328,27.6120611 87.3798814,27.7060543 87.6630859,27.7744141 C87.9462905,27.8427738 88.2197252,27.9184566 88.4833984,28.0014648 C88.8837911,28.1235358 89.2536604,28.2614738 89.5930176,28.4152832 C89.9323747,28.5690926 90.2216785,28.760741 90.4609375,28.9902344 C90.7001965,29.2197277 90.8869622,29.4968245 91.0212402,29.8215332 C91.1555182,30.1462419 91.2226562,30.5380836 91.2226562,30.9970703 C91.2226562,31.485354 91.1359872,31.9223614 90.9626465,32.3081055 C90.7893058,32.6938496 90.5524917,33.0222154 90.2521973,33.2932129 C89.9519028,33.5642103 89.6064473,33.7692864 89.2158203,33.9084473 C88.8251934,34.0476081 88.419924,34.1171875 88,34.1171875 C87.521482,34.1171875 87.0820333,34.0354012 86.6816406,33.8718262 C86.281248,33.7082511 85.9406752,33.483644 85.6599121,33.197998 C85.379149,32.9123521 85.161866,32.5815448 85.0080566,32.2055664 C84.8542473,31.829588 84.7773438,31.42676 84.7773438,30.9970703 Z" id="S" fill="#292A2B" fill-rule="nonzero"></path>
        <path d="M22.3505859,32.1635742 L22.3505859,31.7973633 C22.3505859,31.7192379 22.3811032,31.6496585 22.4421387,31.588623 C22.5031741,31.5275876 22.5727535,31.4970703 22.6508789,31.4970703 L28.3491211,31.4970703 C28.4272465,31.4970703 28.4968259,31.5275876 28.5578613,31.588623 C28.6188968,31.6496585 28.6494141,31.7192379 28.6494141,31.7973633 L28.6494141,32.1635742 C28.6494141,32.2416996 28.6201175,32.3100583 28.5615234,32.3686523 C28.5029294,32.4272464 28.4321293,32.456543 28.3491211,32.456543 L26.1445312,32.456543 C26.0468745,32.456543 25.9980469,32.507812 25.9980469,32.6103516 L25.9980469,41.699707 C25.9980469,41.7778324 25.9675296,41.8474118 25.9064941,41.9084473 C25.8454587,41.9694827 25.7758793,42 25.6977539,42 L25.3242188,42 C25.2460934,42 25.176514,41.9694827 25.1154785,41.9084473 C25.0544431,41.8474118 25.0239258,41.7778324 25.0239258,41.699707 L25.0239258,32.6103516 C25.0239258,32.5126948 24.9726568,32.4614258 24.8701172,32.456543 L22.6508789,32.456543 C22.5727535,32.456543 22.5031741,32.4272464 22.4421387,32.3686523 C22.3811032,32.3100583 22.3505859,32.2416996 22.3505859,32.1635742 Z" id="T" fill="#292A2B" fill-rule="nonzero"></path>
        <path d="M175.000732,212.699707 L175.000732,202.797363 C175.000732,202.719238 175.03125,202.649659 175.092285,202.588623 C175.153321,202.527588 175.2229,202.49707 175.301025,202.49707 L176.084717,202.49707 C176.162842,202.49707 176.221435,202.512939 176.260498,202.544678 C176.299561,202.576416 176.345947,202.645996 176.399658,202.753418 L179.981201,211.293457 C180.000732,211.322754 180.025146,211.334961 180.054443,211.330078 C180.08374,211.325195 180.098389,211.300781 180.098389,211.256836 L180.098389,202.797363 C180.098389,202.719238 180.128906,202.649659 180.189941,202.588623 C180.250977,202.527588 180.320556,202.49707 180.398682,202.49707 L180.698975,202.49707 C180.7771,202.49707 180.846679,202.527588 180.907715,202.588623 C180.96875,202.649659 180.999268,202.719238 180.999268,202.797363 L180.999268,212.699707 C180.999268,212.777832 180.969971,212.847412 180.911377,212.908447 C180.852783,212.969483 180.781983,213 180.698975,213 L179.922607,213 C179.844482,213 179.784668,212.985352 179.743164,212.956055 C179.70166,212.926758 179.656494,212.855958 179.607666,212.743652 L176.018799,204.137695 C175.999267,204.108398 175.974854,204.096191 175.945557,204.101074 C175.91626,204.105957 175.901611,204.127929 175.901611,204.166992 L175.901611,212.699707 C175.901611,212.777832 175.871094,212.847412 175.810059,212.908447 C175.749023,212.969483 175.679444,213 175.601318,213 L175.301025,213 C175.2229,213 175.153321,212.969483 175.092285,212.908447 C175.03125,212.847412 175.000732,212.777832 175.000732,212.699707 Z" id="N" fill="#292A2B" fill-rule="nonzero"></path>
        <path d="M137.1875,88.699707 L137.1875,78.7973633 C137.1875,78.7192379 137.218017,78.6496585 137.279053,78.588623 C137.340088,78.5275876 137.409668,78.4970703 137.487793,78.4970703 L140.109863,78.4970703 C140.510256,78.4970703 140.891111,78.5678704 141.252441,78.7094727 C141.613771,78.8510749 141.926268,79.0439441 142.189941,79.2880859 C142.453615,79.5322278 142.663573,79.8264143 142.819824,80.1706543 C142.976075,80.5148943 143.054199,80.887205 143.054199,81.2875977 C143.054199,81.6391619 142.98462,82.0029278 142.845459,82.3789062 C142.706298,82.7548847 142.490236,83.0673816 142.197266,83.3164062 C142.055663,83.4384772 142.055663,83.5483394 142.197266,83.6459961 C142.504884,83.8950208 142.760009,84.2319315 142.962646,84.6567383 C143.165284,85.0815451 143.266602,85.5087869 143.266602,85.9384766 C143.266602,86.3779319 143.183595,86.7832013 143.017578,87.1542969 C142.851562,87.5253925 142.625734,87.8488756 142.340088,88.1247559 C142.054442,88.4006361 141.719973,88.6154777 141.33667,88.7692871 C140.953367,88.9230965 140.544436,89 140.109863,89 L137.487793,89 C137.409668,89 137.340088,88.9694827 137.279053,88.9084473 C137.218017,88.8474118 137.1875,88.7778324 137.1875,88.699707 Z M138.117676,87.8867188 C138.117676,87.9843755 138.168945,88.0356445 138.271484,88.0405273 L140.27832,88.0405273 C140.556642,88.0405273 140.821532,87.9880376 141.072998,87.8830566 C141.324464,87.7780756 141.545409,87.630372 141.73584,87.4399414 C141.92627,87.2495108 142.073974,87.0322278 142.178955,86.7880859 C142.283936,86.5439441 142.336426,86.2753921 142.336426,85.9824219 C142.336426,85.7041002 142.283936,85.4404309 142.178955,85.1914062 C142.073974,84.9423816 141.92627,84.7226572 141.73584,84.5322266 C141.545409,84.3417959 141.324464,84.1940923 141.072998,84.0891113 C140.821532,83.9841303 140.556642,83.9316406 140.27832,83.9316406 L138.271484,83.9316406 C138.173828,83.9316406 138.122559,83.9804683 138.117676,84.078125 L138.117676,87.8867188 Z M138.117676,82.8916016 C138.117676,82.9892583 138.168945,83.0405273 138.271484,83.0454102 L140.336914,83.0454102 C140.585939,83.0454102 140.81787,82.9978032 141.032715,82.9025879 C141.24756,82.8073726 141.435546,82.6792 141.59668,82.5180664 C141.757813,82.3569328 141.883544,82.1689464 141.973877,81.9541016 C142.064209,81.7392567 142.109375,81.5073255 142.109375,81.2583008 C142.109375,81.0092761 142.064209,80.7773448 141.973877,80.5625 C141.883544,80.3476552 141.757813,80.1572274 141.59668,79.9912109 C141.435546,79.8251945 141.24756,79.6945806 141.032715,79.5993652 C140.81787,79.5041499 140.585939,79.456543 140.336914,79.456543 L138.271484,79.456543 C138.173828,79.456543 138.122559,79.507812 138.117676,79.6103516 L138.117676,82.8916016 Z" id="B" fill="#292A2B" fill-rule="nonzero"></path>
        <path d="M136.145508,37.9570312 C136.125976,37.5615215 136.116211,37.1562521 136.116211,36.7412109 C136.116211,36.3261698 136.125976,35.9233418 136.145508,35.5327148 C136.165039,35.1420879 136.196777,34.7978531 136.240723,34.5 C136.299317,34.0898417 136.414062,33.6967792 136.584961,33.3208008 C136.75586,32.9448223 136.980467,32.6127944 137.258789,32.324707 C137.537111,32.0366197 137.869139,31.8071298 138.254883,31.6362305 C138.640627,31.4653312 139.082517,31.3798828 139.580566,31.3798828 C140.06885,31.3798828 140.521726,31.4653312 140.939209,31.6362305 C141.356692,31.8071298 141.709471,32.0341783 141.997559,32.3173828 C142.285646,32.6005874 142.512694,32.9326153 142.678711,33.3134766 C142.844727,33.6943378 142.927734,34.0898417 142.927734,34.5 L142.927734,34.5585938 C142.927734,34.6367191 142.897217,34.7062985 142.836182,34.767334 C142.775146,34.8283694 142.705567,34.8588867 142.627441,34.8588867 L142.224609,34.8588867 C142.146484,34.8588867 142.076905,34.8295901 142.015869,34.7709961 C141.954834,34.7124021 141.924316,34.641602 141.924316,34.5585938 L141.924316,34.5 C141.924316,34.2216783 141.869385,33.9519056 141.759521,33.6906738 C141.649658,33.4294421 141.492189,33.1987315 141.287109,32.9985352 C141.08203,32.7983388 140.836671,32.6384283 140.551025,32.5187988 C140.265379,32.3991693 139.941896,32.3393555 139.580566,32.3393555 C139.219236,32.3393555 138.904298,32.3991693 138.635742,32.5187988 C138.367186,32.6384283 138.135255,32.8007802 137.939941,33.0058594 C137.744628,33.2109385 137.5896,33.4440905 137.474854,33.7053223 C137.360107,33.966554 137.283203,34.231444 137.244141,34.5 C137.195312,34.8076187 137.159912,35.1567363 137.137939,35.5473633 C137.115967,35.9379902 137.10498,36.3383769 137.10498,36.7485352 C137.10498,37.1586935 137.115967,37.5590801 137.137939,37.949707 C137.159912,38.340334 137.195312,38.6894516 137.244141,38.9970703 C137.273438,39.216798 137.335693,39.4523913 137.430908,39.7038574 C137.526124,39.9553235 137.666503,40.1884755 137.852051,40.4033203 C138.037599,40.6181651 138.26953,40.7976067 138.547852,40.9416504 C138.826173,41.0856941 139.170408,41.1577148 139.580566,41.1577148 C139.980959,41.1577148 140.328856,41.0881355 140.624268,40.9489746 C140.919679,40.8098138 141.165038,40.6328136 141.360352,40.4179688 C141.555665,40.2031239 141.698486,39.9675306 141.788818,39.7111816 C141.879151,39.4548327 141.924316,39.216798 141.924316,38.9970703 L141.924316,38.9384766 C141.924316,38.8603512 141.953613,38.7907718 142.012207,38.7297363 C142.070801,38.6687009 142.141601,38.6381836 142.224609,38.6381836 L142.627441,38.6381836 C142.705567,38.6381836 142.775146,38.6687009 142.836182,38.7297363 C142.897217,38.7907718 142.927734,38.8603512 142.927734,38.9384766 L142.927734,38.9970703 C142.927734,39.485354 142.837403,39.9223614 142.656738,40.3081055 C142.476073,40.6938496 142.233156,41.0222154 141.927979,41.2932129 C141.622801,41.5642103 141.26758,41.7692864 140.862305,41.9084473 C140.457029,42.0476081 140.029787,42.1171875 139.580566,42.1171875 C138.672359,42.1171875 137.920413,41.8400907 137.324707,41.2858887 C136.729001,40.7316867 136.367676,39.9687549 136.240723,38.9970703 C136.20166,38.6992173 136.169922,38.352541 136.145508,37.9570312 Z" id="C" fill="#292A2B" fill-rule="nonzero"></path>
        <path d="M201.451172,68.699707 L201.451172,58.7973633 C201.451172,58.7192379 201.481689,58.6496585 201.542725,58.588623 C201.60376,58.5275876 201.673339,58.4970703 201.751465,58.4970703 L206.446289,58.4970703 C206.524414,58.4970703 206.593994,58.5275876 206.655029,58.588623 C206.716065,58.6496585 206.746582,58.7192379 206.746582,58.7973633 L206.746582,59.1635742 C206.746582,59.2416996 206.716065,59.3100583 206.655029,59.3686523 C206.593994,59.4272464 206.524414,59.456543 206.446289,59.456543 L202.564453,59.456543 C202.466796,59.456543 202.415527,59.507812 202.410645,59.6103516 L202.410645,63.0161133 C202.410645,63.11377 202.461914,63.1625977 202.564453,63.1625977 L206.285156,63.1625977 C206.363282,63.1625977 206.432861,63.1931149 206.493896,63.2541504 C206.554932,63.3151859 206.585449,63.3847652 206.585449,63.4628906 L206.585449,63.8071289 C206.585449,63.8852543 206.554932,63.9548337 206.493896,64.0158691 C206.432861,64.0769046 206.363282,64.1074219 206.285156,64.1074219 L202.564453,64.1074219 C202.466796,64.1074219 202.415527,64.1586909 202.410645,64.2612305 L202.410645,67.8867188 C202.410645,67.9843755 202.461914,68.0356445 202.564453,68.0405273 L206.475586,68.0405273 C206.553711,68.0405273 206.623291,68.0710446 206.684326,68.1320801 C206.745362,68.1931155 206.775879,68.2626949 206.775879,68.3408203 L206.775879,68.699707 C206.775879,68.7778324 206.746582,68.8474118 206.687988,68.9084473 C206.629394,68.9694827 206.558594,69 206.475586,69 L201.751465,69 C201.673339,69 201.60376,68.9694827 201.542725,68.9084473 C201.481689,68.8474118 201.451172,68.7778324 201.451172,68.699707 Z" id="E" fill="#292A2B" fill-rule="nonzero"></path>
        <path d="M252.115967,52.699707 L252.115967,42.7973633 C252.115967,42.7192379 252.146484,42.6496585 252.20752,42.588623 C252.268555,42.5275876 252.338134,42.4970703 252.41626,42.4970703 L257.111084,42.4970703 C257.189209,42.4970703 257.258789,42.5275876 257.319824,42.588623 C257.38086,42.6496585 257.411377,42.7192379 257.411377,42.7973633 L257.411377,43.1635742 C257.411377,43.2416996 257.38086,43.3100583 257.319824,43.3686523 C257.258789,43.4272464 257.189209,43.456543 257.111084,43.456543 L253.229248,43.456543 C253.131591,43.456543 253.080322,43.507812 253.075439,43.6103516 L253.075439,47.0014648 C253.075439,47.0991216 253.126708,47.1479492 253.229248,47.1479492 L256.949951,47.1479492 C257.028077,47.1479492 257.097656,47.1784665 257.158691,47.239502 C257.219727,47.3005374 257.250244,47.3701168 257.250244,47.4482422 L257.250244,47.8071289 C257.250244,47.8852543 257.219727,47.9548337 257.158691,48.0158691 C257.097656,48.0769046 257.028077,48.1074219 256.949951,48.1074219 L253.229248,48.1074219 C253.131591,48.1074219 253.080322,48.1586909 253.075439,48.2612305 L253.075439,52.699707 C253.075439,52.7778324 253.046143,52.8474118 252.987549,52.9084473 C252.928955,52.9694827 252.858155,53 252.775146,53 L252.41626,53 C252.338134,53 252.268555,52.9694827 252.20752,52.9084473 C252.146484,52.8474118 252.115967,52.7778324 252.115967,52.699707 Z" id="F" fill="#292A2B" fill-rule="nonzero"></path>
        <path d="M301.123535,29.9570312 C301.104004,29.5615215 301.094238,29.1562521 301.094238,28.7412109 C301.094238,28.3261698 301.104004,27.9233418 301.123535,27.5327148 C301.143067,27.1420879 301.174804,26.7978531 301.21875,26.5 C301.277344,26.0898417 301.392089,25.6967792 301.562988,25.3208008 C301.733888,24.9448223 301.958495,24.6127944 302.236816,24.324707 C302.515138,24.0366197 302.847166,23.8071298 303.23291,23.6362305 C303.618654,23.4653312 304.060544,23.3798828 304.558594,23.3798828 C305.046877,23.3798828 305.499754,23.4628898 305.917236,23.6289062 C306.334719,23.7949227 306.687499,24.0170885 306.975586,24.2954102 C307.263673,24.5737319 307.490722,24.9033184 307.656738,25.2841797 C307.822755,25.665041 307.905762,26.0703104 307.905762,26.5 L307.905762,26.5585938 C307.905762,26.6367191 307.875244,26.7062985 307.814209,26.767334 C307.753174,26.8283694 307.683594,26.8588867 307.605469,26.8588867 L307.202637,26.8588867 C307.124511,26.8588867 307.054932,26.8295901 306.993896,26.7709961 C306.932861,26.7124021 306.902344,26.641602 306.902344,26.5585938 L306.902344,26.5 C306.902344,26.1923813 306.847413,25.9055189 306.737549,25.6394043 C306.627685,25.3732897 306.470216,25.1450205 306.265137,24.9545898 C306.060058,24.7641592 305.814699,24.6140142 305.529053,24.5041504 C305.243407,24.3942866 304.919924,24.3393555 304.558594,24.3393555 C304.197264,24.3393555 303.882326,24.3991693 303.61377,24.5187988 C303.345214,24.6384283 303.113282,24.8007802 302.917969,25.0058594 C302.722655,25.2109385 302.567628,25.4440905 302.452881,25.7053223 C302.338134,25.966554 302.261231,26.231444 302.222168,26.5 C302.17334,26.8076187 302.13794,27.1567363 302.115967,27.5473633 C302.093994,27.9379902 302.083008,28.3383769 302.083008,28.7485352 C302.083008,29.1586935 302.093994,29.5590801 302.115967,29.949707 C302.13794,30.340334 302.17334,30.6894516 302.222168,30.9970703 C302.251465,31.216798 302.31372,31.4523913 302.408936,31.7038574 C302.504151,31.9553235 302.64453,32.1884755 302.830078,32.4033203 C303.015626,32.6181651 303.247557,32.7976067 303.525879,32.9416504 C303.804201,33.0856941 304.148435,33.1577148 304.558594,33.1577148 C304.958986,33.1577148 305.309325,33.0881355 305.609619,32.9489746 C305.909914,32.8098138 306.160155,32.6328136 306.360352,32.4179688 C306.560548,32.2031239 306.708251,31.9675306 306.803467,31.7111816 C306.898682,31.4548327 306.946289,31.216798 306.946289,30.9970703 L306.946289,29.378418 C306.946289,29.2807612 306.89502,29.2319336 306.79248,29.2319336 L304.96875,29.2319336 C304.890625,29.2319336 304.821045,29.2014163 304.76001,29.1403809 C304.698974,29.0793454 304.668457,29.009766 304.668457,28.9316406 L304.668457,28.5727539 C304.668457,28.4946285 304.697754,28.4250491 304.756348,28.3640137 C304.814942,28.3029782 304.885742,28.2724609 304.96875,28.2724609 L307.605469,28.2724609 C307.683594,28.2724609 307.753174,28.3017575 307.814209,28.3603516 C307.875244,28.4189456 307.905762,28.4897457 307.905762,28.5727539 L307.905762,30.9970703 C307.905762,31.485354 307.815431,31.9223614 307.634766,32.3081055 C307.454101,32.6938496 307.211183,33.0222154 306.906006,33.2932129 C306.600829,33.5642103 306.245607,33.7692864 305.840332,33.9084473 C305.435057,34.0476081 305.007815,34.1171875 304.558594,34.1171875 C303.650386,34.1171875 302.89844,33.8400907 302.302734,33.2858887 C301.707028,32.7316867 301.345704,31.9687549 301.21875,30.9970703 C301.179687,30.6992173 301.147949,30.352541 301.123535,29.9570312 Z" id="G" fill="#292A2B" fill-rule="nonzero"></path>
        <path d="M301.42749,93.699707 L301.42749,83.7973633 C301.42749,83.7192379 301.458008,83.6496585 301.519043,83.588623 C301.580078,83.5275876 301.649658,83.4970703 301.727783,83.4970703 L302.08667,83.4970703 C302.164795,83.4970703 302.234375,83.5275876 302.29541,83.588623 C302.356446,83.6496585 302.386963,83.7192379 302.386963,83.7973633 L302.386963,88.0014648 C302.386963,88.0991216 302.438232,88.1479492 302.540771,88.1479492 L306.466553,88.1479492 C306.564209,88.1479492 306.615478,88.0991216 306.620361,88.0014648 L306.620361,83.7973633 C306.620361,83.7192379 306.649658,83.6496585 306.708252,83.588623 C306.766846,83.5275876 306.837646,83.4970703 306.920654,83.4970703 L307.279541,83.4970703 C307.357666,83.4970703 307.427246,83.5275876 307.488281,83.588623 C307.549317,83.6496585 307.579834,83.7192379 307.579834,83.7973633 L307.579834,93.699707 C307.579834,93.7778324 307.549317,93.8474118 307.488281,93.9084473 C307.427246,93.9694827 307.357666,94 307.279541,94 L306.920654,94 C306.842529,94 306.77295,93.9694827 306.711914,93.9084473 C306.650879,93.8474118 306.620361,93.7778324 306.620361,93.699707 L306.620361,89.2612305 C306.620361,89.1635737 306.569092,89.1123047 306.466553,89.1074219 L302.540771,89.1074219 C302.443115,89.1074219 302.391846,89.1586909 302.386963,89.2612305 L302.386963,93.699707 C302.386963,93.7778324 302.357666,93.8474118 302.299072,93.9084473 C302.240478,93.9694827 302.169678,94 302.08667,94 L301.727783,94 C301.649658,94 301.580078,93.9694827 301.519043,93.9084473 C301.458008,93.8474118 301.42749,93.7778324 301.42749,93.699707 Z" id="H" fill="#292A2B" fill-rule="nonzero"></path>
        <path d="M264.020264,100.699707 L264.020264,90.7973633 C264.020264,90.7192379 264.050781,90.6496585 264.111816,90.588623 C264.172852,90.5275876 264.242431,90.4970703 264.320557,90.4970703 L264.679443,90.4970703 C264.757569,90.4970703 264.827148,90.5275876 264.888184,90.588623 C264.949219,90.6496585 264.979736,90.7192379 264.979736,90.7973633 L264.979736,100.699707 C264.979736,100.777832 264.95044,100.847412 264.891846,100.908447 C264.833252,100.969483 264.762452,101 264.679443,101 L264.320557,101 C264.242431,101 264.172852,100.969483 264.111816,100.908447 C264.050781,100.847412 264.020264,100.777832 264.020264,100.699707 Z" id="I" fill="#292A2B" fill-rule="nonzero"></path>
        <path d="M264.130859,149.121582 L264.130859,148.99707 C264.130859,148.918945 264.161377,148.849366 264.222412,148.78833 C264.283448,148.727295 264.353027,148.696777 264.431152,148.696777 L264.804688,148.696777 C264.882813,148.696777 264.952392,148.727295 265.013428,148.78833 C265.074463,148.849366 265.10498,148.918945 265.10498,148.99707 L265.10498,149.121582 C265.10498,149.390138 265.155029,149.646483 265.255127,149.890625 C265.355225,150.134767 265.493163,150.35205 265.668945,150.54248 C265.844727,150.732911 266.057128,150.883056 266.306152,150.99292 C266.555177,151.102784 266.831053,151.157715 267.133789,151.157715 C267.734378,151.157715 268.223875,150.985597 268.602295,150.641357 C268.980715,150.297117 269.169922,149.739262 269.169922,148.967773 L269.169922,141.797363 C269.169922,141.719238 269.200439,141.649659 269.261475,141.588623 C269.32251,141.527588 269.392089,141.49707 269.470215,141.49707 L269.829102,141.49707 C269.907227,141.49707 269.976806,141.527588 270.037842,141.588623 C270.098877,141.649659 270.129395,141.719238 270.129395,141.797363 L270.129395,149.121582 C270.129395,149.580569 270.052491,149.995604 269.898682,150.366699 C269.744872,150.737795 269.532472,151.052733 269.261475,151.311523 C268.990477,151.570314 268.673098,151.769286 268.309326,151.908447 C267.945555,152.047608 267.553713,152.117188 267.133789,152.117188 C266.723631,152.117188 266.335451,152.037843 265.969238,151.87915 C265.603026,151.720458 265.285646,151.505617 265.01709,151.234619 C264.748534,150.963622 264.533692,150.646242 264.372559,150.282471 C264.211425,149.918699 264.130859,149.53174 264.130859,149.121582 Z" id="J" fill="#292A2B" fill-rule="nonzero"></path>
        <path d="M240.421875,197.699707 L240.421875,187.797363 C240.421875,187.719238 240.452392,187.649659 240.513428,187.588623 C240.574463,187.527588 240.644043,187.49707 240.722168,187.49707 L241.081055,187.49707 C241.15918,187.49707 241.228759,187.527588 241.289795,187.588623 C241.35083,187.649659 241.381348,187.719238 241.381348,187.797363 L241.381348,191.759766 C241.381348,191.798828 241.395996,191.818359 241.425293,191.818359 C241.45459,191.818359 241.481445,191.808594 241.505859,191.789062 L244.955566,187.665527 C244.975098,187.63623 245.016601,187.60083 245.080078,187.559326 C245.143555,187.517822 245.231445,187.49707 245.34375,187.49707 L245.585449,187.49707 C245.766114,187.49707 245.875976,187.560546 245.915039,187.6875 C245.954102,187.814454 245.927247,187.93164 245.834473,188.039062 L242.135742,192.404297 C242.086914,192.462891 242.056397,192.520263 242.044189,192.576416 C242.031982,192.632569 242.057617,192.694824 242.121094,192.763184 L246.076172,197.443359 C246.134766,197.516602 246.164062,197.597168 246.164062,197.685059 C246.164062,197.719238 246.15918,197.755859 246.149414,197.794922 C246.120117,197.931641 246.005372,198 245.805176,198 L245.475586,198 C245.363281,198 245.277832,197.975586 245.219238,197.926758 C245.160644,197.877929 245.116699,197.836426 245.087402,197.802246 L241.505859,193.517578 C241.486328,193.498047 241.460694,193.488281 241.428955,193.488281 C241.397217,193.488281 241.381348,193.507812 241.381348,193.546875 L241.381348,197.699707 C241.381348,197.777832 241.352051,197.847412 241.293457,197.908447 C241.234863,197.969483 241.164063,198 241.081055,198 L240.722168,198 C240.644043,198 240.574463,197.969483 240.513428,197.908447 C240.452392,197.847412 240.421875,197.777832 240.421875,197.699707 Z" id="K" fill="#292A2B" fill-rule="nonzero"></path>
        <path d="M305.29541,201.699707 L305.29541,191.797363 C305.29541,191.719238 305.325927,191.649659 305.386963,191.588623 C305.447998,191.527588 305.517578,191.49707 305.595703,191.49707 L305.95459,191.49707 C306.032715,191.49707 306.102295,191.527588 306.16333,191.588623 C306.224366,191.649659 306.254883,191.719238 306.254883,191.797363 L306.254883,200.886719 C306.254883,200.984375 306.306152,201.035645 306.408691,201.040527 L310.078125,201.040527 C310.15625,201.040527 310.22583,201.071045 310.286865,201.13208 C310.347901,201.193116 310.378418,201.262695 310.378418,201.34082 L310.378418,201.699707 C310.378418,201.777832 310.349121,201.847412 310.290527,201.908447 C310.231933,201.969483 310.161133,202 310.078125,202 L305.595703,202 C305.517578,202 305.447998,201.969483 305.386963,201.908447 C305.325927,201.847412 305.29541,201.777832 305.29541,201.699707 Z" id="L" fill="#292A2B" fill-rule="nonzero"></path>
    </g>
</svg>