<?xml version="1.0" encoding="UTF-8"?>
<svg width="308px" height="200px" viewBox="0 0 308 200" version="1.1" xmlns="http://www.w3.org/2000/svg" xmlns:xlink="http://www.w3.org/1999/xlink">
    <!-- Generator: Sketch 55.1 (78136) - https://sketchapp.com -->
    <title>real_time</title>
    <desc>Created with Sketch.</desc>
    <g id="real_time" stroke="none" stroke-width="1" fill="none" fill-rule="evenodd" stroke-linecap="round" stroke-linejoin="round">
        <path d="M253.5,1 L269.942621,1 L253.5,1 Z M260.5,21.5 L269.942621,1 L260.5,21.5 Z M260.5,21.5 L276,21.5 L260.5,21.5 Z M241,60 L276,21.5 L241,60 Z M241,60 L251.5,30.5 L241,60 Z M242.5,30.5 L251.5,30.5 L242.5,30.5 Z M242.5,30.5 L253.5,1 L242.5,30.5 Z" id="Combined-Shape" stroke="#292A2B"></path>
        <path d="M205.5,1 L221.942621,1 L205.5,1 Z M212.5,21.5 L221.942621,1 L212.5,21.5 Z M212.5,21.5 L228,21.5 L212.5,21.5 Z M193,60 L228,21.5 L193,60 Z M193,60 L203.5,30.5 L193,60 Z M194.5,30.5 L203.5,30.5 L194.5,30.5 Z M194.5,30.5 L205.5,1 L194.5,30.5 Z" id="Combined-Shape" stroke="#292A2B"></path>
        <path d="M157.5,1 L173.942621,1 L157.5,1 Z M164.5,21.5 L173.942621,1 L164.5,21.5 Z M164.5,21.5 L180,21.5 L164.5,21.5 Z M145,60 L180,21.5 L145,60 Z M145,60 L155.5,30.5 L145,60 Z M146.5,30.5 L155.5,30.5 L146.5,30.5 Z M146.5,30.5 L157.5,1 L146.5,30.5 Z" id="Combined-Shape" stroke="#292A2B"></path>
        <path d="M109.5,1 L125.942621,1 L109.5,1 Z M116.5,21.5 L125.942621,1 L116.5,21.5 Z M116.5,21.5 L132,21.5 L116.5,21.5 Z M97,60 L132,21.5 L97,60 Z M97,60 L107.5,30.5 L97,60 Z M98.5,30.5 L107.5,30.5 L98.5,30.5 Z M98.5,30.5 L109.5,1 L98.5,30.5 Z" id="Combined-Shape" stroke="#292A2B"></path>
        <path d="M61.5,1 L77.9426211,1 L61.5,1 Z M68.5,21.5 L77.9426211,1 L68.5,21.5 Z M68.5,21.5 L84,21.5 L68.5,21.5 Z M49,60 L84,21.5 L49,60 Z M49,60 L59.5,30.5 L49,60 Z M50.5,30.5 L59.5,30.5 L50.5,30.5 Z M50.5,30.5 L61.5,1 L50.5,30.5 Z" id="Combined-Shape" stroke="#292A2B"></path>
        <path d="M262.5,48 L278.942621,48 L262.5,48 Z M269.5,68.5 L278.942621,48 L269.5,68.5 Z M269.5,68.5 L285,68.5 L269.5,68.5 Z M250,107 L285,68.5 L250,107 Z M250,107 L260.5,77.5 L250,107 Z M251.5,77.5 L260.5,77.5 L251.5,77.5 Z M251.5,77.5 L262.5,48 L251.5,77.5 Z" id="Combined-Shape" stroke="#292A2B"></path>
        <path d="M214.5,48 L230.942621,48 L214.5,48 Z M221.5,68.5 L230.942621,48 L221.5,68.5 Z M221.5,68.5 L237,68.5 L221.5,68.5 Z M202,107 L237,68.5 L202,107 Z M202,107 L212.5,77.5 L202,107 Z M203.5,77.5 L212.5,77.5 L203.5,77.5 Z M203.5,77.5 L214.5,48 L203.5,77.5 Z" id="Combined-Shape" stroke="#292A2B"></path>
        <path d="M166.5,48 L182.942621,48 L166.5,48 Z M173.5,68.5 L182.942621,48 L173.5,68.5 Z M173.5,68.5 L189,68.5 L173.5,68.5 Z M154,107 L189,68.5 L154,107 Z M154,107 L164.5,77.5 L154,107 Z M155.5,77.5 L164.5,77.5 L155.5,77.5 Z M155.5,77.5 L166.5,48 L155.5,77.5 Z" id="Combined-Shape" stroke="#292A2B"></path>
        <path d="M118.5,48 L134.942621,48 L118.5,48 Z M125.5,68.5 L134.942621,48 L125.5,68.5 Z M125.5,68.5 L141,68.5 L125.5,68.5 Z M106,107 L141,68.5 L106,107 Z M106,107 L116.5,77.5 L106,107 Z M107.5,77.5 L116.5,77.5 L107.5,77.5 Z M107.5,77.5 L118.5,48 L107.5,77.5 Z" id="Combined-Shape" stroke="#292A2B"></path>
        <path d="M70.5,48 L86.9426211,48 L70.5,48 Z M77.5,68.5 L86.9426211,48 L77.5,68.5 Z M77.5,68.5 L93,68.5 L77.5,68.5 Z M58,107 L93,68.5 L58,107 Z M58,107 L68.5,77.5 L58,107 Z M59.5,77.5 L68.5,77.5 L59.5,77.5 Z M59.5,77.5 L70.5,48 L59.5,77.5 Z" id="Combined-Shape" stroke="#292A2B"></path>
        <path d="M275.5,94 L291.942621,94 L275.5,94 Z M282.5,114.5 L291.942621,94 L282.5,114.5 Z M282.5,114.5 L298,114.5 L282.5,114.5 Z M263,153 L298,114.5 L263,153 Z M263,153 L273.5,123.5 L263,153 Z M264.5,123.5 L273.5,123.5 L264.5,123.5 Z M264.5,123.5 L275.5,94 L264.5,123.5 Z" id="Combined-Shape" stroke="#292A2B"></path>
        <path d="M227.5,94 L243.942621,94 L227.5,94 Z M234.5,114.5 L243.942621,94 L234.5,114.5 Z M234.5,114.5 L250,114.5 L234.5,114.5 Z M215,153 L250,114.5 L215,153 Z M215,153 L225.5,123.5 L215,153 Z M216.5,123.5 L225.5,123.5 L216.5,123.5 Z M216.5,123.5 L227.5,94 L216.5,123.5 Z" id="Combined-Shape" stroke="#292A2B"></path>
        <path d="M179.5,94 L195.942621,94 L179.5,94 Z M186.5,114.5 L195.942621,94 L186.5,114.5 Z M186.5,114.5 L202,114.5 L186.5,114.5 Z M167,153 L202,114.5 L167,153 Z M167,153 L177.5,123.5 L167,153 Z M168.5,123.5 L177.5,123.5 L168.5,123.5 Z M168.5,123.5 L179.5,94 L168.5,123.5 Z" id="Combined-Shape" stroke="#292A2B"></path>
        <path d="M131.5,94 L147.942621,94 L131.5,94 Z M138.5,114.5 L147.942621,94 L138.5,114.5 Z M138.5,114.5 L154,114.5 L138.5,114.5 Z M119,153 L154,114.5 L119,153 Z M119,153 L129.5,123.5 L119,153 Z M120.5,123.5 L129.5,123.5 L120.5,123.5 Z M120.5,123.5 L131.5,94 L120.5,123.5 Z" id="Combined-Shape" stroke="#292A2B"></path>
        <path d="M83.5,94 L99.9426211,94 L83.5,94 Z M90.5,114.5 L99.9426211,94 L90.5,114.5 Z M90.5,114.5 L106,114.5 L90.5,114.5 Z M71,153 L106,114.5 L71,153 Z M71,153 L81.5,123.5 L71,153 Z M72.5,123.5 L81.5,123.5 L72.5,123.5 Z M72.5,123.5 L83.5,94 L72.5,123.5 Z" id="Combined-Shape" stroke="#292A2B"></path>
        <path d="M35.5,94 L51.9426211,94 L35.5,94 Z M42.5,114.5 L51.9426211,94 L42.5,114.5 Z M42.5,114.5 L58,114.5 L42.5,114.5 Z M23,153 L58,114.5 L23,153 Z M23,153 L33.5,123.5 L23,153 Z M24.5,123.5 L33.5,123.5 L24.5,123.5 Z M24.5,123.5 L35.5,94 L24.5,123.5 Z" id="Combined-Shape" stroke="#292A2B"></path>
        <path d="M22.5,48 L38.9426211,48 L22.5,48 Z M29.5,68.5 L38.9426211,48 L29.5,68.5 Z M29.5,68.5 L45,68.5 L29.5,68.5 Z M10,107 L45,68.5 L10,107 Z M10,107 L20.5,77.5 L10,107 Z M11.5,77.5 L20.5,77.5 L11.5,77.5 Z M11.5,77.5 L22.5,48 L11.5,77.5 Z" id="Combined-Shape" stroke="#292A2B"></path>
        <path d="M13.5,1 L29.9426211,1 L13.5,1 Z M20.5,21.5 L29.9426211,1 L20.5,21.5 Z M20.5,21.5 L36,21.5 L20.5,21.5 Z M1,60 L36,21.5 L1,60 Z M1,60 L11.5,30.5 L1,60 Z M2.5,30.5 L11.5,30.5 L2.5,30.5 Z M2.5,30.5 L13.5,1 L2.5,30.5 Z" id="Combined-Shape" stroke="#292A2B"></path>
        <path d="M284.5,141 L300.942621,141 L284.5,141 Z M291.5,161.5 L300.942621,141 L291.5,161.5 Z M291.5,161.5 L307,161.5 L291.5,161.5 Z M272,200 L307,161.5 L272,200 Z M272,200 L282.5,170.5 L272,200 Z M273.5,170.5 L282.5,170.5 L273.5,170.5 Z M273.5,170.5 L284.5,141 L273.5,170.5 Z" id="Combined-Shape" stroke="#292A2B"></path>
        <path d="M236.5,141 L252.942621,141 L236.5,141 Z M243.5,161.5 L252.942621,141 L243.5,161.5 Z M243.5,161.5 L259,161.5 L243.5,161.5 Z M224,200 L259,161.5 L224,200 Z M224,200 L234.5,170.5 L224,200 Z M225.5,170.5 L234.5,170.5 L225.5,170.5 Z M225.5,170.5 L236.5,141 L225.5,170.5 Z" id="Combined-Shape" stroke="#292A2B"></path>
        <path d="M188.5,141 L204.942621,141 L188.5,141 Z M195.5,161.5 L204.942621,141 L195.5,161.5 Z M195.5,161.5 L211,161.5 L195.5,161.5 Z M176,200 L211,161.5 L176,200 Z M176,200 L186.5,170.5 L176,200 Z M177.5,170.5 L186.5,170.5 L177.5,170.5 Z M177.5,170.5 L188.5,141 L177.5,170.5 Z" id="Combined-Shape" stroke="#292A2B"></path>
        <path d="M140.5,141 L156.942621,141 L140.5,141 Z M147.5,161.5 L156.942621,141 L147.5,161.5 Z M147.5,161.5 L163,161.5 L147.5,161.5 Z M128,200 L163,161.5 L128,200 Z M128,200 L138.5,170.5 L128,200 Z M129.5,170.5 L138.5,170.5 L129.5,170.5 Z M129.5,170.5 L140.5,141 L129.5,170.5 Z" id="Combined-Shape" stroke="#292A2B"></path>
        <path d="M92.5,141 L108.942621,141 L92.5,141 Z M99.5,161.5 L108.942621,141 L99.5,161.5 Z M99.5,161.5 L115,161.5 L99.5,161.5 Z M80,200 L115,161.5 L80,200 Z M80,200 L90.5,170.5 L80,200 Z M81.5,170.5 L90.5,170.5 L81.5,170.5 Z M81.5,170.5 L92.5,141 L81.5,170.5 Z" id="Combined-Shape" stroke="#292A2B"></path>
        <path d="M44.5,141 L60.9426211,141 L44.5,141 Z M51.5,161.5 L60.9426211,141 L51.5,161.5 Z M51.5,161.5 L67,161.5 L51.5,161.5 Z M32,200 L67,161.5 L32,200 Z M32,200 L42.5,170.5 L32,200 Z M33.5,170.5 L42.5,170.5 L33.5,170.5 Z M33.5,170.5 L44.5,141 L33.5,170.5 Z" id="Combined-Shape" stroke="#292A2B"></path>
    </g>
</svg>