<?xml version="1.0" encoding="UTF-8"?>
<svg width="268px" height="51px" viewBox="0 0 268 51" version="1.1" xmlns="http://www.w3.org/2000/svg" xmlns:xlink="http://www.w3.org/1999/xlink">
    <!-- Generator: Sketch 49.1 (51147) - http://www.bohemiancoding.com/sketch -->
    <title>Email Footer Logo</title>
    <desc>Created with Sketch.</desc>
    <defs></defs>
    <g id="Email-Footer-Logo" stroke="none" stroke-width="1" fill="none" fill-rule="evenodd">
        <g id="Group" transform="translate(-4.000000, -14.000000)" fill="#232224">
            <path d="M16.665,39.085 L9.845,39.085 L9.845,51.9 C9.845,52.67 9.625,53 8.855,53 L5.5,53 C4.785,53 4.51,52.67 4.51,51.9 L4.51,16.7 C4.51,15.93 4.785,15.6 5.5,15.6 L16.665,15.6 C26.125,15.6 29.15,19.56 29.15,24.07 L29.15,30.615 C29.15,35.125 26.125,39.085 16.665,39.085 Z M16.665,20.165 L9.845,20.165 L9.845,34.52 L16.665,34.52 C21.615,34.52 23.815,32.705 23.815,29.735 L23.815,24.95 C23.815,21.98 21.615,20.165 16.665,20.165 Z M34.54,45.905 L34.54,32.815 C34.54,28.305 37.785,25.28 45.54,25.28 C53.295,25.28 56.54,28.305 56.54,32.815 L56.54,45.905 C56.54,50.415 53.295,53.44 45.54,53.44 C37.785,53.44 34.54,50.415 34.54,45.905 Z M51.315,45.465 L51.315,33.255 C51.315,30.89 49.665,29.57 45.54,29.57 C41.415,29.57 39.765,30.89 39.765,33.255 L39.765,45.465 C39.765,47.83 41.415,49.15 45.54,49.15 C49.665,49.15 51.315,47.83 51.315,45.465 Z M68.97,15.655 L68.97,51.9 C68.97,52.67 68.695,53 67.98,53 L64.79,53 C64.02,53 63.745,52.67 63.745,51.9 L63.745,15.655 C63.745,14.885 64.02,14.555 64.79,14.555 L67.98,14.555 C68.695,14.555 68.97,14.885 68.97,15.655 Z M79.09,26.82 L84.425,42.715 C84.92,44.255 85.195,46.29 85.25,46.51 C85.305,46.235 85.745,44.31 86.24,42.825 L91.685,26.82 C91.905,26.105 92.18,25.72 92.895,25.72 L95.865,25.72 C96.58,25.72 97.02,26.105 96.8,26.82 L84.37,63.175 C84.205,63.725 83.93,64.22 83.215,64.22 L80.85,64.22 C80.08,64.22 79.64,63.89 79.86,63.175 L82.94,53.44 L73.7,26.82 C73.48,26.105 73.92,25.72 74.635,25.72 L77.88,25.72 C78.595,25.72 78.87,26.16 79.09,26.82 Z M108.35,53.44 C103.015,53.44 100.595,50.47 100.595,45.96 L100.595,32.76 C100.595,28.25 103.015,25.28 108.35,25.28 C112.915,25.28 115.94,27.315 117.48,28.58 L117.59,26.82 C117.645,26.05 117.865,25.72 118.635,25.72 L121.55,25.72 C122.32,25.72 122.595,26.05 122.595,26.82 L122.595,56.685 C122.595,61.195 119.46,64.22 111.705,64.22 L104.115,64.22 C103.345,64.22 103.015,63.945 103.015,63.175 L103.015,60.865 C103.015,60.15 103.345,59.82 104.115,59.82 L111.705,59.82 C115.83,59.82 117.37,58.445 117.37,56.135 L117.37,50.36 C115.72,51.57 112.805,53.44 108.35,53.44 Z M105.82,33.585 L105.82,45.135 C105.82,47.06 106.755,48.71 109.89,48.71 C113.355,48.71 116.16,46.785 117.37,45.905 L117.37,32.87 C116.16,31.935 113.355,30.01 109.89,30.01 C106.755,30.01 105.82,31.66 105.82,33.585 Z M144.155,25.28 C144.87,25.28 145.255,25.61 145.255,26.325 L145.255,28.855 C145.255,29.625 144.87,29.9 144.155,29.955 C140.03,30.23 136.895,32.375 135.63,33.475 L135.63,51.9 C135.63,52.67 135.355,53 134.64,53 L131.45,53 C130.68,53 130.405,52.67 130.405,51.9 L130.405,26.765 C130.405,26.05 130.68,25.72 131.45,25.72 L134.365,25.72 C135.135,25.72 135.355,26.05 135.41,26.765 L135.575,29.13 C137.06,27.645 140.14,25.28 144.155,25.28 Z M149.765,33.53 L149.765,32.705 C149.765,28.305 152.625,25.28 160.16,25.28 C167.915,25.28 170.555,28.305 170.555,32.705 L170.555,51.9 C170.555,52.67 170.28,53 169.565,53 L166.705,53 C165.935,53 165.715,52.67 165.66,51.9 L165.55,50.305 C163.955,51.57 161.04,53.44 156.86,53.44 C151.745,53.44 149.105,50.36 149.105,46.785 L149.105,44.145 C149.105,40.57 151.635,37.49 156.75,37.49 L165.44,37.49 L165.44,33.255 C165.44,31 164.285,29.515 160.105,29.515 C155.925,29.515 154.66,30.835 154.66,33.09 L154.66,33.53 C154.66,34.3 154.385,34.63 153.615,34.63 L150.755,34.63 C150.04,34.63 149.765,34.3 149.765,33.53 Z M158.18,49.095 C161.535,49.095 164.175,47.28 165.44,46.29 L165.44,41.56 L157.85,41.56 C155.1,41.56 154.22,42.77 154.22,44.915 L154.22,46.015 C154.22,48.16 155.43,49.095 158.18,49.095 Z M188.21,53 L184.525,53 C183.81,53 183.645,52.725 183.425,52.01 L174.955,26.82 C174.735,26.105 175.175,25.72 175.89,25.72 L179.245,25.72 C179.96,25.72 180.235,26.16 180.455,26.82 L185.68,42.605 C186.175,44.145 186.45,46.29 186.505,46.675 C186.56,46.29 186.945,43.98 187.44,42.66 L192.94,26.82 C193.16,26.16 193.38,25.72 194.095,25.72 L197.12,25.72 C197.835,25.72 198.275,26.105 198.055,26.82 L189.255,52.01 C189.035,52.725 188.87,53 188.21,53 Z M208.01,26.82 L208.01,51.9 C208.01,52.67 207.735,53 207.02,53 L203.83,53 C203.06,53 202.785,52.67 202.785,51.9 L202.785,26.82 C202.785,26.05 203.06,25.72 203.83,25.72 L207.02,25.72 C207.735,25.72 208.01,26.05 208.01,26.82 Z M208.01,15.655 L208.01,20.605 C208.01,21.32 207.735,21.65 207.02,21.65 L203.83,21.65 C203.06,21.65 202.785,21.32 202.785,20.605 L202.785,15.655 C202.785,14.885 203.06,14.555 203.83,14.555 L207.02,14.555 C207.735,14.555 208.01,14.885 208.01,15.655 Z M222.42,25.83 L228.085,25.83 C228.8,25.83 229.13,26.105 229.13,26.82 L229.13,29.02 C229.13,29.79 228.8,30.12 228.085,30.12 L222.42,30.12 L222.42,44.915 C222.42,47.225 223.85,48.545 227.975,48.545 L229.02,48.545 C229.735,48.545 230.065,48.875 230.065,49.645 L230.065,51.955 C230.065,52.725 229.735,53 229.02,53 L227.205,53 C219.45,53 217.14,50.305 217.14,45.465 L217.14,30.12 L214.115,30.12 C213.345,30.12 213.07,29.79 213.07,29.02 L213.07,27.095 C213.07,26.38 213.345,26.105 214.115,26.05 L216.81,25.83 L217.14,25.83 L217.14,20.275 C217.14,19.505 217.47,19.175 218.185,19.175 L221.43,19.175 C222.145,19.175 222.42,19.505 222.42,20.275 L222.42,25.83 Z M237.71,26.82 L243.045,42.715 C243.54,44.255 243.815,46.29 243.87,46.51 C243.925,46.235 244.365,44.31 244.86,42.825 L250.305,26.82 C250.525,26.105 250.8,25.72 251.515,25.72 L254.485,25.72 C255.2,25.72 255.64,26.105 255.42,26.82 L242.99,63.175 C242.825,63.725 242.55,64.22 241.835,64.22 L239.47,64.22 C238.7,64.22 238.26,63.89 238.48,63.175 L241.56,53.44 L232.32,26.82 C232.1,26.105 232.54,25.72 233.255,25.72 L236.5,25.72 C237.215,25.72 237.49,26.16 237.71,26.82 Z" id="Polygravity"></path>
        </g>
        <path d="M262.402,11.758 L262.402,12.574 L261.25,12.574 L261.25,16 L260.218,16 L260.218,12.574 L259.078,12.574 L259.078,11.758 L262.402,11.758 Z M267.604,11.788 L267.604,16 L266.578,16 L266.578,13.366 L265.666,16 L264.778,16 L263.86,13.36 L263.86,16 L262.834,16 L262.834,11.788 L264.088,11.788 L265.234,14.722 L266.356,11.788 L267.604,11.788 Z" id="TM" fill="#232224"></path>
    </g>
</svg>