<?xml version="1.0" encoding="UTF-8"?>
<svg width="492px" height="94px" viewBox="0 0 492 94" version="1.1" xmlns="http://www.w3.org/2000/svg" xmlns:xlink="http://www.w3.org/1999/xlink">
    <!-- Generator: Sketch 49.1 (51147) - http://www.bohemiancoding.com/sketch -->
    <title>logo</title>
    <desc>Created with Sketch.</desc>
    <defs></defs>
    <g id="logo" stroke="none" stroke-width="1" fill="none" fill-rule="evenodd">
        <g id="Group" transform="translate(126.000000, 19.000000)" fill="#FFFFFF">
            <path d="M17.028,34.772 L7.604,34.772 L7.604,52.48 C7.604,53.544 7.3,54 6.236,54 L1.6,54 C0.612,54 0.232,53.544 0.232,52.48 L0.232,3.84 C0.232,2.776 0.612,2.32 1.6,2.32 L17.028,2.32 C30.1,2.32 34.28,7.792 34.28,14.024 L34.28,23.068 C34.28,29.3 30.1,34.772 17.028,34.772 Z M17.028,8.628 L7.604,8.628 L7.604,28.464 L17.028,28.464 C23.868,28.464 26.908,25.956 26.908,21.852 L26.908,15.24 C26.908,11.136 23.868,8.628 17.028,8.628 Z M41.728,44.196 L41.728,26.108 C41.728,19.876 46.212,15.696 56.928,15.696 C67.644,15.696 72.128,19.876 72.128,26.108 L72.128,44.196 C72.128,50.428 67.644,54.608 56.928,54.608 C46.212,54.608 41.728,50.428 41.728,44.196 Z M64.908,43.588 L64.908,26.716 C64.908,23.448 62.628,21.624 56.928,21.624 C51.228,21.624 48.948,23.448 48.948,26.716 L48.948,43.588 C48.948,46.856 51.228,48.68 56.928,48.68 C62.628,48.68 64.908,46.856 64.908,43.588 Z M89.304,2.396 L89.304,52.48 C89.304,53.544 88.924,54 87.936,54 L83.528,54 C82.464,54 82.084,53.544 82.084,52.48 L82.084,2.396 C82.084,1.332 82.464,0.876 83.528,0.876 L87.936,0.876 C88.924,0.876 89.304,1.332 89.304,2.396 Z M103.288,17.824 L110.66,39.788 C111.344,41.916 111.724,44.728 111.8,45.032 C111.876,44.652 112.484,41.992 113.168,39.94 L120.692,17.824 C120.996,16.836 121.376,16.304 122.364,16.304 L126.468,16.304 C127.456,16.304 128.064,16.836 127.76,17.824 L110.584,68.06 C110.356,68.82 109.976,69.504 108.988,69.504 L105.72,69.504 C104.656,69.504 104.048,69.048 104.352,68.06 L108.608,54.608 L95.84,17.824 C95.536,16.836 96.144,16.304 97.132,16.304 L101.616,16.304 C102.604,16.304 102.984,16.912 103.288,17.824 Z M143.72,54.608 C136.348,54.608 133.004,50.504 133.004,44.272 L133.004,26.032 C133.004,19.8 136.348,15.696 143.72,15.696 C150.028,15.696 154.208,18.508 156.336,20.256 L156.488,17.824 C156.564,16.76 156.868,16.304 157.932,16.304 L161.96,16.304 C163.024,16.304 163.404,16.76 163.404,17.824 L163.404,59.092 C163.404,65.324 159.072,69.504 148.356,69.504 L137.868,69.504 C136.804,69.504 136.348,69.124 136.348,68.06 L136.348,64.868 C136.348,63.88 136.804,63.424 137.868,63.424 L148.356,63.424 C154.056,63.424 156.184,61.524 156.184,58.332 L156.184,50.352 C153.904,52.024 149.876,54.608 143.72,54.608 Z M140.224,27.172 L140.224,43.132 C140.224,45.792 141.516,48.072 145.848,48.072 C150.636,48.072 154.512,45.412 156.184,44.196 L156.184,26.184 C154.512,24.892 150.636,22.232 145.848,22.232 C141.516,22.232 140.224,24.512 140.224,27.172 Z M193.196,15.696 C194.184,15.696 194.716,16.152 194.716,17.14 L194.716,20.636 C194.716,21.7 194.184,22.08 193.196,22.156 C187.496,22.536 183.164,25.5 181.416,27.02 L181.416,52.48 C181.416,53.544 181.036,54 180.048,54 L175.64,54 C174.576,54 174.196,53.544 174.196,52.48 L174.196,17.748 C174.196,16.76 174.576,16.304 175.64,16.304 L179.668,16.304 C180.732,16.304 181.036,16.76 181.112,17.748 L181.34,21.016 C183.392,18.964 187.648,15.696 193.196,15.696 Z M200.948,27.096 L200.948,25.956 C200.948,19.876 204.9,15.696 215.312,15.696 C226.028,15.696 229.676,19.876 229.676,25.956 L229.676,52.48 C229.676,53.544 229.296,54 228.308,54 L224.356,54 C223.292,54 222.988,53.544 222.912,52.48 L222.76,50.276 C220.556,52.024 216.528,54.608 210.752,54.608 C203.684,54.608 200.036,50.352 200.036,45.412 L200.036,41.764 C200.036,36.824 203.532,32.568 210.6,32.568 L222.608,32.568 L222.608,26.716 C222.608,23.6 221.012,21.548 215.236,21.548 C209.46,21.548 207.712,23.372 207.712,26.488 L207.712,27.096 C207.712,28.16 207.332,28.616 206.268,28.616 L202.316,28.616 C201.328,28.616 200.948,28.16 200.948,27.096 Z M212.576,48.604 C217.212,48.604 220.86,46.096 222.608,44.728 L222.608,38.192 L212.12,38.192 C208.32,38.192 207.104,39.864 207.104,42.828 L207.104,44.348 C207.104,47.312 208.776,48.604 212.576,48.604 Z M254.072,54 L248.98,54 C247.992,54 247.764,53.62 247.46,52.632 L235.756,17.824 C235.452,16.836 236.06,16.304 237.048,16.304 L241.684,16.304 C242.672,16.304 243.052,16.912 243.356,17.824 L250.576,39.636 C251.26,41.764 251.64,44.728 251.716,45.26 C251.792,44.728 252.324,41.536 253.008,39.712 L260.608,17.824 C260.912,16.912 261.216,16.304 262.204,16.304 L266.384,16.304 C267.372,16.304 267.98,16.836 267.676,17.824 L255.516,52.632 C255.212,53.62 254.984,54 254.072,54 Z M281.432,17.824 L281.432,52.48 C281.432,53.544 281.052,54 280.064,54 L275.656,54 C274.592,54 274.212,53.544 274.212,52.48 L274.212,17.824 C274.212,16.76 274.592,16.304 275.656,16.304 L280.064,16.304 C281.052,16.304 281.432,16.76 281.432,17.824 Z M281.432,2.396 L281.432,9.236 C281.432,10.224 281.052,10.68 280.064,10.68 L275.656,10.68 C274.592,10.68 274.212,10.224 274.212,9.236 L274.212,2.396 C274.212,1.332 274.592,0.876 275.656,0.876 L280.064,0.876 C281.052,0.876 281.432,1.332 281.432,2.396 Z M301.344,16.456 L309.172,16.456 C310.16,16.456 310.616,16.836 310.616,17.824 L310.616,20.864 C310.616,21.928 310.16,22.384 309.172,22.384 L301.344,22.384 L301.344,42.828 C301.344,46.02 303.32,47.844 309.02,47.844 L310.464,47.844 C311.452,47.844 311.908,48.3 311.908,49.364 L311.908,52.556 C311.908,53.62 311.452,54 310.464,54 L307.956,54 C297.24,54 294.048,50.276 294.048,43.588 L294.048,22.384 L289.868,22.384 C288.804,22.384 288.424,21.928 288.424,20.864 L288.424,18.204 C288.424,17.216 288.804,16.836 289.868,16.76 L293.592,16.456 L294.048,16.456 L294.048,8.78 C294.048,7.716 294.504,7.26 295.492,7.26 L299.976,7.26 C300.964,7.26 301.344,7.716 301.344,8.78 L301.344,16.456 Z M322.472,17.824 L329.844,39.788 C330.528,41.916 330.908,44.728 330.984,45.032 C331.06,44.652 331.668,41.992 332.352,39.94 L339.876,17.824 C340.18,16.836 340.56,16.304 341.548,16.304 L345.652,16.304 C346.64,16.304 347.248,16.836 346.944,17.824 L329.768,68.06 C329.54,68.82 329.16,69.504 328.172,69.504 L324.904,69.504 C323.84,69.504 323.232,69.048 323.536,68.06 L327.792,54.608 L315.024,17.824 C314.72,16.836 315.328,16.304 316.316,16.304 L320.8,16.304 C321.788,16.304 322.168,16.912 322.472,17.824 Z" id="Polygravity"></path>
            <path d="M355.924714,16.4964981 L355.924714,17.9354631 L353.893234,17.9354631 L353.893234,23.977 L352.073367,23.977 L352.073367,17.9354631 L350.063048,17.9354631 L350.063048,16.4964981 L355.924714,16.4964981 Z M365.098116,16.5494013 L365.098116,23.977 L363.288829,23.977 L363.288829,19.3321056 L361.680574,23.977 L360.114642,23.977 L358.495806,19.321525 L358.495806,23.977 L356.686519,23.977 L356.686519,16.5494013 L358.89787,16.5494013 L360.918769,21.7233269 L362.897346,16.5494013 L365.098116,16.5494013 Z" id="TM"></path>
        </g>
        <g id="Group-12" fill="#FFFFFF" fill-rule="nonzero">
            <path d="M39.2215035,39.2220219 C34.9261655,43.5180511 34.9261655,50.4830407 39.2215035,54.7779781 C43.5168415,59.0740073 50.4818928,59.0740073 54.777954,54.7779781 C59.0740153,50.4830407 59.0740153,43.5176871 54.777954,39.2220219 C50.4818928,34.9259927 43.5168415,34.9259927 39.2215035,39.2220219 Z" id="Shape"></path>
            <path d="M76.3888762,13.3887689 C78.5370413,11.2404608 78.5370413,7.75845932 76.3888762,5.6112311 C74.2407112,3.46292297 70.7592888,3.46292297 68.6111238,5.6112311 C66.4629587,7.75845932 66.4629587,11.2408207 68.6111238,13.3887689 C70.7592888,15.537077 74.2407112,15.537077 76.3888762,13.3887689 Z" id="Shape"></path>
            <path d="M8.31767833,73.3180029 C6.56077389,75.07534 6.56077389,77.92466 8.31767833,79.6819971 C10.0745828,81.4393343 12.9242611,81.4393343 14.6815213,79.6819971 C16.4394929,77.92466 16.4394929,75.0756979 14.6815213,73.3180029 C12.9242611,71.5606657 10.0745828,71.5606657 8.31767833,73.3180029 Z" id="Shape"></path>
            <path d="M83.6111238,63.6110007 C81.4629587,65.7593615 81.4629587,69.2414484 83.6111238,71.3887294 C85.7592888,73.5370902 89.2407112,73.5370902 91.3888762,71.3887294 C93.5370413,69.2414484 93.5370413,65.7590015 91.3888762,63.6110007 C89.2407112,61.4629998 85.7592888,61.4629998 83.6111238,63.6110007 Z" id="Shape"></path>
            <path d="M38.8283214,72.1713967 C37.2660833,70.6095344 34.7339167,70.6095344 33.1716786,72.1713967 C31.6094405,73.7332591 31.6094405,76.2662166 33.1716786,77.8280789 C34.7339167,79.3906404 37.2660833,79.3906404 38.8283214,77.8280789 C40.3905595,76.2662166 40.3905595,73.7332591 38.8283214,72.1713967 Z" id="Shape"></path>
            <path d="M60.1716786,86.1713967 C58.6094405,87.7332591 58.6094405,90.2662166 60.1716786,91.8280789 C61.7339167,93.3906404 64.2660833,93.3906404 65.8283214,91.8280789 C67.3905595,90.2662166 67.3905595,87.7332591 65.8283214,86.1713967 C64.2660833,84.6095344 61.7339167,84.6095344 60.1716786,86.1713967 Z" id="Shape"></path>
            <path d="M54.1487871,19.9583244 C54.2654564,19.9883789 54.3853112,20 54.5031751,20 C55.1769103,20 55.7921119,19.5407669 55.9577583,18.8543215 C56.1520744,18.0472574 55.6575241,17.2381896 54.8535811,17.0426348 C54.047249,16.84708 53.2377314,17.3427793 53.042619,18.1498435 C52.8471083,18.9537018 53.3428532,19.7627696 54.1487871,19.9583244 Z" id="Shape"></path>
            <path d="M24.6932317,64.5905463 C24.1924565,63.9338599 23.2498675,63.8043668 22.5897366,64.3055011 C21.9339879,64.8066354 21.8045114,65.7495697 22.3052867,66.4094633 C22.602485,66.7959381 23.0494777,67 23.4992592,67 C23.8167754,67 24.1350884,66.900575 24.4087818,66.6945085 C25.0689128,66.1925724 25.1944054,65.2504399 24.6932317,64.5905463 Z" id="Shape"></path>
            <path d="M60.7665708,22.8076238 C60.9978744,22.9398824 61.2490837,23 61.4983024,23 C62.0222191,23 62.5322019,22.7234591 62.8080942,22.2353044 C63.2133732,21.5114888 62.955396,20.5973008 62.2352096,20.1917076 L62.2320247,20.1917076 C61.5130326,19.7869159 60.5985671,20.0442191 60.1932881,20.7652293 C59.7856204,21.4878425 60.0443938,22.4028321 60.7665708,22.8076238 Z" id="Shape"></path>
            <path d="M31.7524624,21.6740436 C31.2960342,20.9838762 30.3668484,20.7913833 29.6738422,21.2477519 C28.9832258,21.7041206 28.7920517,22.6345032 29.247285,23.3246706 C29.5360376,23.762592 30.0123797,24 30.5014668,24 C30.7838469,24 31.0682184,23.9217997 31.3239137,23.7541705 C32.0165216,23.2978018 32.2084922,22.3674192 31.7524624,21.6740436 Z" id="Shape"></path>
            <path d="M17.2482421,43.9787621 C17.3318461,43.9935886 17.4158482,44 17.4994522,44 C18.2164561,44 18.8518465,43.483479 18.978845,42.752175 C19.1165926,41.9367209 18.5671948,41.1625405 17.7518567,41.021489 C16.9361205,40.8828418 16.1597976,41.4294164 16.02205,42.2480761 C15.8811175,43.0639309 16.4305153,43.8377106 17.2482421,43.9787621 Z" id="Shape"></path>
            <path d="M15.0078593,50.6538157 C15.0883006,51.4242079 15.739796,52 16.4984137,52 C16.5493865,52 16.6003592,51.9955955 16.6545177,51.9903901 C17.4756567,51.9059032 18.0761793,51.1691456 17.9921539,50.3487019 C17.9085268,49.5242542 17.1698203,48.9244374 16.3454955,49.007723 C15.5231618,49.0954132 14.9238339,49.8293679 15.0078593,50.6538157 Z" id="Shape"></path>
            <path d="M37.5013177,20 C37.650999,20 37.8046611,19.9755539 37.9543424,19.9274632 C38.7433538,19.6785941 39.180455,18.8362059 38.928863,18.0471183 C38.6796596,17.2592329 37.8377025,16.8204056 37.048293,17.0700763 C36.2572911,17.3209493 35.8189957,18.1645397 36.0713838,18.952425 C36.2756032,19.5920309 36.8631818,20 37.5013177,20 Z" id="Shape"></path>
            <path d="M24.5,29 C24.91697,29 25.33394,28.8260921 25.6310361,28.4834855 C26.174252,27.8599816 26.1105316,26.911903 25.4868688,26.3697431 C24.8628077,25.8243775 23.9153659,25.8904946 23.3689639,26.5139985 C22.825748,27.1375024 22.8894684,28.085581 23.5131312,28.6309466 C23.7974832,28.8773829 24.1487416,29 24.5,29 Z" id="Shape"></path>
            <path d="M60.1433478,75.855703 C60.8932034,75.4989686 61.2100214,74.6051286 60.8538002,73.8543831 C60.4975789,73.1068442 59.6036427,72.7897916 58.8569712,73.1465259 C58.1083096,73.5008553 57.7891035,74.397902 58.1465188,75.1446392 C58.4040329,75.6849515 58.9417479,76 59.5017515,76 C59.7182704,76 59.9363812,75.9551076 60.1433478,75.855703 Z" id="Shape"></path>
            <path d="M69.5407166,25.4351061 C68.9578267,24.8544354 68.0151719,24.8544354 67.4342565,25.4382878 C66.8545258,26.0177654 66.8545258,26.9619518 67.4386006,27.5426224 C67.4417599,27.5458042 67.4468937,27.5477928 67.450053,27.5509745 C67.4532123,27.557338 67.4583462,27.5605198 67.4615054,27.5656902 C67.7509759,27.8548323 68.1304862,28 68.5115762,28 C68.8922713,28 69.2733613,27.8548323 69.5648063,27.5656902 C70.1445369,26.9862127 70.1445369,26.045208 69.5679656,25.4645373 C69.5584877,25.4534012 69.5490098,25.4438559 69.5407166,25.4351061 Z" id="Shape"></path>
            <path d="M76.4969008,42 C76.6135731,42 76.7334309,41.9851734 76.8512978,41.9583252 C77.6576506,41.7607708 78.1518154,40.950517 77.9578925,40.1466748 C77.7595895,39.3396268 76.9500511,38.8475439 76.1460876,39.042694 C75.3397348,39.2382449 74.847561,40.0484986 75.0426784,40.8543445 C75.2067364,41.537971 75.8223519,42 76.4969008,42 Z" id="Shape"></path>
            <path d="M73.3237084,62.2473417 C72.6307763,61.7914364 71.7004951,61.9837339 71.2453104,62.6764054 C70.7921169,63.369077 70.9844653,64.2989154 71.6769991,64.7512151 C71.9282865,64.9186742 72.2170082,65 72.4981634,65 C72.9840123,65 73.4646842,64.7600288 73.7522112,64.3221514 C74.2085906,63.6294798 74.0166404,62.6996414 73.3237084,62.2473417 Z" id="Shape"></path>
            <path d="M51.2453562,75.0219943 C50.4294499,75.1630219 49.8811322,75.9366704 50.0220941,76.7523867 C50.147128,77.4847686 50.78066,78 51.4966188,78 C51.5814348,78 51.66864,77.9903845 51.755447,77.9755606 C52.5713533,77.8377382 53.1164855,77.0608845 52.9787092,76.2451682 C52.8377473,75.4298525 52.0612626,74.8813674 51.2453562,75.0219943 Z" id="Shape"></path>
            <path d="M76.930452,56.9504131 C77.1786649,56.1613194 76.741603,55.3189247 75.9519434,55.0700536 C75.1634789,54.8211825 74.3204315,55.2560056 74.0710234,56.0479047 C73.8196231,56.8357962 74.256685,57.6781908 75.0495321,57.9282642 C75.1993363,57.9763552 75.3519295,58 75.5017337,58 C76.1388003,58 76.7288537,57.5888216 76.930452,56.9504131 Z" id="Shape"></path>
            <path d="M76.4477787,50 L76.4987808,50 C77.3064469,50 77.9722634,49.361534 77.9989598,48.5511271 C78.0296408,47.7226844 77.3777702,47.0305119 76.5497829,47.0008531 C75.7217956,46.9731983 75.0284858,47.6212834 75.0009925,48.449726 C74.9711084,49.2769663 75.6197914,49.9699404 76.4477787,50 Z" id="Shape"></path>
            <path d="M1.49964155,48 C2.31555969,48 2.98055885,47.3486892 2.9996726,46.5326468 C3.01679533,45.704981 2.36015843,45.0183992 1.53229421,45.0003629 C0.704828182,44.9823266 0.0175296465,45.6388479 0.000406913562,46.4677161 C-0.0187068348,47.2953819 0.637930063,47.9819637 1.4665907,48 L1.49964155,48 Z" id="Shape"></path>
            <path d="M1.26530562,53.0186411 C0.448979503,53.1477945 -0.112369207,53.9162977 0.0191035215,54.7357402 C0.137030575,55.474161 0.772880497,56 1.49876932,56 C1.57725455,56 1.65494298,55.9935824 1.73661544,55.9819506 C2.55294156,55.8527972 3.10990784,55.084294 2.98162233,54.2648515 C2.85174321,53.4450079 2.08362376,52.8894877 1.26530562,53.0186411 Z" id="Shape"></path>
            <path d="M92.4996478,46 C92.5327058,46 92.5653655,46 92.6016098,45.996794 C93.4260685,45.9422917 94.0501877,45.2257473 93.9968169,44.4018014 C93.9426496,43.5734472 93.2253307,42.9498772 92.400872,43.0031772 C91.5732271,43.0596833 90.9491079,43.7742239 91.0032752,44.6025781 C91.0566459,45.3948646 91.7166112,46 92.4996478,46 Z" id="Shape"></path>
            <path d="M50.4008004,2.99679397 C50.4370443,3 50.4697036,3 50.5027611,3 C51.2857877,3 51.9457445,2.3912549 51.9967249,1.59936528 C52.0508915,0.774213097 51.4267803,0.0576652073 50.5991459,0.00316268323 C49.7735029,-0.0501375793 49.0573881,0.576641448 49.0032215,1.40059137 C48.9494531,2.22935034 49.5751574,2.9426922 50.4008004,2.99679397 Z" id="Shape"></path>
            <path d="M5.05590166,29.1067053 C4.28743397,28.8014733 3.41379497,29.1727988 3.10824043,29.9434895 C2.79949887,30.7105751 3.1739725,31.583811 3.94244019,31.8922475 C4.12489648,31.963949 4.3137268,31.9967955 4.50056524,32 C5.09494253,32 5.65864485,31.6402909 5.89289005,31.0554632 C6.19924135,30.2879771 5.82636123,29.4151418 5.05590166,29.1067053 Z" id="Shape"></path>
            <path d="M33.4973683,5 C33.6415306,5 33.7848964,4.97876403 33.9290586,4.93388801 C34.723544,4.69708688 35.1735532,3.86006902 34.9369997,3.06912921 C34.6972602,2.27378193 33.8601634,1.82462107 33.0684657,2.06462763 C32.2739803,2.30142876 31.8259623,3.13764527 32.0637105,3.92938644 C32.2592455,4.58048937 32.8522223,5 33.4973683,5 Z" id="Shape"></path>
            <path d="M84.4998884,23 C84.7970337,23 85.0941791,22.9134179 85.3542808,22.7330385 C86.0354049,22.2588412 86.2042918,21.3232735 85.7330814,20.6454478 C85.2586845,19.9640146 84.3226368,19.7964622 83.6446993,20.2662503 C82.964372,20.7404476 82.7958834,21.6736103 83.2670937,22.3550435 C83.5574677,22.7747262 84.0254915,23 84.4998884,23 Z" id="Shape"></path>
            <path d="M88.4999579,30 C88.7099779,30 88.9203965,29.9551456 89.1212505,29.8654367 C89.8752503,29.5230212 90.2072175,28.6331414 89.8656858,27.8810288 C89.5237557,27.1257123 88.6350562,26.7925079 87.8790638,27.1341225 C87.125064,27.476538 86.7930969,28.3664178 87.1338314,29.1185304 C87.3829064,29.6704001 87.9296758,30 88.4999579,30 Z" id="Shape"></path>
            <path d="M25.8186893,5.16330299 C25.0809261,5.54107523 24.7869362,6.44404304 25.1649801,7.18156023 C25.4290929,7.70034609 25.9565219,8 26.5030722,8 C26.7301375,8 26.9647717,7.94551747 27.1834715,7.83454938 C27.9212347,7.45677713 28.2128344,6.55380932 27.8339938,5.81749395 C27.4595352,5.07997676 26.5564525,4.78873559 25.8186893,5.16330299 Z" id="Shape"></path>
            <path d="M39.7322989,91.0184923 C38.9125435,90.8894192 38.1469868,91.4498048 38.0186634,92.2691382 C37.8891444,93.0880707 38.4474708,93.8540913 39.2672262,93.9819618 C39.3449376,93.994789 39.423446,94 39.5007588,94 C40.226862,94 40.8672835,93.4756908 40.9808617,92.7345227 C41.1123732,91.9155902 40.5520543,91.1475654 39.7322989,91.0184923 Z" id="Shape"></path>
            <path d="M59.9546498,2.86314649 C60.1561432,2.06250046 59.6671435,1.24702765 58.8659485,1.04506289 C58.0587803,0.844300294 57.2460373,1.33318325 57.0453403,2.13703507 C56.8438469,2.94088689 57.3328467,3.75315391 58.1368292,3.95511868 C58.2598755,3.98517296 58.3829219,3.99999973 58.5027825,3.99999973 C59.1745599,4.00040046 59.7838185,3.54678119 59.9546498,2.86314649 Z" id="Shape"></path>
            <path d="M47.467137,91.0003801 C46.6399832,91.0184163 45.9835942,91.7049942 46.0003124,92.5326552 C46.0194189,93.3494945 46.6873515,94 47.4997773,94 L47.5360001,94 C48.364348,93.979559 49.0175526,93.2921795 48.9996402,92.4645185 C48.9813298,91.6364567 48.2942907,90.9819431 47.467137,91.0003801 Z" id="Shape"></path>
            <path d="M76.4859265,79.3924976 L76.4859265,79.3957039 C75.8766986,79.9539963 75.8340646,80.9010496 76.3934864,81.5130471 C76.6895337,81.8344761 77.0951543,82 77.4995797,82 C77.8625663,82 78.2267483,81.8709475 78.5144282,81.6072314 C79.1236561,81.0457327 79.1650948,80.0974771 78.6076652,79.4854795 C78.0462511,78.877089 77.0983419,78.8342051 76.4859265,79.3924976 Z" id="Shape"></path>
            <path d="M25.2406674,86.1981075 L25.2406674,86.1949048 C24.5201615,85.7873714 23.6056885,86.0391774 23.1950519,86.7613683 C22.7876017,87.4803566 23.0389224,88.3943044 23.7586318,88.8014375 C23.9932243,88.9335456 24.2477314,89 24.500247,89 C25.0224047,89 25.5286308,88.723774 25.8042472,88.238577 C26.2128924,87.5195887 25.9611733,86.6056409 25.2406674,86.1981075 Z" id="Shape"></path>
            <path d="M18.6571703,10.3423502 C18.3994034,10.0840462 18.1261127,9.8497198 17.8434355,9.63392152 C14.7069101,7.24124908 10.2086244,7.47557549 7.3425016,10.3423502 C4.30417314,13.380601 4.22222203,18.2545903 7.09231604,21.3945641 C7.17390614,21.4835718 7.2569403,21.5718529 7.3425016,21.6579543 C7.90244069,22.2163414 8.5244749,22.6740953 9.18549907,23.0333958 C12.2198563,24.6805833 16.0921366,24.2228294 18.6575313,21.6579543 C21.4045182,18.9099776 21.7352108,14.661222 19.6510532,11.5524917 C19.3651268,11.1252547 19.0340732,10.7187256 18.6571703,10.3423502 Z" id="Shape"></path>
            <circle id="Oval" cx="42" cy="2" r="2"></circle>
            <circle id="Oval" cx="2" cy="38" r="2"></circle>
            <circle id="Oval" cx="19" cy="58" r="2"></circle>
            <circle id="Oval" cx="73" cy="32" r="2"></circle>
            <circle id="Oval" cx="92" cy="52" r="2"></circle>
        </g>
    </g>
</svg>